<svg width="24" height="24" viewBox="0 0 24 24" fill="none" xmlns="http://www.w3.org/2000/svg">
<path d="M4.66667 14H14V11.6667H4.66667V14ZM4.66667 10.5H18.6667V8.16667H4.66667V10.5ZM4.66667 7H18.6667V4.66667H4.66667V7ZM0 23.3333V2.33333C0 1.69167 0.228472 1.14236 0.685417 0.685417C1.14236 0.228472 1.69167 0 2.33333 0H21C21.6417 0 22.191 0.228472 22.6479 0.685417C23.1049 1.14236 23.3333 1.69167 23.3333 2.33333V16.3333C23.3333 16.975 23.1049 17.5243 22.6479 17.9813C22.191 18.4382 21.6417 18.6667 21 18.6667H4.66667L0 23.3333ZM3.675 16.3333H21V2.33333H2.33333V17.6458L3.675 16.3333Z" fill="#A8A8A8"/>
</svg>
