<svg width="26" height="25" viewBox="0 0 26 25" fill="none" xmlns="http://www.w3.org/2000/svg">
<path d="M3.47083 21V10.0625L1.37083 11.6667L0 9.82917L12.8042 0L25.6375 9.8L24.2375 11.6667L12.8042 2.91667L5.80417 8.28333V18.6667H10.4708V21H3.47083ZM19.2208 23.7708C18.4042 24.3347 17.5049 24.5729 16.5229 24.4854C15.541 24.3979 14.7 24.0042 14 23.3042C13.3 22.6042 12.9063 21.7632 12.8188 20.7812C12.7313 19.7993 12.9694 18.9 13.5333 18.0833C12.9694 17.2667 12.7313 16.3674 12.8188 15.3854C12.9063 14.4035 13.3 13.5625 14 12.8625C14.7 12.1625 15.541 11.7688 16.5229 11.6812C17.5049 11.5938 18.4042 11.8319 19.2208 12.3958C20.0375 11.8319 20.9368 11.5938 21.9188 11.6812C22.9007 11.7688 23.7417 12.1625 24.4417 12.8625C25.1417 13.5625 25.5354 14.4035 25.6229 15.3854C25.7104 16.3674 25.4722 17.2667 24.9083 18.0833C25.4722 18.9 25.7104 19.7993 25.6229 20.7812C25.5354 21.7632 25.1417 22.6042 24.4417 23.3042C23.7417 24.0042 22.9007 24.3979 21.9188 24.4854C20.9368 24.5729 20.0375 24.3347 19.2208 23.7708ZM19.2208 20.9125L20.5625 21.8458C20.9125 22.0986 21.2917 22.2056 21.7 22.1667C22.1083 22.1278 22.4681 21.9528 22.7792 21.6417C23.0903 21.3306 23.2653 20.9708 23.3042 20.5625C23.3431 20.1542 23.2361 19.775 22.9833 19.425L22.05 18.0833L22.9833 16.7417C23.2361 16.3917 23.3431 16.0125 23.3042 15.6042C23.2653 15.1958 23.0903 14.8361 22.7792 14.525C22.4681 14.2139 22.1083 14.0389 21.7 14C21.2917 13.9611 20.9125 14.0681 20.5625 14.3208L19.2208 15.2542L17.8792 14.3208C17.5292 14.0681 17.15 13.9611 16.7417 14C16.3333 14.0389 15.9736 14.2139 15.6625 14.525C15.3514 14.8361 15.1764 15.1958 15.1375 15.6042C15.0986 16.0125 15.2056 16.3917 15.4583 16.7417L16.3917 18.0833L15.4583 19.425C15.2056 19.775 15.0986 20.1542 15.1375 20.5625C15.1764 20.9708 15.3514 21.3306 15.6625 21.6417C15.9736 21.9528 16.3333 22.1278 16.7417 22.1667C17.15 22.2056 17.5292 22.0986 17.8792 21.8458L19.2208 20.9125ZM20.2563 19.1187C20.5382 18.8368 20.6792 18.4917 20.6792 18.0833C20.6792 17.675 20.5382 17.3299 20.2563 17.0479C19.9743 16.766 19.6292 16.625 19.2208 16.625C18.8125 16.625 18.4674 16.766 18.1854 17.0479C17.9035 17.3299 17.7625 17.675 17.7625 18.0833C17.7625 18.4917 17.9035 18.8368 18.1854 19.1187C18.4674 19.4007 18.8125 19.5417 19.2208 19.5417C19.6292 19.5417 19.9743 19.4007 20.2563 19.1187Z" fill="#7448DD"/>
</svg>
