<svg width="19" height="19" viewBox="0 0 19 19" fill="none" xmlns="http://www.w3.org/2000/svg">
<path d="M12.6667 19L6.33333 16.7833L1.425 18.6833C1.07315 18.8241 0.747685 18.7845 0.448611 18.5646C0.149537 18.3447 0 18.05 0 17.6806V2.90278C0 2.67407 0.0659722 2.47176 0.197917 2.29583C0.329861 2.11991 0.510185 1.98796 0.738889 1.9L6.33333 0L12.6667 2.21667L17.575 0.316667C17.9269 0.175926 18.2523 0.215509 18.5514 0.435417C18.8505 0.655324 19 0.95 19 1.31944V16.0972C19 16.3259 18.934 16.5282 18.8021 16.7042C18.6701 16.8801 18.4898 17.012 18.2611 17.1L12.6667 19ZM11.6111 16.4139V4.06389L7.38889 2.58611V14.9361L11.6111 16.4139ZM13.7222 16.4139L16.8889 15.3583V2.85L13.7222 4.06389V16.4139ZM2.11111 16.15L5.27778 14.9361V2.58611L2.11111 3.64167V16.15Z" fill="#7448DD"/>
</svg>
