<svg width="24" height="24" viewBox="0 0 24 24" fill="none" xmlns="http://www.w3.org/2000/svg">
<path d="M4.49167 17.6167C5.48333 16.8583 6.59167 16.2604 7.81667 15.8229C9.04167 15.3854 10.325 15.1667 11.6667 15.1667C13.0083 15.1667 14.2917 15.3854 15.5167 15.8229C16.7417 16.2604 17.85 16.8583 18.8417 17.6167C19.5222 16.8194 20.0521 15.9153 20.4312 14.9042C20.8104 13.8931 21 12.8139 21 11.6667C21 9.08056 20.091 6.87847 18.2729 5.06042C16.4549 3.24236 14.2528 2.33333 11.6667 2.33333C9.08055 2.33333 6.87847 3.24236 5.06042 5.06042C3.24236 6.87847 2.33333 9.08056 2.33333 11.6667C2.33333 12.8139 2.52292 13.8931 2.90208 14.9042C3.28125 15.9153 3.81111 16.8194 4.49167 17.6167ZM8.76458 11.6521C7.97708 10.8646 7.58333 9.89722 7.58333 8.75C7.58333 7.60278 7.97708 6.63542 8.76458 5.84792C9.55208 5.06042 10.5194 4.66667 11.6667 4.66667C12.8139 4.66667 13.7812 5.06042 14.5687 5.84792C15.3562 6.63542 15.75 7.60278 15.75 8.75C15.75 9.89722 15.3562 10.8646 14.5687 11.6521C13.7812 12.4396 12.8139 12.8333 11.6667 12.8333C10.5194 12.8333 9.55208 12.4396 8.76458 11.6521ZM11.6667 23.3333C10.0528 23.3333 8.53611 23.0271 7.11667 22.4146C5.69722 21.8021 4.4625 20.9708 3.4125 19.9208C2.3625 18.8708 1.53125 17.6361 0.91875 16.2167C0.30625 14.7972 0 13.2806 0 11.6667C0 10.0528 0.30625 8.53611 0.91875 7.11667C1.53125 5.69722 2.3625 4.4625 3.4125 3.4125C4.4625 2.3625 5.69722 1.53125 7.11667 0.91875C8.53611 0.30625 10.0528 0 11.6667 0C13.2806 0 14.7972 0.30625 16.2167 0.91875C17.6361 1.53125 18.8708 2.3625 19.9208 3.4125C20.9708 4.4625 21.8021 5.69722 22.4146 7.11667C23.0271 8.53611 23.3333 10.0528 23.3333 11.6667C23.3333 13.2806 23.0271 14.7972 22.4146 16.2167C21.8021 17.6361 20.9708 18.8708 19.9208 19.9208C18.8708 20.9708 17.6361 21.8021 16.2167 22.4146C14.7972 23.0271 13.2806 23.3333 11.6667 23.3333ZM14.5833 20.5479C15.4972 20.2465 16.3333 19.8139 17.0917 19.25C16.3333 18.6861 15.4972 18.2535 14.5833 17.9521C13.6694 17.6507 12.6972 17.5 11.6667 17.5C10.6361 17.5 9.66389 17.6507 8.75 17.9521C7.83611 18.2535 7 18.6861 6.24167 19.25C7 19.8139 7.83611 20.2465 8.75 20.5479C9.66389 20.8493 10.6361 21 11.6667 21C12.6972 21 13.6694 20.8493 14.5833 20.5479ZM12.9208 10.0042C13.2514 9.67361 13.4167 9.25556 13.4167 8.75C13.4167 8.24444 13.2514 7.82639 12.9208 7.49583C12.5903 7.16528 12.1722 7 11.6667 7C11.1611 7 10.7431 7.16528 10.4125 7.49583C10.0819 7.82639 9.91667 8.24444 9.91667 8.75C9.91667 9.25556 10.0819 9.67361 10.4125 10.0042C10.7431 10.3347 11.1611 10.5 11.6667 10.5C12.1722 10.5 12.5903 10.3347 12.9208 10.0042Z" fill="#7448DD"/>
</svg>
