<svg width="21" height="24" viewBox="0 0 21 24" fill="none" xmlns="http://www.w3.org/2000/svg">
<path d="M2.33333 23.3333C1.69167 23.3333 1.14236 23.1049 0.685417 22.6479C0.228472 22.191 0 21.6417 0 21V4.66667C0 4.025 0.228472 3.47569 0.685417 3.01875C1.14236 2.56181 1.69167 2.33333 2.33333 2.33333H7.23333C7.48611 1.63333 7.90903 1.06944 8.50208 0.641667C9.09514 0.213889 9.76111 0 10.5 0C11.2389 0 11.9049 0.213889 12.4979 0.641667C13.091 1.06944 13.5139 1.63333 13.7667 2.33333H18.6667C19.3083 2.33333 19.8576 2.56181 20.3146 3.01875C20.7715 3.47569 21 4.025 21 4.66667V21C21 21.6417 20.7715 22.191 20.3146 22.6479C19.8576 23.1049 19.3083 23.3333 18.6667 23.3333H2.33333ZM2.33333 21H18.6667V4.66667H2.33333V21ZM4.66667 18.6667H12.8333V16.3333H4.66667V18.6667ZM4.66667 14H16.3333V11.6667H4.66667V14ZM4.66667 9.33333H16.3333V7H4.66667V9.33333ZM11.1271 3.54375C11.2924 3.37847 11.375 3.16944 11.375 2.91667C11.375 2.66389 11.2924 2.45486 11.1271 2.28958C10.9618 2.12431 10.7528 2.04167 10.5 2.04167C10.2472 2.04167 10.0382 2.12431 9.87292 2.28958C9.70764 2.45486 9.625 2.66389 9.625 2.91667C9.625 3.16944 9.70764 3.37847 9.87292 3.54375C10.0382 3.70903 10.2472 3.79167 10.5 3.79167C10.7528 3.79167 10.9618 3.70903 11.1271 3.54375Z" fill="#A8A8A8"/>
</svg>
