<svg width="19" height="24" viewBox="0 0 19 24" fill="none" xmlns="http://www.w3.org/2000/svg">
<path d="M0 19.8333V17.5H2.33333V9.33333C2.33333 7.71944 2.81944 6.28542 3.79167 5.03125C4.76389 3.77708 6.02778 2.95556 7.58333 2.56667V1.75C7.58333 1.26389 7.75347 0.850694 8.09375 0.510417C8.43403 0.170139 8.84722 0 9.33333 0C9.81944 0 10.2326 0.170139 10.5729 0.510417C10.9132 0.850694 11.0833 1.26389 11.0833 1.75V2.56667C12.6389 2.95556 13.9028 3.77708 14.875 5.03125C15.8472 6.28542 16.3333 7.71944 16.3333 9.33333V17.5H18.6667V19.8333H0ZM9.33333 23.3333C8.69167 23.3333 8.14236 23.1049 7.68542 22.6479C7.22847 22.191 7 21.6417 7 21H11.6667C11.6667 21.6417 11.4382 22.191 10.9812 22.6479C10.5243 23.1049 9.975 23.3333 9.33333 23.3333ZM4.66667 17.5H14V9.33333C14 8.05 13.5431 6.95139 12.6292 6.0375C11.7153 5.12361 10.6167 4.66667 9.33333 4.66667C8.05 4.66667 6.95139 5.12361 6.0375 6.0375C5.12361 6.95139 4.66667 8.05 4.66667 9.33333V17.5Z" fill="#5D5D5D"/>
</svg>
