<svg width="23" height="23" viewBox="0 0 23 23" fill="none" xmlns="http://www.w3.org/2000/svg">
<path d="M1.63333 22.1667L0 20.5333L8.77917 11.725L3.5 10.4125L9.275 6.825L8.77917 0L14 4.40417L20.3 1.8375L17.7625 8.16667L22.1667 13.3583L15.3417 12.8917L11.725 18.6667L10.4125 13.3875L1.63333 22.1667ZM2.33333 7L0 4.66667L2.33333 2.33333L4.66667 4.66667L2.33333 7ZM12.6875 12.7458L14.0875 10.4417L16.8 10.6458L15.05 8.575L16.0708 6.06667L13.5625 7.0875L11.4917 5.36667L11.6958 8.05L9.39167 9.47917L12.0167 10.1208L12.6875 12.7458ZM17.5 22.1667L15.1667 19.8333L17.5 17.5L19.8333 19.8333L17.5 22.1667Z" fill="#5D5D5D"/>
</svg>
