<svg width="402" height="874" viewBox="0 0 402 874" fill="none" xmlns="http://www.w3.org/2000/svg">
<g clip-path="url(#clip0_107_385)">
<rect width="402" height="874" fill="white"/>
<g filter="url(#filter0_d_107_385)">
<rect x="22" y="141" width="360" height="753" rx="24" fill="white"/>
</g>
<rect x="44" y="167" width="16" height="16" rx="4" fill="#D9D9D9"/>
<rect x="44" y="185" width="16" height="16" rx="4" fill="#D9D9D9"/>
<rect x="63" y="167" width="16" height="16" rx="4" fill="#D9D9D9"/>
<rect x="63" y="185" width="16" height="16" rx="4" fill="#D9D9D9"/>
<path d="M112.249 170.884V177.604H110.969V163.951H112.249V169.604H114.133V170.884H112.249ZM106.364 175.524C106.981 175.524 107.597 175.465 108.213 175.347C108.83 175.216 109.333 175.05 109.724 174.849V176.093C109.345 176.295 108.841 176.455 108.213 176.573C107.585 176.692 106.951 176.751 106.311 176.751H101.227V164.484H108.711V165.711H102.524V175.524H106.364ZM128.211 167.844H126.327V170.671H125.047V163.951H126.327V166.547H128.211V167.844ZM122.434 165.64C122.434 168.804 119.963 170.387 115.02 170.387V169.249C116.976 169.237 118.487 168.959 119.554 168.413C120.62 167.856 121.154 166.991 121.154 165.818V165.462H115.02V164.324H122.434V165.64ZM126.469 176.36V177.391H115.589V171.471H126.327V172.502H116.869V173.924H126.149V174.902H116.869V176.36H126.469ZM139.481 177.604V163.951H140.778V177.604H139.481ZM133.223 164.307C134.408 164.307 135.35 164.84 136.05 165.907C136.761 166.973 137.116 168.544 137.116 170.618C137.116 172.692 136.761 174.262 136.05 175.329C135.35 176.396 134.408 176.929 133.223 176.929C132.038 176.929 131.09 176.396 130.378 175.329C129.679 174.262 129.33 172.692 129.33 170.618C129.33 168.544 129.679 166.973 130.378 165.907C131.09 164.84 132.038 164.307 133.223 164.307ZM133.223 165.533C132.429 165.533 131.795 165.96 131.321 166.813C130.847 167.655 130.61 168.923 130.61 170.618C130.61 172.324 130.847 173.599 131.321 174.44C131.795 175.281 132.429 175.702 133.223 175.702C133.993 175.702 134.621 175.281 135.107 174.44C135.593 173.587 135.836 172.313 135.836 170.618C135.836 168.935 135.593 167.667 135.107 166.813C134.621 165.96 133.993 165.533 133.223 165.533ZM158.461 177.604H157.181V170.92H154.55V169.604H157.181V163.951H158.461V177.604ZM152.008 175.524C152.624 175.524 153.234 175.465 153.839 175.347C154.455 175.228 154.965 175.074 155.368 174.884V176.093C154.977 176.307 154.473 176.473 153.857 176.591C153.24 176.698 152.606 176.751 151.954 176.751H147.048V169.942H152.346V165.711H147.012V164.484H153.626V171.151H148.328V175.524H152.008ZM171.153 171.382V163.951H172.45V171.382H171.153ZM165.819 169.32C166.767 169.32 167.615 169.267 168.361 169.16C169.108 169.041 169.701 168.881 170.139 168.68V169.871C169.724 170.073 169.132 170.227 168.361 170.333C167.603 170.44 166.732 170.493 165.748 170.493H161.037V164.236H162.335V169.32H165.819ZM167.064 171.844C168.735 171.844 170.08 172.081 171.099 172.556C172.13 173.018 172.646 173.735 172.646 174.707C172.646 175.679 172.13 176.401 171.099 176.876C170.08 177.338 168.735 177.569 167.064 177.569C165.393 177.569 164.047 177.338 163.028 176.876C162.009 176.401 161.499 175.679 161.499 174.707C161.499 173.735 162.009 173.018 163.028 172.556C164.047 172.081 165.393 171.844 167.064 171.844ZM167.064 172.982C165.819 172.982 164.806 173.13 164.024 173.427C163.241 173.723 162.85 174.15 162.85 174.707C162.85 175.264 163.241 175.69 164.024 175.987C164.806 176.283 165.819 176.431 167.064 176.431C168.308 176.431 169.321 176.283 170.104 175.987C170.886 175.69 171.277 175.264 171.277 174.707C171.277 174.15 170.886 173.723 170.104 173.427C169.321 173.13 168.308 172.982 167.064 172.982ZM181.124 166.173V167.382H174.208V166.173H177.017V163.916H178.297V166.173H181.124ZM186.884 177.604H185.675V170.813H183.382V177.373H182.173V164.022H183.382V169.551H185.675V163.951H186.884V177.604ZM177.728 168.573C178.309 168.573 178.825 168.739 179.275 169.071C179.737 169.391 180.093 169.865 180.342 170.493C180.603 171.11 180.733 171.856 180.733 172.733C180.733 173.61 180.603 174.363 180.342 174.991C180.093 175.619 179.737 176.099 179.275 176.431C178.825 176.751 178.309 176.911 177.728 176.911C176.84 176.911 176.123 176.544 175.577 175.809C175.032 175.074 174.76 174.049 174.76 172.733C174.76 171.418 175.032 170.399 175.577 169.676C176.123 168.941 176.84 168.573 177.728 168.573ZM177.728 175.72C178.262 175.72 178.694 175.453 179.026 174.92C179.358 174.387 179.524 173.658 179.524 172.733C179.524 171.809 179.358 171.08 179.026 170.547C178.694 170.013 178.262 169.747 177.728 169.747C177.195 169.747 176.763 170.013 176.431 170.547C176.111 171.068 175.951 171.797 175.951 172.733C175.951 173.67 176.111 174.404 176.431 174.938C176.763 175.459 177.195 175.72 177.728 175.72ZM201.495 176.911H188.553V175.667H191.629V171.773C190.858 171.43 190.266 170.967 189.851 170.387C189.436 169.794 189.229 169.113 189.229 168.342C189.229 167.513 189.466 166.79 189.94 166.173C190.414 165.557 191.09 165.083 191.967 164.751C192.844 164.407 193.863 164.236 195.024 164.236C196.186 164.236 197.205 164.407 198.082 164.751C198.959 165.083 199.635 165.557 200.109 166.173C200.583 166.79 200.82 167.513 200.82 168.342C200.82 169.113 200.613 169.794 200.198 170.387C199.783 170.967 199.19 171.43 198.42 171.773V175.667H201.495V176.911ZM195.024 165.462C194.135 165.462 193.353 165.581 192.678 165.818C192.002 166.055 191.481 166.393 191.113 166.831C190.746 167.27 190.562 167.773 190.562 168.342C190.562 168.911 190.746 169.415 191.113 169.853C191.481 170.292 192.002 170.63 192.678 170.867C193.353 171.104 194.135 171.222 195.024 171.222C195.913 171.222 196.695 171.104 197.371 170.867C198.047 170.63 198.568 170.292 198.935 169.853C199.303 169.415 199.487 168.911 199.487 168.342C199.487 167.773 199.303 167.27 198.935 166.831C198.568 166.393 198.047 166.055 197.371 165.818C196.695 165.581 195.913 165.462 195.024 165.462ZM197.14 175.667V172.218C196.464 172.372 195.759 172.449 195.024 172.449C194.23 172.449 193.525 172.372 192.909 172.218V175.667H197.14Z" fill="black"/>
<path d="M112.249 195.164H114.133V196.284H112.249V197.671H110.969V190.951H112.249V192.213H114.133V193.316H112.249V195.164ZM104.871 194.773C104.421 195.484 103.828 196.077 103.093 196.551C102.37 197.013 101.547 197.316 100.622 197.458V196.249C101.44 196.083 102.151 195.751 102.756 195.253C103.372 194.756 103.84 194.145 104.16 193.422C104.48 192.699 104.646 191.923 104.658 191.093L105.938 191.164C105.938 192.041 105.778 192.901 105.458 193.742L109.636 196.213L108.996 197.244L104.871 194.773ZM112.604 203.36V204.391H101.511V200.96H110.969V199.502H101.476V198.471H112.249V201.902H102.827V203.36H112.604ZM128.211 194.898H126.327V197.956H125.047V190.951H126.327V193.636H128.211V194.898ZM121.385 192.338H115.109V191.324H122.647V194.898H116.425V196.498H119.696C120.644 196.498 121.491 196.444 122.238 196.338C122.997 196.219 123.589 196.059 124.016 195.858V196.889C123.601 197.09 123.008 197.244 122.238 197.351C121.468 197.458 120.597 197.511 119.625 197.511H115.145V193.938H121.385V192.338ZM126.683 203.378V204.391H115.589V201.102H125.065V199.751H115.554V198.756H126.327V202.027H116.869V203.378H126.683ZM140.405 197.884V204.604H139.125V190.951H140.405V196.604H142.29V197.884H140.405ZM134.521 202.524C135.137 202.524 135.753 202.465 136.37 202.347C136.986 202.228 137.49 202.074 137.881 201.884V203.093C137.501 203.307 137.004 203.473 136.387 203.591C135.771 203.698 135.143 203.751 134.503 203.751H129.365V196.907H135.232V192.711H129.33V191.484H136.512V198.116H130.645V202.524H134.521ZM149.274 196.089C147.603 196.089 146.234 195.876 145.168 195.449C144.113 195.022 143.585 194.37 143.585 193.493C143.585 192.628 144.119 191.976 145.185 191.538C146.252 191.099 147.615 190.88 149.274 190.88C150.922 190.88 152.279 191.099 153.345 191.538C154.412 191.976 154.945 192.628 154.945 193.493C154.945 194.37 154.412 195.022 153.345 195.449C152.291 195.876 150.934 196.089 149.274 196.089ZM149.274 191.982C148.018 191.982 146.975 192.113 146.145 192.373C145.328 192.622 144.919 192.996 144.919 193.493C144.919 193.991 145.328 194.37 146.145 194.631C146.975 194.88 148.018 195.004 149.274 195.004C150.519 195.004 151.55 194.88 152.368 194.631C153.197 194.37 153.612 193.991 153.612 193.493C153.612 192.996 153.197 192.622 152.368 192.373C151.55 192.113 150.519 191.982 149.274 191.982ZM149.914 199.876H154.803V204.409H143.745V199.876H148.634V198.311H142.803V197.209H155.745V198.311H149.914V199.876ZM145.025 200.96V203.307H153.541V200.96H145.025ZM168.561 195.182V198.613H167.281V190.951H168.561V193.884H170.446V195.182H168.561ZM157.379 197.884V191.218H158.641V193.316H163.637V191.218H164.899V197.884H157.379ZM163.637 194.418H158.641V196.764H163.637V194.418ZM168.561 199.413V204.391H157.806V199.413H168.561ZM167.264 203.253V200.551H159.104V203.253H167.264ZM182.64 197.884V204.604H181.36V190.951H182.64V196.604H184.524V197.884H182.64ZM178.764 191.378V203.751H171.617V191.378H172.897V196.231H177.502V191.378H178.764ZM177.502 197.458H172.897V202.507H177.502V197.458Z" fill="#9A9A9A"/>
<path d="M350 179L355 184L350 189" stroke="black" stroke-linecap="round"/>
<rect x="44" y="313" width="16" height="16" rx="4" fill="#D9D9D9"/>
<rect x="44" y="331" width="16" height="16" rx="4" fill="#D9D9D9"/>
<rect x="63" y="313" width="16" height="16" rx="4" fill="#D9D9D9"/>
<rect x="63" y="331" width="16" height="16" rx="4" fill="#D9D9D9"/>
<path d="M112.249 316.884V323.604H110.969V309.951H112.249V315.604H114.133V316.884H112.249ZM106.364 321.524C106.981 321.524 107.597 321.465 108.213 321.347C108.83 321.216 109.333 321.05 109.724 320.849V322.093C109.345 322.295 108.841 322.455 108.213 322.573C107.585 322.692 106.951 322.751 106.311 322.751H101.227V310.484H108.711V311.711H102.524V321.524H106.364ZM128.211 313.844H126.327V316.671H125.047V309.951H126.327V312.547H128.211V313.844ZM122.434 311.64C122.434 314.804 119.963 316.387 115.02 316.387V315.249C116.976 315.237 118.487 314.959 119.554 314.413C120.62 313.856 121.154 312.991 121.154 311.818V311.462H115.02V310.324H122.434V311.64ZM126.469 322.36V323.391H115.589V317.471H126.327V318.502H116.869V319.924H126.149V320.902H116.869V322.36H126.469ZM139.481 323.604V309.951H140.778V323.604H139.481ZM133.223 310.307C134.408 310.307 135.35 310.84 136.05 311.907C136.761 312.973 137.116 314.544 137.116 316.618C137.116 318.692 136.761 320.262 136.05 321.329C135.35 322.396 134.408 322.929 133.223 322.929C132.038 322.929 131.09 322.396 130.378 321.329C129.679 320.262 129.33 318.692 129.33 316.618C129.33 314.544 129.679 312.973 130.378 311.907C131.09 310.84 132.038 310.307 133.223 310.307ZM133.223 311.533C132.429 311.533 131.795 311.96 131.321 312.813C130.847 313.655 130.61 314.923 130.61 316.618C130.61 318.324 130.847 319.599 131.321 320.44C131.795 321.281 132.429 321.702 133.223 321.702C133.993 321.702 134.621 321.281 135.107 320.44C135.593 319.587 135.836 318.313 135.836 316.618C135.836 314.935 135.593 313.667 135.107 312.813C134.621 311.96 133.993 311.533 133.223 311.533ZM158.461 323.604H157.181V316.92H154.55V315.604H157.181V309.951H158.461V323.604ZM152.008 321.524C152.624 321.524 153.234 321.465 153.839 321.347C154.455 321.228 154.965 321.074 155.368 320.884V322.093C154.977 322.307 154.473 322.473 153.857 322.591C153.24 322.698 152.606 322.751 151.954 322.751H147.048V315.942H152.346V311.711H147.012V310.484H153.626V317.151H148.328V321.524H152.008ZM171.153 317.382V309.951H172.45V317.382H171.153ZM165.819 315.32C166.767 315.32 167.615 315.267 168.361 315.16C169.108 315.041 169.701 314.881 170.139 314.68V315.871C169.724 316.073 169.132 316.227 168.361 316.333C167.603 316.44 166.732 316.493 165.748 316.493H161.037V310.236H162.335V315.32H165.819ZM167.064 317.844C168.735 317.844 170.08 318.081 171.099 318.556C172.13 319.018 172.646 319.735 172.646 320.707C172.646 321.679 172.13 322.401 171.099 322.876C170.08 323.338 168.735 323.569 167.064 323.569C165.393 323.569 164.047 323.338 163.028 322.876C162.009 322.401 161.499 321.679 161.499 320.707C161.499 319.735 162.009 319.018 163.028 318.556C164.047 318.081 165.393 317.844 167.064 317.844ZM167.064 318.982C165.819 318.982 164.806 319.13 164.024 319.427C163.241 319.723 162.85 320.15 162.85 320.707C162.85 321.264 163.241 321.69 164.024 321.987C164.806 322.283 165.819 322.431 167.064 322.431C168.308 322.431 169.321 322.283 170.104 321.987C170.886 321.69 171.277 321.264 171.277 320.707C171.277 320.15 170.886 319.723 170.104 319.427C169.321 319.13 168.308 318.982 167.064 318.982ZM181.124 312.173V313.382H174.208V312.173H177.017V309.916H178.297V312.173H181.124ZM186.884 323.604H185.675V316.813H183.382V323.373H182.173V310.022H183.382V315.551H185.675V309.951H186.884V323.604ZM177.728 314.573C178.309 314.573 178.825 314.739 179.275 315.071C179.737 315.391 180.093 315.865 180.342 316.493C180.603 317.11 180.733 317.856 180.733 318.733C180.733 319.61 180.603 320.363 180.342 320.991C180.093 321.619 179.737 322.099 179.275 322.431C178.825 322.751 178.309 322.911 177.728 322.911C176.84 322.911 176.123 322.544 175.577 321.809C175.032 321.074 174.76 320.049 174.76 318.733C174.76 317.418 175.032 316.399 175.577 315.676C176.123 314.941 176.84 314.573 177.728 314.573ZM177.728 321.72C178.262 321.72 178.694 321.453 179.026 320.92C179.358 320.387 179.524 319.658 179.524 318.733C179.524 317.809 179.358 317.08 179.026 316.547C178.694 316.013 178.262 315.747 177.728 315.747C177.195 315.747 176.763 316.013 176.431 316.547C176.111 317.068 175.951 317.797 175.951 318.733C175.951 319.67 176.111 320.404 176.431 320.938C176.763 321.459 177.195 321.72 177.728 321.72ZM201.495 322.911H188.553V321.667H191.629V317.773C190.858 317.43 190.266 316.967 189.851 316.387C189.436 315.794 189.229 315.113 189.229 314.342C189.229 313.513 189.466 312.79 189.94 312.173C190.414 311.557 191.09 311.083 191.967 310.751C192.844 310.407 193.863 310.236 195.024 310.236C196.186 310.236 197.205 310.407 198.082 310.751C198.959 311.083 199.635 311.557 200.109 312.173C200.583 312.79 200.82 313.513 200.82 314.342C200.82 315.113 200.613 315.794 200.198 316.387C199.783 316.967 199.19 317.43 198.42 317.773V321.667H201.495V322.911ZM195.024 311.462C194.135 311.462 193.353 311.581 192.678 311.818C192.002 312.055 191.481 312.393 191.113 312.831C190.746 313.27 190.562 313.773 190.562 314.342C190.562 314.911 190.746 315.415 191.113 315.853C191.481 316.292 192.002 316.63 192.678 316.867C193.353 317.104 194.135 317.222 195.024 317.222C195.913 317.222 196.695 317.104 197.371 316.867C198.047 316.63 198.568 316.292 198.935 315.853C199.303 315.415 199.487 314.911 199.487 314.342C199.487 313.773 199.303 313.27 198.935 312.831C198.568 312.393 198.047 312.055 197.371 311.818C196.695 311.581 195.913 311.462 195.024 311.462ZM197.14 321.667V318.218C196.464 318.372 195.759 318.449 195.024 318.449C194.23 318.449 193.525 318.372 192.909 318.218V321.667H197.14Z" fill="black"/>
<path d="M112.249 341.164H114.133V342.284H112.249V343.671H110.969V336.951H112.249V338.213H114.133V339.316H112.249V341.164ZM104.871 340.773C104.421 341.484 103.828 342.077 103.093 342.551C102.37 343.013 101.547 343.316 100.622 343.458V342.249C101.44 342.083 102.151 341.751 102.756 341.253C103.372 340.756 103.84 340.145 104.16 339.422C104.48 338.699 104.646 337.923 104.658 337.093L105.938 337.164C105.938 338.041 105.778 338.901 105.458 339.742L109.636 342.213L108.996 343.244L104.871 340.773ZM112.604 349.36V350.391H101.511V346.96H110.969V345.502H101.476V344.471H112.249V347.902H102.827V349.36H112.604ZM128.211 340.898H126.327V343.956H125.047V336.951H126.327V339.636H128.211V340.898ZM121.385 338.338H115.109V337.324H122.647V340.898H116.425V342.498H119.696C120.644 342.498 121.491 342.444 122.238 342.338C122.997 342.219 123.589 342.059 124.016 341.858V342.889C123.601 343.09 123.008 343.244 122.238 343.351C121.468 343.458 120.597 343.511 119.625 343.511H115.145V339.938H121.385V338.338ZM126.683 349.378V350.391H115.589V347.102H125.065V345.751H115.554V344.756H126.327V348.027H116.869V349.378H126.683ZM140.405 343.884V350.604H139.125V336.951H140.405V342.604H142.29V343.884H140.405ZM134.521 348.524C135.137 348.524 135.753 348.465 136.37 348.347C136.986 348.228 137.49 348.074 137.881 347.884V349.093C137.501 349.307 137.004 349.473 136.387 349.591C135.771 349.698 135.143 349.751 134.503 349.751H129.365V342.907H135.232V338.711H129.33V337.484H136.512V344.116H130.645V348.524H134.521ZM149.274 342.089C147.603 342.089 146.234 341.876 145.168 341.449C144.113 341.022 143.585 340.37 143.585 339.493C143.585 338.628 144.119 337.976 145.185 337.538C146.252 337.099 147.615 336.88 149.274 336.88C150.922 336.88 152.279 337.099 153.345 337.538C154.412 337.976 154.945 338.628 154.945 339.493C154.945 340.37 154.412 341.022 153.345 341.449C152.291 341.876 150.934 342.089 149.274 342.089ZM149.274 337.982C148.018 337.982 146.975 338.113 146.145 338.373C145.328 338.622 144.919 338.996 144.919 339.493C144.919 339.991 145.328 340.37 146.145 340.631C146.975 340.88 148.018 341.004 149.274 341.004C150.519 341.004 151.55 340.88 152.368 340.631C153.197 340.37 153.612 339.991 153.612 339.493C153.612 338.996 153.197 338.622 152.368 338.373C151.55 338.113 150.519 337.982 149.274 337.982ZM149.914 345.876H154.803V350.409H143.745V345.876H148.634V344.311H142.803V343.209H155.745V344.311H149.914V345.876ZM145.025 346.96V349.307H153.541V346.96H145.025ZM168.561 341.182V344.613H167.281V336.951H168.561V339.884H170.446V341.182H168.561ZM157.379 343.884V337.218H158.641V339.316H163.637V337.218H164.899V343.884H157.379ZM163.637 340.418H158.641V342.764H163.637V340.418ZM168.561 345.413V350.391H157.806V345.413H168.561ZM167.264 349.253V346.551H159.104V349.253H167.264ZM182.64 343.884V350.604H181.36V336.951H182.64V342.604H184.524V343.884H182.64ZM178.764 337.378V349.751H171.617V337.378H172.897V342.231H177.502V337.378H178.764ZM177.502 343.458H172.897V348.507H177.502V343.458Z" fill="#9A9A9A"/>
<path d="M350 325L355 330L350 335" stroke="black" stroke-linecap="round"/>
<rect x="44" y="459" width="16" height="16" rx="4" fill="#D9D9D9"/>
<rect x="44" y="477" width="16" height="16" rx="4" fill="#D9D9D9"/>
<rect x="63" y="459" width="16" height="16" rx="4" fill="#D9D9D9"/>
<rect x="63" y="477" width="16" height="16" rx="4" fill="#D9D9D9"/>
<path d="M112.249 462.884V469.604H110.969V455.951H112.249V461.604H114.133V462.884H112.249ZM106.364 467.524C106.981 467.524 107.597 467.465 108.213 467.347C108.83 467.216 109.333 467.05 109.724 466.849V468.093C109.345 468.295 108.841 468.455 108.213 468.573C107.585 468.692 106.951 468.751 106.311 468.751H101.227V456.484H108.711V457.711H102.524V467.524H106.364ZM128.211 459.844H126.327V462.671H125.047V455.951H126.327V458.547H128.211V459.844ZM122.434 457.64C122.434 460.804 119.963 462.387 115.02 462.387V461.249C116.976 461.237 118.487 460.959 119.554 460.413C120.62 459.856 121.154 458.991 121.154 457.818V457.462H115.02V456.324H122.434V457.64ZM126.469 468.36V469.391H115.589V463.471H126.327V464.502H116.869V465.924H126.149V466.902H116.869V468.36H126.469ZM139.481 469.604V455.951H140.778V469.604H139.481ZM133.223 456.307C134.408 456.307 135.35 456.84 136.05 457.907C136.761 458.973 137.116 460.544 137.116 462.618C137.116 464.692 136.761 466.262 136.05 467.329C135.35 468.396 134.408 468.929 133.223 468.929C132.038 468.929 131.09 468.396 130.378 467.329C129.679 466.262 129.33 464.692 129.33 462.618C129.33 460.544 129.679 458.973 130.378 457.907C131.09 456.84 132.038 456.307 133.223 456.307ZM133.223 457.533C132.429 457.533 131.795 457.96 131.321 458.813C130.847 459.655 130.61 460.923 130.61 462.618C130.61 464.324 130.847 465.599 131.321 466.44C131.795 467.281 132.429 467.702 133.223 467.702C133.993 467.702 134.621 467.281 135.107 466.44C135.593 465.587 135.836 464.313 135.836 462.618C135.836 460.935 135.593 459.667 135.107 458.813C134.621 457.96 133.993 457.533 133.223 457.533ZM158.461 469.604H157.181V462.92H154.55V461.604H157.181V455.951H158.461V469.604ZM152.008 467.524C152.624 467.524 153.234 467.465 153.839 467.347C154.455 467.228 154.965 467.074 155.368 466.884V468.093C154.977 468.307 154.473 468.473 153.857 468.591C153.24 468.698 152.606 468.751 151.954 468.751H147.048V461.942H152.346V457.711H147.012V456.484H153.626V463.151H148.328V467.524H152.008ZM171.153 463.382V455.951H172.45V463.382H171.153ZM165.819 461.32C166.767 461.32 167.615 461.267 168.361 461.16C169.108 461.041 169.701 460.881 170.139 460.68V461.871C169.724 462.073 169.132 462.227 168.361 462.333C167.603 462.44 166.732 462.493 165.748 462.493H161.037V456.236H162.335V461.32H165.819ZM167.064 463.844C168.735 463.844 170.08 464.081 171.099 464.556C172.13 465.018 172.646 465.735 172.646 466.707C172.646 467.679 172.13 468.401 171.099 468.876C170.08 469.338 168.735 469.569 167.064 469.569C165.393 469.569 164.047 469.338 163.028 468.876C162.009 468.401 161.499 467.679 161.499 466.707C161.499 465.735 162.009 465.018 163.028 464.556C164.047 464.081 165.393 463.844 167.064 463.844ZM167.064 464.982C165.819 464.982 164.806 465.13 164.024 465.427C163.241 465.723 162.85 466.15 162.85 466.707C162.85 467.264 163.241 467.69 164.024 467.987C164.806 468.283 165.819 468.431 167.064 468.431C168.308 468.431 169.321 468.283 170.104 467.987C170.886 467.69 171.277 467.264 171.277 466.707C171.277 466.15 170.886 465.723 170.104 465.427C169.321 465.13 168.308 464.982 167.064 464.982ZM181.124 458.173V459.382H174.208V458.173H177.017V455.916H178.297V458.173H181.124ZM186.884 469.604H185.675V462.813H183.382V469.373H182.173V456.022H183.382V461.551H185.675V455.951H186.884V469.604ZM177.728 460.573C178.309 460.573 178.825 460.739 179.275 461.071C179.737 461.391 180.093 461.865 180.342 462.493C180.603 463.11 180.733 463.856 180.733 464.733C180.733 465.61 180.603 466.363 180.342 466.991C180.093 467.619 179.737 468.099 179.275 468.431C178.825 468.751 178.309 468.911 177.728 468.911C176.84 468.911 176.123 468.544 175.577 467.809C175.032 467.074 174.76 466.049 174.76 464.733C174.76 463.418 175.032 462.399 175.577 461.676C176.123 460.941 176.84 460.573 177.728 460.573ZM177.728 467.72C178.262 467.72 178.694 467.453 179.026 466.92C179.358 466.387 179.524 465.658 179.524 464.733C179.524 463.809 179.358 463.08 179.026 462.547C178.694 462.013 178.262 461.747 177.728 461.747C177.195 461.747 176.763 462.013 176.431 462.547C176.111 463.068 175.951 463.797 175.951 464.733C175.951 465.67 176.111 466.404 176.431 466.938C176.763 467.459 177.195 467.72 177.728 467.72ZM201.495 468.911H188.553V467.667H191.629V463.773C190.858 463.43 190.266 462.967 189.851 462.387C189.436 461.794 189.229 461.113 189.229 460.342C189.229 459.513 189.466 458.79 189.94 458.173C190.414 457.557 191.09 457.083 191.967 456.751C192.844 456.407 193.863 456.236 195.024 456.236C196.186 456.236 197.205 456.407 198.082 456.751C198.959 457.083 199.635 457.557 200.109 458.173C200.583 458.79 200.82 459.513 200.82 460.342C200.82 461.113 200.613 461.794 200.198 462.387C199.783 462.967 199.19 463.43 198.42 463.773V467.667H201.495V468.911ZM195.024 457.462C194.135 457.462 193.353 457.581 192.678 457.818C192.002 458.055 191.481 458.393 191.113 458.831C190.746 459.27 190.562 459.773 190.562 460.342C190.562 460.911 190.746 461.415 191.113 461.853C191.481 462.292 192.002 462.63 192.678 462.867C193.353 463.104 194.135 463.222 195.024 463.222C195.913 463.222 196.695 463.104 197.371 462.867C198.047 462.63 198.568 462.292 198.935 461.853C199.303 461.415 199.487 460.911 199.487 460.342C199.487 459.773 199.303 459.27 198.935 458.831C198.568 458.393 198.047 458.055 197.371 457.818C196.695 457.581 195.913 457.462 195.024 457.462ZM197.14 467.667V464.218C196.464 464.372 195.759 464.449 195.024 464.449C194.23 464.449 193.525 464.372 192.909 464.218V467.667H197.14Z" fill="black"/>
<path d="M112.249 487.164H114.133V488.284H112.249V489.671H110.969V482.951H112.249V484.213H114.133V485.316H112.249V487.164ZM104.871 486.773C104.421 487.484 103.828 488.077 103.093 488.551C102.37 489.013 101.547 489.316 100.622 489.458V488.249C101.44 488.083 102.151 487.751 102.756 487.253C103.372 486.756 103.84 486.145 104.16 485.422C104.48 484.699 104.646 483.923 104.658 483.093L105.938 483.164C105.938 484.041 105.778 484.901 105.458 485.742L109.636 488.213L108.996 489.244L104.871 486.773ZM112.604 495.36V496.391H101.511V492.96H110.969V491.502H101.476V490.471H112.249V493.902H102.827V495.36H112.604ZM128.211 486.898H126.327V489.956H125.047V482.951H126.327V485.636H128.211V486.898ZM121.385 484.338H115.109V483.324H122.647V486.898H116.425V488.498H119.696C120.644 488.498 121.491 488.444 122.238 488.338C122.997 488.219 123.589 488.059 124.016 487.858V488.889C123.601 489.09 123.008 489.244 122.238 489.351C121.468 489.458 120.597 489.511 119.625 489.511H115.145V485.938H121.385V484.338ZM126.683 495.378V496.391H115.589V493.102H125.065V491.751H115.554V490.756H126.327V494.027H116.869V495.378H126.683ZM140.405 489.884V496.604H139.125V482.951H140.405V488.604H142.29V489.884H140.405ZM134.521 494.524C135.137 494.524 135.753 494.465 136.37 494.347C136.986 494.228 137.49 494.074 137.881 493.884V495.093C137.501 495.307 137.004 495.473 136.387 495.591C135.771 495.698 135.143 495.751 134.503 495.751H129.365V488.907H135.232V484.711H129.33V483.484H136.512V490.116H130.645V494.524H134.521ZM149.274 488.089C147.603 488.089 146.234 487.876 145.168 487.449C144.113 487.022 143.585 486.37 143.585 485.493C143.585 484.628 144.119 483.976 145.185 483.538C146.252 483.099 147.615 482.88 149.274 482.88C150.922 482.88 152.279 483.099 153.345 483.538C154.412 483.976 154.945 484.628 154.945 485.493C154.945 486.37 154.412 487.022 153.345 487.449C152.291 487.876 150.934 488.089 149.274 488.089ZM149.274 483.982C148.018 483.982 146.975 484.113 146.145 484.373C145.328 484.622 144.919 484.996 144.919 485.493C144.919 485.991 145.328 486.37 146.145 486.631C146.975 486.88 148.018 487.004 149.274 487.004C150.519 487.004 151.55 486.88 152.368 486.631C153.197 486.37 153.612 485.991 153.612 485.493C153.612 484.996 153.197 484.622 152.368 484.373C151.55 484.113 150.519 483.982 149.274 483.982ZM149.914 491.876H154.803V496.409H143.745V491.876H148.634V490.311H142.803V489.209H155.745V490.311H149.914V491.876ZM145.025 492.96V495.307H153.541V492.96H145.025ZM168.561 487.182V490.613H167.281V482.951H168.561V485.884H170.446V487.182H168.561ZM157.379 489.884V483.218H158.641V485.316H163.637V483.218H164.899V489.884H157.379ZM163.637 486.418H158.641V488.764H163.637V486.418ZM168.561 491.413V496.391H157.806V491.413H168.561ZM167.264 495.253V492.551H159.104V495.253H167.264ZM182.64 489.884V496.604H181.36V482.951H182.64V488.604H184.524V489.884H182.64ZM178.764 483.378V495.751H171.617V483.378H172.897V488.231H177.502V483.378H178.764ZM177.502 489.458H172.897V494.507H177.502V489.458Z" fill="#9A9A9A"/>
<path d="M350 471L355 476L350 481" stroke="black" stroke-linecap="round"/>
<rect x="44" y="605" width="16" height="16" rx="4" fill="#D9D9D9"/>
<rect x="44" y="623" width="16" height="16" rx="4" fill="#D9D9D9"/>
<rect x="63" y="605" width="16" height="16" rx="4" fill="#D9D9D9"/>
<rect x="63" y="623" width="16" height="16" rx="4" fill="#D9D9D9"/>
<path d="M112.249 608.884V615.604H110.969V601.951H112.249V607.604H114.133V608.884H112.249ZM106.364 613.524C106.981 613.524 107.597 613.465 108.213 613.347C108.83 613.216 109.333 613.05 109.724 612.849V614.093C109.345 614.295 108.841 614.455 108.213 614.573C107.585 614.692 106.951 614.751 106.311 614.751H101.227V602.484H108.711V603.711H102.524V613.524H106.364ZM128.211 605.844H126.327V608.671H125.047V601.951H126.327V604.547H128.211V605.844ZM122.434 603.64C122.434 606.804 119.963 608.387 115.02 608.387V607.249C116.976 607.237 118.487 606.959 119.554 606.413C120.62 605.856 121.154 604.991 121.154 603.818V603.462H115.02V602.324H122.434V603.64ZM126.469 614.36V615.391H115.589V609.471H126.327V610.502H116.869V611.924H126.149V612.902H116.869V614.36H126.469ZM139.481 615.604V601.951H140.778V615.604H139.481ZM133.223 602.307C134.408 602.307 135.35 602.84 136.05 603.907C136.761 604.973 137.116 606.544 137.116 608.618C137.116 610.692 136.761 612.262 136.05 613.329C135.35 614.396 134.408 614.929 133.223 614.929C132.038 614.929 131.09 614.396 130.378 613.329C129.679 612.262 129.33 610.692 129.33 608.618C129.33 606.544 129.679 604.973 130.378 603.907C131.09 602.84 132.038 602.307 133.223 602.307ZM133.223 603.533C132.429 603.533 131.795 603.96 131.321 604.813C130.847 605.655 130.61 606.923 130.61 608.618C130.61 610.324 130.847 611.599 131.321 612.44C131.795 613.281 132.429 613.702 133.223 613.702C133.993 613.702 134.621 613.281 135.107 612.44C135.593 611.587 135.836 610.313 135.836 608.618C135.836 606.935 135.593 605.667 135.107 604.813C134.621 603.96 133.993 603.533 133.223 603.533ZM158.461 615.604H157.181V608.92H154.55V607.604H157.181V601.951H158.461V615.604ZM152.008 613.524C152.624 613.524 153.234 613.465 153.839 613.347C154.455 613.228 154.965 613.074 155.368 612.884V614.093C154.977 614.307 154.473 614.473 153.857 614.591C153.24 614.698 152.606 614.751 151.954 614.751H147.048V607.942H152.346V603.711H147.012V602.484H153.626V609.151H148.328V613.524H152.008ZM171.153 609.382V601.951H172.45V609.382H171.153ZM165.819 607.32C166.767 607.32 167.615 607.267 168.361 607.16C169.108 607.041 169.701 606.881 170.139 606.68V607.871C169.724 608.073 169.132 608.227 168.361 608.333C167.603 608.44 166.732 608.493 165.748 608.493H161.037V602.236H162.335V607.32H165.819ZM167.064 609.844C168.735 609.844 170.08 610.081 171.099 610.556C172.13 611.018 172.646 611.735 172.646 612.707C172.646 613.679 172.13 614.401 171.099 614.876C170.08 615.338 168.735 615.569 167.064 615.569C165.393 615.569 164.047 615.338 163.028 614.876C162.009 614.401 161.499 613.679 161.499 612.707C161.499 611.735 162.009 611.018 163.028 610.556C164.047 610.081 165.393 609.844 167.064 609.844ZM167.064 610.982C165.819 610.982 164.806 611.13 164.024 611.427C163.241 611.723 162.85 612.15 162.85 612.707C162.85 613.264 163.241 613.69 164.024 613.987C164.806 614.283 165.819 614.431 167.064 614.431C168.308 614.431 169.321 614.283 170.104 613.987C170.886 613.69 171.277 613.264 171.277 612.707C171.277 612.15 170.886 611.723 170.104 611.427C169.321 611.13 168.308 610.982 167.064 610.982ZM181.124 604.173V605.382H174.208V604.173H177.017V601.916H178.297V604.173H181.124ZM186.884 615.604H185.675V608.813H183.382V615.373H182.173V602.022H183.382V607.551H185.675V601.951H186.884V615.604ZM177.728 606.573C178.309 606.573 178.825 606.739 179.275 607.071C179.737 607.391 180.093 607.865 180.342 608.493C180.603 609.11 180.733 609.856 180.733 610.733C180.733 611.61 180.603 612.363 180.342 612.991C180.093 613.619 179.737 614.099 179.275 614.431C178.825 614.751 178.309 614.911 177.728 614.911C176.84 614.911 176.123 614.544 175.577 613.809C175.032 613.074 174.76 612.049 174.76 610.733C174.76 609.418 175.032 608.399 175.577 607.676C176.123 606.941 176.84 606.573 177.728 606.573ZM177.728 613.72C178.262 613.72 178.694 613.453 179.026 612.92C179.358 612.387 179.524 611.658 179.524 610.733C179.524 609.809 179.358 609.08 179.026 608.547C178.694 608.013 178.262 607.747 177.728 607.747C177.195 607.747 176.763 608.013 176.431 608.547C176.111 609.068 175.951 609.797 175.951 610.733C175.951 611.67 176.111 612.404 176.431 612.938C176.763 613.459 177.195 613.72 177.728 613.72ZM201.495 614.911H188.553V613.667H191.629V609.773C190.858 609.43 190.266 608.967 189.851 608.387C189.436 607.794 189.229 607.113 189.229 606.342C189.229 605.513 189.466 604.79 189.94 604.173C190.414 603.557 191.09 603.083 191.967 602.751C192.844 602.407 193.863 602.236 195.024 602.236C196.186 602.236 197.205 602.407 198.082 602.751C198.959 603.083 199.635 603.557 200.109 604.173C200.583 604.79 200.82 605.513 200.82 606.342C200.82 607.113 200.613 607.794 200.198 608.387C199.783 608.967 199.19 609.43 198.42 609.773V613.667H201.495V614.911ZM195.024 603.462C194.135 603.462 193.353 603.581 192.678 603.818C192.002 604.055 191.481 604.393 191.113 604.831C190.746 605.27 190.562 605.773 190.562 606.342C190.562 606.911 190.746 607.415 191.113 607.853C191.481 608.292 192.002 608.63 192.678 608.867C193.353 609.104 194.135 609.222 195.024 609.222C195.913 609.222 196.695 609.104 197.371 608.867C198.047 608.63 198.568 608.292 198.935 607.853C199.303 607.415 199.487 606.911 199.487 606.342C199.487 605.773 199.303 605.27 198.935 604.831C198.568 604.393 198.047 604.055 197.371 603.818C196.695 603.581 195.913 603.462 195.024 603.462ZM197.14 613.667V610.218C196.464 610.372 195.759 610.449 195.024 610.449C194.23 610.449 193.525 610.372 192.909 610.218V613.667H197.14Z" fill="black"/>
<path d="M112.249 633.164H114.133V634.284H112.249V635.671H110.969V628.951H112.249V630.213H114.133V631.316H112.249V633.164ZM104.871 632.773C104.421 633.484 103.828 634.077 103.093 634.551C102.37 635.013 101.547 635.316 100.622 635.458V634.249C101.44 634.083 102.151 633.751 102.756 633.253C103.372 632.756 103.84 632.145 104.16 631.422C104.48 630.699 104.646 629.923 104.658 629.093L105.938 629.164C105.938 630.041 105.778 630.901 105.458 631.742L109.636 634.213L108.996 635.244L104.871 632.773ZM112.604 641.36V642.391H101.511V638.96H110.969V637.502H101.476V636.471H112.249V639.902H102.827V641.36H112.604ZM128.211 632.898H126.327V635.956H125.047V628.951H126.327V631.636H128.211V632.898ZM121.385 630.338H115.109V629.324H122.647V632.898H116.425V634.498H119.696C120.644 634.498 121.491 634.444 122.238 634.338C122.997 634.219 123.589 634.059 124.016 633.858V634.889C123.601 635.09 123.008 635.244 122.238 635.351C121.468 635.458 120.597 635.511 119.625 635.511H115.145V631.938H121.385V630.338ZM126.683 641.378V642.391H115.589V639.102H125.065V637.751H115.554V636.756H126.327V640.027H116.869V641.378H126.683ZM140.405 635.884V642.604H139.125V628.951H140.405V634.604H142.29V635.884H140.405ZM134.521 640.524C135.137 640.524 135.753 640.465 136.37 640.347C136.986 640.228 137.49 640.074 137.881 639.884V641.093C137.501 641.307 137.004 641.473 136.387 641.591C135.771 641.698 135.143 641.751 134.503 641.751H129.365V634.907H135.232V630.711H129.33V629.484H136.512V636.116H130.645V640.524H134.521ZM149.274 634.089C147.603 634.089 146.234 633.876 145.168 633.449C144.113 633.022 143.585 632.37 143.585 631.493C143.585 630.628 144.119 629.976 145.185 629.538C146.252 629.099 147.615 628.88 149.274 628.88C150.922 628.88 152.279 629.099 153.345 629.538C154.412 629.976 154.945 630.628 154.945 631.493C154.945 632.37 154.412 633.022 153.345 633.449C152.291 633.876 150.934 634.089 149.274 634.089ZM149.274 629.982C148.018 629.982 146.975 630.113 146.145 630.373C145.328 630.622 144.919 630.996 144.919 631.493C144.919 631.991 145.328 632.37 146.145 632.631C146.975 632.88 148.018 633.004 149.274 633.004C150.519 633.004 151.55 632.88 152.368 632.631C153.197 632.37 153.612 631.991 153.612 631.493C153.612 630.996 153.197 630.622 152.368 630.373C151.55 630.113 150.519 629.982 149.274 629.982ZM149.914 637.876H154.803V642.409H143.745V637.876H148.634V636.311H142.803V635.209H155.745V636.311H149.914V637.876ZM145.025 638.96V641.307H153.541V638.96H145.025ZM168.561 633.182V636.613H167.281V628.951H168.561V631.884H170.446V633.182H168.561ZM157.379 635.884V629.218H158.641V631.316H163.637V629.218H164.899V635.884H157.379ZM163.637 632.418H158.641V634.764H163.637V632.418ZM168.561 637.413V642.391H157.806V637.413H168.561ZM167.264 641.253V638.551H159.104V641.253H167.264ZM182.64 635.884V642.604H181.36V628.951H182.64V634.604H184.524V635.884H182.64ZM178.764 629.378V641.751H171.617V629.378H172.897V634.231H177.502V629.378H178.764ZM177.502 635.458H172.897V640.507H177.502V635.458Z" fill="#9A9A9A"/>
<path d="M350 617L355 622L350 627" stroke="black" stroke-linecap="round"/>
<rect x="44" y="237.5" width="37" height="37" rx="4" fill="#D9D9D9"/>
<path d="M114.249 242.884V249.604H112.969V235.951H114.249V241.604H116.133V242.884H114.249ZM108.364 247.524C108.981 247.524 109.597 247.465 110.213 247.347C110.83 247.216 111.333 247.05 111.724 246.849V248.093C111.345 248.295 110.841 248.455 110.213 248.573C109.585 248.692 108.951 248.751 108.311 248.751H103.227V236.484H110.711V237.711H104.524V247.524H108.364ZM130.211 239.844H128.327V242.671H127.047V235.951H128.327V238.547H130.211V239.844ZM124.434 237.64C124.434 240.804 121.963 242.387 117.02 242.387V241.249C118.976 241.237 120.487 240.959 121.554 240.413C122.62 239.856 123.154 238.991 123.154 237.818V237.462H117.02V236.324H124.434V237.64ZM128.469 248.36V249.391H117.589V243.471H128.327V244.502H118.869V245.924H128.149V246.902H118.869V248.36H128.469ZM141.481 249.604V235.951H142.778V249.604H141.481ZM135.223 236.307C136.408 236.307 137.35 236.84 138.05 237.907C138.761 238.973 139.116 240.544 139.116 242.618C139.116 244.692 138.761 246.262 138.05 247.329C137.35 248.396 136.408 248.929 135.223 248.929C134.038 248.929 133.09 248.396 132.378 247.329C131.679 246.262 131.33 244.692 131.33 242.618C131.33 240.544 131.679 238.973 132.378 237.907C133.09 236.84 134.038 236.307 135.223 236.307ZM135.223 237.533C134.429 237.533 133.795 237.96 133.321 238.813C132.847 239.655 132.61 240.923 132.61 242.618C132.61 244.324 132.847 245.599 133.321 246.44C133.795 247.281 134.429 247.702 135.223 247.702C135.993 247.702 136.621 247.281 137.107 246.44C137.593 245.587 137.836 244.313 137.836 242.618C137.836 240.935 137.593 239.667 137.107 238.813C136.621 237.96 135.993 237.533 135.223 237.533ZM160.461 249.604H159.181V242.92H156.55V241.604H159.181V235.951H160.461V249.604ZM154.008 247.524C154.624 247.524 155.234 247.465 155.839 247.347C156.455 247.228 156.965 247.074 157.368 246.884V248.093C156.977 248.307 156.473 248.473 155.857 248.591C155.24 248.698 154.606 248.751 153.954 248.751H149.048V241.942H154.346V237.711H149.012V236.484H155.626V243.151H150.328V247.524H154.008ZM173.153 243.382V235.951H174.45V243.382H173.153ZM167.819 241.32C168.767 241.32 169.615 241.267 170.361 241.16C171.108 241.041 171.701 240.881 172.139 240.68V241.871C171.724 242.073 171.132 242.227 170.361 242.333C169.603 242.44 168.732 242.493 167.748 242.493H163.037V236.236H164.335V241.32H167.819ZM169.064 243.844C170.735 243.844 172.08 244.081 173.099 244.556C174.13 245.018 174.646 245.735 174.646 246.707C174.646 247.679 174.13 248.401 173.099 248.876C172.08 249.338 170.735 249.569 169.064 249.569C167.393 249.569 166.047 249.338 165.028 248.876C164.009 248.401 163.499 247.679 163.499 246.707C163.499 245.735 164.009 245.018 165.028 244.556C166.047 244.081 167.393 243.844 169.064 243.844ZM169.064 244.982C167.819 244.982 166.806 245.13 166.024 245.427C165.241 245.723 164.85 246.15 164.85 246.707C164.85 247.264 165.241 247.69 166.024 247.987C166.806 248.283 167.819 248.431 169.064 248.431C170.308 248.431 171.321 248.283 172.104 247.987C172.886 247.69 173.277 247.264 173.277 246.707C173.277 246.15 172.886 245.723 172.104 245.427C171.321 245.13 170.308 244.982 169.064 244.982ZM183.124 238.173V239.382H176.208V238.173H179.017V235.916H180.297V238.173H183.124ZM188.884 249.604H187.675V242.813H185.382V249.373H184.173V236.022H185.382V241.551H187.675V235.951H188.884V249.604ZM179.728 240.573C180.309 240.573 180.825 240.739 181.275 241.071C181.737 241.391 182.093 241.865 182.342 242.493C182.603 243.11 182.733 243.856 182.733 244.733C182.733 245.61 182.603 246.363 182.342 246.991C182.093 247.619 181.737 248.099 181.275 248.431C180.825 248.751 180.309 248.911 179.728 248.911C178.84 248.911 178.123 248.544 177.577 247.809C177.032 247.074 176.76 246.049 176.76 244.733C176.76 243.418 177.032 242.399 177.577 241.676C178.123 240.941 178.84 240.573 179.728 240.573ZM179.728 247.72C180.262 247.72 180.694 247.453 181.026 246.92C181.358 246.387 181.524 245.658 181.524 244.733C181.524 243.809 181.358 243.08 181.026 242.547C180.694 242.013 180.262 241.747 179.728 241.747C179.195 241.747 178.763 242.013 178.431 242.547C178.111 243.068 177.951 243.797 177.951 244.733C177.951 245.67 178.111 246.404 178.431 246.938C178.763 247.459 179.195 247.72 179.728 247.72ZM203.495 248.911H190.553V247.667H193.629V243.773C192.858 243.43 192.266 242.967 191.851 242.387C191.436 241.794 191.229 241.113 191.229 240.342C191.229 239.513 191.466 238.79 191.94 238.173C192.414 237.557 193.09 237.083 193.967 236.751C194.844 236.407 195.863 236.236 197.024 236.236C198.186 236.236 199.205 236.407 200.082 236.751C200.959 237.083 201.635 237.557 202.109 238.173C202.583 238.79 202.82 239.513 202.82 240.342C202.82 241.113 202.613 241.794 202.198 242.387C201.783 242.967 201.19 243.43 200.42 243.773V247.667H203.495V248.911ZM197.024 237.462C196.135 237.462 195.353 237.581 194.678 237.818C194.002 238.055 193.481 238.393 193.113 238.831C192.746 239.27 192.562 239.773 192.562 240.342C192.562 240.911 192.746 241.415 193.113 241.853C193.481 242.292 194.002 242.63 194.678 242.867C195.353 243.104 196.135 243.222 197.024 243.222C197.913 243.222 198.695 243.104 199.371 242.867C200.047 242.63 200.568 242.292 200.935 241.853C201.303 241.415 201.487 240.911 201.487 240.342C201.487 239.773 201.303 239.27 200.935 238.831C200.568 238.393 200.047 238.055 199.371 237.818C198.695 237.581 197.913 237.462 197.024 237.462ZM199.14 247.667V244.218C198.464 244.372 197.759 244.449 197.024 244.449C196.23 244.449 195.525 244.372 194.909 244.218V247.667H199.14Z" fill="black"/>
<path d="M114.249 267.164H116.133V268.284H114.249V269.671H112.969V262.951H114.249V264.213H116.133V265.316H114.249V267.164ZM106.871 266.773C106.421 267.484 105.828 268.077 105.093 268.551C104.37 269.013 103.547 269.316 102.622 269.458V268.249C103.44 268.083 104.151 267.751 104.756 267.253C105.372 266.756 105.84 266.145 106.16 265.422C106.48 264.699 106.646 263.923 106.658 263.093L107.938 263.164C107.938 264.041 107.778 264.901 107.458 265.742L111.636 268.213L110.996 269.244L106.871 266.773ZM114.604 275.36V276.391H103.511V272.96H112.969V271.502H103.476V270.471H114.249V273.902H104.827V275.36H114.604ZM130.211 266.898H128.327V269.956H127.047V262.951H128.327V265.636H130.211V266.898ZM123.385 264.338H117.109V263.324H124.647V266.898H118.425V268.498H121.696C122.644 268.498 123.491 268.444 124.238 268.338C124.997 268.219 125.589 268.059 126.016 267.858V268.889C125.601 269.09 125.008 269.244 124.238 269.351C123.468 269.458 122.597 269.511 121.625 269.511H117.145V265.938H123.385V264.338ZM128.683 275.378V276.391H117.589V273.102H127.065V271.751H117.554V270.756H128.327V274.027H118.869V275.378H128.683ZM142.405 269.884V276.604H141.125V262.951H142.405V268.604H144.29V269.884H142.405ZM136.521 274.524C137.137 274.524 137.753 274.465 138.37 274.347C138.986 274.228 139.49 274.074 139.881 273.884V275.093C139.501 275.307 139.004 275.473 138.387 275.591C137.771 275.698 137.143 275.751 136.503 275.751H131.365V268.907H137.232V264.711H131.33V263.484H138.512V270.116H132.645V274.524H136.521ZM151.274 268.089C149.603 268.089 148.234 267.876 147.168 267.449C146.113 267.022 145.585 266.37 145.585 265.493C145.585 264.628 146.119 263.976 147.185 263.538C148.252 263.099 149.615 262.88 151.274 262.88C152.922 262.88 154.279 263.099 155.345 263.538C156.412 263.976 156.945 264.628 156.945 265.493C156.945 266.37 156.412 267.022 155.345 267.449C154.291 267.876 152.934 268.089 151.274 268.089ZM151.274 263.982C150.018 263.982 148.975 264.113 148.145 264.373C147.328 264.622 146.919 264.996 146.919 265.493C146.919 265.991 147.328 266.37 148.145 266.631C148.975 266.88 150.018 267.004 151.274 267.004C152.519 267.004 153.55 266.88 154.368 266.631C155.197 266.37 155.612 265.991 155.612 265.493C155.612 264.996 155.197 264.622 154.368 264.373C153.55 264.113 152.519 263.982 151.274 263.982ZM151.914 271.876H156.803V276.409H145.745V271.876H150.634V270.311H144.803V269.209H157.745V270.311H151.914V271.876ZM147.025 272.96V275.307H155.541V272.96H147.025ZM170.561 267.182V270.613H169.281V262.951H170.561V265.884H172.446V267.182H170.561ZM159.379 269.884V263.218H160.641V265.316H165.637V263.218H166.899V269.884H159.379ZM165.637 266.418H160.641V268.764H165.637V266.418ZM170.561 271.413V276.391H159.806V271.413H170.561ZM169.264 275.253V272.551H161.104V275.253H169.264ZM184.64 269.884V276.604H183.36V262.951H184.64V268.604H186.524V269.884H184.64ZM180.764 263.378V275.751H173.617V263.378H174.897V268.231H179.502V263.378H180.764ZM179.502 269.458H174.897V274.507H179.502V269.458Z" fill="#9A9A9A"/>
<path d="M350 251L355 256L350 261" stroke="black" stroke-linecap="round"/>
<rect x="44" y="383.5" width="37" height="37" rx="4" fill="#D9D9D9"/>
<path d="M114.249 388.884V395.604H112.969V381.951H114.249V387.604H116.133V388.884H114.249ZM108.364 393.524C108.981 393.524 109.597 393.465 110.213 393.347C110.83 393.216 111.333 393.05 111.724 392.849V394.093C111.345 394.295 110.841 394.455 110.213 394.573C109.585 394.692 108.951 394.751 108.311 394.751H103.227V382.484H110.711V383.711H104.524V393.524H108.364ZM130.211 385.844H128.327V388.671H127.047V381.951H128.327V384.547H130.211V385.844ZM124.434 383.64C124.434 386.804 121.963 388.387 117.02 388.387V387.249C118.976 387.237 120.487 386.959 121.554 386.413C122.62 385.856 123.154 384.991 123.154 383.818V383.462H117.02V382.324H124.434V383.64ZM128.469 394.36V395.391H117.589V389.471H128.327V390.502H118.869V391.924H128.149V392.902H118.869V394.36H128.469ZM141.481 395.604V381.951H142.778V395.604H141.481ZM135.223 382.307C136.408 382.307 137.35 382.84 138.05 383.907C138.761 384.973 139.116 386.544 139.116 388.618C139.116 390.692 138.761 392.262 138.05 393.329C137.35 394.396 136.408 394.929 135.223 394.929C134.038 394.929 133.09 394.396 132.378 393.329C131.679 392.262 131.33 390.692 131.33 388.618C131.33 386.544 131.679 384.973 132.378 383.907C133.09 382.84 134.038 382.307 135.223 382.307ZM135.223 383.533C134.429 383.533 133.795 383.96 133.321 384.813C132.847 385.655 132.61 386.923 132.61 388.618C132.61 390.324 132.847 391.599 133.321 392.44C133.795 393.281 134.429 393.702 135.223 393.702C135.993 393.702 136.621 393.281 137.107 392.44C137.593 391.587 137.836 390.313 137.836 388.618C137.836 386.935 137.593 385.667 137.107 384.813C136.621 383.96 135.993 383.533 135.223 383.533ZM160.461 395.604H159.181V388.92H156.55V387.604H159.181V381.951H160.461V395.604ZM154.008 393.524C154.624 393.524 155.234 393.465 155.839 393.347C156.455 393.228 156.965 393.074 157.368 392.884V394.093C156.977 394.307 156.473 394.473 155.857 394.591C155.24 394.698 154.606 394.751 153.954 394.751H149.048V387.942H154.346V383.711H149.012V382.484H155.626V389.151H150.328V393.524H154.008ZM173.153 389.382V381.951H174.45V389.382H173.153ZM167.819 387.32C168.767 387.32 169.615 387.267 170.361 387.16C171.108 387.041 171.701 386.881 172.139 386.68V387.871C171.724 388.073 171.132 388.227 170.361 388.333C169.603 388.44 168.732 388.493 167.748 388.493H163.037V382.236H164.335V387.32H167.819ZM169.064 389.844C170.735 389.844 172.08 390.081 173.099 390.556C174.13 391.018 174.646 391.735 174.646 392.707C174.646 393.679 174.13 394.401 173.099 394.876C172.08 395.338 170.735 395.569 169.064 395.569C167.393 395.569 166.047 395.338 165.028 394.876C164.009 394.401 163.499 393.679 163.499 392.707C163.499 391.735 164.009 391.018 165.028 390.556C166.047 390.081 167.393 389.844 169.064 389.844ZM169.064 390.982C167.819 390.982 166.806 391.13 166.024 391.427C165.241 391.723 164.85 392.15 164.85 392.707C164.85 393.264 165.241 393.69 166.024 393.987C166.806 394.283 167.819 394.431 169.064 394.431C170.308 394.431 171.321 394.283 172.104 393.987C172.886 393.69 173.277 393.264 173.277 392.707C173.277 392.15 172.886 391.723 172.104 391.427C171.321 391.13 170.308 390.982 169.064 390.982ZM183.124 384.173V385.382H176.208V384.173H179.017V381.916H180.297V384.173H183.124ZM188.884 395.604H187.675V388.813H185.382V395.373H184.173V382.022H185.382V387.551H187.675V381.951H188.884V395.604ZM179.728 386.573C180.309 386.573 180.825 386.739 181.275 387.071C181.737 387.391 182.093 387.865 182.342 388.493C182.603 389.11 182.733 389.856 182.733 390.733C182.733 391.61 182.603 392.363 182.342 392.991C182.093 393.619 181.737 394.099 181.275 394.431C180.825 394.751 180.309 394.911 179.728 394.911C178.84 394.911 178.123 394.544 177.577 393.809C177.032 393.074 176.76 392.049 176.76 390.733C176.76 389.418 177.032 388.399 177.577 387.676C178.123 386.941 178.84 386.573 179.728 386.573ZM179.728 393.72C180.262 393.72 180.694 393.453 181.026 392.92C181.358 392.387 181.524 391.658 181.524 390.733C181.524 389.809 181.358 389.08 181.026 388.547C180.694 388.013 180.262 387.747 179.728 387.747C179.195 387.747 178.763 388.013 178.431 388.547C178.111 389.068 177.951 389.797 177.951 390.733C177.951 391.67 178.111 392.404 178.431 392.938C178.763 393.459 179.195 393.72 179.728 393.72ZM203.495 394.911H190.553V393.667H193.629V389.773C192.858 389.43 192.266 388.967 191.851 388.387C191.436 387.794 191.229 387.113 191.229 386.342C191.229 385.513 191.466 384.79 191.94 384.173C192.414 383.557 193.09 383.083 193.967 382.751C194.844 382.407 195.863 382.236 197.024 382.236C198.186 382.236 199.205 382.407 200.082 382.751C200.959 383.083 201.635 383.557 202.109 384.173C202.583 384.79 202.82 385.513 202.82 386.342C202.82 387.113 202.613 387.794 202.198 388.387C201.783 388.967 201.19 389.43 200.42 389.773V393.667H203.495V394.911ZM197.024 383.462C196.135 383.462 195.353 383.581 194.678 383.818C194.002 384.055 193.481 384.393 193.113 384.831C192.746 385.27 192.562 385.773 192.562 386.342C192.562 386.911 192.746 387.415 193.113 387.853C193.481 388.292 194.002 388.63 194.678 388.867C195.353 389.104 196.135 389.222 197.024 389.222C197.913 389.222 198.695 389.104 199.371 388.867C200.047 388.63 200.568 388.292 200.935 387.853C201.303 387.415 201.487 386.911 201.487 386.342C201.487 385.773 201.303 385.27 200.935 384.831C200.568 384.393 200.047 384.055 199.371 383.818C198.695 383.581 197.913 383.462 197.024 383.462ZM199.14 393.667V390.218C198.464 390.372 197.759 390.449 197.024 390.449C196.23 390.449 195.525 390.372 194.909 390.218V393.667H199.14Z" fill="black"/>
<path d="M114.249 413.164H116.133V414.284H114.249V415.671H112.969V408.951H114.249V410.213H116.133V411.316H114.249V413.164ZM106.871 412.773C106.421 413.484 105.828 414.077 105.093 414.551C104.37 415.013 103.547 415.316 102.622 415.458V414.249C103.44 414.083 104.151 413.751 104.756 413.253C105.372 412.756 105.84 412.145 106.16 411.422C106.48 410.699 106.646 409.923 106.658 409.093L107.938 409.164C107.938 410.041 107.778 410.901 107.458 411.742L111.636 414.213L110.996 415.244L106.871 412.773ZM114.604 421.36V422.391H103.511V418.96H112.969V417.502H103.476V416.471H114.249V419.902H104.827V421.36H114.604ZM130.211 412.898H128.327V415.956H127.047V408.951H128.327V411.636H130.211V412.898ZM123.385 410.338H117.109V409.324H124.647V412.898H118.425V414.498H121.696C122.644 414.498 123.491 414.444 124.238 414.338C124.997 414.219 125.589 414.059 126.016 413.858V414.889C125.601 415.09 125.008 415.244 124.238 415.351C123.468 415.458 122.597 415.511 121.625 415.511H117.145V411.938H123.385V410.338ZM128.683 421.378V422.391H117.589V419.102H127.065V417.751H117.554V416.756H128.327V420.027H118.869V421.378H128.683ZM142.405 415.884V422.604H141.125V408.951H142.405V414.604H144.29V415.884H142.405ZM136.521 420.524C137.137 420.524 137.753 420.465 138.37 420.347C138.986 420.228 139.49 420.074 139.881 419.884V421.093C139.501 421.307 139.004 421.473 138.387 421.591C137.771 421.698 137.143 421.751 136.503 421.751H131.365V414.907H137.232V410.711H131.33V409.484H138.512V416.116H132.645V420.524H136.521ZM151.274 414.089C149.603 414.089 148.234 413.876 147.168 413.449C146.113 413.022 145.585 412.37 145.585 411.493C145.585 410.628 146.119 409.976 147.185 409.538C148.252 409.099 149.615 408.88 151.274 408.88C152.922 408.88 154.279 409.099 155.345 409.538C156.412 409.976 156.945 410.628 156.945 411.493C156.945 412.37 156.412 413.022 155.345 413.449C154.291 413.876 152.934 414.089 151.274 414.089ZM151.274 409.982C150.018 409.982 148.975 410.113 148.145 410.373C147.328 410.622 146.919 410.996 146.919 411.493C146.919 411.991 147.328 412.37 148.145 412.631C148.975 412.88 150.018 413.004 151.274 413.004C152.519 413.004 153.55 412.88 154.368 412.631C155.197 412.37 155.612 411.991 155.612 411.493C155.612 410.996 155.197 410.622 154.368 410.373C153.55 410.113 152.519 409.982 151.274 409.982ZM151.914 417.876H156.803V422.409H145.745V417.876H150.634V416.311H144.803V415.209H157.745V416.311H151.914V417.876ZM147.025 418.96V421.307H155.541V418.96H147.025ZM170.561 413.182V416.613H169.281V408.951H170.561V411.884H172.446V413.182H170.561ZM159.379 415.884V409.218H160.641V411.316H165.637V409.218H166.899V415.884H159.379ZM165.637 412.418H160.641V414.764H165.637V412.418ZM170.561 417.413V422.391H159.806V417.413H170.561ZM169.264 421.253V418.551H161.104V421.253H169.264ZM184.64 415.884V422.604H183.36V408.951H184.64V414.604H186.524V415.884H184.64ZM180.764 409.378V421.751H173.617V409.378H174.897V414.231H179.502V409.378H180.764ZM179.502 415.458H174.897V420.507H179.502V415.458Z" fill="#9A9A9A"/>
<path d="M350 397L355 402L350 407" stroke="black" stroke-linecap="round"/>
<rect x="44" y="529.5" width="37" height="37" rx="4" fill="#D9D9D9"/>
<path d="M114.249 534.884V541.604H112.969V527.951H114.249V533.604H116.133V534.884H114.249ZM108.364 539.524C108.981 539.524 109.597 539.465 110.213 539.347C110.83 539.216 111.333 539.05 111.724 538.849V540.093C111.345 540.295 110.841 540.455 110.213 540.573C109.585 540.692 108.951 540.751 108.311 540.751H103.227V528.484H110.711V529.711H104.524V539.524H108.364ZM130.211 531.844H128.327V534.671H127.047V527.951H128.327V530.547H130.211V531.844ZM124.434 529.64C124.434 532.804 121.963 534.387 117.02 534.387V533.249C118.976 533.237 120.487 532.959 121.554 532.413C122.62 531.856 123.154 530.991 123.154 529.818V529.462H117.02V528.324H124.434V529.64ZM128.469 540.36V541.391H117.589V535.471H128.327V536.502H118.869V537.924H128.149V538.902H118.869V540.36H128.469ZM141.481 541.604V527.951H142.778V541.604H141.481ZM135.223 528.307C136.408 528.307 137.35 528.84 138.05 529.907C138.761 530.973 139.116 532.544 139.116 534.618C139.116 536.692 138.761 538.262 138.05 539.329C137.35 540.396 136.408 540.929 135.223 540.929C134.038 540.929 133.09 540.396 132.378 539.329C131.679 538.262 131.33 536.692 131.33 534.618C131.33 532.544 131.679 530.973 132.378 529.907C133.09 528.84 134.038 528.307 135.223 528.307ZM135.223 529.533C134.429 529.533 133.795 529.96 133.321 530.813C132.847 531.655 132.61 532.923 132.61 534.618C132.61 536.324 132.847 537.599 133.321 538.44C133.795 539.281 134.429 539.702 135.223 539.702C135.993 539.702 136.621 539.281 137.107 538.44C137.593 537.587 137.836 536.313 137.836 534.618C137.836 532.935 137.593 531.667 137.107 530.813C136.621 529.96 135.993 529.533 135.223 529.533ZM160.461 541.604H159.181V534.92H156.55V533.604H159.181V527.951H160.461V541.604ZM154.008 539.524C154.624 539.524 155.234 539.465 155.839 539.347C156.455 539.228 156.965 539.074 157.368 538.884V540.093C156.977 540.307 156.473 540.473 155.857 540.591C155.24 540.698 154.606 540.751 153.954 540.751H149.048V533.942H154.346V529.711H149.012V528.484H155.626V535.151H150.328V539.524H154.008ZM173.153 535.382V527.951H174.45V535.382H173.153ZM167.819 533.32C168.767 533.32 169.615 533.267 170.361 533.16C171.108 533.041 171.701 532.881 172.139 532.68V533.871C171.724 534.073 171.132 534.227 170.361 534.333C169.603 534.44 168.732 534.493 167.748 534.493H163.037V528.236H164.335V533.32H167.819ZM169.064 535.844C170.735 535.844 172.08 536.081 173.099 536.556C174.13 537.018 174.646 537.735 174.646 538.707C174.646 539.679 174.13 540.401 173.099 540.876C172.08 541.338 170.735 541.569 169.064 541.569C167.393 541.569 166.047 541.338 165.028 540.876C164.009 540.401 163.499 539.679 163.499 538.707C163.499 537.735 164.009 537.018 165.028 536.556C166.047 536.081 167.393 535.844 169.064 535.844ZM169.064 536.982C167.819 536.982 166.806 537.13 166.024 537.427C165.241 537.723 164.85 538.15 164.85 538.707C164.85 539.264 165.241 539.69 166.024 539.987C166.806 540.283 167.819 540.431 169.064 540.431C170.308 540.431 171.321 540.283 172.104 539.987C172.886 539.69 173.277 539.264 173.277 538.707C173.277 538.15 172.886 537.723 172.104 537.427C171.321 537.13 170.308 536.982 169.064 536.982ZM183.124 530.173V531.382H176.208V530.173H179.017V527.916H180.297V530.173H183.124ZM188.884 541.604H187.675V534.813H185.382V541.373H184.173V528.022H185.382V533.551H187.675V527.951H188.884V541.604ZM179.728 532.573C180.309 532.573 180.825 532.739 181.275 533.071C181.737 533.391 182.093 533.865 182.342 534.493C182.603 535.11 182.733 535.856 182.733 536.733C182.733 537.61 182.603 538.363 182.342 538.991C182.093 539.619 181.737 540.099 181.275 540.431C180.825 540.751 180.309 540.911 179.728 540.911C178.84 540.911 178.123 540.544 177.577 539.809C177.032 539.074 176.76 538.049 176.76 536.733C176.76 535.418 177.032 534.399 177.577 533.676C178.123 532.941 178.84 532.573 179.728 532.573ZM179.728 539.72C180.262 539.72 180.694 539.453 181.026 538.92C181.358 538.387 181.524 537.658 181.524 536.733C181.524 535.809 181.358 535.08 181.026 534.547C180.694 534.013 180.262 533.747 179.728 533.747C179.195 533.747 178.763 534.013 178.431 534.547C178.111 535.068 177.951 535.797 177.951 536.733C177.951 537.67 178.111 538.404 178.431 538.938C178.763 539.459 179.195 539.72 179.728 539.72ZM203.495 540.911H190.553V539.667H193.629V535.773C192.858 535.43 192.266 534.967 191.851 534.387C191.436 533.794 191.229 533.113 191.229 532.342C191.229 531.513 191.466 530.79 191.94 530.173C192.414 529.557 193.09 529.083 193.967 528.751C194.844 528.407 195.863 528.236 197.024 528.236C198.186 528.236 199.205 528.407 200.082 528.751C200.959 529.083 201.635 529.557 202.109 530.173C202.583 530.79 202.82 531.513 202.82 532.342C202.82 533.113 202.613 533.794 202.198 534.387C201.783 534.967 201.19 535.43 200.42 535.773V539.667H203.495V540.911ZM197.024 529.462C196.135 529.462 195.353 529.581 194.678 529.818C194.002 530.055 193.481 530.393 193.113 530.831C192.746 531.27 192.562 531.773 192.562 532.342C192.562 532.911 192.746 533.415 193.113 533.853C193.481 534.292 194.002 534.63 194.678 534.867C195.353 535.104 196.135 535.222 197.024 535.222C197.913 535.222 198.695 535.104 199.371 534.867C200.047 534.63 200.568 534.292 200.935 533.853C201.303 533.415 201.487 532.911 201.487 532.342C201.487 531.773 201.303 531.27 200.935 530.831C200.568 530.393 200.047 530.055 199.371 529.818C198.695 529.581 197.913 529.462 197.024 529.462ZM199.14 539.667V536.218C198.464 536.372 197.759 536.449 197.024 536.449C196.23 536.449 195.525 536.372 194.909 536.218V539.667H199.14Z" fill="black"/>
<path d="M114.249 559.164H116.133V560.284H114.249V561.671H112.969V554.951H114.249V556.213H116.133V557.316H114.249V559.164ZM106.871 558.773C106.421 559.484 105.828 560.077 105.093 560.551C104.37 561.013 103.547 561.316 102.622 561.458V560.249C103.44 560.083 104.151 559.751 104.756 559.253C105.372 558.756 105.84 558.145 106.16 557.422C106.48 556.699 106.646 555.923 106.658 555.093L107.938 555.164C107.938 556.041 107.778 556.901 107.458 557.742L111.636 560.213L110.996 561.244L106.871 558.773ZM114.604 567.36V568.391H103.511V564.96H112.969V563.502H103.476V562.471H114.249V565.902H104.827V567.36H114.604ZM130.211 558.898H128.327V561.956H127.047V554.951H128.327V557.636H130.211V558.898ZM123.385 556.338H117.109V555.324H124.647V558.898H118.425V560.498H121.696C122.644 560.498 123.491 560.444 124.238 560.338C124.997 560.219 125.589 560.059 126.016 559.858V560.889C125.601 561.09 125.008 561.244 124.238 561.351C123.468 561.458 122.597 561.511 121.625 561.511H117.145V557.938H123.385V556.338ZM128.683 567.378V568.391H117.589V565.102H127.065V563.751H117.554V562.756H128.327V566.027H118.869V567.378H128.683ZM142.405 561.884V568.604H141.125V554.951H142.405V560.604H144.29V561.884H142.405ZM136.521 566.524C137.137 566.524 137.753 566.465 138.37 566.347C138.986 566.228 139.49 566.074 139.881 565.884V567.093C139.501 567.307 139.004 567.473 138.387 567.591C137.771 567.698 137.143 567.751 136.503 567.751H131.365V560.907H137.232V556.711H131.33V555.484H138.512V562.116H132.645V566.524H136.521ZM151.274 560.089C149.603 560.089 148.234 559.876 147.168 559.449C146.113 559.022 145.585 558.37 145.585 557.493C145.585 556.628 146.119 555.976 147.185 555.538C148.252 555.099 149.615 554.88 151.274 554.88C152.922 554.88 154.279 555.099 155.345 555.538C156.412 555.976 156.945 556.628 156.945 557.493C156.945 558.37 156.412 559.022 155.345 559.449C154.291 559.876 152.934 560.089 151.274 560.089ZM151.274 555.982C150.018 555.982 148.975 556.113 148.145 556.373C147.328 556.622 146.919 556.996 146.919 557.493C146.919 557.991 147.328 558.37 148.145 558.631C148.975 558.88 150.018 559.004 151.274 559.004C152.519 559.004 153.55 558.88 154.368 558.631C155.197 558.37 155.612 557.991 155.612 557.493C155.612 556.996 155.197 556.622 154.368 556.373C153.55 556.113 152.519 555.982 151.274 555.982ZM151.914 563.876H156.803V568.409H145.745V563.876H150.634V562.311H144.803V561.209H157.745V562.311H151.914V563.876ZM147.025 564.96V567.307H155.541V564.96H147.025ZM170.561 559.182V562.613H169.281V554.951H170.561V557.884H172.446V559.182H170.561ZM159.379 561.884V555.218H160.641V557.316H165.637V555.218H166.899V561.884H159.379ZM165.637 558.418H160.641V560.764H165.637V558.418ZM170.561 563.413V568.391H159.806V563.413H170.561ZM169.264 567.253V564.551H161.104V567.253H169.264ZM184.64 561.884V568.604H183.36V554.951H184.64V560.604H186.524V561.884H184.64ZM180.764 555.378V567.751H173.617V555.378H174.897V560.231H179.502V555.378H180.764ZM179.502 561.458H174.897V566.507H179.502V561.458Z" fill="#9A9A9A"/>
<path d="M350 543L355 548L350 553" stroke="black" stroke-linecap="round"/>
<rect x="44" y="675.5" width="37" height="37" rx="4" fill="#D9D9D9"/>
<path d="M114.249 680.884V687.604H112.969V673.951H114.249V679.604H116.133V680.884H114.249ZM108.364 685.524C108.981 685.524 109.597 685.465 110.213 685.347C110.83 685.216 111.333 685.05 111.724 684.849V686.093C111.345 686.295 110.841 686.455 110.213 686.573C109.585 686.692 108.951 686.751 108.311 686.751H103.227V674.484H110.711V675.711H104.524V685.524H108.364ZM130.211 677.844H128.327V680.671H127.047V673.951H128.327V676.547H130.211V677.844ZM124.434 675.64C124.434 678.804 121.963 680.387 117.02 680.387V679.249C118.976 679.237 120.487 678.959 121.554 678.413C122.62 677.856 123.154 676.991 123.154 675.818V675.462H117.02V674.324H124.434V675.64ZM128.469 686.36V687.391H117.589V681.471H128.327V682.502H118.869V683.924H128.149V684.902H118.869V686.36H128.469ZM141.481 687.604V673.951H142.778V687.604H141.481ZM135.223 674.307C136.408 674.307 137.35 674.84 138.05 675.907C138.761 676.973 139.116 678.544 139.116 680.618C139.116 682.692 138.761 684.262 138.05 685.329C137.35 686.396 136.408 686.929 135.223 686.929C134.038 686.929 133.09 686.396 132.378 685.329C131.679 684.262 131.33 682.692 131.33 680.618C131.33 678.544 131.679 676.973 132.378 675.907C133.09 674.84 134.038 674.307 135.223 674.307ZM135.223 675.533C134.429 675.533 133.795 675.96 133.321 676.813C132.847 677.655 132.61 678.923 132.61 680.618C132.61 682.324 132.847 683.599 133.321 684.44C133.795 685.281 134.429 685.702 135.223 685.702C135.993 685.702 136.621 685.281 137.107 684.44C137.593 683.587 137.836 682.313 137.836 680.618C137.836 678.935 137.593 677.667 137.107 676.813C136.621 675.96 135.993 675.533 135.223 675.533ZM160.461 687.604H159.181V680.92H156.55V679.604H159.181V673.951H160.461V687.604ZM154.008 685.524C154.624 685.524 155.234 685.465 155.839 685.347C156.455 685.228 156.965 685.074 157.368 684.884V686.093C156.977 686.307 156.473 686.473 155.857 686.591C155.24 686.698 154.606 686.751 153.954 686.751H149.048V679.942H154.346V675.711H149.012V674.484H155.626V681.151H150.328V685.524H154.008ZM173.153 681.382V673.951H174.45V681.382H173.153ZM167.819 679.32C168.767 679.32 169.615 679.267 170.361 679.16C171.108 679.041 171.701 678.881 172.139 678.68V679.871C171.724 680.073 171.132 680.227 170.361 680.333C169.603 680.44 168.732 680.493 167.748 680.493H163.037V674.236H164.335V679.32H167.819ZM169.064 681.844C170.735 681.844 172.08 682.081 173.099 682.556C174.13 683.018 174.646 683.735 174.646 684.707C174.646 685.679 174.13 686.401 173.099 686.876C172.08 687.338 170.735 687.569 169.064 687.569C167.393 687.569 166.047 687.338 165.028 686.876C164.009 686.401 163.499 685.679 163.499 684.707C163.499 683.735 164.009 683.018 165.028 682.556C166.047 682.081 167.393 681.844 169.064 681.844ZM169.064 682.982C167.819 682.982 166.806 683.13 166.024 683.427C165.241 683.723 164.85 684.15 164.85 684.707C164.85 685.264 165.241 685.69 166.024 685.987C166.806 686.283 167.819 686.431 169.064 686.431C170.308 686.431 171.321 686.283 172.104 685.987C172.886 685.69 173.277 685.264 173.277 684.707C173.277 684.15 172.886 683.723 172.104 683.427C171.321 683.13 170.308 682.982 169.064 682.982ZM183.124 676.173V677.382H176.208V676.173H179.017V673.916H180.297V676.173H183.124ZM188.884 687.604H187.675V680.813H185.382V687.373H184.173V674.022H185.382V679.551H187.675V673.951H188.884V687.604ZM179.728 678.573C180.309 678.573 180.825 678.739 181.275 679.071C181.737 679.391 182.093 679.865 182.342 680.493C182.603 681.11 182.733 681.856 182.733 682.733C182.733 683.61 182.603 684.363 182.342 684.991C182.093 685.619 181.737 686.099 181.275 686.431C180.825 686.751 180.309 686.911 179.728 686.911C178.84 686.911 178.123 686.544 177.577 685.809C177.032 685.074 176.76 684.049 176.76 682.733C176.76 681.418 177.032 680.399 177.577 679.676C178.123 678.941 178.84 678.573 179.728 678.573ZM179.728 685.72C180.262 685.72 180.694 685.453 181.026 684.92C181.358 684.387 181.524 683.658 181.524 682.733C181.524 681.809 181.358 681.08 181.026 680.547C180.694 680.013 180.262 679.747 179.728 679.747C179.195 679.747 178.763 680.013 178.431 680.547C178.111 681.068 177.951 681.797 177.951 682.733C177.951 683.67 178.111 684.404 178.431 684.938C178.763 685.459 179.195 685.72 179.728 685.72ZM203.495 686.911H190.553V685.667H193.629V681.773C192.858 681.43 192.266 680.967 191.851 680.387C191.436 679.794 191.229 679.113 191.229 678.342C191.229 677.513 191.466 676.79 191.94 676.173C192.414 675.557 193.09 675.083 193.967 674.751C194.844 674.407 195.863 674.236 197.024 674.236C198.186 674.236 199.205 674.407 200.082 674.751C200.959 675.083 201.635 675.557 202.109 676.173C202.583 676.79 202.82 677.513 202.82 678.342C202.82 679.113 202.613 679.794 202.198 680.387C201.783 680.967 201.19 681.43 200.42 681.773V685.667H203.495V686.911ZM197.024 675.462C196.135 675.462 195.353 675.581 194.678 675.818C194.002 676.055 193.481 676.393 193.113 676.831C192.746 677.27 192.562 677.773 192.562 678.342C192.562 678.911 192.746 679.415 193.113 679.853C193.481 680.292 194.002 680.63 194.678 680.867C195.353 681.104 196.135 681.222 197.024 681.222C197.913 681.222 198.695 681.104 199.371 680.867C200.047 680.63 200.568 680.292 200.935 679.853C201.303 679.415 201.487 678.911 201.487 678.342C201.487 677.773 201.303 677.27 200.935 676.831C200.568 676.393 200.047 676.055 199.371 675.818C198.695 675.581 197.913 675.462 197.024 675.462ZM199.14 685.667V682.218C198.464 682.372 197.759 682.449 197.024 682.449C196.23 682.449 195.525 682.372 194.909 682.218V685.667H199.14Z" fill="black"/>
<path d="M114.249 705.164H116.133V706.284H114.249V707.671H112.969V700.951H114.249V702.213H116.133V703.316H114.249V705.164ZM106.871 704.773C106.421 705.484 105.828 706.077 105.093 706.551C104.37 707.013 103.547 707.316 102.622 707.458V706.249C103.44 706.083 104.151 705.751 104.756 705.253C105.372 704.756 105.84 704.145 106.16 703.422C106.48 702.699 106.646 701.923 106.658 701.093L107.938 701.164C107.938 702.041 107.778 702.901 107.458 703.742L111.636 706.213L110.996 707.244L106.871 704.773ZM114.604 713.36V714.391H103.511V710.96H112.969V709.502H103.476V708.471H114.249V711.902H104.827V713.36H114.604ZM130.211 704.898H128.327V707.956H127.047V700.951H128.327V703.636H130.211V704.898ZM123.385 702.338H117.109V701.324H124.647V704.898H118.425V706.498H121.696C122.644 706.498 123.491 706.444 124.238 706.338C124.997 706.219 125.589 706.059 126.016 705.858V706.889C125.601 707.09 125.008 707.244 124.238 707.351C123.468 707.458 122.597 707.511 121.625 707.511H117.145V703.938H123.385V702.338ZM128.683 713.378V714.391H117.589V711.102H127.065V709.751H117.554V708.756H128.327V712.027H118.869V713.378H128.683ZM142.405 707.884V714.604H141.125V700.951H142.405V706.604H144.29V707.884H142.405ZM136.521 712.524C137.137 712.524 137.753 712.465 138.37 712.347C138.986 712.228 139.49 712.074 139.881 711.884V713.093C139.501 713.307 139.004 713.473 138.387 713.591C137.771 713.698 137.143 713.751 136.503 713.751H131.365V706.907H137.232V702.711H131.33V701.484H138.512V708.116H132.645V712.524H136.521ZM151.274 706.089C149.603 706.089 148.234 705.876 147.168 705.449C146.113 705.022 145.585 704.37 145.585 703.493C145.585 702.628 146.119 701.976 147.185 701.538C148.252 701.099 149.615 700.88 151.274 700.88C152.922 700.88 154.279 701.099 155.345 701.538C156.412 701.976 156.945 702.628 156.945 703.493C156.945 704.37 156.412 705.022 155.345 705.449C154.291 705.876 152.934 706.089 151.274 706.089ZM151.274 701.982C150.018 701.982 148.975 702.113 148.145 702.373C147.328 702.622 146.919 702.996 146.919 703.493C146.919 703.991 147.328 704.37 148.145 704.631C148.975 704.88 150.018 705.004 151.274 705.004C152.519 705.004 153.55 704.88 154.368 704.631C155.197 704.37 155.612 703.991 155.612 703.493C155.612 702.996 155.197 702.622 154.368 702.373C153.55 702.113 152.519 701.982 151.274 701.982ZM151.914 709.876H156.803V714.409H145.745V709.876H150.634V708.311H144.803V707.209H157.745V708.311H151.914V709.876ZM147.025 710.96V713.307H155.541V710.96H147.025ZM170.561 705.182V708.613H169.281V700.951H170.561V703.884H172.446V705.182H170.561ZM159.379 707.884V701.218H160.641V703.316H165.637V701.218H166.899V707.884H159.379ZM165.637 704.418H160.641V706.764H165.637V704.418ZM170.561 709.413V714.391H159.806V709.413H170.561ZM169.264 713.253V710.551H161.104V713.253H169.264ZM184.64 707.884V714.604H183.36V700.951H184.64V706.604H186.524V707.884H184.64ZM180.764 701.378V713.751H173.617V701.378H174.897V706.231H179.502V701.378H180.764ZM179.502 707.458H174.897V712.507H179.502V707.458Z" fill="#9A9A9A"/>
<path d="M350 689L355 694L350 699" stroke="black" stroke-linecap="round"/>
<path d="M43 220H361" stroke="#D9D9D9"/>
<path d="M43 366H361" stroke="#D9D9D9"/>
<path d="M43 512H361" stroke="#D9D9D9"/>
<path d="M43 658H361" stroke="#D9D9D9"/>
<path d="M43 294H361" stroke="#D9D9D9"/>
<path d="M43 440H361" stroke="#D9D9D9"/>
<path d="M43 586H361" stroke="#D9D9D9"/>
<path d="M43 732H361" stroke="#D9D9D9"/>
<path d="M41.72 112.36C40.7333 112.36 40.0267 112.213 39.6 111.92C39.2 111.627 38.9467 111.24 38.84 110.76C38.7333 110.28 38.68 109.787 38.68 109.28V87.44C38.68 86.9067 38.7333 86.4133 38.84 85.96C38.9467 85.5067 39.2133 85.1333 39.64 84.84C40.0667 84.5467 40.7733 84.4 41.76 84.4C42.7467 84.4 43.44 84.5467 43.84 84.84C44.2667 85.1333 44.52 85.5067 44.6 85.96C44.7067 86.4133 44.76 86.92 44.76 87.48V109.32C44.76 109.827 44.7067 110.32 44.6 110.8C44.52 111.253 44.2667 111.627 43.84 111.92C43.4133 112.213 42.7067 112.36 41.72 112.36ZM24.76 112.36C23.7733 112.36 23.0667 112.213 22.64 111.92C22.2133 111.627 21.9467 111.24 21.84 110.76C21.76 110.28 21.72 109.787 21.72 109.28V87.44C21.72 86.9067 21.7733 86.4133 21.88 85.96C21.9867 85.5067 22.24 85.1333 22.64 84.84C23.0667 84.5467 23.7867 84.4 24.8 84.4C25.7867 84.4 26.48 84.5467 26.88 84.84C27.3067 85.1333 27.56 85.5067 27.64 85.96C27.7467 86.4133 27.8 86.92 27.8 87.48V109.32C27.8 109.827 27.7467 110.32 27.64 110.8C27.56 111.253 27.3067 111.627 26.88 111.92C26.4533 112.213 25.7467 112.36 24.76 112.36ZM26.84 100.92V95.64H39.32V100.92H26.84ZM61.1644 112.76C59.2444 112.76 57.431 112.4 55.7244 111.68C54.0444 110.933 52.5644 109.92 51.2844 108.64C50.031 107.333 49.031 105.827 48.2844 104.12C47.5644 102.413 47.2044 100.573 47.2044 98.6C47.2044 96.6 47.551 94.7333 48.2444 93C48.9644 91.24 49.9377 89.6933 51.1644 88.36C52.4177 87.0267 53.871 85.9867 55.5244 85.24C57.1777 84.4933 58.951 84.12 60.8444 84.12C62.7644 84.12 64.5644 84.4933 66.2444 85.24C67.951 85.96 69.431 86.9733 70.6844 88.28C71.9377 89.5867 72.9244 91.1067 73.6444 92.84C74.391 94.5733 74.7644 96.4533 74.7644 98.48C74.7644 100.427 74.4044 102.267 73.6844 104C72.991 105.707 72.0177 107.227 70.7644 108.56C69.511 109.867 68.0577 110.893 66.4044 111.64C64.7777 112.387 63.031 112.76 61.1644 112.76ZM60.9644 106.68C62.031 106.68 63.031 106.467 63.9644 106.04C64.8977 105.613 65.711 105.04 66.4044 104.32C67.1244 103.573 67.671 102.707 68.0444 101.72C68.4444 100.707 68.6444 99.6133 68.6444 98.44C68.6444 97.32 68.4444 96.2667 68.0444 95.28C67.6444 94.2667 67.0844 93.3867 66.3644 92.64C65.671 91.8667 64.8577 91.2667 63.9244 90.84C63.0177 90.4133 62.031 90.2 60.9644 90.2C59.9244 90.2 58.9377 90.4133 58.0044 90.84C57.0977 91.2667 56.2844 91.8667 55.5644 92.64C54.871 93.3867 54.311 94.2667 53.8844 95.28C53.4844 96.2667 53.2844 97.3333 53.2844 98.48C53.2844 99.6 53.4844 100.667 53.8844 101.68C54.311 102.667 54.871 103.533 55.5644 104.28C56.2844 105.027 57.0977 105.613 58.0044 106.04C58.911 106.467 59.8977 106.68 60.9644 106.68ZM80.7088 112.36C79.7488 112.36 79.0554 112.227 78.6288 111.96C78.2021 111.667 77.9354 111.28 77.8288 110.8C77.7221 110.32 77.6688 109.827 77.6688 109.32V87.44C77.6688 86.9067 77.7088 86.4133 77.7888 85.96C77.8954 85.5067 78.1621 85.1333 78.5888 84.84C79.0154 84.5467 79.7221 84.4 80.7088 84.4C81.7221 84.4 82.4288 84.5467 82.8288 84.84C83.2554 85.1333 83.5088 85.5067 83.5888 85.96C83.6954 86.4133 83.7488 86.9067 83.7488 87.44V107.08H94.7088C95.1621 107.08 95.5888 107.12 95.9888 107.2C96.3888 107.28 96.7087 107.507 96.9488 107.88C97.2154 108.253 97.3488 108.867 97.3488 109.72C97.3488 110.547 97.2154 111.16 96.9488 111.56C96.6821 111.933 96.3488 112.16 95.9488 112.24C95.5754 112.32 95.1621 112.36 94.7088 112.36H80.7088ZM112.766 112.76C110.846 112.76 109.033 112.4 107.326 111.68C105.646 110.933 104.166 109.92 102.886 108.64C101.633 107.333 100.633 105.827 99.8859 104.12C99.1659 102.413 98.8059 100.573 98.8059 98.6C98.8059 96.6 99.1526 94.7333 99.8459 93C100.566 91.24 101.539 89.6933 102.766 88.36C104.019 87.0267 105.473 85.9867 107.126 85.24C108.779 84.4933 110.553 84.12 112.446 84.12C114.366 84.12 116.166 84.4933 117.846 85.24C119.553 85.96 121.033 86.9733 122.286 88.28C123.539 89.5867 124.526 91.1067 125.246 92.84C125.993 94.5733 126.366 96.4533 126.366 98.48C126.366 100.427 126.006 102.267 125.286 104C124.593 105.707 123.619 107.227 122.366 108.56C121.113 109.867 119.659 110.893 118.006 111.64C116.379 112.387 114.633 112.76 112.766 112.76ZM112.566 106.68C113.633 106.68 114.633 106.467 115.566 106.04C116.499 105.613 117.313 105.04 118.006 104.32C118.726 103.573 119.273 102.707 119.646 101.72C120.046 100.707 120.246 99.6133 120.246 98.44C120.246 97.32 120.046 96.2667 119.646 95.28C119.246 94.2667 118.686 93.3867 117.966 92.64C117.273 91.8667 116.459 91.2667 115.526 90.84C114.619 90.4133 113.633 90.2 112.566 90.2C111.526 90.2 110.539 90.4133 109.606 90.84C108.699 91.2667 107.886 91.8667 107.166 92.64C106.473 93.3867 105.913 94.2667 105.486 95.28C105.086 96.2667 104.886 97.3333 104.886 98.48C104.886 99.6 105.086 100.667 105.486 101.68C105.913 102.667 106.473 103.533 107.166 104.28C107.886 105.027 108.699 105.613 109.606 106.04C110.513 106.467 111.499 106.68 112.566 106.68Z" fill="#B77CFF"/>
<path d="M276.767 101.533C274.596 101.533 272.759 100.782 271.255 99.2781C269.752 97.7745 269 95.9374 269 93.7667C269 91.596 269.752 89.7589 271.255 88.2553C272.759 86.7518 274.596 86 276.767 86C278.937 86 280.775 86.7518 282.278 88.2553C283.782 89.7589 284.533 91.596 284.533 93.7667C284.533 94.643 284.394 95.4694 284.115 96.2461C283.836 97.0228 283.458 97.7098 282.98 98.3073L289.671 104.999C289.89 105.218 290 105.496 290 105.835C290 106.174 289.89 106.452 289.671 106.671C289.452 106.89 289.174 107 288.835 107C288.496 107 288.218 106.89 287.999 106.671L281.307 99.9801C280.71 100.458 280.023 100.836 279.246 101.115C278.469 101.394 277.643 101.533 276.767 101.533ZM276.767 99.1437C278.26 99.1437 279.53 98.6209 280.575 97.5754C281.621 96.5299 282.144 95.2603 282.144 93.7667C282.144 92.2731 281.621 91.0036 280.575 89.958C279.53 88.9125 278.26 88.3898 276.767 88.3898C275.273 88.3898 274.004 88.9125 272.958 89.958C271.913 91.0036 271.39 92.2731 271.39 93.7667C271.39 95.2603 271.913 96.5299 272.958 97.5754C274.004 98.6209 275.273 99.1437 276.767 99.1437Z" fill="#5D5D5D"/>
<path d="M324 108.667C323.358 108.667 322.809 108.438 322.352 107.981C321.895 107.524 321.667 106.975 321.667 106.333H326.333C326.333 106.975 326.105 107.524 325.648 107.981C325.191 108.438 324.642 108.667 324 108.667ZM315.833 105.167C315.503 105.167 315.226 105.055 315.002 104.831C314.778 104.608 314.667 104.33 314.667 104C314.667 103.669 314.778 103.392 315.002 103.169C315.226 102.945 315.503 102.833 315.833 102.833H317V94.6666C317 93.0527 317.486 91.6187 318.458 90.3645C319.43 89.1103 320.694 88.2888 322.25 87.8999V87.0833C322.25 86.5971 322.42 86.1839 322.76 85.8437C323.101 85.5034 323.514 85.3333 324 85.3333C324.486 85.3333 324.899 85.5034 325.239 85.8437C325.58 86.1839 325.75 86.5971 325.75 87.0833V87.4624C325.536 87.8902 325.38 88.3277 325.283 88.7749C325.186 89.2221 325.147 89.6791 325.167 90.1458C324.972 90.1069 324.782 90.0728 324.598 90.0437C324.413 90.0145 324.214 89.9999 324 89.9999C322.717 89.9999 321.618 90.4569 320.704 91.3708C319.79 92.2846 319.333 93.3833 319.333 94.6666V102.833H328.667V95.3374C329.017 95.493 329.391 95.6145 329.789 95.702C330.188 95.7895 330.592 95.8333 331 95.8333V102.833H332.167C332.497 102.833 332.774 102.945 332.998 103.169C333.221 103.392 333.333 103.669 333.333 104C333.333 104.33 333.221 104.608 332.998 104.831C332.774 105.055 332.497 105.167 332.167 105.167H315.833ZM328.521 92.4791C327.84 91.7985 327.5 90.9721 327.5 89.9999C327.5 89.0277 327.84 88.2013 328.521 87.5208C329.201 86.8402 330.028 86.4999 331 86.4999C331.972 86.4999 332.798 86.8402 333.479 87.5208C334.16 88.2013 334.5 89.0277 334.5 89.9999C334.5 90.9721 334.16 91.7985 333.479 92.4791C332.798 93.1596 331.972 93.4999 331 93.4999C330.028 93.4999 329.201 93.1596 328.521 92.4791Z" fill="#5D5D5D"/>
<circle cx="331" cy="90" r="3.5" fill="#FF4343"/>
<path d="M372.842 98.225L370.333 102.25C370.12 102.581 369.823 102.717 369.444 102.658C369.065 102.6 368.826 102.376 368.729 101.987L367.913 98.7208L359.95 106.683C359.736 106.897 359.469 107.009 359.148 107.019C358.827 107.028 358.55 106.917 358.317 106.683C358.103 106.469 357.996 106.197 357.996 105.867C357.996 105.536 358.103 105.264 358.317 105.05L366.279 97.0583L363.013 96.2416C362.624 96.1444 362.4 95.9062 362.342 95.5271C362.283 95.1479 362.42 94.8514 362.75 94.6375L366.775 92.1583L366.425 87.4041C366.386 87.0153 366.542 86.7333 366.892 86.5583C367.242 86.3833 367.563 86.4222 367.854 86.675L371.5 89.7375L375.904 87.9583C376.274 87.8028 376.595 87.8611 376.867 88.1333C377.139 88.4055 377.197 88.7264 377.042 89.0958L375.263 93.5L378.325 97.1166C378.578 97.4083 378.617 97.7291 378.442 98.0791C378.267 98.4291 377.985 98.5847 377.596 98.5458L372.842 98.225ZM357.908 90.4083C357.792 90.2916 357.733 90.1555 357.733 90C357.733 89.8444 357.792 89.7083 357.908 89.5916L359.425 88.075C359.542 87.9583 359.678 87.9 359.833 87.9C359.989 87.9 360.125 87.9583 360.242 88.075L361.758 89.5916C361.875 89.7083 361.933 89.8444 361.933 90C361.933 90.1555 361.875 90.2916 361.758 90.4083L360.242 91.925C360.125 92.0416 359.989 92.1 359.833 92.1C359.678 92.1 359.542 92.0416 359.425 91.925L357.908 90.4083ZM370.188 98.0791L371.588 95.775L374.3 95.9791L372.55 93.9083L373.571 91.4L371.063 92.4208L368.992 90.7L369.196 93.3833L366.892 94.8125L369.517 95.4541L370.188 98.0791ZM374.592 107.092L373.075 105.575C372.958 105.458 372.9 105.322 372.9 105.167C372.9 105.011 372.958 104.875 373.075 104.758L374.592 103.242C374.708 103.125 374.845 103.067 375 103.067C375.156 103.067 375.292 103.125 375.408 103.242L376.925 104.758C377.042 104.875 377.1 105.011 377.1 105.167C377.1 105.322 377.042 105.458 376.925 105.575L375.408 107.092C375.292 107.208 375.156 107.267 375 107.267C374.845 107.267 374.708 107.208 374.592 107.092Z" fill="#5D5D5D"/>
<rect y="794.915" width="402" height="79" fill="#FAFAFA"/>
<path d="M119.044 855.529H117.909V843.582H119.044V855.529ZM113.258 845.138C113.247 846.569 113.128 847.891 112.9 849.104L116.68 853.973L115.793 854.673L112.542 850.411C112.169 851.697 111.661 852.719 111.018 853.476C110.375 854.222 109.628 854.658 108.778 854.782V853.616C109.462 853.47 110.053 853.019 110.551 852.262C111.049 851.495 111.433 850.499 111.702 849.276C111.972 848.041 112.117 846.662 112.138 845.138H109.027V844.049H116.276V845.138H113.258ZM132.141 854.922H120.816V853.833H125.887V850.738H121.609V844.049H131.363V845.138H122.729V849.649H131.487V850.738H127.023V853.833H132.141V854.922Z" fill="#A8A8A8"/>
<path d="M122.742 835.238L116.5 833.05L111.075 835.15C110.881 835.228 110.691 835.252 110.506 835.223C110.322 835.194 110.151 835.131 109.996 835.033C109.84 834.936 109.719 834.805 109.631 834.64C109.544 834.474 109.5 834.285 109.5 834.071V817.708C109.5 817.456 109.573 817.232 109.719 817.038C109.865 816.843 110.064 816.697 110.317 816.6L115.742 814.763C115.858 814.724 115.98 814.695 116.106 814.675C116.233 814.656 116.364 814.646 116.5 814.646C116.636 814.646 116.767 814.656 116.894 814.675C117.02 814.695 117.142 814.724 117.258 814.763L123.5 816.95L128.925 814.85C129.119 814.772 129.309 814.748 129.494 814.777C129.678 814.806 129.849 814.87 130.004 814.967C130.16 815.064 130.281 815.195 130.369 815.361C130.456 815.526 130.5 815.715 130.5 815.929V832.292C130.5 832.545 130.427 832.768 130.281 832.963C130.135 833.157 129.936 833.303 129.683 833.4L124.258 835.238C124.142 835.277 124.02 835.306 123.894 835.325C123.767 835.345 123.636 835.354 123.5 835.354C123.364 835.354 123.233 835.345 123.106 835.325C122.98 835.306 122.858 835.277 122.742 835.238ZM122.333 832.642V818.992L117.667 817.358V831.008L122.333 832.642ZM124.667 832.642L128.167 831.475V817.65L124.667 818.992V832.642ZM111.833 832.35L115.333 831.008V817.358L111.833 818.525V832.35Z" fill="#A8A8A8"/>
<path d="M355.718 849.649V855.529H354.598V843.582H355.718V848.529H357.367V849.649H355.718ZM352.327 844.049V854.782H346.073V844.049H352.327ZM351.207 853.693V845.138H347.193V853.693H351.207ZM367.227 855.529V843.582H368.363V855.529H367.227ZM361.752 843.893C362.789 843.893 363.613 844.36 364.225 845.293C364.847 846.227 365.158 847.601 365.158 849.416C365.158 851.23 364.847 852.604 364.225 853.538C363.613 854.471 362.789 854.938 361.752 854.938C360.715 854.938 359.885 854.471 359.263 853.538C358.651 852.604 358.345 851.23 358.345 849.416C358.345 847.601 358.651 846.227 359.263 845.293C359.885 844.36 360.715 843.893 361.752 843.893ZM361.752 844.967C361.057 844.967 360.502 845.34 360.087 846.087C359.672 846.823 359.465 847.933 359.465 849.416C359.465 850.909 359.672 852.024 360.087 852.76C360.502 853.496 361.057 853.864 361.752 853.864C362.426 853.864 362.975 853.496 363.401 852.76C363.826 852.013 364.038 850.899 364.038 849.416C364.038 847.943 363.826 846.833 363.401 846.087C362.975 845.34 362.426 844.967 361.752 844.967Z" fill="#A8A8A8"/>
<path d="M349.825 830.95C350.817 830.192 351.925 829.594 353.15 829.156C354.375 828.719 355.658 828.5 357 828.5C358.342 828.5 359.625 828.719 360.85 829.156C362.075 829.594 363.183 830.192 364.175 830.95C364.856 830.153 365.386 829.249 365.765 828.238C366.144 827.227 366.333 826.147 366.333 825C366.333 822.414 365.424 820.212 363.606 818.394C361.788 816.576 359.586 815.667 357 815.667C354.414 815.667 352.212 816.576 350.394 818.394C348.576 820.212 347.667 822.414 347.667 825C347.667 826.147 347.856 827.227 348.236 828.238C348.615 829.249 349.145 830.153 349.825 830.95ZM354.098 824.986C353.311 824.198 352.917 823.231 352.917 822.083C352.917 820.936 353.311 819.969 354.098 819.181C354.886 818.394 355.853 818 357 818C358.147 818 359.115 818.394 359.902 819.181C360.69 819.969 361.083 820.936 361.083 822.083C361.083 823.231 360.69 824.198 359.902 824.986C359.115 825.773 358.147 826.167 357 826.167C355.853 826.167 354.886 825.773 354.098 824.986ZM357 836.667C355.386 836.667 353.87 836.361 352.45 835.748C351.031 835.136 349.796 834.304 348.746 833.254C347.696 832.204 346.865 830.97 346.252 829.55C345.64 828.131 345.333 826.614 345.333 825C345.333 823.386 345.64 821.87 346.252 820.45C346.865 819.031 347.696 817.796 348.746 816.746C349.796 815.696 351.031 814.865 352.45 814.252C353.87 813.64 355.386 813.333 357 813.333C358.614 813.333 360.131 813.64 361.55 814.252C362.97 814.865 364.204 815.696 365.254 816.746C366.304 817.796 367.136 819.031 367.748 820.45C368.361 821.87 368.667 823.386 368.667 825C368.667 826.614 368.361 828.131 367.748 829.55C367.136 830.97 366.304 832.204 365.254 833.254C364.204 834.304 362.97 835.136 361.55 835.748C360.131 836.361 358.614 836.667 357 836.667ZM359.917 833.881C360.831 833.58 361.667 833.147 362.425 832.583C361.667 832.02 360.831 831.587 359.917 831.286C359.003 830.984 358.031 830.833 357 830.833C355.97 830.833 354.997 830.984 354.083 831.286C353.17 831.587 352.333 832.02 351.575 832.583C352.333 833.147 353.17 833.58 354.083 833.881C354.997 834.183 355.97 834.333 357 834.333C358.031 834.333 359.003 834.183 359.917 833.881ZM358.254 823.338C358.585 823.007 358.75 822.589 358.75 822.083C358.75 821.578 358.585 821.16 358.254 820.829C357.924 820.499 357.506 820.333 357 820.333C356.495 820.333 356.077 820.499 355.746 820.829C355.415 821.16 355.25 821.578 355.25 822.083C355.25 822.589 355.415 823.007 355.746 823.338C356.077 823.668 356.495 823.833 357 823.833C357.506 823.833 357.924 823.668 358.254 823.338Z" fill="#A8A8A8"/>
<path d="M273.153 846.787C273.133 847.886 273.081 848.731 272.998 849.322L275.642 853.942L274.336 854.751L272.531 851.531C271.93 853.605 270.913 854.72 269.482 854.876V853.18C270.136 853.056 270.639 852.428 270.991 851.298C271.344 850.157 271.53 848.653 271.551 846.787H269.638V845.184H271.551V843.551H273.153V845.184H275.067V846.787H273.153ZM280.527 855.529H278.94V849.898H277.447V855.327H275.876V843.644H277.447V848.233H278.94V843.582H280.527V855.529ZM290.854 850.691V843.582H292.534V850.691H290.854ZM290.076 849.727C289.744 849.882 289.283 850.007 288.692 850.1C288.111 850.183 287.463 850.224 286.747 850.224H282.236V843.816H289.314V845.184H283.916V846.367H289.096V847.658H283.916V848.856H286.872C287.535 848.856 288.147 848.814 288.707 848.731C289.278 848.638 289.734 848.519 290.076 848.373V849.727ZM287.649 850.987C289.184 850.987 290.403 851.168 291.305 851.531C292.218 851.894 292.674 852.48 292.674 853.289C292.674 854.098 292.218 854.684 291.305 855.047C290.403 855.41 289.184 855.591 287.649 855.591C286.115 855.591 284.891 855.41 283.978 855.047C283.066 854.684 282.609 854.098 282.609 853.289C282.609 852.48 283.066 851.894 283.978 851.531C284.891 851.168 286.115 850.987 287.649 850.987ZM287.649 854.207C288.624 854.207 289.407 854.134 289.998 853.989C290.589 853.844 290.885 853.61 290.885 853.289C290.885 852.967 290.589 852.734 289.998 852.589C289.407 852.433 288.624 852.356 287.649 852.356C286.675 852.356 285.892 852.433 285.301 852.589C284.709 852.734 284.414 852.967 284.414 853.289C284.414 853.61 284.704 853.844 285.285 853.989C285.876 854.134 286.664 854.207 287.649 854.207Z" fill="#7448DD"/>
<path d="M274 832L271.317 834.683C270.947 835.053 270.524 835.136 270.048 834.931C269.572 834.727 269.333 834.363 269.333 833.838V815.667C269.333 815.025 269.562 814.476 270.019 814.019C270.476 813.562 271.025 813.333 271.667 813.333H290.333C290.975 813.333 291.524 813.562 291.981 814.019C292.438 814.476 292.667 815.025 292.667 815.667V829.667C292.667 830.308 292.438 830.858 291.981 831.315C291.524 831.772 290.975 832 290.333 832H274ZM273.008 829.667H290.333V815.667H271.667V830.979L273.008 829.667ZM275.167 827.333H282.167C282.497 827.333 282.774 827.222 282.998 826.998C283.222 826.774 283.333 826.497 283.333 826.167C283.333 825.836 283.222 825.559 282.998 825.336C282.774 825.112 282.497 825 282.167 825H275.167C274.836 825 274.559 825.112 274.336 825.336C274.112 825.559 274 825.836 274 826.167C274 826.497 274.112 826.774 274.336 826.998C274.559 827.222 274.836 827.333 275.167 827.333ZM275.167 823.833H286.833C287.164 823.833 287.441 823.722 287.665 823.498C287.888 823.274 288 822.997 288 822.667C288 822.336 287.888 822.059 287.665 821.836C287.441 821.612 287.164 821.5 286.833 821.5H275.167C274.836 821.5 274.559 821.612 274.336 821.836C274.112 822.059 274 822.336 274 822.667C274 822.997 274.112 823.274 274.336 823.498C274.559 823.722 274.836 823.833 275.167 823.833ZM275.167 820.333H286.833C287.164 820.333 287.441 820.222 287.665 819.998C287.888 819.774 288 819.497 288 819.167C288 818.836 287.888 818.559 287.665 818.336C287.441 818.112 287.164 818 286.833 818H275.167C274.836 818 274.559 818.112 274.336 818.336C274.112 818.559 274 818.836 274 819.167C274 819.497 274.112 819.774 274.336 819.998C274.559 820.222 274.836 820.333 275.167 820.333Z" fill="#7448DD"/>
<path d="M193.527 855.529H191.924V843.582H193.527V855.529ZM190.633 843.644V855.327H189.031V849.898H187.289C186.978 851.464 186.413 852.682 185.593 853.553C184.774 854.414 183.804 854.85 182.684 854.86V853.196C183.327 853.164 183.887 852.916 184.364 852.449C184.852 851.972 185.225 851.303 185.484 850.442C185.754 849.571 185.889 848.55 185.889 847.378V845.558H182.684V843.956H187.507V847.3C187.507 847.725 187.496 848.036 187.476 848.233H189.031V843.644H190.633ZM205.534 855.529H203.854V843.582H205.534V855.529ZM200.027 843.909C200.027 845.62 199.877 847.238 199.576 848.762L203.138 853.833L201.769 854.86L199.001 850.816C198.555 852.081 197.984 853.066 197.289 853.771C196.605 854.466 195.822 854.834 194.941 854.876V853.071C195.625 852.967 196.216 852.506 196.714 851.687C197.222 850.857 197.611 849.763 197.881 848.404C198.161 847.046 198.306 845.527 198.316 843.847L200.027 843.909ZM219.019 847.984H217.526V852.449H215.846V843.582H217.526V846.273H219.019V847.984ZM215.13 850.084C214.809 850.23 214.337 850.349 213.714 850.442C213.103 850.525 212.444 850.567 211.739 850.567H207.103V849.104H208.379V845.293H207.166V843.816H214.694V845.293H213.481V849.011C214.072 848.959 214.622 848.83 215.13 848.622V850.084ZM210.961 849.104C211.366 849.104 211.666 849.099 211.863 849.089V845.293H209.997V849.104H210.961ZM217.79 853.849V855.436H207.819V851.5H209.53V853.849H217.79Z" fill="#A8A8A8"/>
<g clip-path="url(#clip1_107_385)">
<path d="M191.833 835.5C191.192 835.5 190.642 835.271 190.185 834.814C189.728 834.357 189.5 833.808 189.5 833.167V816.833C189.5 816.192 189.728 815.642 190.185 815.185C190.642 814.728 191.192 814.5 191.833 814.5H196.733C196.986 813.8 197.409 813.236 198.002 812.808C198.595 812.38 199.261 812.167 200 812.167C200.739 812.167 201.405 812.38 201.998 812.808C202.591 813.236 203.014 813.8 203.267 814.5H208.167C208.808 814.5 209.358 814.728 209.815 815.185C210.272 815.642 210.5 816.192 210.5 816.833V833.167C210.5 833.808 210.272 834.357 209.815 834.814C209.358 835.271 208.808 835.5 208.167 835.5H191.833ZM191.833 833.167H208.167V816.833H191.833V833.167ZM194.167 830.833H202.333V828.5H194.167V830.833ZM194.167 826.167H205.833V823.833H194.167V826.167ZM194.167 821.5H205.833V819.167H194.167V821.5ZM200.627 815.71C200.792 815.545 200.875 815.336 200.875 815.083C200.875 814.83 200.792 814.621 200.627 814.456C200.462 814.291 200.253 814.208 200 814.208C199.747 814.208 199.538 814.291 199.373 814.456C199.208 814.621 199.125 814.83 199.125 815.083C199.125 815.336 199.208 815.545 199.373 815.71C199.538 815.876 199.747 815.958 200 815.958C200.253 815.958 200.462 815.876 200.627 815.71Z" fill="#A8A8A8"/>
</g>
<path d="M38.9644 845.138V844.251H43.5689V843.1H44.7044V844.251H49.3556V845.138H38.9644ZM49.8222 850.971H38.4978V850.084H43.6V849.104C42.3037 849.073 41.2822 848.923 40.5356 848.653C39.7993 848.373 39.4311 847.969 39.4311 847.44C39.4311 846.88 39.8511 846.465 40.6911 846.196C41.5415 845.916 42.6978 845.776 44.16 845.776C45.6222 845.776 46.7733 845.916 47.6133 846.196C48.4533 846.465 48.8733 846.88 48.8733 847.44C48.8733 847.969 48.5052 848.373 47.7689 848.653C47.0326 848.923 46.0163 849.073 44.72 849.104V850.084H49.8222V850.971ZM40.5511 847.44C40.5511 847.72 40.883 847.933 41.5467 848.078C42.2104 848.223 43.0815 848.296 44.16 848.296C45.2385 848.296 46.1044 848.223 46.7578 848.078C47.4215 847.933 47.7533 847.72 47.7533 847.44C47.7533 847.16 47.4215 846.947 46.7578 846.802C46.0941 846.657 45.2281 846.584 44.16 846.584C43.0919 846.584 42.2207 846.657 41.5467 846.802C40.883 846.947 40.5511 847.16 40.5511 847.44ZM48.9978 851.998V855.358H39.3222V851.998H48.9978ZM47.8933 854.487V852.853H40.4267V854.487H47.8933Z" fill="#A8A8A8"/>
<path d="M44 813.946C44.2527 813.946 44.5007 813.985 44.7437 814.062C44.9868 814.14 45.2152 814.257 45.4291 814.412L55.9291 822.433C56.1819 822.628 56.3277 822.881 56.3666 823.192C56.4055 823.503 56.3277 823.794 56.1333 824.067C55.9389 824.339 55.6861 824.494 55.375 824.533C55.0639 824.572 54.7722 824.485 54.5 824.271L44 816.25L37 821.617V832H40.5C40.8305 832 41.1076 832.112 41.3312 832.335C41.5548 832.559 41.6666 832.836 41.6666 833.167C41.6666 833.497 41.5548 833.774 41.3312 833.998C41.1076 834.221 40.8305 834.333 40.5 834.333H37C36.3583 834.333 35.809 834.105 35.3521 833.648C34.8951 833.191 34.6666 832.642 34.6666 832V823.396L33.5 824.3C33.2472 824.494 32.9604 824.572 32.6396 824.533C32.3187 824.494 32.0611 824.339 31.8666 824.067C31.6722 823.814 31.5993 823.532 31.6479 823.221C31.6965 822.91 31.8472 822.657 32.1 822.462L42.5708 814.412C42.7847 814.257 43.0132 814.14 43.2562 814.062C43.4993 813.985 43.7472 813.946 44 813.946ZM50.4166 837.104C49.6 837.668 48.7007 837.906 47.7187 837.819C46.7368 837.731 45.8958 837.337 45.1958 836.637C44.4958 835.937 44.1021 835.096 44.0146 834.115C43.9271 833.133 44.1652 832.233 44.7291 831.417C44.1652 830.6 43.9271 829.701 44.0146 828.719C44.1021 827.737 44.4958 826.896 45.1958 826.196C45.8958 825.496 46.7368 825.102 47.7187 825.015C48.7007 824.927 49.6 825.165 50.4166 825.729C51.2333 825.165 52.1326 824.927 53.1146 825.015C54.0965 825.102 54.9375 825.496 55.6375 826.196C56.3375 826.896 56.7312 827.737 56.8187 828.719C56.9062 829.701 56.668 830.6 56.1041 831.417C56.668 832.233 56.9062 833.133 56.8187 834.115C56.7312 835.096 56.3375 835.937 55.6375 836.637C54.9375 837.337 54.0965 837.731 53.1146 837.819C52.1326 837.906 51.2333 837.668 50.4166 837.104ZM50.4166 834.246L51.7583 835.179C52.1083 835.432 52.4875 835.539 52.8958 835.5C53.3041 835.461 53.6639 835.286 53.975 834.975C54.2861 834.664 54.4611 834.304 54.5 833.896C54.5389 833.487 54.4319 833.108 54.1791 832.758L53.2458 831.417L54.1791 830.075C54.4319 829.725 54.5389 829.346 54.5 828.937C54.4611 828.529 54.2861 828.169 53.975 827.858C53.6639 827.547 53.3041 827.372 52.8958 827.333C52.4875 827.294 52.1083 827.401 51.7583 827.654L50.4166 828.587L49.075 827.654C48.725 827.401 48.3458 827.294 47.9375 827.333C47.5291 827.372 47.1694 827.547 46.8583 827.858C46.5472 828.169 46.3722 828.529 46.3333 828.937C46.2944 829.346 46.4014 829.725 46.6541 830.075L47.5875 831.417L46.6541 832.758C46.4014 833.108 46.2944 833.487 46.3333 833.896C46.3722 834.304 46.5472 834.664 46.8583 834.975C47.1694 835.286 47.5291 835.461 47.9375 835.5C48.3458 835.539 48.725 835.432 49.075 835.179L50.4166 834.246ZM51.4521 832.452C51.734 832.17 51.875 831.825 51.875 831.417C51.875 831.008 51.734 830.663 51.4521 830.381C51.1701 830.099 50.825 829.958 50.4166 829.958C50.0083 829.958 49.6632 830.099 49.3812 830.381C49.0993 830.663 48.9583 831.008 48.9583 831.417C48.9583 831.825 49.0993 832.17 49.3812 832.452C49.6632 832.734 50.0083 832.875 50.4166 832.875C50.825 832.875 51.1701 832.734 51.4521 832.452Z" fill="#A8A8A8"/>
</g>
<defs>
<filter id="filter0_d_107_385" x="13.7" y="132.7" width="376.6" height="769.6" filterUnits="userSpaceOnUse" color-interpolation-filters="sRGB">
<feFlood flood-opacity="0" result="BackgroundImageFix"/>
<feColorMatrix in="SourceAlpha" type="matrix" values="0 0 0 0 0 0 0 0 0 0 0 0 0 0 0 0 0 0 127 0" result="hardAlpha"/>
<feOffset/>
<feGaussianBlur stdDeviation="4.15"/>
<feComposite in2="hardAlpha" operator="out"/>
<feColorMatrix type="matrix" values="0 0 0 0 0.870588 0 0 0 0 0.85098 0 0 0 0 0.972549 0 0 0 1 0"/>
<feBlend mode="normal" in2="BackgroundImageFix" result="effect1_dropShadow_107_385"/>
<feBlend mode="normal" in="SourceGraphic" in2="effect1_dropShadow_107_385" result="shape"/>
</filter>
<clipPath id="clip0_107_385">
<rect width="402" height="874" fill="white"/>
</clipPath>
<clipPath id="clip1_107_385">
<rect width="22" height="24" fill="white" transform="translate(189 812)"/>
</clipPath>
</defs>
</svg>
