<svg width="402" height="874" viewBox="0 0 402 874" fill="none" xmlns="http://www.w3.org/2000/svg">
<rect width="402" height="874" fill="white"/>
<path d="M53.1378 231.373C52.7111 232.179 52.1304 232.837 51.3956 233.347C50.6726 233.844 49.843 234.159 48.9067 234.289V233.08C49.9733 232.89 50.8385 232.41 51.5022 231.64C52.1659 230.858 52.5511 229.844 52.6578 228.6H49.0311V227.427H52.6578V225.702H53.9556V227.427H57.4933V228.6H53.9733C53.9141 229.252 53.8133 229.803 53.6711 230.253L57.7244 233.151L57.0311 234.182L53.1378 231.373ZM59.3244 236.156V225.951H60.6222V236.156H59.3244ZM60.9956 239.391H49.7244V235.516H51.0222V238.182H60.9956V239.391ZM63.5359 227.569V226.307H74.6292V232.476H73.2959V227.569H63.5359ZM69.687 235V239.924H68.3892V235H62.647V233.702H75.5892V235H69.687ZM89.6674 233.987H76.7251V232.867H82.5563V231.249H77.7029V226.147H88.7074V231.249H83.8363V232.867H89.6674V233.987ZM87.4274 230.147V227.267H78.9651V230.147H87.4274ZM88.7251 235.48V239.587H87.4451V236.6H77.5429V235.48H88.7251ZM103.745 234.627H90.8033V233.524H96.6344V232.067H91.7988V228.636H101.541V227.142H91.781V226.147H102.785V229.56H93.0433V231.089H102.981V232.067H97.9144V233.524H103.745V234.627ZM102.803 235.996V239.587H101.523V237.098H91.621V235.996H102.803Z" fill="black"/>
<path d="M290.978 239.604H289.751V232.813H287.404V239.373H286.196V226.022H287.404V231.551H289.751V225.951H290.978V239.604ZM282.142 237.542C282.687 237.542 283.227 237.495 283.76 237.4C284.293 237.305 284.761 237.175 285.164 237.009V238.218C284.773 238.384 284.293 238.514 283.724 238.609C283.167 238.704 282.587 238.751 281.982 238.751H279.013V226.449H280.258V237.542H282.142ZM297.034 232.369V231.107H306.776V227.622H297.034V226.378H308.074V235.978H306.776V232.369H297.034ZM309.105 238.911H296.163V237.649H301.212V234.324H302.492V237.649H309.105V238.911ZM312.427 227.729V233.204H322.436V234.449H311.147V226.484H322.294V227.729H312.427ZM310.241 238.911V237.649H323.183V238.911H310.241ZM329.168 229.969C328.883 229.969 328.646 229.874 328.457 229.684C328.267 229.495 328.172 229.258 328.172 228.973C328.172 228.689 328.267 228.458 328.457 228.28C328.646 228.09 328.883 227.996 329.168 227.996C329.452 227.996 329.689 228.09 329.879 228.28C330.069 228.458 330.163 228.689 330.163 228.973C330.163 229.258 330.069 229.495 329.879 229.684C329.689 229.874 329.452 229.969 329.168 229.969ZM329.168 237.56C328.895 237.56 328.658 237.465 328.457 237.276C328.267 237.086 328.172 236.849 328.172 236.564C328.172 236.28 328.267 236.043 328.457 235.853C328.658 235.664 328.895 235.569 329.168 235.569C329.44 235.569 329.672 235.664 329.861 235.853C330.063 236.043 330.163 236.28 330.163 236.564C330.163 236.849 330.063 237.086 329.861 237.276C329.672 237.465 329.44 237.56 329.168 237.56ZM339.2 229.56C340.374 229.56 341.268 229.868 341.885 230.484C342.513 231.089 342.827 231.996 342.827 233.204V239H341.618V237.4C341.346 237.933 340.943 238.348 340.409 238.644C339.888 238.941 339.266 239.089 338.543 239.089C337.535 239.089 336.741 238.84 336.16 238.342C335.58 237.844 335.289 237.187 335.289 236.369C335.289 235.575 335.568 234.935 336.125 234.449C336.682 233.963 337.553 233.72 338.738 233.72H341.547C341.547 233.364 341.523 233.062 341.476 232.813C341.369 231.391 340.563 230.68 339.058 230.68C338.489 230.68 337.944 230.781 337.423 230.982C336.901 231.184 336.463 231.456 336.107 231.8L335.556 230.858C336.018 230.443 336.569 230.123 337.209 229.898C337.849 229.673 338.513 229.56 339.2 229.56ZM338.774 238.076C340.148 238.076 341.073 237.447 341.547 236.191V234.627H338.827C337.31 234.627 336.551 235.19 336.551 236.316C336.551 236.861 336.747 237.293 337.138 237.613C337.529 237.921 338.074 238.076 338.774 238.076ZM346.39 227.64C346.129 227.64 345.91 227.551 345.732 227.373C345.554 227.196 345.465 226.976 345.465 226.716C345.465 226.455 345.554 226.241 345.732 226.076C345.91 225.898 346.129 225.809 346.39 225.809C346.651 225.809 346.87 225.898 347.048 226.076C347.237 226.241 347.332 226.449 347.332 226.698C347.332 226.959 347.243 227.184 347.065 227.373C346.888 227.551 346.662 227.64 346.39 227.64ZM344.416 242.52C343.563 242.52 342.923 242.313 342.496 241.898L342.959 240.92C343.113 241.074 343.308 241.193 343.545 241.276C343.771 241.359 344.019 241.4 344.292 241.4C344.766 241.4 345.128 241.252 345.376 240.956C345.637 240.659 345.768 240.227 345.768 239.658V229.649H347.048V239.711C347.048 240.576 346.816 241.258 346.354 241.756C345.892 242.265 345.246 242.52 344.416 242.52ZM354.58 229.56C355.694 229.56 356.577 229.904 357.229 230.591C357.881 231.267 358.207 232.256 358.207 233.56V239H356.927V233.72C356.927 232.748 356.696 232.013 356.233 231.516C355.783 231.006 355.137 230.751 354.296 230.751C353.359 230.751 352.613 231.053 352.056 231.658C351.51 232.25 351.238 233.062 351.238 234.093V239H349.958V225.809H351.238V231.409C351.558 230.816 352.002 230.36 352.571 230.04C353.152 229.72 353.821 229.56 354.58 229.56ZM369.231 239H368.005V236.991C367.661 237.655 367.187 238.17 366.583 238.538C365.99 238.905 365.314 239.089 364.556 239.089C363.726 239.089 362.98 238.887 362.316 238.484C361.652 238.081 361.125 237.519 360.734 236.796C360.354 236.073 360.165 235.243 360.165 234.307C360.165 233.382 360.354 232.559 360.734 231.836C361.125 231.113 361.652 230.556 362.316 230.164C362.98 229.761 363.726 229.56 364.556 229.56C365.303 229.56 365.972 229.738 366.565 230.093C367.169 230.449 367.637 230.947 367.969 231.587V225.809H369.231V239ZM364.716 237.916C365.332 237.916 365.889 237.767 366.387 237.471C366.885 237.175 367.276 236.754 367.56 236.209C367.845 235.652 367.987 235.018 367.987 234.307C367.987 233.607 367.845 232.985 367.56 232.44C367.276 231.895 366.885 231.474 366.387 231.178C365.889 230.87 365.332 230.716 364.716 230.716C364.1 230.716 363.543 230.87 363.045 231.178C362.547 231.474 362.156 231.895 361.871 232.44C361.587 232.985 361.445 233.607 361.445 234.307C361.445 235.018 361.587 235.652 361.871 236.209C362.156 236.754 362.547 237.175 363.045 237.471C363.543 237.767 364.1 237.916 364.716 237.916ZM375.221 231.64C378.67 231.64 380.394 232.873 380.394 235.338C380.394 236.061 380.222 236.707 379.879 237.276C379.547 237.844 379.037 238.295 378.35 238.627C377.674 238.959 376.839 239.124 375.843 239.124C374.942 239.124 374.089 238.976 373.283 238.68C372.477 238.384 371.837 237.993 371.363 237.507L372.003 236.458C372.394 236.884 372.928 237.234 373.603 237.507C374.29 237.767 375.031 237.898 375.825 237.898C376.845 237.898 377.627 237.667 378.172 237.204C378.729 236.742 379.008 236.132 379.008 235.373C379.008 234.532 378.699 233.898 378.083 233.471C377.467 233.044 376.412 232.831 374.919 232.831H372.234L372.892 226.556H379.719V227.729H374.048L373.621 231.64H375.221Z" fill="black"/>
<path d="M49.8489 532.418C49.7896 533.603 49.6652 534.676 49.4756 535.636L53.6889 540.862L52.7467 541.733L49.0489 537.111C48.6222 538.462 48.0356 539.541 47.2889 540.347C46.5541 541.141 45.7067 541.609 44.7467 541.751V540.436C45.4933 540.281 46.1393 539.843 46.6844 539.12C47.2415 538.397 47.6741 537.461 47.9822 536.311C48.3022 535.15 48.4919 533.852 48.5511 532.418H44.9778V531.173H48.5689V528.916H49.8667V531.173H53.28V532.418H49.8489ZM56.2489 535.884V542.604H54.9689V528.951H56.2489V534.604H58.1333V535.884H56.2489ZM72.2115 533.591H70.327V539.102H69.047V528.951H70.327V532.311H72.2115V533.591ZM68.0159 535.991C67.6011 536.193 67.0085 536.347 66.2381 536.453C65.4678 536.56 64.5966 536.613 63.6248 536.613H59.1448V529.324H67.0559V530.498H60.4426V535.44H63.6959C64.6441 535.44 65.4915 535.387 66.2381 535.28C66.9966 535.173 67.5892 535.019 68.0159 534.818V535.991ZM70.7181 541.164V542.391H59.5715V538.036H60.8692V541.164H70.7181ZM72.7074 531.44V530.32H76.4585V528.702H77.7562V530.32H81.5074V531.44H72.7074ZM86.2896 534.089H84.4051V539.191H83.1251V528.951H84.4051V532.809H86.2896V534.089ZM77.1163 537.876C76.0022 537.876 75.0837 537.627 74.3607 537.129C73.6496 536.631 73.294 535.95 73.294 535.084C73.294 534.219 73.6496 533.538 74.3607 533.04C75.0837 532.542 76.0022 532.293 77.1163 532.293C78.2303 532.293 79.1429 532.542 79.854 533.04C80.5651 533.538 80.9207 534.219 80.9207 535.084C80.9207 535.95 80.5651 536.631 79.854 537.129C79.1429 537.627 78.2303 537.876 77.1163 537.876ZM77.1163 533.342C76.334 533.342 75.7059 533.508 75.2318 533.84C74.7696 534.16 74.5385 534.575 74.5385 535.084C74.5385 535.594 74.7696 536.015 75.2318 536.347C75.7059 536.667 76.334 536.827 77.1163 536.827C77.8866 536.827 78.5029 536.667 78.9651 536.347C79.4392 536.015 79.6762 535.594 79.6762 535.084C79.6762 534.575 79.4392 534.16 78.9651 533.84C78.5029 533.508 77.8866 533.342 77.1163 533.342ZM84.7963 541.2V542.391H73.6496V538.747H74.9474V541.2H84.7963ZM94.8878 534.373C94.4611 535.179 93.8804 535.837 93.1456 536.347C92.4226 536.844 91.593 537.159 90.6567 537.289V536.08C91.7233 535.89 92.5885 535.41 93.2522 534.64C93.9159 533.858 94.3011 532.844 94.4078 531.6H90.7811V530.427H94.4078V528.702H95.7056V530.427H99.2433V531.6H95.7233C95.6641 532.252 95.5633 532.803 95.4211 533.253L99.4744 536.151L98.7811 537.182L94.8878 534.373ZM101.074 539.156V528.951H102.372V539.156H101.074ZM102.746 542.391H91.4744V538.516H92.7722V541.182H102.746V542.391ZM105.286 530.569V529.307H116.379V535.476H115.046V530.569H105.286ZM111.437 538V542.924H110.139V538H104.397V536.702H117.339V538H111.437Z" fill="black"/>
<path d="M55.3244 585.102V574.951H56.6222V585.102H55.3244ZM49.1022 579.662C48.6163 580.563 48.0059 581.31 47.2711 581.902C46.5363 582.483 45.7067 582.844 44.7822 582.987V581.724C45.6119 581.559 46.3348 581.156 46.9511 580.516C47.5793 579.876 48.0593 579.081 48.3911 578.133C48.723 577.185 48.8889 576.172 48.8889 575.093L50.1689 575.164C50.1689 576.385 49.9852 577.505 49.6178 578.524L53.8667 581.867L53.0844 582.862L49.1022 579.662ZM56.9956 588.391H45.7244V584.142H47.0222V587.164H56.9956V588.391ZM59.4648 576.729V575.467H70.6826V584.48H69.367V576.729H59.4648ZM71.5892 587.911H58.647V586.649H63.607V580.391H64.9226V586.649H71.5892V587.911ZM81.454 577.173V578.4H73.0274V577.173H76.5829V574.916H77.8807V577.173H81.454ZM84.4051 581.884V588.604H83.1251V574.951H84.4051V580.604H86.2896V581.884H84.4051ZM77.2407 579.609C77.9163 579.609 78.5266 579.781 79.0718 580.124C79.617 580.468 80.0437 580.954 80.3518 581.582C80.66 582.21 80.814 582.933 80.814 583.751C80.814 584.569 80.66 585.298 80.3518 585.938C80.0437 586.566 79.617 587.052 79.0718 587.396C78.5266 587.739 77.9163 587.911 77.2407 587.911C76.5533 587.911 75.937 587.739 75.3918 587.396C74.8466 587.052 74.42 586.566 74.1118 585.938C73.8037 585.298 73.6496 584.569 73.6496 583.751C73.6496 582.933 73.8037 582.21 74.1118 581.582C74.42 580.954 74.8466 580.468 75.3918 580.124C75.937 579.781 76.5533 579.609 77.2407 579.609ZM77.2407 586.72C77.6674 586.72 78.0525 586.601 78.3963 586.364C78.7518 586.116 79.0303 585.766 79.2318 585.316C79.4451 584.865 79.5518 584.344 79.5518 583.751C79.5518 583.159 79.4451 582.637 79.2318 582.187C79.0303 581.736 78.7518 581.393 78.3963 581.156C78.0525 580.907 77.6674 580.782 77.2407 580.782C76.8022 580.782 76.4051 580.907 76.0496 581.156C75.7059 581.393 75.4274 581.736 75.214 582.187C75.0125 582.637 74.9118 583.159 74.9118 583.751C74.9118 584.344 75.0125 584.865 75.214 585.316C75.4274 585.766 75.7059 586.116 76.0496 586.364C76.4051 586.601 76.8022 586.72 77.2407 586.72ZM97.5588 588.604V574.951H98.8566V588.604H97.5588ZM94.5899 578.684C94.5899 580.498 94.2996 582.086 93.7188 583.449C93.1381 584.8 92.3084 585.849 91.2299 586.596C90.1633 587.342 88.901 587.716 87.4433 587.716V586.436C88.6403 586.436 89.6773 586.121 90.5544 585.493C91.4314 584.865 92.101 583.976 92.5633 582.827C93.0373 581.665 93.2744 580.302 93.2744 578.738V576.711H87.4433V575.484H94.5899V578.684Z" fill="black"/>
<path d="M19 196H382" stroke="#D9D9D9"/>
<path d="M146.496 372.327C146.122 373.032 145.614 373.607 144.971 374.053C144.339 374.489 143.613 374.764 142.793 374.878V373.82C143.727 373.654 144.484 373.234 145.064 372.56C145.645 371.876 145.982 370.989 146.076 369.9H142.902V368.873H146.076V367.364H147.211V368.873H150.307V369.9H147.227C147.175 370.47 147.087 370.953 146.962 371.347L150.509 373.882L149.902 374.784L146.496 372.327ZM151.909 376.511V367.582H153.044V376.511H151.909ZM153.371 379.342H143.509V375.951H144.644V378.284H153.371V379.342ZM155.594 368.998V367.893H165.301V373.291H164.134V368.998H155.594ZM160.976 375.5V379.809H159.841V375.5H154.816V374.364H166.141V375.5H160.976ZM169.094 370.32V371.362H177.79V372.171H168.006V369.573H176.546V368.562H167.99V367.753H177.619V370.32H169.094ZM167.134 374.038V373.151H178.459V374.038H167.134ZM169.032 377.538V378.549H177.852V379.358H167.959V376.791H176.561V375.811H167.928V375.018H177.65V377.538H169.032ZM187.818 371.813C187.31 372.467 186.636 372.996 185.796 373.4C184.956 373.794 183.991 374.033 182.902 374.116V373.027C184.136 372.923 185.163 372.576 185.982 371.984C186.802 371.393 187.32 370.657 187.538 369.776H183.198V368.702H187.585V367.287H188.72V368.702H193.185V369.776H188.782C188.699 370.221 188.58 370.6 188.425 370.911L193.465 372.98L193.076 374.007L187.818 371.813ZM188.751 376.449V379.809H187.616V376.449H182.529V375.36H193.853V376.449H188.751ZM205.067 373.649V379.529H203.947V367.582H205.067V372.529H206.716V373.649H205.067ZM201.412 368.049V370.849C201.412 372.425 201.168 373.81 200.681 375.002C200.193 376.195 199.488 377.118 198.565 377.771C197.642 378.424 196.548 378.751 195.283 378.751V377.631C196.33 377.631 197.227 377.356 197.974 376.807C198.731 376.257 199.307 375.474 199.701 374.458C200.095 373.441 200.292 372.254 200.292 370.896V369.122H195.283V368.049H201.412ZM216.06 369.527V370.584H210.009V369.527H212.466V367.551H213.586V369.527H216.06ZM221.1 379.529H220.042V373.587H218.035V379.327H216.977V367.644H218.035V372.482H220.042V367.582H221.1V379.529ZM213.089 371.627C213.597 371.627 214.048 371.772 214.442 372.062C214.846 372.342 215.157 372.757 215.375 373.307C215.603 373.846 215.717 374.499 215.717 375.267C215.717 376.034 215.603 376.693 215.375 377.242C215.157 377.792 214.846 378.212 214.442 378.502C214.048 378.782 213.597 378.922 213.089 378.922C212.311 378.922 211.683 378.601 211.206 377.958C210.729 377.315 210.491 376.418 210.491 375.267C210.491 374.116 210.729 373.224 211.206 372.591C211.683 371.948 212.311 371.627 213.089 371.627ZM213.089 377.88C213.555 377.88 213.934 377.647 214.224 377.18C214.515 376.713 214.66 376.076 214.66 375.267C214.66 374.458 214.515 373.82 214.224 373.353C213.934 372.887 213.555 372.653 213.089 372.653C212.622 372.653 212.243 372.887 211.953 373.353C211.673 373.81 211.533 374.447 211.533 375.267C211.533 376.086 211.673 376.729 211.953 377.196C212.243 377.652 212.622 377.88 213.089 377.88ZM233.885 378.922H222.56V377.818H227.647V374.94H223.354V367.956H224.458V370.227H231.987V367.956H233.091V374.94H228.783V377.818H233.885V378.922ZM231.987 373.882V371.284H224.458V373.882H231.987ZM245.736 379.529H244.648V367.582H245.736V379.529ZM242.89 367.644V379.327H241.816V372.871H239.903V371.767H241.816V367.644H242.89ZM238.596 367.924C238.576 369.905 238.488 371.549 238.332 372.856L241.101 378.098L240.183 378.627L238.021 374.52C237.741 375.764 237.357 376.734 236.87 377.429C236.393 378.124 235.77 378.575 235.003 378.782V377.584C235.916 377.263 236.559 376.288 236.932 374.66C237.305 373.021 237.497 370.766 237.508 367.893L238.596 367.924ZM258.521 378.922H247.197V377.833H249.888V374.427C249.214 374.126 248.696 373.721 248.333 373.213C247.97 372.695 247.788 372.099 247.788 371.424C247.788 370.699 247.996 370.066 248.41 369.527C248.825 368.987 249.416 368.573 250.184 368.282C250.951 367.981 251.843 367.831 252.859 367.831C253.876 367.831 254.767 367.981 255.535 368.282C256.302 368.573 256.893 368.987 257.308 369.527C257.723 370.066 257.93 370.699 257.93 371.424C257.93 372.099 257.749 372.695 257.386 373.213C257.023 373.721 256.504 374.126 255.83 374.427V377.833H258.521V378.922ZM252.859 368.904C252.081 368.904 251.397 369.008 250.806 369.216C250.215 369.423 249.758 369.719 249.437 370.102C249.116 370.486 248.955 370.927 248.955 371.424C248.955 371.922 249.116 372.363 249.437 372.747C249.758 373.13 250.215 373.426 250.806 373.633C251.397 373.841 252.081 373.944 252.859 373.944C253.637 373.944 254.321 373.841 254.913 373.633C255.504 373.426 255.96 373.13 256.281 372.747C256.603 372.363 256.764 371.922 256.764 371.424C256.764 370.927 256.603 370.486 256.281 370.102C255.96 369.719 255.504 369.423 254.913 369.216C254.321 369.008 253.637 368.904 252.859 368.904ZM254.71 377.833V374.816C254.119 374.95 253.502 375.018 252.859 375.018C252.164 375.018 251.547 374.95 251.008 374.816V377.833H254.71Z" fill="#979797"/>
<path d="M22 589H38V587H22V589ZM26 583H28V580C28 579.45 28.1958 578.979 28.5875 578.588C28.9792 578.196 29.45 578 30 578V576C28.9 576 27.9583 576.392 27.175 577.175C26.3917 577.958 26 578.9 26 580V583ZM25 585H35V580C35 578.617 34.5125 577.438 33.5375 576.463C32.5625 575.487 31.3833 575 30 575C28.6167 575 27.4375 575.487 26.4625 576.463C25.4875 577.438 25 578.617 25 580V585ZM22 591C21.45 591 20.9792 590.804 20.5875 590.413C20.1958 590.021 20 589.55 20 589V587C20 586.45 20.1958 585.979 20.5875 585.588C20.9792 585.196 21.45 585 22 585H23V580C23 578.05 23.6792 576.396 25.0375 575.038C26.3958 573.679 28.05 573 30 573C31.95 573 33.6042 573.679 34.9625 575.038C36.3208 576.396 37 578.05 37 580V585H38C38.55 585 39.0208 585.196 39.4125 585.588C39.8042 585.979 40 586.45 40 587V589C40 589.55 39.8042 590.021 39.4125 590.413C39.0208 590.804 38.55 591 38 591H22Z" fill="#1F1F1F"/>
<path d="M26.1 545.212C24.8833 544.688 23.825 543.975 22.925 543.075C22.025 542.175 21.3125 541.117 20.7875 539.9C20.2625 538.683 20 537.383 20 536C20 534.617 20.2625 533.317 20.7875 532.1C21.3125 530.883 22.025 529.825 22.925 528.925C23.825 528.025 24.8833 527.312 26.1 526.788C27.3167 526.263 28.6167 526 30 526C31.3833 526 32.6833 526.263 33.9 526.788C35.1167 527.312 36.175 528.025 37.075 528.925C37.975 529.825 38.6875 530.883 39.2125 532.1C39.7375 533.317 40 534.617 40 536C40 537.383 39.7375 538.683 39.2125 539.9C38.6875 541.117 37.975 542.175 37.075 543.075C36.175 543.975 35.1167 544.688 33.9 545.212C32.6833 545.738 31.3833 546 30 546C28.6167 546 27.3167 545.738 26.1 545.212ZM30 544C30.9 544 31.7667 543.854 32.6 543.562C33.4333 543.271 34.2 542.85 34.9 542.3L23.7 531.1C23.15 531.8 22.7292 532.567 22.4375 533.4C22.1458 534.233 22 535.1 22 536C22 538.233 22.775 540.125 24.325 541.675C25.875 543.225 27.7667 544 30 544ZM36.3 540.9C36.85 540.2 37.2708 539.433 37.5625 538.6C37.8542 537.767 38 536.9 38 536C38 533.767 37.225 531.875 35.675 530.325C34.125 528.775 32.2333 528 30 528C29.1 528 28.2333 528.146 27.4 528.438C26.5667 528.729 25.8 529.15 25.1 529.7L36.3 540.9Z" fill="#1F1F1F"/>
<path d="M41.72 112.36C40.7333 112.36 40.0267 112.213 39.6 111.92C39.2 111.627 38.9467 111.24 38.84 110.76C38.7333 110.28 38.68 109.787 38.68 109.28V87.44C38.68 86.9067 38.7333 86.4133 38.84 85.96C38.9467 85.5067 39.2133 85.1333 39.64 84.84C40.0667 84.5467 40.7733 84.4 41.76 84.4C42.7467 84.4 43.44 84.5467 43.84 84.84C44.2667 85.1333 44.52 85.5067 44.6 85.96C44.7067 86.4133 44.76 86.92 44.76 87.48V109.32C44.76 109.827 44.7067 110.32 44.6 110.8C44.52 111.253 44.2667 111.627 43.84 111.92C43.4133 112.213 42.7067 112.36 41.72 112.36ZM24.76 112.36C23.7733 112.36 23.0667 112.213 22.64 111.92C22.2133 111.627 21.9467 111.24 21.84 110.76C21.76 110.28 21.72 109.787 21.72 109.28V87.44C21.72 86.9067 21.7733 86.4133 21.88 85.96C21.9867 85.5067 22.24 85.1333 22.64 84.84C23.0667 84.5467 23.7867 84.4 24.8 84.4C25.7867 84.4 26.48 84.5467 26.88 84.84C27.3067 85.1333 27.56 85.5067 27.64 85.96C27.7467 86.4133 27.8 86.92 27.8 87.48V109.32C27.8 109.827 27.7467 110.32 27.64 110.8C27.56 111.253 27.3067 111.627 26.88 111.92C26.4533 112.213 25.7467 112.36 24.76 112.36ZM26.84 100.92V95.64H39.32V100.92H26.84ZM61.1644 112.76C59.2444 112.76 57.431 112.4 55.7244 111.68C54.0444 110.933 52.5644 109.92 51.2844 108.64C50.031 107.333 49.031 105.827 48.2844 104.12C47.5644 102.413 47.2044 100.573 47.2044 98.6C47.2044 96.6 47.551 94.7333 48.2444 93C48.9644 91.24 49.9377 89.6933 51.1644 88.36C52.4177 87.0267 53.871 85.9867 55.5244 85.24C57.1777 84.4933 58.951 84.12 60.8444 84.12C62.7644 84.12 64.5644 84.4933 66.2444 85.24C67.951 85.96 69.431 86.9733 70.6844 88.28C71.9377 89.5867 72.9244 91.1067 73.6444 92.84C74.391 94.5733 74.7644 96.4533 74.7644 98.48C74.7644 100.427 74.4044 102.267 73.6844 104C72.991 105.707 72.0177 107.227 70.7644 108.56C69.511 109.867 68.0577 110.893 66.4044 111.64C64.7777 112.387 63.031 112.76 61.1644 112.76ZM60.9644 106.68C62.031 106.68 63.031 106.467 63.9644 106.04C64.8977 105.613 65.711 105.04 66.4044 104.32C67.1244 103.573 67.671 102.707 68.0444 101.72C68.4444 100.707 68.6444 99.6133 68.6444 98.44C68.6444 97.32 68.4444 96.2667 68.0444 95.28C67.6444 94.2667 67.0844 93.3867 66.3644 92.64C65.671 91.8667 64.8577 91.2667 63.9244 90.84C63.0177 90.4133 62.031 90.2 60.9644 90.2C59.9244 90.2 58.9377 90.4133 58.0044 90.84C57.0977 91.2667 56.2844 91.8667 55.5644 92.64C54.871 93.3867 54.311 94.2667 53.8844 95.28C53.4844 96.2667 53.2844 97.3333 53.2844 98.48C53.2844 99.6 53.4844 100.667 53.8844 101.68C54.311 102.667 54.871 103.533 55.5644 104.28C56.2844 105.027 57.0977 105.613 58.0044 106.04C58.911 106.467 59.8977 106.68 60.9644 106.68ZM80.7088 112.36C79.7488 112.36 79.0554 112.227 78.6288 111.96C78.2021 111.667 77.9354 111.28 77.8288 110.8C77.7221 110.32 77.6688 109.827 77.6688 109.32V87.44C77.6688 86.9067 77.7088 86.4133 77.7888 85.96C77.8954 85.5067 78.1621 85.1333 78.5888 84.84C79.0154 84.5467 79.7221 84.4 80.7088 84.4C81.7221 84.4 82.4288 84.5467 82.8288 84.84C83.2554 85.1333 83.5088 85.5067 83.5888 85.96C83.6954 86.4133 83.7488 86.9067 83.7488 87.44V107.08H94.7088C95.1621 107.08 95.5888 107.12 95.9888 107.2C96.3888 107.28 96.7087 107.507 96.9488 107.88C97.2154 108.253 97.3488 108.867 97.3488 109.72C97.3488 110.547 97.2154 111.16 96.9488 111.56C96.6821 111.933 96.3488 112.16 95.9488 112.24C95.5754 112.32 95.1621 112.36 94.7088 112.36H80.7088ZM112.766 112.76C110.846 112.76 109.033 112.4 107.326 111.68C105.646 110.933 104.166 109.92 102.886 108.64C101.633 107.333 100.633 105.827 99.8859 104.12C99.1659 102.413 98.8059 100.573 98.8059 98.6C98.8059 96.6 99.1526 94.7333 99.8459 93C100.566 91.24 101.539 89.6933 102.766 88.36C104.019 87.0267 105.473 85.9867 107.126 85.24C108.779 84.4933 110.553 84.12 112.446 84.12C114.366 84.12 116.166 84.4933 117.846 85.24C119.553 85.96 121.033 86.9733 122.286 88.28C123.539 89.5867 124.526 91.1067 125.246 92.84C125.993 94.5733 126.366 96.4533 126.366 98.48C126.366 100.427 126.006 102.267 125.286 104C124.593 105.707 123.619 107.227 122.366 108.56C121.113 109.867 119.659 110.893 118.006 111.64C116.379 112.387 114.633 112.76 112.766 112.76ZM112.566 106.68C113.633 106.68 114.633 106.467 115.566 106.04C116.499 105.613 117.313 105.04 118.006 104.32C118.726 103.573 119.273 102.707 119.646 101.72C120.046 100.707 120.246 99.6133 120.246 98.44C120.246 97.32 120.046 96.2667 119.646 95.28C119.246 94.2667 118.686 93.3867 117.966 92.64C117.273 91.8667 116.459 91.2667 115.526 90.84C114.619 90.4133 113.633 90.2 112.566 90.2C111.526 90.2 110.539 90.4133 109.606 90.84C108.699 91.2667 107.886 91.8667 107.166 92.64C106.473 93.3867 105.913 94.2667 105.486 95.28C105.086 96.2667 104.886 97.3333 104.886 98.48C104.886 99.6 105.086 100.667 105.486 101.68C105.913 102.667 106.473 103.533 107.166 104.28C107.886 105.027 108.699 105.613 109.606 106.04C110.513 106.467 111.499 106.68 112.566 106.68Z" fill="#B77CFF"/>
<path d="M276.767 101.533C274.596 101.533 272.759 100.782 271.255 99.2781C269.752 97.7745 269 95.9374 269 93.7667C269 91.596 269.752 89.7589 271.255 88.2553C272.759 86.7518 274.596 86 276.767 86C278.937 86 280.775 86.7518 282.278 88.2553C283.782 89.7589 284.533 91.596 284.533 93.7667C284.533 94.643 284.394 95.4694 284.115 96.2461C283.836 97.0228 283.458 97.7098 282.98 98.3073L289.671 104.999C289.89 105.218 290 105.496 290 105.835C290 106.174 289.89 106.452 289.671 106.671C289.452 106.89 289.174 107 288.835 107C288.496 107 288.218 106.89 287.999 106.671L281.307 99.9801C280.71 100.458 280.023 100.836 279.246 101.115C278.469 101.394 277.643 101.533 276.767 101.533ZM276.767 99.1437C278.26 99.1437 279.53 98.6209 280.575 97.5754C281.621 96.5299 282.144 95.2603 282.144 93.7667C282.144 92.2731 281.621 91.0036 280.575 89.958C279.53 88.9125 278.26 88.3898 276.767 88.3898C275.273 88.3898 274.004 88.9125 272.958 89.958C271.913 91.0036 271.39 92.2731 271.39 93.7667C271.39 95.2603 271.913 96.5299 272.958 97.5754C274.004 98.6209 275.273 99.1437 276.767 99.1437Z" fill="#5D5D5D"/>
<path d="M324 108.667C323.359 108.667 322.809 108.438 322.352 107.981C321.895 107.524 321.667 106.975 321.667 106.333H326.334C326.334 106.975 326.105 107.524 325.648 107.981C325.191 108.438 324.642 108.667 324 108.667ZM315.834 105.167C315.503 105.167 315.226 105.055 315.002 104.831C314.779 104.608 314.667 104.33 314.667 104C314.667 103.669 314.779 103.392 315.002 103.169C315.226 102.945 315.503 102.833 315.834 102.833H317V94.6666C317 93.0527 317.486 91.6187 318.459 90.3645C319.431 89.1103 320.695 88.2888 322.25 87.8999V87.0833C322.25 86.5971 322.42 86.1839 322.761 85.8437C323.101 85.5034 323.514 85.3333 324 85.3333C324.486 85.3333 324.9 85.5034 325.24 85.8437C325.58 86.1839 325.75 86.5971 325.75 87.0833V87.4624C325.536 87.8902 325.381 88.3277 325.284 88.7749C325.186 89.2221 325.148 89.6791 325.167 90.1458C324.973 90.1069 324.783 90.0728 324.598 90.0437C324.414 90.0145 324.214 89.9999 324 89.9999C322.717 89.9999 321.618 90.4569 320.704 91.3708C319.791 92.2846 319.334 93.3833 319.334 94.6666V102.833H328.667V95.3374C329.017 95.493 329.391 95.6145 329.79 95.702C330.189 95.7895 330.592 95.8333 331 95.8333V102.833H332.167C332.498 102.833 332.775 102.945 332.998 103.169C333.222 103.392 333.334 103.669 333.334 104C333.334 104.33 333.222 104.608 332.998 104.831C332.775 105.055 332.498 105.167 332.167 105.167H315.834ZM328.521 92.4791C327.841 91.7985 327.5 90.9721 327.5 89.9999C327.5 89.0277 327.841 88.2013 328.521 87.5208C329.202 86.8402 330.028 86.4999 331 86.4999C331.973 86.4999 332.799 86.8402 333.479 87.5208C334.16 88.2013 334.5 89.0277 334.5 89.9999C334.5 90.9721 334.16 91.7985 333.479 92.4791C332.799 93.1596 331.973 93.4999 331 93.4999C330.028 93.4999 329.202 93.1596 328.521 92.4791Z" fill="#5D5D5D"/>
<circle cx="331" cy="90" r="3.5" fill="#FF4343"/>
<path d="M372.842 98.225L370.333 102.25C370.12 102.581 369.823 102.717 369.444 102.658C369.065 102.6 368.826 102.376 368.729 101.987L367.913 98.7208L359.95 106.683C359.736 106.897 359.469 107.009 359.148 107.019C358.827 107.028 358.55 106.917 358.317 106.683C358.103 106.469 357.996 106.197 357.996 105.867C357.996 105.536 358.103 105.264 358.317 105.05L366.279 97.0583L363.013 96.2416C362.624 96.1444 362.4 95.9062 362.342 95.5271C362.283 95.1479 362.42 94.8514 362.75 94.6375L366.775 92.1583L366.425 87.4041C366.386 87.0153 366.542 86.7333 366.892 86.5583C367.242 86.3833 367.563 86.4222 367.854 86.675L371.5 89.7375L375.904 87.9583C376.274 87.8028 376.595 87.8611 376.867 88.1333C377.139 88.4055 377.197 88.7264 377.042 89.0958L375.263 93.5L378.325 97.1166C378.578 97.4083 378.617 97.7291 378.442 98.0791C378.267 98.4291 377.985 98.5847 377.596 98.5458L372.842 98.225ZM357.908 90.4083C357.792 90.2916 357.733 90.1555 357.733 90C357.733 89.8444 357.792 89.7083 357.908 89.5916L359.425 88.075C359.542 87.9583 359.678 87.9 359.833 87.9C359.989 87.9 360.125 87.9583 360.242 88.075L361.758 89.5916C361.875 89.7083 361.933 89.8444 361.933 90C361.933 90.1555 361.875 90.2916 361.758 90.4083L360.242 91.925C360.125 92.0416 359.989 92.1 359.833 92.1C359.678 92.1 359.542 92.0416 359.425 91.925L357.908 90.4083ZM370.188 98.0791L371.588 95.775L374.3 95.9791L372.55 93.9083L373.571 91.4L371.063 92.4208L368.992 90.7L369.196 93.3833L366.892 94.8125L369.517 95.4541L370.188 98.0791ZM374.592 107.092L373.075 105.575C372.958 105.458 372.9 105.322 372.9 105.167C372.9 105.011 372.958 104.875 373.075 104.758L374.592 103.242C374.708 103.125 374.845 103.067 375 103.067C375.156 103.067 375.292 103.125 375.408 103.242L376.925 104.758C377.042 104.875 377.1 105.011 377.1 105.167C377.1 105.322 377.042 105.458 376.925 105.575L375.408 107.092C375.292 107.208 375.156 107.267 375 107.267C374.845 107.267 374.708 107.208 374.592 107.092Z" fill="#5D5D5D"/>
<path d="M21 241V238.2C21 237.633 21.1458 237.113 21.4375 236.637C21.7292 236.163 22.1167 235.8 22.6 235.55C23.6333 235.033 24.6833 234.646 25.75 234.387C26.8167 234.129 27.9 234 29 234C30.1 234 31.1833 234.129 32.25 234.387C33.3167 234.646 34.3667 235.033 35.4 235.55C35.8833 235.8 36.2708 236.163 36.5625 236.637C36.8542 237.113 37 237.633 37 238.2V241H21ZM39 241V238C39 237.267 38.7958 236.562 38.3875 235.887C37.9792 235.213 37.4 234.633 36.65 234.15C37.5 234.25 38.3 234.421 39.05 234.663C39.8 234.904 40.5 235.2 41.15 235.55C41.75 235.883 42.2083 236.254 42.525 236.663C42.8417 237.071 43 237.517 43 238V241H39ZM26.175 231.825C25.3917 231.042 25 230.1 25 229C25 227.9 25.3917 226.958 26.175 226.175C26.9583 225.392 27.9 225 29 225C30.1 225 31.0417 225.392 31.825 226.175C32.6083 226.958 33 227.9 33 229C33 230.1 32.6083 231.042 31.825 231.825C31.0417 232.608 30.1 233 29 233C27.9 233 26.9583 232.608 26.175 231.825ZM37.825 231.825C37.0417 232.608 36.1 233 35 233C34.8167 233 34.5833 232.979 34.3 232.938C34.0167 232.896 33.7833 232.85 33.6 232.8C34.05 232.267 34.3958 231.675 34.6375 231.025C34.8792 230.375 35 229.7 35 229C35 228.3 34.8792 227.625 34.6375 226.975C34.3958 226.325 34.05 225.733 33.6 225.2C33.8333 225.117 34.0667 225.062 34.3 225.038C34.5333 225.013 34.7667 225 35 225C36.1 225 37.0417 225.392 37.825 226.175C38.6083 226.958 39 227.9 39 229C39 230.1 38.6083 231.042 37.825 231.825ZM23 239H35V238.2C35 238.017 34.9542 237.85 34.8625 237.7C34.7708 237.55 34.65 237.433 34.5 237.35C33.6 236.9 32.6917 236.562 31.775 236.338C30.8583 236.113 29.9333 236 29 236C28.0667 236 27.1417 236.113 26.225 236.338C25.3083 236.562 24.4 236.9 23.5 237.35C23.35 237.433 23.2292 237.55 23.1375 237.7C23.0458 237.85 23 238.017 23 238.2V239ZM30.4125 230.412C30.8042 230.021 31 229.55 31 229C31 228.45 30.8042 227.979 30.4125 227.588C30.0208 227.196 29.55 227 29 227C28.45 227 27.9792 227.196 27.5875 227.588C27.1958 227.979 27 228.45 27 229C27 229.55 27.1958 230.021 27.5875 230.412C27.9792 230.804 28.45 231 29 231C29.55 231 30.0208 230.804 30.4125 230.412Z" fill="#1F1F1F"/>
<path d="M329 173H323V171H329V165H331V171H337V173H331V179H329V173Z" fill="#A8A8A8"/>
<path d="M60.4667 180.756H58.2V172.711H56.0667V180.467H53.8222V163.778H56.0667V170.333H58.2V163.689H60.4667V180.756ZM49.0444 177.578C49.7259 177.578 50.4 177.526 51.0667 177.422C51.7481 177.304 52.3333 177.148 52.8222 176.956V179.178C52.363 179.385 51.763 179.548 51.0222 179.667C50.2963 179.77 49.5556 179.822 48.8 179.822H45.0889V164.178H47.4222V177.578H49.0444ZM72.4144 171.044C71.8218 171.963 71.0589 172.704 70.1255 173.267C69.1922 173.83 68.1552 174.156 67.0144 174.244V172.022C68.1996 171.874 69.1626 171.393 69.9033 170.578C70.6589 169.763 71.1181 168.726 71.2811 167.467H67.1922V165.333H71.2811V163.378H73.7477V165.333H77.7922V167.467H73.7477C73.7033 168 73.5996 168.541 73.4366 169.089L78.17 172.222L76.97 174.111L72.4144 171.044ZM79.6144 176.4V163.689H82.0144V176.4H79.6144ZM82.37 180.622H67.9477V175.489H70.3922V178.378H82.37V180.622ZM85.2565 166.356V164.022H99.4565V171.911H96.9676V166.356H85.2565ZM93.5232 175.556V181.156H91.0343V175.556H84.2343V173.178H100.523V175.556H93.5232Z" fill="black"/>
<path d="M29 177L24 172L29 167" stroke="#5D5D5D" stroke-linecap="round" stroke-linejoin="round"/>
<path d="M368 166C368 165.45 368.196 164.979 368.587 164.587C368.979 164.196 369.45 164 370 164C370.55 164 371.021 164.196 371.412 164.588C371.804 164.979 372 165.45 372 166C372 166.55 371.804 167.021 371.412 167.413C371.021 167.804 370.55 168 370 168C369.45 168 368.979 167.804 368.587 167.412C368.196 167.021 368 166.55 368 166ZM368 172C368 171.45 368.196 170.979 368.587 170.587C368.979 170.196 369.45 170 370 170C370.55 170 371.021 170.196 371.412 170.588C371.804 170.979 372 171.45 372 172C372 172.55 371.804 173.021 371.412 173.413C371.021 173.804 370.55 174 370 174C369.45 174 368.979 173.804 368.587 173.413C368.196 173.021 368 172.55 368 172ZM368 178C368 177.45 368.196 176.979 368.587 176.588C368.979 176.196 369.45 176 370 176C370.55 176 371.021 176.196 371.412 176.588C371.804 176.979 372 177.45 372 178C372 178.55 371.804 179.021 371.412 179.413C371.021 179.804 370.55 180 370 180C369.45 180 368.979 179.804 368.587 179.413C368.196 179.021 368 178.55 368 178Z" fill="#A8A8A8"/>
<rect y="794.915" width="402" height="79" fill="#FAFAFA"/>
<path d="M119.044 855.529H117.909V843.582H119.044V855.529ZM113.258 845.138C113.247 846.569 113.128 847.891 112.9 849.104L116.68 853.973L115.793 854.673L112.542 850.411C112.169 851.697 111.661 852.719 111.018 853.476C110.375 854.222 109.628 854.658 108.778 854.782V853.616C109.462 853.47 110.053 853.019 110.551 852.262C111.049 851.495 111.433 850.499 111.702 849.276C111.972 848.041 112.117 846.662 112.138 845.138H109.027V844.049H116.276V845.138H113.258ZM132.141 854.922H120.816V853.833H125.887V850.738H121.609V844.049H131.363V845.138H122.729V849.649H131.487V850.738H127.023V853.833H132.141V854.922Z" fill="#A8A8A8"/>
<path d="M122.742 835.238L116.5 833.05L111.075 835.15C110.881 835.228 110.691 835.252 110.506 835.223C110.322 835.194 110.151 835.131 109.996 835.033C109.84 834.936 109.719 834.805 109.631 834.64C109.544 834.474 109.5 834.285 109.5 834.071V817.708C109.5 817.456 109.573 817.232 109.719 817.038C109.865 816.843 110.064 816.697 110.317 816.6L115.742 814.763C115.858 814.724 115.98 814.695 116.106 814.675C116.233 814.656 116.364 814.646 116.5 814.646C116.636 814.646 116.767 814.656 116.894 814.675C117.02 814.695 117.142 814.724 117.258 814.763L123.5 816.95L128.925 814.85C129.119 814.772 129.309 814.748 129.494 814.777C129.678 814.806 129.849 814.87 130.004 814.967C130.16 815.064 130.281 815.195 130.369 815.361C130.456 815.526 130.5 815.715 130.5 815.929V832.292C130.5 832.545 130.427 832.768 130.281 832.963C130.135 833.157 129.936 833.303 129.683 833.4L124.258 835.238C124.142 835.277 124.02 835.306 123.894 835.325C123.767 835.345 123.636 835.354 123.5 835.354C123.364 835.354 123.233 835.345 123.106 835.325C122.98 835.306 122.858 835.277 122.742 835.238ZM122.333 832.642V818.992L117.667 817.358V831.008L122.333 832.642ZM124.667 832.642L128.167 831.475V817.65L124.667 818.992V832.642ZM111.833 832.35L115.333 831.008V817.358L111.833 818.525V832.35Z" fill="#A8A8A8"/>
<path d="M355.889 849.944V855.529H354.209V843.582H355.889V848.233H357.382V849.944H355.889ZM352.373 843.956V854.876H345.933V843.956H352.373ZM350.678 853.227V845.604H347.613V853.227H350.678ZM366.854 855.529V843.582H368.549V855.529H366.854ZM361.705 843.8C362.773 843.8 363.618 844.272 364.241 845.216C364.863 846.149 365.174 847.549 365.174 849.416C365.174 851.282 364.863 852.687 364.241 853.631C363.618 854.564 362.773 855.031 361.705 855.031C360.627 855.031 359.771 854.564 359.138 853.631C358.516 852.687 358.205 851.282 358.205 849.416C358.205 847.549 358.516 846.149 359.138 845.216C359.771 844.272 360.627 843.8 361.705 843.8ZM361.705 845.433C361.145 845.433 360.699 845.755 360.367 846.398C360.035 847.041 359.869 848.047 359.869 849.416C359.869 850.784 360.035 851.79 360.367 852.433C360.699 853.076 361.145 853.398 361.705 853.398C362.255 853.398 362.69 853.076 363.012 852.433C363.344 851.79 363.509 850.784 363.509 849.416C363.509 848.047 363.344 847.041 363.012 846.398C362.69 845.755 362.255 845.433 361.705 845.433Z" fill="#7448DD"/>
<path d="M349.825 830.95C350.816 830.192 351.925 829.594 353.15 829.156C354.375 828.719 355.658 828.5 357 828.5C358.341 828.5 359.625 828.719 360.85 829.156C362.075 829.594 363.183 830.192 364.175 830.95C364.855 830.153 365.385 829.249 365.764 828.238C366.143 827.227 366.333 826.147 366.333 825C366.333 822.414 365.424 820.212 363.606 818.394C361.788 816.576 359.586 815.667 357 815.667C354.414 815.667 352.211 816.576 350.393 818.394C348.575 820.212 347.666 822.414 347.666 825C347.666 826.147 347.856 827.227 348.235 828.238C348.614 829.249 349.144 830.153 349.825 830.95ZM354.098 824.986C353.31 824.198 352.916 823.231 352.916 822.083C352.916 820.936 353.31 819.969 354.098 819.181C354.885 818.394 355.852 818 357 818C358.147 818 359.114 818.394 359.902 819.181C360.689 819.969 361.083 820.936 361.083 822.083C361.083 823.231 360.689 824.198 359.902 824.986C359.114 825.773 358.147 826.167 357 826.167C355.852 826.167 354.885 825.773 354.098 824.986ZM357 836.667C355.386 836.667 353.869 836.361 352.45 835.748C351.03 835.136 349.796 834.304 348.746 833.254C347.696 832.204 346.864 830.97 346.252 829.55C345.639 828.131 345.333 826.614 345.333 825C345.333 823.386 345.639 821.87 346.252 820.45C346.864 819.031 347.696 817.796 348.746 816.746C349.796 815.696 351.03 814.865 352.45 814.252C353.869 813.64 355.386 813.333 357 813.333C358.614 813.333 360.13 813.64 361.55 814.252C362.969 814.865 364.204 815.696 365.254 816.746C366.304 817.796 367.135 819.031 367.748 820.45C368.36 821.87 368.666 823.386 368.666 825C368.666 826.614 368.36 828.131 367.748 829.55C367.135 830.97 366.304 832.204 365.254 833.254C364.204 834.304 362.969 835.136 361.55 835.748C360.13 836.361 358.614 836.667 357 836.667ZM359.916 833.881C360.83 833.58 361.666 833.147 362.425 832.583C361.666 832.02 360.83 831.587 359.916 831.286C359.002 830.984 358.03 830.833 357 830.833C355.969 830.833 354.997 830.984 354.083 831.286C353.169 831.587 352.333 832.02 351.575 832.583C352.333 833.147 353.169 833.58 354.083 833.881C354.997 834.183 355.969 834.333 357 834.333C358.03 834.333 359.002 834.183 359.916 833.881ZM358.254 823.338C358.584 823.007 358.75 822.589 358.75 822.083C358.75 821.578 358.584 821.16 358.254 820.829C357.923 820.499 357.505 820.333 357 820.333C356.494 820.333 356.076 820.499 355.746 820.829C355.415 821.16 355.25 821.578 355.25 822.083C355.25 822.589 355.415 823.007 355.746 823.338C356.076 823.668 356.494 823.833 357 823.833C357.505 823.833 357.923 823.668 358.254 823.338Z" fill="#7448DD"/>
<path d="M272.951 846.507C272.941 847.461 272.884 848.379 272.78 849.26L275.549 854.113L274.662 854.658L272.484 850.784C272.236 851.967 271.867 852.895 271.38 853.569C270.893 854.243 270.291 854.647 269.576 854.782V853.662C270.322 853.465 270.882 852.739 271.256 851.484C271.639 850.23 271.841 848.57 271.862 846.507H269.684V845.449H271.862V843.551H272.951V845.449H275.098V846.507H272.951ZM280.356 855.529H279.282V849.602H277.229V855.327H276.171V843.644H277.229V848.482H279.282V843.582H280.356V855.529ZM291.227 850.707V843.582H292.363V850.707H291.227ZM290.263 849.556C289.889 849.732 289.366 849.872 288.692 849.976C288.018 850.069 287.255 850.116 286.405 850.116H282.376V843.909H289.423V844.858H283.496V846.553H289.189V847.456H283.496V849.151H286.498C287.318 849.151 288.059 849.104 288.723 849.011C289.387 848.918 289.9 848.783 290.263 848.607V849.556ZM287.649 851.127C289.132 851.127 290.315 851.303 291.196 851.656C292.088 851.998 292.534 852.553 292.534 853.32C292.534 854.087 292.088 854.642 291.196 854.984C290.315 855.327 289.132 855.498 287.649 855.498C286.167 855.498 284.984 855.327 284.103 854.984C283.221 854.642 282.781 854.087 282.781 853.32C282.781 852.553 283.221 851.998 284.103 851.656C284.984 851.303 286.167 851.127 287.649 851.127ZM287.649 854.549C288.759 854.549 289.651 854.45 290.325 854.253C290.999 854.046 291.336 853.735 291.336 853.32C291.336 852.895 290.999 852.584 290.325 852.387C289.651 852.19 288.759 852.091 287.649 852.091C286.54 852.091 285.648 852.19 284.974 852.387C284.3 852.584 283.963 852.895 283.963 853.32C283.963 853.735 284.3 854.046 284.974 854.253C285.648 854.45 286.54 854.549 287.649 854.549Z" fill="#A8A8A8"/>
<path d="M274 832L271.316 834.683C270.947 835.053 270.524 835.136 270.048 834.931C269.571 834.727 269.333 834.363 269.333 833.838V815.667C269.333 815.025 269.561 814.476 270.018 814.019C270.475 813.562 271.025 813.333 271.666 813.333H290.333C290.975 813.333 291.524 813.562 291.981 814.019C292.438 814.476 292.666 815.025 292.666 815.667V829.667C292.666 830.308 292.438 830.858 291.981 831.315C291.524 831.772 290.975 832 290.333 832H274ZM273.008 829.667H290.333V815.667H271.666V830.979L273.008 829.667ZM275.166 827.333H282.166C282.497 827.333 282.774 827.222 282.998 826.998C283.221 826.774 283.333 826.497 283.333 826.167C283.333 825.836 283.221 825.559 282.998 825.336C282.774 825.112 282.497 825 282.166 825H275.166C274.836 825 274.559 825.112 274.335 825.336C274.111 825.559 274 825.836 274 826.167C274 826.497 274.111 826.774 274.335 826.998C274.559 827.222 274.836 827.333 275.166 827.333ZM275.166 823.833H286.833C287.164 823.833 287.441 823.722 287.664 823.498C287.888 823.274 288 822.997 288 822.667C288 822.336 287.888 822.059 287.664 821.836C287.441 821.612 287.164 821.5 286.833 821.5H275.166C274.836 821.5 274.559 821.612 274.335 821.836C274.111 822.059 274 822.336 274 822.667C274 822.997 274.111 823.274 274.335 823.498C274.559 823.722 274.836 823.833 275.166 823.833ZM275.166 820.333H286.833C287.164 820.333 287.441 820.222 287.664 819.998C287.888 819.774 288 819.497 288 819.167C288 818.836 287.888 818.559 287.664 818.336C287.441 818.112 287.164 818 286.833 818H275.166C274.836 818 274.559 818.112 274.335 818.336C274.111 818.559 274 818.836 274 819.167C274 819.497 274.111 819.774 274.335 819.998C274.559 820.222 274.836 820.333 275.166 820.333Z" fill="#A8A8A8"/>
<path d="M193.527 855.529H191.924V843.582H193.527V855.529ZM190.633 843.644V855.327H189.031V849.898H187.289C186.978 851.464 186.413 852.682 185.593 853.553C184.774 854.414 183.804 854.85 182.684 854.86V853.196C183.327 853.164 183.887 852.916 184.364 852.449C184.852 851.972 185.225 851.303 185.484 850.442C185.754 849.571 185.889 848.55 185.889 847.378V845.558H182.684V843.956H187.507V847.3C187.507 847.725 187.496 848.036 187.476 848.233H189.031V843.644H190.633ZM205.534 855.529H203.854V843.582H205.534V855.529ZM200.027 843.909C200.027 845.62 199.877 847.238 199.576 848.762L203.138 853.833L201.769 854.86L199.001 850.816C198.555 852.081 197.984 853.066 197.289 853.771C196.605 854.466 195.822 854.834 194.941 854.876V853.071C195.625 852.967 196.216 852.506 196.714 851.687C197.222 850.857 197.611 849.763 197.881 848.404C198.161 847.046 198.306 845.527 198.316 843.847L200.027 843.909ZM219.019 847.984H217.526V852.449H215.846V843.582H217.526V846.273H219.019V847.984ZM215.13 850.084C214.809 850.23 214.337 850.349 213.714 850.442C213.103 850.525 212.444 850.567 211.739 850.567H207.103V849.104H208.379V845.293H207.166V843.816H214.694V845.293H213.481V849.011C214.072 848.959 214.622 848.83 215.13 848.622V850.084ZM210.961 849.104C211.366 849.104 211.666 849.099 211.863 849.089V845.293H209.997V849.104H210.961ZM217.79 853.849V855.436H207.819V851.5H209.53V853.849H217.79Z" fill="#A8A8A8"/>
<g clip-path="url(#clip0_176_1709)">
<path d="M191.833 835.5C191.192 835.5 190.642 835.271 190.185 834.814C189.728 834.357 189.5 833.808 189.5 833.167V816.833C189.5 816.192 189.728 815.642 190.185 815.185C190.642 814.728 191.192 814.5 191.833 814.5H196.733C196.986 813.8 197.409 813.236 198.002 812.808C198.595 812.38 199.261 812.167 200 812.167C200.739 812.167 201.405 812.38 201.998 812.808C202.591 813.236 203.014 813.8 203.267 814.5H208.167C208.808 814.5 209.358 814.728 209.815 815.185C210.272 815.642 210.5 816.192 210.5 816.833V833.167C210.5 833.808 210.272 834.357 209.815 834.814C209.358 835.271 208.808 835.5 208.167 835.5H191.833ZM191.833 833.167H208.167V816.833H191.833V833.167ZM194.167 830.833H202.333V828.5H194.167V830.833ZM194.167 826.167H205.833V823.833H194.167V826.167ZM194.167 821.5H205.833V819.167H194.167V821.5ZM200.627 815.71C200.792 815.545 200.875 815.336 200.875 815.083C200.875 814.83 200.792 814.621 200.627 814.456C200.462 814.291 200.253 814.208 200 814.208C199.747 814.208 199.538 814.291 199.373 814.456C199.208 814.621 199.125 814.83 199.125 815.083C199.125 815.336 199.208 815.545 199.373 815.71C199.538 815.876 199.747 815.958 200 815.958C200.253 815.958 200.462 815.876 200.627 815.71Z" fill="#A8A8A8"/>
</g>
<path d="M38.9644 845.138V844.251H43.5689V843.1H44.7044V844.251H49.3556V845.138H38.9644ZM49.8222 850.971H38.4978V850.084H43.6V849.104C42.3037 849.073 41.2822 848.923 40.5356 848.653C39.7993 848.373 39.4311 847.969 39.4311 847.44C39.4311 846.88 39.8511 846.465 40.6911 846.196C41.5415 845.916 42.6978 845.776 44.16 845.776C45.6222 845.776 46.7733 845.916 47.6133 846.196C48.4533 846.465 48.8733 846.88 48.8733 847.44C48.8733 847.969 48.5052 848.373 47.7689 848.653C47.0326 848.923 46.0163 849.073 44.72 849.104V850.084H49.8222V850.971ZM40.5511 847.44C40.5511 847.72 40.883 847.933 41.5467 848.078C42.2104 848.223 43.0815 848.296 44.16 848.296C45.2385 848.296 46.1044 848.223 46.7578 848.078C47.4215 847.933 47.7533 847.72 47.7533 847.44C47.7533 847.16 47.4215 846.947 46.7578 846.802C46.0941 846.657 45.2281 846.584 44.16 846.584C43.0919 846.584 42.2207 846.657 41.5467 846.802C40.883 846.947 40.5511 847.16 40.5511 847.44ZM48.9978 851.998V855.358H39.3222V851.998H48.9978ZM47.8933 854.487V852.853H40.4267V854.487H47.8933Z" fill="#A8A8A8"/>
<path d="M44.0005 813.946C44.2532 813.946 44.5012 813.985 44.7442 814.062C44.9873 814.14 45.2157 814.257 45.4296 814.412L55.9296 822.433C56.1824 822.628 56.3282 822.881 56.3671 823.192C56.406 823.503 56.3282 823.794 56.1338 824.067C55.9393 824.339 55.6866 824.494 55.3755 824.533C55.0643 824.572 54.7727 824.485 54.5005 824.271L44.0005 816.25L37.0005 821.617V832H40.5005C40.831 832 41.1081 832.112 41.3317 832.335C41.5553 832.559 41.6671 832.836 41.6671 833.167C41.6671 833.497 41.5553 833.774 41.3317 833.998C41.1081 834.221 40.831 834.333 40.5005 834.333H37.0005C36.3588 834.333 35.8095 834.105 35.3525 833.648C34.8956 833.191 34.6671 832.642 34.6671 832V823.396L33.5005 824.3C33.2477 824.494 32.9609 824.572 32.64 824.533C32.3192 824.494 32.0616 824.339 31.8671 824.067C31.6727 823.814 31.5998 823.532 31.6484 823.221C31.697 822.91 31.8477 822.657 32.1005 822.462L42.5713 814.412C42.7852 814.257 43.0137 814.14 43.2567 814.062C43.4998 813.985 43.7477 813.946 44.0005 813.946ZM50.4171 837.104C49.6005 837.668 48.7012 837.906 47.7192 837.819C46.7373 837.731 45.8963 837.337 45.1963 836.637C44.4963 835.937 44.1025 835.096 44.015 834.115C43.9275 833.133 44.1657 832.233 44.7296 831.417C44.1657 830.6 43.9275 829.701 44.015 828.719C44.1025 827.737 44.4963 826.896 45.1963 826.196C45.8963 825.496 46.7373 825.102 47.7192 825.015C48.7012 824.927 49.6005 825.165 50.4171 825.729C51.2338 825.165 52.1331 824.927 53.115 825.015C54.097 825.102 54.938 825.496 55.638 826.196C56.338 826.896 56.7317 827.737 56.8192 828.719C56.9067 829.701 56.6685 830.6 56.1046 831.417C56.6685 832.233 56.9067 833.133 56.8192 834.115C56.7317 835.096 56.338 835.937 55.638 836.637C54.938 837.337 54.097 837.731 53.115 837.819C52.1331 837.906 51.2338 837.668 50.4171 837.104ZM50.4171 834.246L51.7588 835.179C52.1088 835.432 52.488 835.539 52.8963 835.5C53.3046 835.461 53.6643 835.286 53.9755 834.975C54.2866 834.664 54.4616 834.304 54.5005 833.896C54.5393 833.487 54.4324 833.108 54.1796 832.758L53.2463 831.417L54.1796 830.075C54.4324 829.725 54.5393 829.346 54.5005 828.937C54.4616 828.529 54.2866 828.169 53.9755 827.858C53.6643 827.547 53.3046 827.372 52.8963 827.333C52.488 827.294 52.1088 827.401 51.7588 827.654L50.4171 828.587L49.0755 827.654C48.7255 827.401 48.3463 827.294 47.938 827.333C47.5296 827.372 47.1699 827.547 46.8588 827.858C46.5477 828.169 46.3727 828.529 46.3338 828.937C46.2949 829.346 46.4018 829.725 46.6546 830.075L47.588 831.417L46.6546 832.758C46.4018 833.108 46.2949 833.487 46.3338 833.896C46.3727 834.304 46.5477 834.664 46.8588 834.975C47.1699 835.286 47.5296 835.461 47.938 835.5C48.3463 835.539 48.7255 835.432 49.0755 835.179L50.4171 834.246ZM51.4525 832.452C51.7345 832.17 51.8755 831.825 51.8755 831.417C51.8755 831.008 51.7345 830.663 51.4525 830.381C51.1706 830.099 50.8255 829.958 50.4171 829.958C50.0088 829.958 49.6637 830.099 49.3817 830.381C49.0998 830.663 48.9588 831.008 48.9588 831.417C48.9588 831.825 49.0998 832.17 49.3817 832.452C49.6637 832.734 50.0088 832.875 50.4171 832.875C50.8255 832.875 51.1706 832.734 51.4525 832.452Z" fill="#A8A8A8"/>
<defs>
<clipPath id="clip0_176_1709">
<rect width="22" height="24" fill="white" transform="translate(189 812)"/>
</clipPath>
</defs>
</svg>
