<svg width="402" height="874" viewBox="0 0 402 874" fill="none" xmlns="http://www.w3.org/2000/svg">
<rect width="402" height="874" fill="white"/>
<path d="M34.5778 189H32.0667V182.222H24.1333V189H21.6222V173.444H24.1333V179.978H32.0667V173.444H34.5778V189ZM44.747 189.2C43.2359 189.2 41.8729 188.859 40.6581 188.178C39.4581 187.481 38.5173 186.526 37.8359 185.311C37.1544 184.096 36.8136 182.733 36.8136 181.222C36.8136 179.711 37.1544 178.348 37.8359 177.133C38.5173 175.919 39.4581 174.97 40.6581 174.289C41.8729 173.593 43.2359 173.244 44.747 173.244C46.2433 173.244 47.5914 173.593 48.7914 174.289C50.0062 174.97 50.9544 175.919 51.6359 177.133C52.3321 178.348 52.6803 179.711 52.6803 181.222C52.6803 182.733 52.3321 184.096 51.6359 185.311C50.9544 186.526 50.0062 187.481 48.7914 188.178C47.5914 188.859 46.2433 189.2 44.747 189.2ZM44.747 186.933C45.7544 186.933 46.6655 186.689 47.4803 186.2C48.3099 185.711 48.9544 185.037 49.4136 184.178C49.8877 183.304 50.1247 182.319 50.1247 181.222C50.1247 180.126 49.8877 179.148 49.4136 178.289C48.9544 177.415 48.3099 176.733 47.4803 176.244C46.6655 175.756 45.7544 175.511 44.747 175.511C43.7247 175.511 42.7988 175.756 41.9692 176.244C41.1544 176.733 40.5099 177.415 40.0359 178.289C39.5766 179.148 39.347 180.126 39.347 181.222C39.347 182.319 39.5766 183.304 40.0359 184.178C40.5099 185.037 41.1544 185.711 41.9692 186.2C42.7988 186.689 43.7247 186.933 44.747 186.933ZM57.5674 173.444V186.822H65.3674V189H55.0341V173.444H57.5674ZM73.3407 189.2C71.8296 189.2 70.4666 188.859 69.2518 188.178C68.0518 187.481 67.1111 186.526 66.4296 185.311C65.7481 184.096 65.4074 182.733 65.4074 181.222C65.4074 179.711 65.7481 178.348 66.4296 177.133C67.1111 175.919 68.0518 174.97 69.2518 174.289C70.4666 173.593 71.8296 173.244 73.3407 173.244C74.837 173.244 76.1852 173.593 77.3852 174.289C78.6 174.97 79.5481 175.919 80.2296 177.133C80.9259 178.348 81.274 179.711 81.274 181.222C81.274 182.733 80.9259 184.096 80.2296 185.311C79.5481 186.526 78.6 187.481 77.3852 188.178C76.1852 188.859 74.837 189.2 73.3407 189.2ZM73.3407 186.933C74.3481 186.933 75.2592 186.689 76.074 186.2C76.9037 185.711 77.5481 185.037 78.0074 184.178C78.4815 183.304 78.7185 182.319 78.7185 181.222C78.7185 180.126 78.4815 179.148 78.0074 178.289C77.5481 177.415 76.9037 176.733 76.074 176.244C75.2592 175.756 74.3481 175.511 73.3407 175.511C72.3185 175.511 71.3926 175.756 70.5629 176.244C69.7481 176.733 69.1037 177.415 68.6296 178.289C68.1703 179.148 67.9407 180.126 67.9407 181.222C67.9407 182.319 68.1703 183.304 68.6296 184.178C69.1037 185.037 69.7481 185.711 70.5629 186.2C71.3926 186.689 72.3185 186.933 73.3407 186.933ZM102.422 189.756H100.022V180.956H96.1335V178.6H100.022V172.689H102.422V189.756ZM93.9557 173.156C93.9557 175.422 93.8076 177.526 93.5113 179.467L98.4446 187.467L96.378 188.844L92.7113 182.622C92.1039 184.548 91.3187 186.044 90.3557 187.111C89.3928 188.178 88.2817 188.748 87.0224 188.822V186.222C87.9557 186.074 88.7557 185.415 89.4224 184.244C90.1039 183.074 90.6224 181.519 90.978 179.578C91.3335 177.637 91.5113 175.467 91.5113 173.067L93.9557 173.156ZM119.909 189.756H117.509V172.689H119.909V189.756ZM114.753 173.156V188.822H105.398V173.156H107.776V178.689H112.376V173.156H114.753ZM112.376 181H107.776V186.511H112.376V181ZM130.107 178.689C129.158 180.17 128.01 181.341 126.662 182.2C125.329 183.044 123.929 183.474 122.462 183.489V181.089C123.573 181.089 124.64 180.719 125.662 179.978C126.699 179.237 127.581 178.23 128.307 176.956C129.033 175.681 129.514 174.267 129.751 172.711L132.218 173.133C131.981 174.481 131.633 175.667 131.173 176.689L138.218 181.533L136.929 183.556L130.107 178.689ZM138.418 186.667V189.022H122.129V186.667H138.418ZM159.032 181.778V189.756H156.632V172.689H159.032V179.333H161.165V181.778H159.032ZM151.365 173.156C151.365 175.733 151.158 178.081 150.743 180.2L155.699 187.333L153.743 188.8L149.899 183.133C149.277 184.896 148.484 186.274 147.521 187.267C146.558 188.244 145.454 188.763 144.21 188.822V186.244C145.173 186.096 146.01 185.437 146.721 184.267C147.432 183.081 147.973 181.519 148.343 179.578C148.714 177.637 148.906 175.467 148.921 173.067L151.365 173.156ZM178.008 182.444H161.719V180.467H165.074V178.533C163.43 177.97 162.608 177.081 162.608 175.867C162.608 174.726 163.274 173.881 164.608 173.333C165.941 172.785 167.696 172.511 169.874 172.511C172.052 172.511 173.8 172.785 175.119 173.333C176.452 173.881 177.119 174.726 177.119 175.867C177.119 177.081 176.304 177.97 174.674 178.533V180.467H178.008V182.444ZM169.874 174.444C168.467 174.444 167.326 174.563 166.452 174.8C165.593 175.037 165.163 175.393 165.163 175.867C165.163 176.341 165.593 176.696 166.452 176.933C167.326 177.156 168.467 177.267 169.874 177.267C171.282 177.267 172.415 177.156 173.274 176.933C174.133 176.696 174.563 176.341 174.563 175.867C174.563 175.393 174.133 175.037 173.274 174.8C172.415 174.563 171.282 174.444 169.874 174.444ZM172.274 180.467V179.067C171.711 179.156 170.911 179.2 169.874 179.2C168.837 179.2 168.037 179.156 167.474 179.067V180.467H172.274ZM169.874 183.489C172.096 183.489 173.859 183.741 175.163 184.244C176.467 184.733 177.119 185.541 177.119 186.667C177.119 187.793 176.459 188.607 175.141 189.111C173.837 189.615 172.082 189.867 169.874 189.867C167.667 189.867 165.904 189.615 164.585 189.111C163.282 188.607 162.63 187.793 162.63 186.667C162.63 185.541 163.282 184.733 164.585 184.244C165.889 183.741 167.652 183.489 169.874 183.489ZM169.874 187.933C171.267 187.933 172.393 187.837 173.252 187.644C174.111 187.437 174.541 187.111 174.541 186.667C174.541 186.222 174.111 185.904 173.252 185.711C172.408 185.519 171.282 185.422 169.874 185.422C166.748 185.422 165.185 185.837 165.185 186.667C165.185 187.111 165.615 187.437 166.474 187.644C167.333 187.837 168.467 187.933 169.874 187.933ZM195.139 189.756H192.872V172.689H195.139V189.756ZM191.139 172.778V189.467H188.894V181.978H187.139C187.064 184.422 186.709 186.215 186.072 187.356C185.435 188.481 184.509 189.044 183.294 189.044C182.02 189.044 181.057 188.4 180.405 187.111C179.768 185.822 179.45 183.793 179.45 181.022C179.45 178.252 179.768 176.222 180.405 174.933C181.057 173.644 182.02 173 183.294 173C184.464 173 185.368 173.533 186.005 174.6C186.642 175.652 187.02 177.304 187.139 179.556H188.894V172.778H191.139ZM183.294 186.756C183.857 186.756 184.264 186.296 184.516 185.378C184.783 184.444 184.916 182.993 184.916 181.022C184.916 179.052 184.783 177.607 184.516 176.689C184.264 175.756 183.857 175.289 183.294 175.289C182.746 175.289 182.339 175.756 182.072 176.689C181.82 177.622 181.694 179.067 181.694 181.022C181.694 182.978 181.82 184.422 182.072 185.356C182.339 186.289 182.746 186.756 183.294 186.756ZM214.286 181.267V172.689H216.686V181.267H214.286ZM213.286 180.022C212.812 180.244 212.146 180.422 211.286 180.556C210.427 180.674 209.486 180.733 208.464 180.733H201.509V178.778H203.397V175H201.597V173.022H212.642V175H210.842V178.644C211.775 178.556 212.59 178.363 213.286 178.067V180.022ZM208.553 178.756V175H205.664V178.778H207.131L208.553 178.756ZM216.997 189.622H202.642V185.044H214.309V183.844H202.597V182.067H216.686V186.622H205.02V187.844H216.997V189.622ZM235.195 189.022H218.906V186.711H222.417V182.422C221.528 181.963 220.839 181.37 220.351 180.644C219.877 179.904 219.639 179.074 219.639 178.156C219.639 177.119 219.943 176.2 220.551 175.4C221.173 174.6 222.047 173.985 223.173 173.556C224.299 173.111 225.595 172.889 227.062 172.889C228.528 172.889 229.825 173.111 230.951 173.556C232.077 173.985 232.943 174.6 233.551 175.4C234.173 176.2 234.484 177.119 234.484 178.156C234.484 179.074 234.239 179.904 233.751 180.644C233.277 181.37 232.595 181.963 231.706 182.422V186.711H235.195V189.022ZM227.062 175.156C225.61 175.156 224.432 175.43 223.528 175.978C222.639 176.526 222.195 177.252 222.195 178.156C222.195 179.059 222.639 179.785 223.528 180.333C224.432 180.881 225.61 181.156 227.062 181.156C228.514 181.156 229.684 180.881 230.573 180.333C231.477 179.785 231.928 179.059 231.928 178.156C231.928 177.252 231.477 176.526 230.573 175.978C229.684 175.43 228.514 175.156 227.062 175.156ZM229.306 186.711V183.222C228.714 183.356 227.965 183.422 227.062 183.422C226.158 183.422 225.417 183.356 224.839 183.222V186.711H229.306ZM236.437 176.156V174.133H240.704V172.378H243.17V174.133H247.482V176.156H236.437ZM253.548 179.533H251.415V185.467H249.015V172.689H251.415V177.067H253.548V179.533ZM241.948 183.933C240.541 183.933 239.378 183.622 238.459 183C237.541 182.378 237.082 181.519 237.082 180.422C237.082 179.326 237.541 178.467 238.459 177.844C239.378 177.222 240.541 176.911 241.948 176.911C243.356 176.911 244.519 177.222 245.437 177.844C246.37 178.467 246.837 179.326 246.837 180.422C246.837 181.519 246.37 182.378 245.437 183C244.519 183.622 243.356 183.933 241.948 183.933ZM241.948 178.8C241.163 178.8 240.533 178.956 240.059 179.267C239.6 179.563 239.37 179.948 239.37 180.422C239.37 180.896 239.6 181.289 240.059 181.6C240.533 181.896 241.163 182.044 241.948 182.044C242.733 182.044 243.356 181.896 243.815 181.6C244.289 181.289 244.526 180.896 244.526 180.422C244.526 179.948 244.289 179.563 243.815 179.267C243.356 178.956 242.733 178.8 241.948 178.8ZM251.793 187.4V189.622H237.548V184.733H239.993V187.4H251.793Z" fill="#191919"/>
<path d="M33.6222 218.756V201.689H36.0444V218.756H33.6222ZM26.2667 202C27.7926 202 29 202.674 29.8889 204.022C30.7778 205.356 31.2222 207.356 31.2222 210.022C31.2222 212.689 30.7778 214.696 29.8889 216.044C29 217.378 27.7926 218.044 26.2667 218.044C24.7259 218.044 23.5037 217.378 22.6 216.044C21.7111 214.696 21.2667 212.689 21.2667 210.022C21.2667 207.356 21.7111 205.356 22.6 204.022C23.5037 202.674 24.7259 202 26.2667 202ZM26.2667 204.333C25.4667 204.333 24.8296 204.793 24.3556 205.711C23.8815 206.63 23.6444 208.067 23.6444 210.022C23.6444 211.978 23.8815 213.415 24.3556 214.333C24.8296 215.252 25.4667 215.711 26.2667 215.711C27.0519 215.711 27.6741 215.252 28.1333 214.333C28.6074 213.415 28.8444 211.978 28.8444 210.022C28.8444 208.067 28.6074 206.63 28.1333 205.711C27.6741 204.793 27.0519 204.333 26.2667 204.333ZM54.531 211.444H38.2421V209.467H41.5977V207.533C39.9532 206.97 39.131 206.081 39.131 204.867C39.131 203.726 39.7977 202.881 41.131 202.333C42.4643 201.785 44.2199 201.511 46.3977 201.511C48.5754 201.511 50.3236 201.785 51.6421 202.333C52.9754 202.881 53.6421 203.726 53.6421 204.867C53.6421 206.081 52.8273 206.97 51.1977 207.533V209.467H54.531V211.444ZM46.3977 203.444C44.9902 203.444 43.8495 203.563 42.9754 203.8C42.1162 204.037 41.6865 204.393 41.6865 204.867C41.6865 205.341 42.1162 205.696 42.9754 205.933C43.8495 206.156 44.9902 206.267 46.3977 206.267C47.8051 206.267 48.9384 206.156 49.7977 205.933C50.6569 205.696 51.0865 205.341 51.0865 204.867C51.0865 204.393 50.6569 204.037 49.7977 203.8C48.9384 203.563 47.8051 203.444 46.3977 203.444ZM48.7977 209.467V208.067C48.2347 208.156 47.4347 208.2 46.3977 208.2C45.3606 208.2 44.5606 208.156 43.9977 208.067V209.467H48.7977ZM46.3977 212.489C48.6199 212.489 50.3828 212.741 51.6865 213.244C52.9902 213.733 53.6421 214.541 53.6421 215.667C53.6421 216.793 52.9828 217.607 51.6643 218.111C50.3606 218.615 48.6051 218.867 46.3977 218.867C44.1902 218.867 42.4273 218.615 41.1088 218.111C39.8051 217.607 39.1532 216.793 39.1532 215.667C39.1532 214.541 39.8051 213.733 41.1088 213.244C42.4125 212.741 44.1754 212.489 46.3977 212.489ZM46.3977 216.933C47.7902 216.933 48.9162 216.837 49.7754 216.644C50.6347 216.437 51.0643 216.111 51.0643 215.667C51.0643 215.222 50.6347 214.904 49.7754 214.711C48.931 214.519 47.8051 214.422 46.3977 214.422C43.2717 214.422 41.7088 214.837 41.7088 215.667C41.7088 216.111 42.1384 216.437 42.9977 216.644C43.8569 216.837 44.9902 216.933 46.3977 216.933ZM75.1454 207.556H77.2787V209.733H75.1454V211.867H72.7454V201.689H75.1454V203.4H77.2787V205.556H75.1454V207.556ZM65.2787 211.422C64.2713 211.422 63.3824 211.215 62.6121 210.8C61.8417 210.385 61.2417 209.815 60.8121 209.089C60.3973 208.363 60.1898 207.533 60.1898 206.6C60.1898 205.681 60.3973 204.859 60.8121 204.133C61.2417 203.407 61.8417 202.837 62.6121 202.422C63.3824 202.007 64.2713 201.8 65.2787 201.8C66.2861 201.8 67.175 202.007 67.9454 202.422C68.7306 202.837 69.3306 203.407 69.7454 204.133C70.175 204.859 70.3898 205.681 70.3898 206.6C70.3898 207.533 70.175 208.363 69.7454 209.089C69.3306 209.815 68.7306 210.385 67.9454 210.8C67.175 211.215 66.2861 211.422 65.2787 211.422ZM65.2787 203.911C64.4639 203.911 63.8047 204.156 63.301 204.644C62.8121 205.119 62.5676 205.77 62.5676 206.6C62.5676 207.43 62.8121 208.089 63.301 208.578C63.8047 209.067 64.4639 209.311 65.2787 209.311C66.0935 209.311 66.7454 209.067 67.2343 208.578C67.738 208.089 67.9898 207.43 67.9898 206.6C67.9898 205.77 67.738 205.119 67.2343 204.644C66.7454 204.156 66.0935 203.911 65.2787 203.911ZM75.1454 212.667V218.844H72.701V214.844H61.3676V212.667H75.1454ZM94.8764 208.356H92.7875V214.644H90.3875V201.689H92.7875V205.978H94.8764V208.356ZM78.5653 204.067V201.889H87.8542V208.489H85.4764V204.067H78.5653ZM89.2097 211.311C88.2468 211.741 86.5949 211.956 84.2542 211.956H77.8319V209.822H80.6542V206.111H83.0319V209.822H84.3431C86.6245 209.822 88.2468 209.607 89.2097 209.178V211.311ZM93.1653 216.444V218.622H78.8986V213.467H81.3431V216.444H93.1653ZM111.252 218.756H108.985V201.689H111.252V218.756ZM107.252 201.778V218.467H105.007V210.978H103.252C103.178 213.422 102.822 215.215 102.185 216.356C101.548 217.481 100.622 218.044 99.4074 218.044C98.1333 218.044 97.1703 217.4 96.5185 216.111C95.8815 214.822 95.5629 212.793 95.5629 210.022C95.5629 207.252 95.8815 205.222 96.5185 203.933C97.1703 202.644 98.1333 202 99.4074 202C100.578 202 101.481 202.533 102.118 203.6C102.756 204.652 103.133 206.304 103.252 208.556H105.007V201.778H107.252ZM99.4074 215.756C99.9703 215.756 100.378 215.296 100.63 214.378C100.896 213.444 101.03 211.993 101.03 210.022C101.03 208.052 100.896 206.607 100.63 205.689C100.378 204.756 99.9703 204.289 99.4074 204.289C98.8592 204.289 98.4518 204.756 98.1852 205.689C97.9333 206.622 97.8074 208.067 97.8074 210.022C97.8074 211.978 97.9333 213.422 98.1852 214.356C98.4518 215.289 98.8592 215.756 99.4074 215.756ZM133.711 211.311H117.422V209.311H124.377V207.889H118.533V201.822H132.644V203.8H120.911V205.911H132.822V207.889H126.777V209.311H133.711V211.311ZM125.577 212.444C127.785 212.444 129.548 212.704 130.866 213.222C132.185 213.726 132.844 214.541 132.844 215.667C132.844 216.793 132.185 217.607 130.866 218.111C129.548 218.63 127.785 218.889 125.577 218.889C123.37 218.889 121.607 218.63 120.288 218.111C118.97 217.607 118.311 216.793 118.311 215.667C118.311 214.541 118.963 213.726 120.266 213.222C121.585 212.704 123.355 212.444 125.577 212.444ZM125.577 216.956C126.97 216.956 128.103 216.852 128.977 216.644C129.851 216.437 130.288 216.111 130.288 215.667C130.288 215.222 129.851 214.896 128.977 214.689C128.103 214.481 126.97 214.378 125.577 214.378C124.185 214.378 123.044 214.481 122.155 214.689C121.281 214.896 120.844 215.222 120.844 215.667C120.844 216.111 121.281 216.437 122.155 216.644C123.044 216.852 124.185 216.956 125.577 216.956ZM148.042 218.756V201.689H150.442V218.756H148.042ZM140.619 201.956C141.597 201.956 142.471 202.185 143.242 202.644C144.012 203.104 144.612 203.748 145.042 204.578C145.471 205.393 145.686 206.326 145.686 207.378C145.686 208.444 145.471 209.393 145.042 210.222C144.612 211.037 144.012 211.674 143.242 212.133C142.471 212.593 141.597 212.822 140.619 212.822C139.642 212.822 138.76 212.593 137.975 212.133C137.205 211.674 136.605 211.037 136.175 210.222C135.745 209.393 135.531 208.444 135.531 207.378C135.531 206.311 135.745 205.37 136.175 204.556C136.605 203.741 137.205 203.104 137.975 202.644C138.76 202.185 139.642 201.956 140.619 201.956ZM140.619 204.222C139.79 204.222 139.123 204.526 138.619 205.133C138.116 205.726 137.864 206.474 137.864 207.378C137.864 208.311 138.116 209.074 138.619 209.667C139.123 210.259 139.79 210.556 140.619 210.556C141.449 210.556 142.116 210.259 142.619 209.667C143.123 209.059 143.375 208.296 143.375 207.378C143.375 206.474 143.116 205.726 142.597 205.133C142.094 204.526 141.434 204.222 140.619 204.222ZM146.842 217.044C146.323 217.296 145.619 217.489 144.731 217.622C143.842 217.756 142.879 217.822 141.842 217.822H135.019V215.467H141.975C142.982 215.467 143.916 215.407 144.775 215.289C145.634 215.156 146.323 214.963 146.842 214.711V217.044ZM160.928 204.111V206.4H152.262V204.111H155.417V201.644H157.795V204.111H160.928ZM168.439 218.756H166.217V210.711H164.128V218.467H161.928V201.778H164.128V208.333H166.217V201.689H168.439V218.756ZM156.684 207.467C157.825 207.467 158.75 207.926 159.462 208.844C160.173 209.763 160.528 211.067 160.528 212.756C160.528 214.43 160.173 215.726 159.462 216.644C158.75 217.563 157.825 218.022 156.684 218.022C155.528 218.022 154.595 217.57 153.884 216.667C153.187 215.748 152.839 214.444 152.839 212.756C152.839 211.067 153.187 209.763 153.884 208.844C154.595 207.926 155.528 207.467 156.684 207.467ZM156.684 215.844C157.173 215.844 157.573 215.57 157.884 215.022C158.195 214.474 158.35 213.719 158.35 212.756C158.35 211.793 158.195 211.037 157.884 210.489C157.573 209.941 157.173 209.667 156.684 209.667C156.18 209.667 155.773 209.941 155.462 210.489C155.165 211.037 155.017 211.793 155.017 212.756C155.017 213.719 155.165 214.474 155.462 215.022C155.773 215.57 156.18 215.844 156.684 215.844ZM182.476 207.556C181.632 208.533 180.572 209.304 179.298 209.867C178.024 210.415 176.654 210.726 175.187 210.8V208.489C176.698 208.385 178.039 207.963 179.209 207.222C180.38 206.481 181.157 205.511 181.543 204.311H175.52V202.022H189.987V204.311H184.187C184.128 204.726 183.994 205.17 183.787 205.644L190.565 208.667L189.609 210.778L182.476 207.556ZM183.965 214.756V219.156H181.543V214.756H174.609V212.4H190.898V214.756H183.965ZM208.029 218.756H205.763V201.689H208.029V218.756ZM203.874 201.778V218.467H201.607V209.689H199.363V207.289H201.607V201.778H203.874ZM197.807 202.156C197.807 204.837 197.688 207.148 197.451 209.089L201.274 216.578L199.296 217.622L196.718 212.533C195.844 215.733 194.37 217.496 192.296 217.822V215.267C194.429 214.659 195.511 210.259 195.54 202.067L197.807 202.156ZM226.093 218.022H209.805V215.711H213.316V211.422C212.427 210.963 211.738 210.37 211.249 209.644C210.775 208.904 210.538 208.074 210.538 207.156C210.538 206.119 210.842 205.2 211.449 204.4C212.071 203.6 212.945 202.985 214.071 202.556C215.197 202.111 216.493 201.889 217.96 201.889C219.427 201.889 220.723 202.111 221.849 202.556C222.975 202.985 223.842 203.6 224.449 204.4C225.071 205.2 225.382 206.119 225.382 207.156C225.382 208.074 225.138 208.904 224.649 209.644C224.175 210.37 223.493 210.963 222.605 211.422V215.711H226.093V218.022ZM217.96 204.156C216.508 204.156 215.331 204.43 214.427 204.978C213.538 205.526 213.093 206.252 213.093 207.156C213.093 208.059 213.538 208.785 214.427 209.333C215.331 209.881 216.508 210.156 217.96 210.156C219.412 210.156 220.582 209.881 221.471 209.333C222.375 208.785 222.827 208.059 222.827 207.156C222.827 206.252 222.375 205.526 221.471 204.978C220.582 204.43 219.412 204.156 217.96 204.156ZM220.205 215.711V212.222C219.612 212.356 218.864 212.422 217.96 212.422C217.056 212.422 216.316 212.356 215.738 212.222V215.711H220.205ZM231.336 202.444L230.824 212.956H228.802L228.313 202.444H231.336ZM229.824 218.133C229.336 218.133 228.936 217.985 228.624 217.689C228.313 217.378 228.158 217 228.158 216.556C228.158 216.111 228.313 215.741 228.624 215.444C228.936 215.148 229.336 215 229.824 215C230.299 215 230.691 215.148 231.002 215.444C231.328 215.741 231.491 216.111 231.491 216.556C231.491 217 231.328 217.378 231.002 217.689C230.691 217.985 230.299 218.133 229.824 218.133Z" fill="#191919"/>
<rect x="20" y="124" width="360" height="5" fill="#E2E2E2"/>
<rect x="20" y="124" width="120" height="5" fill="url(#paint0_linear_1_766)"/>
<path d="M29.9999 83L31.7749 84.775L23.5499 93L31.7749 101.225L29.9999 103L19.9999 93L29.9999 83Z" fill="#1F1F1F"/>
<rect x="20.5" y="257.5" width="27" height="27" rx="13.5" stroke="#A8A8A8"/>
<path d="M31.5951 277L26 271.312L27.3988 269.89L31.5951 274.156L40.6012 265L42 266.422L31.5951 277Z" fill="#9A9A9A"/>
<path d="M78.2 277.9H63.64V276.48H70.18V272.52H64.66V263.92H77.18V272.52H71.64V276.48H78.2V277.9ZM75.74 271.12V265.34H66.08V271.12H75.74ZM80.5379 271.12V263.74H93.0779V265.14H81.9979V269.74H93.2579V271.12H80.5379ZM87.4779 274.48V279.04H86.0179V274.48H79.4779V273.04H94.0379V274.48H87.4779ZM113.831 271.74H99.2709V270.5H105.831V268.74H100.371V263.54H112.751V264.78H101.811V267.5H112.911V268.74H107.271V270.5H113.831V271.74ZM106.551 273.16C108.444 273.16 109.978 273.38 111.151 273.82C112.338 274.247 112.931 274.947 112.931 275.92C112.931 276.893 112.338 277.6 111.151 278.04C109.978 278.48 108.444 278.7 106.551 278.7C104.658 278.7 103.118 278.48 101.931 278.04C100.758 277.6 100.171 276.893 100.171 275.92C100.171 274.947 100.758 274.247 101.931 273.82C103.118 273.38 104.658 273.16 106.551 273.16ZM106.551 277.48C107.924 277.48 109.078 277.36 110.011 277.12C110.944 276.867 111.411 276.467 111.411 275.92C111.411 275.387 110.944 275 110.011 274.76C109.078 274.507 107.924 274.38 106.551 274.38C105.178 274.38 104.018 274.507 103.071 274.76C102.138 275 101.671 275.387 101.671 275.92C101.671 276.467 102.138 276.867 103.071 277.12C104.004 277.36 105.164 277.48 106.551 277.48ZM127.269 278.68V263.32H128.689V278.68H127.269ZM120.129 263.68C120.982 263.68 121.749 263.887 122.429 264.3C123.109 264.7 123.635 265.267 124.009 266C124.395 266.733 124.589 267.567 124.589 268.5C124.589 269.42 124.395 270.247 124.009 270.98C123.622 271.713 123.089 272.287 122.409 272.7C121.742 273.1 120.982 273.3 120.129 273.3C119.262 273.3 118.489 273.1 117.809 272.7C117.129 272.287 116.595 271.72 116.209 271C115.822 270.267 115.629 269.433 115.629 268.5C115.629 267.567 115.822 266.733 116.209 266C116.595 265.267 117.129 264.7 117.809 264.3C118.489 263.887 119.262 263.68 120.129 263.68ZM120.129 265.06C119.209 265.06 118.462 265.387 117.889 266.04C117.329 266.68 117.049 267.5 117.049 268.5C117.049 269.487 117.329 270.307 117.889 270.96C118.462 271.6 119.209 271.92 120.129 271.92C121.035 271.92 121.769 271.6 122.329 270.96C122.902 270.307 123.189 269.487 123.189 268.5C123.189 267.513 122.902 266.693 122.329 266.04C121.769 265.387 121.035 265.06 120.129 265.06ZM125.949 276.98C125.469 277.22 124.782 277.407 123.889 277.54C122.995 277.66 121.982 277.72 120.849 277.72H115.109V276.3H120.949C122.042 276.3 123.022 276.24 123.889 276.12C124.769 275.987 125.455 275.8 125.949 275.56V276.98ZM138.002 278.96C137.362 277.92 136.868 276.727 136.522 275.38C136.175 274.02 136.002 272.56 136.002 271C136.002 269.44 136.175 267.98 136.522 266.62C136.868 265.247 137.362 264.053 138.002 263.04H139.202C138.535 264.2 138.042 265.433 137.722 266.74C137.402 268.047 137.242 269.467 137.242 271C137.242 272.533 137.402 273.953 137.722 275.26C138.042 276.567 138.535 277.8 139.202 278.96H138.002ZM149.029 267.82V266.44H152.729V263.32H154.169V274.76H152.729V267.82H149.029ZM145.309 268.82C144.776 269.847 144.109 270.687 143.309 271.34C142.509 271.98 141.596 272.38 140.569 272.54V271.12C141.476 270.933 142.269 270.473 142.949 269.74C143.629 269.007 144.142 268.093 144.489 267C144.849 265.907 145.036 264.733 145.049 263.48L146.489 263.56C146.489 265.013 146.282 266.32 145.869 267.48L150.509 271.38L149.569 272.48L145.309 268.82ZM154.509 278.44H141.869V273.66H143.329V277.06H154.509V278.44ZM170.307 273.16H168.927V268.48H166.287V273H164.927V263.4H166.287V267.1H168.927V263.32H170.307V273.16ZM163.767 271.8C162.887 272.187 161.467 272.38 159.507 272.38H156.847V263.74H163.287V264.98H158.207V267.42H163.087V268.64H158.207V271.14H159.627C161.454 271.14 162.834 270.947 163.767 270.56V271.8ZM170.307 274.06V278.64H168.867V275.36H157.547V274.06H170.307ZM188.36 263.32H189.8V271.96H188.36V267.64H185.36V266.32H188.36V263.32ZM181.24 268.28C180.76 269.16 180.107 269.88 179.28 270.44C178.453 270.987 177.507 271.327 176.44 271.46V270.1C177.693 269.9 178.687 269.36 179.42 268.48C180.167 267.587 180.593 266.447 180.7 265.06H176.62V263.76H185.96V265.06H182.16C182.12 265.793 182 266.46 181.8 267.06L186.44 270.18L185.7 271.32L181.24 268.28ZM183.68 272.52C185.56 272.52 187.067 272.773 188.2 273.28C189.347 273.773 189.92 274.54 189.92 275.58C189.92 276.62 189.347 277.393 188.2 277.9C187.067 278.393 185.56 278.64 183.68 278.64C181.8 278.64 180.293 278.393 179.16 277.9C178.027 277.393 177.46 276.62 177.46 275.58C177.46 274.54 178.027 273.773 179.16 273.28C180.293 272.773 181.8 272.52 183.68 272.52ZM183.68 277.38C185.08 277.38 186.213 277.227 187.08 276.92C187.96 276.613 188.4 276.167 188.4 275.58C188.4 274.993 187.96 274.547 187.08 274.24C186.2 273.933 185.067 273.78 183.68 273.78C182.293 273.78 181.16 273.933 180.28 274.24C179.413 274.547 178.98 274.993 178.98 275.58C178.98 276.167 179.413 276.613 180.28 276.92C181.16 277.227 182.293 277.38 183.68 277.38ZM206.538 277.9H191.978V276.48H198.518V272.78H192.998V263.8H194.418V266.72H204.098V263.8H205.518V272.78H199.978V276.48H206.538V277.9ZM204.098 271.42V268.08H194.418V271.42H204.098ZM226.331 277.9H211.771V276.48H218.291V272.76H212.551V271.38H215.211V265.44H212.691V264.04H225.391V265.44H222.891V271.38H225.551V272.76H219.791V276.48H226.331V277.9ZM221.451 271.38V265.44H216.651V271.38H221.451ZM227.589 265.9V264.7H231.809V263.04H233.269V264.7H237.489V265.9H227.589ZM240.749 268.6V272.48H239.309V263.32H240.749V267.16H242.869V268.6H240.749ZM232.549 272.34C231.295 272.34 230.269 272.093 229.469 271.6C228.682 271.107 228.289 270.44 228.289 269.6C228.289 268.733 228.682 268.053 229.469 267.56C230.269 267.053 231.295 266.8 232.549 266.8C233.775 266.8 234.789 267.053 235.589 267.56C236.389 268.067 236.789 268.747 236.789 269.6C236.789 270.44 236.389 271.107 235.589 271.6C234.789 272.093 233.775 272.34 232.549 272.34ZM232.549 267.96C231.669 267.96 230.969 268.113 230.449 268.42C229.929 268.727 229.669 269.12 229.669 269.6C229.669 270.053 229.929 270.433 230.449 270.74C230.969 271.033 231.669 271.18 232.549 271.18C233.415 271.18 234.109 271.033 234.629 270.74C235.149 270.433 235.409 270.053 235.409 269.6C235.409 269.12 235.149 268.727 234.629 268.42C234.109 268.113 233.415 267.96 232.549 267.96ZM240.749 273.38V278.44H228.649V273.38H240.749ZM239.309 277.22V274.62H230.089V277.22H239.309ZM243.487 278.96C244.153 277.8 244.64 276.567 244.947 275.26C245.267 273.953 245.427 272.533 245.427 271C245.427 269.467 245.267 268.047 244.947 266.74C244.64 265.433 244.153 264.2 243.487 263.04H244.667C245.307 264.053 245.793 265.24 246.127 266.6C246.473 267.96 246.647 269.427 246.647 271C246.647 272.56 246.473 274.02 246.127 275.38C245.793 276.727 245.307 277.92 244.667 278.96H243.487Z" fill="#191919"/>
<path d="M31.5951 362L26 356.312L27.3988 354.89L31.5951 359.156L40.6012 350L42 351.422L31.5951 362Z" fill="#9A9A9A"/>
<path d="M78.9 353.54H76.78V359.74H75.34V348.32H76.78V352.1H78.9V353.54ZM64.2 356.94V348.74H72.66V356.94H64.2ZM65.64 350.06V355.6H71.22V350.06H65.64ZM77.22 362.06V363.44H64.68V358.54H66.14V362.06H77.22ZM90.153 363H88.633V350.28H85.353V349H90.153V363ZM104.359 359.32V363H102.859V359.32H94.9988V358.28L102.359 349H103.999L96.8788 358.04H102.899V354.8H104.359V358.04H107.139V359.32H104.359ZM121.405 363.68H120.005V348.32H121.405V363.68ZM117.745 348.4V363.42H116.365V355.12H113.905V353.7H116.365V348.4H117.745ZM112.225 348.76C112.198 351.307 112.085 353.42 111.885 355.1L115.445 361.84L114.265 362.52L111.485 357.24C111.125 358.84 110.631 360.087 110.005 360.98C109.391 361.873 108.591 362.453 107.605 362.72V361.18C108.778 360.767 109.605 359.513 110.085 357.42C110.565 355.313 110.811 352.413 110.825 348.72L112.225 348.76ZM139.338 363.68V348.32H140.798V363.68H139.338ZM132.298 348.72C133.631 348.72 134.691 349.32 135.478 350.52C136.278 351.72 136.678 353.487 136.678 355.82C136.678 358.153 136.278 359.92 135.478 361.12C134.691 362.32 133.631 362.92 132.298 362.92C130.964 362.92 129.898 362.32 129.098 361.12C128.311 359.92 127.918 358.153 127.918 355.82C127.918 353.487 128.311 351.72 129.098 350.52C129.898 349.32 130.964 348.72 132.298 348.72ZM132.298 350.1C131.404 350.1 130.691 350.58 130.158 351.54C129.624 352.487 129.358 353.913 129.358 355.82C129.358 357.74 129.624 359.173 130.158 360.12C130.691 361.067 131.404 361.54 132.298 361.54C133.164 361.54 133.871 361.067 134.418 360.12C134.964 359.16 135.238 357.727 135.238 355.82C135.238 353.927 134.964 352.5 134.418 351.54C133.871 350.58 133.164 350.1 132.298 350.1ZM158.336 352.8H156.216V356.82H154.776V348.32H156.216V351.38H158.336V352.8ZM147.996 353C147.476 353.947 146.802 354.72 145.976 355.32C145.149 355.907 144.202 356.287 143.136 356.46V355.08C144.069 354.893 144.876 354.487 145.556 353.86C146.236 353.233 146.756 352.453 147.116 351.52C147.476 350.587 147.656 349.573 147.656 348.48L149.116 348.56C149.116 349.72 148.936 350.793 148.576 351.78L153.216 354.98L152.476 356.1L147.996 353ZM150.256 357.38C152.109 357.38 153.602 357.64 154.736 358.16C155.869 358.667 156.436 359.453 156.436 360.52C156.436 361.587 155.869 362.373 154.736 362.88C153.602 363.387 152.109 363.64 150.256 363.64C148.402 363.64 146.909 363.387 145.776 362.88C144.642 362.373 144.076 361.587 144.076 360.52C144.076 359.453 144.642 358.667 145.776 358.16C146.909 357.64 148.402 357.38 150.256 357.38ZM150.256 362.38C151.629 362.38 152.749 362.22 153.616 361.9C154.482 361.58 154.916 361.12 154.916 360.52C154.916 359.907 154.482 359.44 153.616 359.12C152.749 358.8 151.629 358.64 150.256 358.64C148.882 358.64 147.762 358.8 146.896 359.12C146.029 359.44 145.596 359.907 145.596 360.52C145.596 361.12 146.029 361.58 146.896 361.9C147.762 362.22 148.882 362.38 150.256 362.38ZM172.473 356.32H171.013V348.32H172.473V356.32ZM168.253 352.28C168.253 353.027 168.067 353.687 167.693 354.26C167.333 354.833 166.807 355.28 166.113 355.6C165.433 355.92 164.633 356.08 163.713 356.08C162.793 356.08 161.987 355.92 161.293 355.6C160.613 355.28 160.087 354.833 159.713 354.26C159.353 353.687 159.173 353.027 159.173 352.28C159.173 351.547 159.353 350.893 159.713 350.32C160.087 349.747 160.613 349.3 161.293 348.98C161.987 348.66 162.793 348.5 163.713 348.5C164.633 348.5 165.433 348.66 166.113 348.98C166.807 349.3 167.333 349.747 167.693 350.32C168.067 350.893 168.253 351.547 168.253 352.28ZM160.613 352.28C160.613 353.067 160.9 353.687 161.473 354.14C162.047 354.593 162.793 354.82 163.713 354.82C164.647 354.82 165.393 354.593 165.953 354.14C166.513 353.687 166.793 353.067 166.793 352.28C166.793 351.493 166.513 350.873 165.953 350.42C165.393 349.967 164.647 349.74 163.713 349.74C162.793 349.74 162.047 349.973 161.473 350.44C160.9 350.893 160.613 351.507 160.613 352.28ZM172.473 357.02V363.44H160.373V357.02H161.813V358.84H171.033V357.02H172.473ZM171.033 360.08H161.813V362.18H171.033V360.08ZM186.851 363.7V348.32H188.311V363.68L186.851 363.7ZM181.611 361.32C182.305 361.32 182.991 361.253 183.671 361.12C184.365 360.973 184.938 360.787 185.391 360.56V361.96C184.951 362.2 184.385 362.387 183.691 362.52C183.011 362.653 182.318 362.72 181.611 362.72H175.631V348.82H177.111V361.32H181.611ZM203.729 356.12V363.68H202.289V348.32H203.729V354.68H205.849V356.12H203.729ZM197.109 361.34C197.803 361.34 198.496 361.273 199.189 361.14C199.883 360.993 200.449 360.807 200.889 360.58V361.98C200.463 362.207 199.896 362.387 199.189 362.52C198.483 362.653 197.769 362.72 197.049 362.72H191.329V348.92H199.749V350.3H192.789V361.34H197.109ZM207.927 363.1C207.62 363.1 207.36 363 207.147 362.8C206.947 362.587 206.847 362.32 206.847 362C206.847 361.693 206.947 361.44 207.147 361.24C207.36 361.027 207.62 360.92 207.927 360.92C208.234 360.92 208.487 361.027 208.687 361.24C208.9 361.44 209.007 361.693 209.007 362C209.007 362.32 208.9 362.587 208.687 362.8C208.487 363 208.234 363.1 207.927 363.1ZM217.754 363.96C217.114 362.92 216.62 361.727 216.274 360.38C215.927 359.02 215.754 357.56 215.754 356C215.754 354.44 215.927 352.98 216.274 351.62C216.62 350.247 217.114 349.053 217.754 348.04H218.954C218.287 349.2 217.794 350.433 217.474 351.74C217.154 353.047 216.994 354.467 216.994 356C216.994 357.533 217.154 358.953 217.474 360.26C217.794 361.567 218.287 362.8 218.954 363.96H217.754ZM232.361 356.06V348.32H233.821V356.06H232.361ZM231.221 354.68C230.754 354.907 230.094 355.087 229.241 355.22C228.401 355.34 227.421 355.4 226.301 355.4H220.441V354.18H222.441V349.96H220.481V348.74H230.561V349.96H228.581V354.08C229.688 353.96 230.568 353.74 231.221 353.42V354.68ZM225.681 354.18C226.374 354.18 226.881 354.167 227.201 354.14V349.96H223.821V354.18H225.681ZM234.221 363.44H221.561V359.68H232.381V358.12H221.541V356.96H233.821V360.72H223.001V362.3H234.221V363.44ZM243.179 352.5C242.366 353.7 241.359 354.653 240.159 355.36C238.959 356.067 237.719 356.42 236.439 356.42V354.98C237.479 354.993 238.492 354.7 239.479 354.1C240.466 353.487 241.306 352.66 241.999 351.62C242.692 350.58 243.146 349.447 243.359 348.22L244.839 348.48C244.666 349.387 244.346 350.333 243.879 351.32L250.219 355.16L249.539 356.4L243.179 352.5ZM244.099 359.56V364.04H242.639V359.56H236.099V358.16H250.659V359.56H244.099ZM251.977 363.96C252.644 362.8 253.13 361.567 253.437 360.26C253.757 358.953 253.917 357.533 253.917 356C253.917 354.467 253.757 353.047 253.437 351.74C253.13 350.433 252.644 349.2 251.977 348.04H253.157C253.797 349.053 254.284 350.24 254.617 351.6C254.964 352.96 255.137 354.427 255.137 356C255.137 357.56 254.964 359.02 254.617 360.38C254.284 361.727 253.797 362.92 253.157 363.96H251.977Z" fill="#191919"/>
<path d="M31.5951 414L26 408.312L27.3988 406.89L31.5951 411.156L40.6012 402L42 403.422L31.5951 414Z" fill="#9A9A9A"/>
<path d="M77.3 415.68H75.86V407.42H71.96V406H75.86V400.32H77.3V415.68ZM69.64 400.76C69.6133 402.933 69.4667 404.86 69.2 406.54L73.84 413.92L72.66 414.76L68.76 408.44C68.28 410.333 67.62 411.827 66.78 412.92C65.94 414 64.9467 414.6 63.8 414.72V413.2C64.7467 413.027 65.5467 412.367 66.2 411.22C66.8533 410.073 67.34 408.593 67.66 406.78C67.9933 404.953 68.1667 402.933 68.18 400.72L69.64 400.76ZM93.0179 415.68H91.5779V400.32H93.0179V415.68ZM88.5779 400.8V414.72H80.3579V400.8H81.7979V406.26H87.1379V400.8H88.5779ZM87.1379 407.64H81.7979V413.32H87.1379V407.64ZM102.376 405.28C101.536 406.693 100.516 407.827 99.3158 408.68C98.1291 409.52 96.8891 409.94 95.5958 409.94V408.5C96.6491 408.5 97.6624 408.133 98.6358 407.4C99.6091 406.667 100.442 405.687 101.136 404.46C101.842 403.22 102.329 401.867 102.596 400.4L104.076 400.7C103.862 401.833 103.502 402.96 102.996 404.08L109.476 408.8L108.696 409.98L102.376 405.28ZM109.876 413.48V414.9H95.3158V413.48H109.876ZM127.209 415.68V400.32H128.669V415.68H127.209ZM120.169 400.72C121.502 400.72 122.562 401.32 123.349 402.52C124.149 403.72 124.549 405.487 124.549 407.82C124.549 410.153 124.149 411.92 123.349 413.12C122.562 414.32 121.502 414.92 120.169 414.92C118.835 414.92 117.769 414.32 116.969 413.12C116.182 411.92 115.789 410.153 115.789 407.82C115.789 405.487 116.182 403.72 116.969 402.52C117.769 401.32 118.835 400.72 120.169 400.72ZM120.169 402.1C119.275 402.1 118.562 402.58 118.029 403.54C117.495 404.487 117.229 405.913 117.229 407.82C117.229 409.74 117.495 411.173 118.029 412.12C118.562 413.067 119.275 413.54 120.169 413.54C121.035 413.54 121.742 413.067 122.289 412.12C122.835 411.16 123.109 409.727 123.109 407.82C123.109 405.927 122.835 404.5 122.289 403.54C121.742 402.58 121.035 402.1 120.169 402.1ZM145.507 408.86H130.947V407.62H134.247V405.56C133.487 405.333 132.893 405.02 132.467 404.62C132.04 404.22 131.827 403.733 131.827 403.16C131.827 402.187 132.427 401.46 133.627 400.98C134.827 400.487 136.36 400.24 138.227 400.24C140.093 400.24 141.62 400.487 142.807 400.98C144.007 401.46 144.607 402.187 144.607 403.16C144.607 403.733 144.393 404.22 143.967 404.62C143.54 405.02 142.947 405.333 142.187 405.56V407.62H145.507V408.86ZM138.227 401.48C136.813 401.48 135.64 401.62 134.707 401.9C133.787 402.18 133.327 402.6 133.327 403.16C133.327 403.72 133.787 404.14 134.707 404.42C135.627 404.7 136.8 404.84 138.227 404.84C139.64 404.84 140.807 404.7 141.727 404.42C142.647 404.14 143.107 403.72 143.107 403.16C143.107 402.6 142.64 402.18 141.707 401.9C140.787 401.62 139.627 401.48 138.227 401.48ZM140.747 407.62V405.88C140.027 406.013 139.187 406.08 138.227 406.08C137.28 406.08 136.433 406.013 135.687 405.88V407.62H140.747ZM138.227 410.2C140.12 410.2 141.653 410.413 142.827 410.84C144 411.253 144.587 411.947 144.587 412.92C144.587 413.893 144 414.593 142.827 415.02C141.653 415.46 140.12 415.68 138.227 415.68C136.333 415.68 134.793 415.46 133.607 415.02C132.433 414.593 131.847 413.893 131.847 412.92C131.847 411.947 132.433 411.253 133.607 410.84C134.793 410.413 136.333 410.2 138.227 410.2ZM138.227 414.46C139.613 414.46 140.767 414.34 141.687 414.1C142.607 413.86 143.067 413.467 143.067 412.92C143.067 412.387 142.607 412.007 141.687 411.78C140.767 411.54 139.613 411.42 138.227 411.42C136.84 411.42 135.68 411.54 134.747 411.78C133.827 412.007 133.367 412.387 133.367 412.92C133.367 413.467 133.827 413.86 134.747 414.1C135.68 414.34 136.84 414.46 138.227 414.46ZM159.925 406H162.045V407.32H159.925V409.5H158.485V400.32H159.925V402.18H162.045V403.52H159.925V406ZM151.345 408.98C150.438 408.98 149.645 408.8 148.965 408.44C148.285 408.067 147.758 407.56 147.385 406.92C147.025 406.267 146.845 405.54 146.845 404.74C146.845 403.94 147.025 403.22 147.385 402.58C147.758 401.927 148.285 401.42 148.965 401.06C149.645 400.687 150.438 400.5 151.345 400.5C152.251 400.5 153.038 400.687 153.705 401.06C154.385 401.42 154.905 401.92 155.265 402.56C155.638 403.2 155.825 403.927 155.825 404.74C155.825 405.553 155.638 406.28 155.265 406.92C154.905 407.56 154.385 408.067 153.705 408.44C153.038 408.8 152.251 408.98 151.345 408.98ZM151.345 401.78C150.438 401.78 149.705 402.047 149.145 402.58C148.585 403.113 148.305 403.833 148.305 404.74C148.305 405.647 148.585 406.367 149.145 406.9C149.705 407.433 150.438 407.7 151.345 407.7C152.251 407.7 152.985 407.433 153.545 406.9C154.105 406.353 154.385 405.633 154.385 404.74C154.385 403.847 154.105 403.133 153.545 402.6C152.985 402.053 152.251 401.78 151.345 401.78ZM159.925 410.4V415.64H158.465V411.74H147.865V410.4H159.925ZM177.882 406.06H175.802V412H174.342V400.32H175.802V404.64H177.882V406.06ZM163.362 401.94V400.6H171.542V406.56H170.102V401.94H163.362ZM173.042 408.76C172.176 409.173 170.496 409.38 168.002 409.38H162.622V408.06H165.662V404.24H167.102V408.06H168.062C170.462 408.06 172.122 407.853 173.042 407.44V408.76ZM176.242 414.12V415.44H163.702V411H165.142V414.12H176.242ZM192.42 415.68H191.04V400.32H192.42V415.68ZM188.9 400.4V415.42H187.52V408.28H185.42C185.38 410.533 185.08 412.207 184.52 413.3C183.96 414.38 183.14 414.92 182.06 414.92C180.954 414.92 180.114 414.347 179.54 413.2C178.98 412.04 178.7 410.247 178.7 407.82C178.7 403.087 179.82 400.72 182.06 400.72C184.154 400.72 185.267 402.753 185.4 406.82H187.52V400.4H188.9ZM182.06 413.54C182.727 413.54 183.22 413.073 183.54 412.14C183.874 411.193 184.04 409.753 184.04 407.82C184.04 405.887 183.874 404.453 183.54 403.52C183.22 402.573 182.727 402.1 182.06 402.1C181.394 402.1 180.894 402.573 180.56 403.52C180.24 404.453 180.08 405.887 180.08 407.82C180.08 409.753 180.24 411.193 180.56 412.14C180.894 413.073 181.394 413.54 182.06 413.54ZM212.813 408.74H198.253V407.5H204.813V405.74H199.353V400.54H211.733V401.78H200.793V404.5H211.893V405.74H206.253V407.5H212.813V408.74ZM205.533 410.16C207.427 410.16 208.96 410.38 210.133 410.82C211.32 411.247 211.913 411.947 211.913 412.92C211.913 413.893 211.32 414.6 210.133 415.04C208.96 415.48 207.427 415.7 205.533 415.7C203.64 415.7 202.1 415.48 200.913 415.04C199.74 414.6 199.153 413.893 199.153 412.92C199.153 411.947 199.74 411.247 200.913 410.82C202.1 410.38 203.64 410.16 205.533 410.16ZM205.533 414.48C206.907 414.48 208.06 414.36 208.993 414.12C209.927 413.867 210.393 413.467 210.393 412.92C210.393 412.387 209.927 412 208.993 411.76C208.06 411.507 206.907 411.38 205.533 411.38C204.16 411.38 203 411.507 202.053 411.76C201.12 412 200.653 412.387 200.653 412.92C200.653 413.467 201.12 413.867 202.053 414.12C202.987 414.36 204.147 414.48 205.533 414.48ZM226.251 415.68V400.32H227.671V415.68H226.251ZM219.111 400.68C219.965 400.68 220.731 400.887 221.411 401.3C222.091 401.7 222.618 402.267 222.991 403C223.378 403.733 223.571 404.567 223.571 405.5C223.571 406.42 223.378 407.247 222.991 407.98C222.605 408.713 222.071 409.287 221.391 409.7C220.725 410.1 219.965 410.3 219.111 410.3C218.245 410.3 217.471 410.1 216.791 409.7C216.111 409.287 215.578 408.72 215.191 408C214.805 407.267 214.611 406.433 214.611 405.5C214.611 404.567 214.805 403.733 215.191 403C215.578 402.267 216.111 401.7 216.791 401.3C217.471 400.887 218.245 400.68 219.111 400.68ZM219.111 402.06C218.191 402.06 217.445 402.387 216.871 403.04C216.311 403.68 216.031 404.5 216.031 405.5C216.031 406.487 216.311 407.307 216.871 407.96C217.445 408.6 218.191 408.92 219.111 408.92C220.018 408.92 220.751 408.6 221.311 407.96C221.885 407.307 222.171 406.487 222.171 405.5C222.171 404.513 221.885 403.693 221.311 403.04C220.751 402.387 220.018 402.06 219.111 402.06ZM224.931 413.98C224.451 414.22 223.765 414.407 222.871 414.54C221.978 414.66 220.965 414.72 219.831 414.72H214.091V413.3H219.931C221.025 413.3 222.005 413.24 222.871 413.12C223.751 412.987 224.438 412.8 224.931 412.56V413.98ZM236.984 415.96C236.344 414.92 235.851 413.727 235.504 412.38C235.157 411.02 234.984 409.56 234.984 408C234.984 406.44 235.157 404.98 235.504 403.62C235.851 402.247 236.344 401.053 236.984 400.04H238.184C237.517 401.2 237.024 402.433 236.704 403.74C236.384 405.047 236.224 406.467 236.224 408C236.224 409.533 236.384 410.953 236.704 412.26C237.024 413.567 237.517 414.8 238.184 415.96H236.984ZM251.592 408.06V400.32H253.052V408.06H251.592ZM250.452 406.68C249.985 406.907 249.325 407.087 248.472 407.22C247.632 407.34 246.652 407.4 245.532 407.4H239.672V406.18H241.672V401.96H239.712V400.74H249.792V401.96H247.812V406.08C248.918 405.96 249.798 405.74 250.452 405.42V406.68ZM244.912 406.18C245.605 406.18 246.112 406.167 246.432 406.14V401.96H243.052V406.18H244.912ZM253.452 415.44H240.792V411.68H251.612V410.12H240.772V408.96H253.052V412.72H242.232V414.3H253.452V415.44ZM262.409 404.5C261.596 405.7 260.589 406.653 259.389 407.36C258.189 408.067 256.949 408.42 255.669 408.42V406.98C256.709 406.993 257.723 406.7 258.709 406.1C259.696 405.487 260.536 404.66 261.229 403.62C261.923 402.58 262.376 401.447 262.589 400.22L264.069 400.48C263.896 401.387 263.576 402.333 263.109 403.32L269.449 407.16L268.769 408.4L262.409 404.5ZM263.329 411.56V416.04H261.869V411.56H255.329V410.16H269.889V411.56H263.329ZM271.207 415.96C271.874 414.8 272.361 413.567 272.667 412.26C272.987 410.953 273.147 409.533 273.147 408C273.147 406.467 272.987 405.047 272.667 403.74C272.361 402.433 271.874 401.2 271.207 400.04H272.387C273.027 401.053 273.514 402.24 273.847 403.6C274.194 404.96 274.367 406.427 274.367 408C274.367 409.56 274.194 411.02 273.847 412.38C273.514 413.727 273.027 414.92 272.387 415.96H271.207Z" fill="#191919"/>
<path d="M31.5951 466L26 460.312L27.3988 458.89L31.5951 463.156L40.6012 454L42 455.422L31.5951 466Z" fill="#9A9A9A"/>
<path d="M77.6 467.68H76.2V460.04H73.44V467.42H72.06V452.4H73.44V458.62H76.2V452.32H77.6V467.68ZM70.02 452.92V456.96C70.02 458.88 69.7667 460.573 69.26 462.04C68.7667 463.507 68.0667 464.647 67.16 465.46C66.2533 466.273 65.2067 466.68 64.02 466.68V465.26C64.9533 465.247 65.7667 464.893 66.46 464.2C67.1533 463.507 67.6867 462.547 68.06 461.32C68.4467 460.08 68.64 458.653 68.64 457.04V454.3H64.02V452.92H70.02ZM91.5779 463.74V452.32H93.0379V463.74H91.5779ZM84.2579 452.5C85.1912 452.5 86.0046 452.693 86.6979 453.08C87.3912 453.453 87.9179 453.98 88.2779 454.66C88.6512 455.327 88.8379 456.087 88.8379 456.94C88.8379 457.793 88.6512 458.56 88.2779 459.24C87.9179 459.907 87.3912 460.433 86.6979 460.82C86.0046 461.193 85.1912 461.38 84.2579 461.38C83.3246 461.38 82.5112 461.193 81.8179 460.82C81.1246 460.433 80.5912 459.907 80.2179 459.24C79.8446 458.56 79.6579 457.793 79.6579 456.94C79.6579 456.087 79.8446 455.327 80.2179 454.66C80.5912 453.98 81.1246 453.453 81.8179 453.08C82.5112 452.693 83.3246 452.5 84.2579 452.5ZM84.2579 453.78C83.3112 453.78 82.5512 454.067 81.9779 454.64C81.4046 455.213 81.1179 455.98 81.1179 456.94C81.1179 457.9 81.4046 458.667 81.9779 459.24C82.5512 459.8 83.3112 460.08 84.2579 460.08C85.2046 460.08 85.9646 459.8 86.5379 459.24C87.1112 458.667 87.3979 457.9 87.3979 456.94C87.3979 455.98 87.1112 455.213 86.5379 454.64C85.9646 454.067 85.2046 453.78 84.2579 453.78ZM93.4579 466.06V467.44H80.9379V462.48H82.3979V466.06H93.4579ZM107.536 452.32H108.976V460.96H107.536V456.64H104.536V455.32H107.536V452.32ZM100.416 457.28C99.9358 458.16 99.2824 458.88 98.4558 459.44C97.6291 459.987 96.6824 460.327 95.6158 460.46V459.1C96.8691 458.9 97.8624 458.36 98.5958 457.48C99.3424 456.587 99.7691 455.447 99.8758 454.06H95.7958V452.76H105.136V454.06H101.336C101.296 454.793 101.176 455.46 100.976 456.06L105.616 459.18L104.876 460.32L100.416 457.28ZM102.856 461.52C104.736 461.52 106.242 461.773 107.376 462.28C108.522 462.773 109.096 463.54 109.096 464.58C109.096 465.62 108.522 466.393 107.376 466.9C106.242 467.393 104.736 467.64 102.856 467.64C100.976 467.64 99.4691 467.393 98.3358 466.9C97.2024 466.393 96.6358 465.62 96.6358 464.58C96.6358 463.54 97.2024 462.773 98.3358 462.28C99.4691 461.773 100.976 461.52 102.856 461.52ZM102.856 466.38C104.256 466.38 105.389 466.227 106.256 465.92C107.136 465.613 107.576 465.167 107.576 464.58C107.576 463.993 107.136 463.547 106.256 463.24C105.376 462.933 104.242 462.78 102.856 462.78C101.469 462.78 100.336 462.933 99.4558 463.24C98.5891 463.547 98.1558 463.993 98.1558 464.58C98.1558 465.167 98.5891 465.613 99.4558 465.92C100.336 466.227 101.469 466.38 102.856 466.38ZM125.714 466.9H111.154V465.48H117.694V461.78H112.174V452.8H113.594V455.72H123.274V452.8H124.694V461.78H119.154V465.48H125.714V466.9ZM123.274 460.42V457.08H113.594V460.42H123.274ZM138.027 456.5C137.213 457.7 136.207 458.653 135.007 459.36C133.807 460.067 132.567 460.42 131.287 460.42V458.98C132.327 458.993 133.34 458.7 134.327 458.1C135.313 457.487 136.153 456.66 136.847 455.62C137.54 454.58 137.993 453.447 138.207 452.22L139.687 452.48C139.513 453.387 139.193 454.333 138.727 455.32L145.067 459.16L144.387 460.4L138.027 456.5ZM138.947 463.56V468.04H137.487V463.56H130.947V462.16H145.507V463.56H138.947ZM160.345 460.32H158.885V452.32H160.345V460.32ZM151.965 457.1C151.471 457.927 150.811 458.6 149.985 459.12C149.158 459.64 148.218 459.967 147.165 460.1V458.74C148.405 458.54 149.405 458.033 150.165 457.22C150.925 456.393 151.351 455.34 151.445 454.06H147.345V452.76H156.785V454.06H152.925C152.885 454.7 152.771 455.313 152.585 455.9L157.285 458.82L156.585 459.96L151.965 457.1ZM160.345 461.02V467.44H148.085V461.02H149.505V462.86H158.905V461.02H160.345ZM158.905 464.1H149.505V466.18H158.905V464.1ZM178.678 460.72V452.32H180.138V460.72H178.678ZM167.297 459.4V452.74H175.898V459.4H167.297ZM168.738 454.02V458.12H174.478V454.02H168.738ZM173.758 465.18C173.091 465.887 172.211 466.44 171.118 466.84C170.024 467.24 168.871 467.44 167.658 467.44V466.14C168.511 466.14 169.338 466.02 170.138 465.78C170.951 465.527 171.644 465.173 172.218 464.72C172.791 464.267 173.164 463.747 173.338 463.16H167.758V461.88H173.317V460.28H174.797V461.88H180.378V463.16H174.858C174.818 463.52 174.711 463.84 174.538 464.12L180.697 466.4L180.258 467.66L173.758 465.18ZM198.47 467.68V452.32H199.93V467.68H198.47ZM191.43 452.72C192.764 452.72 193.824 453.32 194.61 454.52C195.41 455.72 195.81 457.487 195.81 459.82C195.81 462.153 195.41 463.92 194.61 465.12C193.824 466.32 192.764 466.92 191.43 466.92C190.097 466.92 189.03 466.32 188.23 465.12C187.444 463.92 187.05 462.153 187.05 459.82C187.05 457.487 187.444 455.72 188.23 454.52C189.03 453.32 190.097 452.72 191.43 452.72ZM191.43 454.1C190.537 454.1 189.824 454.58 189.29 455.54C188.757 456.487 188.49 457.913 188.49 459.82C188.49 461.74 188.757 463.173 189.29 464.12C189.824 465.067 190.537 465.54 191.43 465.54C192.297 465.54 193.004 465.067 193.55 464.12C194.097 463.16 194.37 461.727 194.37 459.82C194.37 457.927 194.097 456.5 193.55 455.54C193.004 454.58 192.297 454.1 191.43 454.1ZM216.768 460.86H202.208V459.62H205.508V457.56C204.748 457.333 204.155 457.02 203.728 456.62C203.302 456.22 203.088 455.733 203.088 455.16C203.088 454.187 203.688 453.46 204.888 452.98C206.088 452.487 207.622 452.24 209.488 452.24C211.355 452.24 212.882 452.487 214.068 452.98C215.268 453.46 215.868 454.187 215.868 455.16C215.868 455.733 215.655 456.22 215.228 456.62C214.802 457.02 214.208 457.333 213.448 457.56V459.62H216.768V460.86ZM209.488 453.48C208.075 453.48 206.902 453.62 205.968 453.9C205.048 454.18 204.588 454.6 204.588 455.16C204.588 455.72 205.048 456.14 205.968 456.42C206.888 456.7 208.062 456.84 209.488 456.84C210.902 456.84 212.068 456.7 212.988 456.42C213.908 456.14 214.368 455.72 214.368 455.16C214.368 454.6 213.902 454.18 212.968 453.9C212.048 453.62 210.888 453.48 209.488 453.48ZM212.008 459.62V457.88C211.288 458.013 210.448 458.08 209.488 458.08C208.542 458.08 207.695 458.013 206.948 457.88V459.62H212.008ZM209.488 462.2C211.382 462.2 212.915 462.413 214.088 462.84C215.262 463.253 215.848 463.947 215.848 464.92C215.848 465.893 215.262 466.593 214.088 467.02C212.915 467.46 211.382 467.68 209.488 467.68C207.595 467.68 206.055 467.46 204.868 467.02C203.695 466.593 203.108 465.893 203.108 464.92C203.108 463.947 203.695 463.253 204.868 462.84C206.055 462.413 207.595 462.2 209.488 462.2ZM209.488 466.46C210.875 466.46 212.028 466.34 212.948 466.1C213.868 465.86 214.328 465.467 214.328 464.92C214.328 464.387 213.868 464.007 212.948 463.78C212.028 463.54 210.875 463.42 209.488 463.42C208.102 463.42 206.942 463.54 206.008 463.78C205.088 464.007 204.628 464.387 204.628 464.92C204.628 465.467 205.088 465.86 206.008 466.1C206.942 466.34 208.102 466.46 209.488 466.46ZM232.006 467.68H230.626V452.32H232.006V467.68ZM228.486 452.4V467.42H227.106V460.28H225.006C224.966 462.533 224.666 464.207 224.106 465.3C223.546 466.38 222.726 466.92 221.646 466.92C220.54 466.92 219.7 466.347 219.126 465.2C218.566 464.04 218.286 462.247 218.286 459.82C218.286 455.087 219.406 452.72 221.646 452.72C223.74 452.72 224.853 454.753 224.986 458.82H227.106V452.4H228.486ZM221.646 465.54C222.313 465.54 222.806 465.073 223.126 464.14C223.46 463.193 223.626 461.753 223.626 459.82C223.626 457.887 223.46 456.453 223.126 455.52C222.806 454.573 222.313 454.1 221.646 454.1C220.98 454.1 220.48 454.573 220.146 455.52C219.826 456.453 219.666 457.887 219.666 459.82C219.666 461.753 219.826 463.193 220.146 464.14C220.48 465.073 220.98 465.54 221.646 465.54ZM252.399 460.74H237.839V459.5H244.399V457.74H238.939V452.54H251.319V453.78H240.379V456.5H251.479V457.74H245.839V459.5H252.399V460.74ZM245.119 462.16C247.013 462.16 248.546 462.38 249.719 462.82C250.906 463.247 251.499 463.947 251.499 464.92C251.499 465.893 250.906 466.6 249.719 467.04C248.546 467.48 247.013 467.7 245.119 467.7C243.226 467.7 241.686 467.48 240.499 467.04C239.326 466.6 238.739 465.893 238.739 464.92C238.739 463.947 239.326 463.247 240.499 462.82C241.686 462.38 243.226 462.16 245.119 462.16ZM245.119 466.48C246.493 466.48 247.646 466.36 248.579 466.12C249.513 465.867 249.979 465.467 249.979 464.92C249.979 464.387 249.513 464 248.579 463.76C247.646 463.507 246.493 463.38 245.119 463.38C243.746 463.38 242.586 463.507 241.639 463.76C240.706 464 240.239 464.387 240.239 464.92C240.239 465.467 240.706 465.867 241.639 466.12C242.573 466.36 243.733 466.48 245.119 466.48ZM265.837 467.68V452.32H267.257V467.68H265.837ZM258.697 452.68C259.55 452.68 260.317 452.887 260.997 453.3C261.677 453.7 262.204 454.267 262.577 455C262.964 455.733 263.157 456.567 263.157 457.5C263.157 458.42 262.964 459.247 262.577 459.98C262.19 460.713 261.657 461.287 260.977 461.7C260.31 462.1 259.55 462.3 258.697 462.3C257.83 462.3 257.057 462.1 256.377 461.7C255.697 461.287 255.164 460.72 254.777 460C254.39 459.267 254.197 458.433 254.197 457.5C254.197 456.567 254.39 455.733 254.777 455C255.164 454.267 255.697 453.7 256.377 453.3C257.057 452.887 257.83 452.68 258.697 452.68ZM258.697 454.06C257.777 454.06 257.03 454.387 256.457 455.04C255.897 455.68 255.617 456.5 255.617 457.5C255.617 458.487 255.897 459.307 256.457 459.96C257.03 460.6 257.777 460.92 258.697 460.92C259.604 460.92 260.337 460.6 260.897 459.96C261.47 459.307 261.757 458.487 261.757 457.5C261.757 456.513 261.47 455.693 260.897 455.04C260.337 454.387 259.604 454.06 258.697 454.06ZM264.517 465.98C264.037 466.22 263.35 466.407 262.457 466.54C261.564 466.66 260.55 466.72 259.417 466.72H253.677V465.3H259.517C260.61 465.3 261.59 465.24 262.457 465.12C263.337 464.987 264.024 464.8 264.517 464.56V465.98ZM276.57 467.96C275.93 466.92 275.437 465.727 275.09 464.38C274.743 463.02 274.57 461.56 274.57 460C274.57 458.44 274.743 456.98 275.09 455.62C275.437 454.247 275.93 453.053 276.57 452.04H277.77C277.103 453.2 276.61 454.433 276.29 455.74C275.97 457.047 275.81 458.467 275.81 460C275.81 461.533 275.97 462.953 276.29 464.26C276.61 465.567 277.103 466.8 277.77 467.96H276.57ZM291.178 460.06V452.32H292.638V460.06H291.178ZM290.038 458.68C289.571 458.907 288.911 459.087 288.058 459.22C287.218 459.34 286.238 459.4 285.118 459.4H279.258V458.18H281.257V453.96H279.298V452.74H289.377V453.96H287.398V458.08C288.504 457.96 289.384 457.74 290.038 457.42V458.68ZM284.498 458.18C285.191 458.18 285.698 458.167 286.017 458.14V453.96H282.638V458.18H284.498ZM293.038 467.44H280.378V463.68H291.197V462.12H280.358V460.96H292.638V464.72H281.818V466.3H293.038V467.44ZM301.995 456.5C301.182 457.7 300.175 458.653 298.975 459.36C297.775 460.067 296.535 460.42 295.255 460.42V458.98C296.295 458.993 297.309 458.7 298.295 458.1C299.282 457.487 300.122 456.66 300.815 455.62C301.509 454.58 301.962 453.447 302.175 452.22L303.655 452.48C303.482 453.387 303.162 454.333 302.695 455.32L309.035 459.16L308.355 460.4L301.995 456.5ZM302.915 463.56V468.04H301.455V463.56H294.915V462.16H309.475V463.56H302.915ZM310.793 467.96C311.46 466.8 311.947 465.567 312.253 464.26C312.573 462.953 312.733 461.533 312.733 460C312.733 458.467 312.573 457.047 312.253 455.74C311.947 454.433 311.46 453.2 310.793 452.04H311.973C312.613 453.053 313.1 454.24 313.433 455.6C313.78 456.96 313.953 458.427 313.953 460C313.953 461.56 313.78 463.02 313.433 464.38C313.1 465.727 312.613 466.92 311.973 467.96H310.793Z" fill="#191919"/>
<path d="M31.5951 518L26 512.312L27.3988 510.89L31.5951 515.156L40.6012 506L42 507.422L31.5951 518Z" fill="#9A9A9A"/>
<path d="M77.22 519.68H75.8V504.32H77.22V519.68ZM68.66 512.46C67.82 512.46 67.0733 512.293 66.42 511.96C65.7667 511.627 65.26 511.16 64.9 510.56C64.54 509.96 64.36 509.28 64.36 508.52C64.36 507.773 64.54 507.1 64.9 506.5C65.2733 505.9 65.78 505.433 66.42 505.1C67.0733 504.767 67.82 504.6 68.66 504.6C69.4867 504.6 70.22 504.767 70.86 505.1C71.5133 505.433 72.02 505.9 72.38 506.5C72.7533 507.1 72.94 507.773 72.94 508.52C72.94 509.28 72.7533 509.96 72.38 510.56C72.02 511.16 71.5133 511.627 70.86 511.96C70.22 512.293 69.4867 512.46 68.66 512.46ZM68.66 505.88C67.78 505.88 67.0733 506.133 66.54 506.64C66.0067 507.133 65.74 507.76 65.74 508.52C65.74 509.293 66.0067 509.933 66.54 510.44C67.0733 510.933 67.78 511.18 68.66 511.18C69.5267 511.18 70.2267 510.933 70.76 510.44C71.2933 509.933 71.56 509.293 71.56 508.52C71.56 507.76 71.2867 507.133 70.74 506.64C70.2067 506.133 69.5133 505.88 68.66 505.88ZM69.48 514.02C71.8 514.02 73.4667 513.813 74.48 513.4V514.8C73.4 515.2 71.74 515.4 69.5 515.4H69.36V519.68H67.92V515.4H63.66V514.02H69.48ZM85.6179 508.22C85.5779 509.42 85.4379 510.627 85.1979 511.84L89.9979 517.72L88.9579 518.7L84.7179 513.48C84.2246 515 83.5579 516.213 82.7179 517.12C81.8779 518.013 80.9112 518.547 79.8179 518.72V517.24C80.6446 517.067 81.3712 516.573 81.9979 515.76C82.6379 514.947 83.1379 513.887 83.4979 512.58C83.8712 511.273 84.0979 509.82 84.1779 508.22H80.0579V506.82H84.1779V504.28H85.6379V506.82H89.5579V508.22H85.6179ZM93.0379 519.68H91.5779V504.32H93.0379V519.68ZM111.491 504.32H112.931V512.96H111.491V508.64H108.491V507.32H111.491V504.32ZM104.371 509.28C103.891 510.16 103.238 510.88 102.411 511.44C101.584 511.987 100.638 512.327 99.5709 512.46V511.1C100.824 510.9 101.818 510.36 102.551 509.48C103.298 508.587 103.724 507.447 103.831 506.06H99.7509V504.76H109.091V506.06H105.291C105.251 506.793 105.131 507.46 104.931 508.06L109.571 511.18L108.831 512.32L104.371 509.28ZM106.811 513.52C108.691 513.52 110.198 513.773 111.331 514.28C112.478 514.773 113.051 515.54 113.051 516.58C113.051 517.62 112.478 518.393 111.331 518.9C110.198 519.393 108.691 519.64 106.811 519.64C104.931 519.64 103.424 519.393 102.291 518.9C101.158 518.393 100.591 517.62 100.591 516.58C100.591 515.54 101.158 514.773 102.291 514.28C103.424 513.773 104.931 513.52 106.811 513.52ZM106.811 518.38C108.211 518.38 109.344 518.227 110.211 517.92C111.091 517.613 111.531 517.167 111.531 516.58C111.531 515.993 111.091 515.547 110.211 515.24C109.331 514.933 108.198 514.78 106.811 514.78C105.424 514.78 104.291 514.933 103.411 515.24C102.544 515.547 102.111 515.993 102.111 516.58C102.111 517.167 102.544 517.613 103.411 517.92C104.291 518.227 105.424 518.38 106.811 518.38ZM129.669 518.9H115.109V517.48H121.649V513.78H116.129V504.8H117.549V507.72H127.229V504.8H128.649V513.78H123.109V517.48H129.669V518.9ZM127.229 512.42V509.08H117.549V512.42H127.229ZM141.982 508.5C141.168 509.7 140.162 510.653 138.962 511.36C137.762 512.067 136.522 512.42 135.242 512.42V510.98C136.282 510.993 137.295 510.7 138.282 510.1C139.268 509.487 140.108 508.66 140.802 507.62C141.495 506.58 141.948 505.447 142.162 504.22L143.642 504.48C143.468 505.387 143.148 506.333 142.682 507.32L149.022 511.16L148.342 512.4L141.982 508.5ZM142.902 515.56V520.04H141.442V515.56H134.902V514.16H149.462V515.56H142.902ZM164.3 512.32H162.84V504.32H164.3V512.32ZM155.92 509.1C155.426 509.927 154.766 510.6 153.94 511.12C153.113 511.64 152.173 511.967 151.12 512.1V510.74C152.36 510.54 153.36 510.033 154.12 509.22C154.88 508.393 155.306 507.34 155.4 506.06H151.3V504.76H160.74V506.06H156.88C156.84 506.7 156.726 507.313 156.54 507.9L161.24 510.82L160.54 511.96L155.92 509.1ZM164.3 513.02V519.44H152.04V513.02H153.46V514.86H162.86V513.02H164.3ZM162.86 516.1H153.46V518.18H162.86V516.1ZM182.633 512.72V504.32H184.093V512.72H182.633ZM171.253 511.4V504.74H179.853V511.4H171.253ZM172.693 506.02V510.12H178.433V506.02H172.693ZM177.713 517.18C177.046 517.887 176.166 518.44 175.073 518.84C173.979 519.24 172.826 519.44 171.613 519.44V518.14C172.466 518.14 173.293 518.02 174.093 517.78C174.906 517.527 175.599 517.173 176.173 516.72C176.746 516.267 177.119 515.747 177.293 515.16H171.713V513.88H177.273V512.28H178.753V513.88H184.333V515.16H178.813C178.773 515.52 178.666 515.84 178.493 516.12L184.653 518.4L184.213 519.66L177.713 517.18ZM202.426 519.68V504.32H203.886V519.68H202.426ZM195.386 504.72C196.719 504.72 197.779 505.32 198.566 506.52C199.366 507.72 199.766 509.487 199.766 511.82C199.766 514.153 199.366 515.92 198.566 517.12C197.779 518.32 196.719 518.92 195.386 518.92C194.052 518.92 192.986 518.32 192.186 517.12C191.399 515.92 191.006 514.153 191.006 511.82C191.006 509.487 191.399 507.72 192.186 506.52C192.986 505.32 194.052 504.72 195.386 504.72ZM195.386 506.1C194.492 506.1 193.779 506.58 193.246 507.54C192.712 508.487 192.446 509.913 192.446 511.82C192.446 513.74 192.712 515.173 193.246 516.12C193.779 517.067 194.492 517.54 195.386 517.54C196.252 517.54 196.959 517.067 197.506 516.12C198.052 515.16 198.326 513.727 198.326 511.82C198.326 509.927 198.052 508.5 197.506 507.54C196.959 506.58 196.252 506.1 195.386 506.1ZM220.723 512.86H206.163V511.62H209.463V509.56C208.703 509.333 208.11 509.02 207.683 508.62C207.257 508.22 207.043 507.733 207.043 507.16C207.043 506.187 207.643 505.46 208.843 504.98C210.043 504.487 211.577 504.24 213.443 504.24C215.31 504.24 216.837 504.487 218.023 504.98C219.223 505.46 219.823 506.187 219.823 507.16C219.823 507.733 219.61 508.22 219.183 508.62C218.757 509.02 218.163 509.333 217.403 509.56V511.62H220.723V512.86ZM213.443 505.48C212.03 505.48 210.857 505.62 209.923 505.9C209.003 506.18 208.543 506.6 208.543 507.16C208.543 507.72 209.003 508.14 209.923 508.42C210.843 508.7 212.017 508.84 213.443 508.84C214.857 508.84 216.023 508.7 216.943 508.42C217.863 508.14 218.323 507.72 218.323 507.16C218.323 506.6 217.857 506.18 216.923 505.9C216.003 505.62 214.843 505.48 213.443 505.48ZM215.963 511.62V509.88C215.243 510.013 214.403 510.08 213.443 510.08C212.497 510.08 211.65 510.013 210.903 509.88V511.62H215.963ZM213.443 514.2C215.337 514.2 216.87 514.413 218.043 514.84C219.217 515.253 219.803 515.947 219.803 516.92C219.803 517.893 219.217 518.593 218.043 519.02C216.87 519.46 215.337 519.68 213.443 519.68C211.55 519.68 210.01 519.46 208.823 519.02C207.65 518.593 207.063 517.893 207.063 516.92C207.063 515.947 207.65 515.253 208.823 514.84C210.01 514.413 211.55 514.2 213.443 514.2ZM213.443 518.46C214.83 518.46 215.983 518.34 216.903 518.1C217.823 517.86 218.283 517.467 218.283 516.92C218.283 516.387 217.823 516.007 216.903 515.78C215.983 515.54 214.83 515.42 213.443 515.42C212.057 515.42 210.897 515.54 209.963 515.78C209.043 516.007 208.583 516.387 208.583 516.92C208.583 517.467 209.043 517.86 209.963 518.1C210.897 518.34 212.057 518.46 213.443 518.46ZM235.961 519.68H234.581V504.32H235.961V519.68ZM232.441 504.4V519.42H231.061V512.28H228.961C228.921 514.533 228.621 516.207 228.061 517.3C227.501 518.38 226.681 518.92 225.601 518.92C224.495 518.92 223.655 518.347 223.081 517.2C222.521 516.04 222.241 514.247 222.241 511.82C222.241 507.087 223.361 504.72 225.601 504.72C227.695 504.72 228.808 506.753 228.941 510.82H231.061V504.4H232.441ZM225.601 517.54C226.268 517.54 226.761 517.073 227.081 516.14C227.415 515.193 227.581 513.753 227.581 511.82C227.581 509.887 227.415 508.453 227.081 507.52C226.761 506.573 226.268 506.1 225.601 506.1C224.935 506.1 224.435 506.573 224.101 507.52C223.781 508.453 223.621 509.887 223.621 511.82C223.621 513.753 223.781 515.193 224.101 516.14C224.435 517.073 224.935 517.54 225.601 517.54ZM256.354 512.74H241.794V511.5H248.354V509.74H242.894V504.54H255.274V505.78H244.334V508.5H255.434V509.74H249.794V511.5H256.354V512.74ZM249.074 514.16C250.968 514.16 252.501 514.38 253.674 514.82C254.861 515.247 255.454 515.947 255.454 516.92C255.454 517.893 254.861 518.6 253.674 519.04C252.501 519.48 250.968 519.7 249.074 519.7C247.181 519.7 245.641 519.48 244.454 519.04C243.281 518.6 242.694 517.893 242.694 516.92C242.694 515.947 243.281 515.247 244.454 514.82C245.641 514.38 247.181 514.16 249.074 514.16ZM249.074 518.48C250.448 518.48 251.601 518.36 252.534 518.12C253.468 517.867 253.934 517.467 253.934 516.92C253.934 516.387 253.468 516 252.534 515.76C251.601 515.507 250.448 515.38 249.074 515.38C247.701 515.38 246.541 515.507 245.594 515.76C244.661 516 244.194 516.387 244.194 516.92C244.194 517.467 244.661 517.867 245.594 518.12C246.528 518.36 247.688 518.48 249.074 518.48ZM269.792 519.68V504.32H271.212V519.68H269.792ZM262.652 504.68C263.506 504.68 264.272 504.887 264.952 505.3C265.632 505.7 266.159 506.267 266.532 507C266.919 507.733 267.112 508.567 267.112 509.5C267.112 510.42 266.919 511.247 266.532 511.98C266.146 512.713 265.612 513.287 264.932 513.7C264.266 514.1 263.506 514.3 262.652 514.3C261.786 514.3 261.012 514.1 260.332 513.7C259.652 513.287 259.119 512.72 258.732 512C258.346 511.267 258.152 510.433 258.152 509.5C258.152 508.567 258.346 507.733 258.732 507C259.119 506.267 259.652 505.7 260.332 505.3C261.012 504.887 261.786 504.68 262.652 504.68ZM262.652 506.06C261.732 506.06 260.986 506.387 260.412 507.04C259.852 507.68 259.572 508.5 259.572 509.5C259.572 510.487 259.852 511.307 260.412 511.96C260.986 512.6 261.732 512.92 262.652 512.92C263.559 512.92 264.292 512.6 264.852 511.96C265.426 511.307 265.712 510.487 265.712 509.5C265.712 508.513 265.426 507.693 264.852 507.04C264.292 506.387 263.559 506.06 262.652 506.06ZM268.472 517.98C267.992 518.22 267.306 518.407 266.412 518.54C265.519 518.66 264.506 518.72 263.372 518.72H257.632V517.3H263.472C264.566 517.3 265.546 517.24 266.412 517.12C267.292 516.987 267.979 516.8 268.472 516.56V517.98ZM280.525 519.96C279.885 518.92 279.392 517.727 279.045 516.38C278.698 515.02 278.525 513.56 278.525 512C278.525 510.44 278.698 508.98 279.045 507.62C279.392 506.247 279.885 505.053 280.525 504.04H281.725C281.058 505.2 280.565 506.433 280.245 507.74C279.925 509.047 279.765 510.467 279.765 512C279.765 513.533 279.925 514.953 280.245 516.26C280.565 517.567 281.058 518.8 281.725 519.96H280.525ZM295.133 512.06V504.32H296.593V512.06H295.133ZM293.993 510.68C293.526 510.907 292.866 511.087 292.013 511.22C291.173 511.34 290.193 511.4 289.073 511.4H283.213V510.18H285.213V505.96H283.253V504.74H293.333V505.96H291.353V510.08C292.459 509.96 293.339 509.74 293.993 509.42V510.68ZM288.453 510.18C289.146 510.18 289.653 510.167 289.973 510.14V505.96H286.593V510.18H288.453ZM296.993 519.44H284.333V515.68H295.153V514.12H284.313V512.96H296.593V516.72H285.773V518.3H296.993V519.44ZM305.95 508.5C305.137 509.7 304.13 510.653 302.93 511.36C301.73 512.067 300.49 512.42 299.21 512.42V510.98C300.25 510.993 301.264 510.7 302.25 510.1C303.237 509.487 304.077 508.66 304.77 507.62C305.464 506.58 305.917 505.447 306.13 504.22L307.61 504.48C307.437 505.387 307.117 506.333 306.65 507.32L312.99 511.16L312.31 512.4L305.95 508.5ZM306.87 515.56V520.04H305.41V515.56H298.87V514.16H313.43V515.56H306.87ZM314.748 519.96C315.415 518.8 315.902 517.567 316.208 516.26C316.528 514.953 316.688 513.533 316.688 512C316.688 510.467 316.528 509.047 316.208 507.74C315.902 506.433 315.415 505.2 314.748 504.04H315.928C316.568 505.053 317.055 506.24 317.388 507.6C317.735 508.96 317.908 510.427 317.908 512C317.908 513.56 317.735 515.02 317.388 516.38C317.055 517.727 316.568 518.92 315.928 519.96H314.748Z" fill="#191919"/>
<path d="M31.5951 570L26 564.312L27.3988 562.89L31.5951 567.156L40.6012 558L42 559.422L31.5951 570Z" fill="#9A9A9A"/>
<path d="M75.74 571.68V556.32H77.2V571.68H75.74ZM65.96 564.38V569.34H70.5C71.1933 569.34 71.8867 569.273 72.58 569.14C73.2733 569.007 73.84 568.827 74.28 568.6V569.98C73.84 570.22 73.2733 570.407 72.58 570.54C71.8867 570.66 71.18 570.72 70.46 570.72H64.52V563.02H71.28V558.3H64.5V556.92H72.7V564.38H65.96ZM93.1379 571.68H91.6979V569.64H87.1179V568.32H91.6979V556.32H93.1379V571.68ZM84.5979 563.96C83.7579 563.96 83.0112 563.807 82.3579 563.5C81.7046 563.193 81.1912 562.76 80.8179 562.2C80.4579 561.64 80.2779 561 80.2779 560.28C80.2779 559.56 80.4579 558.927 80.8179 558.38C81.1912 557.82 81.7046 557.393 82.3579 557.1C83.0112 556.793 83.7579 556.64 84.5979 556.64C85.4379 556.64 86.1779 556.793 86.8179 557.1C87.4712 557.393 87.9779 557.82 88.3379 558.38C88.7112 558.927 88.8979 559.56 88.8979 560.28C88.8979 561 88.7112 561.64 88.3379 562.2C87.9779 562.76 87.4712 563.193 86.8179 563.5C86.1646 563.807 85.4246 563.96 84.5979 563.96ZM84.5979 557.9C83.7179 557.9 83.0112 558.12 82.4779 558.56C81.9446 558.987 81.6779 559.56 81.6779 560.28C81.6779 561 81.9446 561.58 82.4779 562.02C83.0112 562.46 83.7179 562.68 84.5979 562.68C85.4779 562.68 86.1779 562.46 86.6979 562.02C87.2312 561.58 87.4979 561 87.4979 560.28C87.4979 559.573 87.2312 559 86.6979 558.56C86.1779 558.12 85.4779 557.9 84.5979 557.9ZM90.3779 566.06C89.3246 566.46 87.6712 566.66 85.4179 566.66H85.1379V571.68H83.6779V566.66H79.4979V565.32H85.3979C87.7179 565.32 89.3779 565.113 90.3779 564.7V566.06ZM97.7758 558.32V564.48H109.036V565.88H96.3358V556.92H108.876V558.32H97.7758ZM95.3158 570.9V569.48H109.876V570.9H95.3158ZM115.889 565.88V564.48H118.549V558.44H116.029V557.04H128.729V558.44H126.229V564.48H128.889V565.88H115.889ZM124.769 564.48V558.44H120.009V564.48H124.769ZM129.669 570.9H115.109V569.46H129.669V570.9ZM145.507 570.9H130.947V569.52H137.467V566.36H131.987V560.96H143.087V558.28H131.967V556.92H144.527V562.28H133.407V565H144.747V566.36H138.907V569.52H145.507V570.9ZM158.825 567.54V558.32H147.705V556.9H160.325V567.54H158.825ZM146.785 570.9V569.48H161.345V570.9H146.785ZM176.582 565.48H175.202V561.06H172.562V565.3H171.202V556.4H172.562V559.68H175.202V556.32H176.582V565.48ZM170.142 564.12C169.222 564.507 167.802 564.7 165.882 564.7H163.122V560.1H167.882V557.96H163.122V556.74H169.262V561.28H164.462V563.46H166.002C167.869 563.46 169.249 563.267 170.142 562.88V564.12ZM176.582 566.38V571.44H163.942V566.38H176.582ZM175.162 570.2V567.6H165.382V570.2H175.162ZM187.235 561.82C186.755 562.647 186.122 563.327 185.335 563.86C184.549 564.393 183.649 564.733 182.635 564.88V563.54C183.755 563.353 184.675 562.867 185.395 562.08C186.115 561.28 186.562 560.28 186.735 559.08H182.775V557.8H186.775V556.04H188.235V557.8H192.175V559.08H188.215C188.149 559.64 188.035 560.16 187.875 560.64L192.415 563.56L191.715 564.72L187.235 561.82ZM195.555 561.28V565.24H194.115V556.32H195.555V559.84H197.675V561.28H195.555ZM195.555 566.14V571.44H183.455V566.14H195.555ZM194.115 570.18V567.4H184.915V570.18H194.115ZM211.913 571.68H210.493V567.28H207.853L207.953 565.86H210.493V561.72H207.953L207.853 560.28H210.493V556.32H211.913V571.68ZM203.153 556.72C204.46 556.72 205.493 557.32 206.253 558.52C207.027 559.707 207.413 561.473 207.413 563.82C207.413 566.167 207.027 567.94 206.253 569.14C205.493 570.327 204.46 570.92 203.153 570.92C201.833 570.92 200.787 570.327 200.013 569.14C199.24 567.94 198.853 566.167 198.853 563.82C198.853 561.473 199.24 559.707 200.013 558.52C200.787 557.32 201.833 556.72 203.153 556.72ZM203.153 569.54C204.007 569.54 204.687 569.067 205.193 568.12C205.713 567.173 205.973 565.74 205.973 563.82C205.973 561.913 205.713 560.487 205.193 559.54C204.687 558.58 204.007 558.1 203.153 558.1C202.287 558.1 201.593 558.58 201.073 559.54C200.553 560.487 200.293 561.913 200.293 563.82C200.293 565.74 200.547 567.173 201.053 568.12C201.573 569.067 202.273 569.54 203.153 569.54ZM228.051 571.68H226.671V556.32H228.051V571.68ZM224.531 556.4V571.42H223.151V564.28H221.051C221.011 566.533 220.711 568.207 220.151 569.3C219.591 570.38 218.771 570.92 217.691 570.92C216.585 570.92 215.745 570.347 215.171 569.2C214.611 568.04 214.331 566.247 214.331 563.82C214.331 559.087 215.451 556.72 217.691 556.72C219.785 556.72 220.898 558.753 221.031 562.82H223.151V556.4H224.531ZM217.691 569.54C218.358 569.54 218.851 569.073 219.171 568.14C219.505 567.193 219.671 565.753 219.671 563.82C219.671 561.887 219.505 560.453 219.171 559.52C218.851 558.573 218.358 558.1 217.691 558.1C217.025 558.1 216.525 558.573 216.191 559.52C215.871 560.453 215.711 561.887 215.711 563.82C215.711 565.753 215.871 567.193 216.191 568.14C216.525 569.073 217.025 569.54 217.691 569.54ZM248.444 564.74H233.884V563.5H240.444V561.74H234.984V556.54H247.364V557.78H236.424V560.5H247.524V561.74H241.884V563.5H248.444V564.74ZM241.164 566.16C243.057 566.16 244.591 566.38 245.764 566.82C246.951 567.247 247.544 567.947 247.544 568.92C247.544 569.893 246.951 570.6 245.764 571.04C244.591 571.48 243.057 571.7 241.164 571.7C239.271 571.7 237.731 571.48 236.544 571.04C235.371 570.6 234.784 569.893 234.784 568.92C234.784 567.947 235.371 567.247 236.544 566.82C237.731 566.38 239.271 566.16 241.164 566.16ZM241.164 570.48C242.537 570.48 243.691 570.36 244.624 570.12C245.557 569.867 246.024 569.467 246.024 568.92C246.024 568.387 245.557 568 244.624 567.76C243.691 567.507 242.537 567.38 241.164 567.38C239.791 567.38 238.631 567.507 237.684 567.76C236.751 568 236.284 568.387 236.284 568.92C236.284 569.467 236.751 569.867 237.684 570.12C238.617 570.36 239.777 570.48 241.164 570.48ZM261.882 571.68V556.32H263.302V571.68H261.882ZM254.742 556.68C255.595 556.68 256.362 556.887 257.042 557.3C257.722 557.7 258.249 558.267 258.622 559C259.009 559.733 259.202 560.567 259.202 561.5C259.202 562.42 259.009 563.247 258.622 563.98C258.235 564.713 257.702 565.287 257.022 565.7C256.355 566.1 255.595 566.3 254.742 566.3C253.875 566.3 253.102 566.1 252.422 565.7C251.742 565.287 251.209 564.72 250.822 564C250.435 563.267 250.242 562.433 250.242 561.5C250.242 560.567 250.435 559.733 250.822 559C251.209 558.267 251.742 557.7 252.422 557.3C253.102 556.887 253.875 556.68 254.742 556.68ZM254.742 558.06C253.822 558.06 253.075 558.387 252.502 559.04C251.942 559.68 251.662 560.5 251.662 561.5C251.662 562.487 251.942 563.307 252.502 563.96C253.075 564.6 253.822 564.92 254.742 564.92C255.649 564.92 256.382 564.6 256.942 563.96C257.515 563.307 257.802 562.487 257.802 561.5C257.802 560.513 257.515 559.693 256.942 559.04C256.382 558.387 255.649 558.06 254.742 558.06ZM260.562 569.98C260.082 570.22 259.395 570.407 258.502 570.54C257.609 570.66 256.595 570.72 255.462 570.72H249.722V569.3H255.562C256.655 569.3 257.635 569.24 258.502 569.12C259.382 568.987 260.069 568.8 260.562 568.56V569.98ZM272.615 571.96C271.975 570.92 271.482 569.727 271.135 568.38C270.788 567.02 270.615 565.56 270.615 564C270.615 562.44 270.788 560.98 271.135 559.62C271.482 558.247 271.975 557.053 272.615 556.04H273.815C273.148 557.2 272.655 558.433 272.335 559.74C272.015 561.047 271.855 562.467 271.855 564C271.855 565.533 272.015 566.953 272.335 568.26C272.655 569.567 273.148 570.8 273.815 571.96H272.615ZM283.642 560.82V559.44H287.342V556.32H288.782V567.76H287.342V560.82H283.642ZM279.922 561.82C279.389 562.847 278.722 563.687 277.922 564.34C277.122 564.98 276.209 565.38 275.182 565.54V564.12C276.089 563.933 276.882 563.473 277.562 562.74C278.242 562.007 278.756 561.093 279.102 560C279.462 558.907 279.649 557.733 279.662 556.48L281.102 556.56C281.102 558.013 280.896 559.32 280.482 560.48L285.122 564.38L284.182 565.48L279.922 561.82ZM289.122 571.44H276.482V566.66H277.942V570.06H289.122V571.44ZM304.92 566.16H303.54V561.48H300.9V566H299.54V556.4H300.9V560.1H303.54V556.32H304.92V566.16ZM298.38 564.8C297.5 565.187 296.08 565.38 294.12 565.38H291.46V556.74H297.9V557.98H292.82V560.42H297.7V561.64H292.82V564.14H294.24C296.067 564.14 297.447 563.947 298.38 563.56V564.8ZM304.92 567.06V571.64H303.48V568.36H292.16V567.06H304.92ZM306.838 571.96C307.505 570.8 307.992 569.567 308.298 568.26C308.618 566.953 308.778 565.533 308.778 564C308.778 562.467 308.618 561.047 308.298 559.74C307.992 558.433 307.505 557.2 306.838 556.04H308.018C308.658 557.053 309.145 558.24 309.478 559.6C309.825 560.96 309.998 562.427 309.998 564C309.998 565.56 309.825 567.02 309.478 568.38C309.145 569.727 308.658 570.92 308.018 571.96H306.838Z" fill="#191919"/>
<path d="M31.5951 622L26 616.312L27.3988 614.89L31.5951 619.156L40.6012 610L42 611.422L31.5951 622Z" fill="#9A9A9A"/>
<path d="M78.9 613.3H76.82V617.5H75.36V608.32H76.82V611.9H78.9V613.3ZM64.38 609.9V608.6H72.56V613.98H71.12V609.9H64.38ZM74.06 615.88C73.18 616.28 71.5 616.48 69.02 616.48H63.64V615.22H66.68V611.88H68.12V615.22H69.08C71.4667 615.22 73.1267 615.02 74.06 614.62V615.88ZM70.82 617.82C72.7 617.82 74.2133 618.067 75.36 618.56C76.5067 619.04 77.08 619.78 77.08 620.78C77.08 621.78 76.5067 622.52 75.36 623C74.2267 623.48 72.7133 623.72 70.82 623.72C68.9267 623.72 67.4 623.48 66.24 623C65.0933 622.52 64.52 621.78 64.52 620.78C64.52 619.78 65.0933 619.04 66.24 618.56C67.4 618.067 68.9267 617.82 70.82 617.82ZM70.82 622.5C72.2333 622.5 73.38 622.36 74.26 622.08C75.14 621.8 75.58 621.367 75.58 620.78C75.58 620.18 75.14 619.74 74.26 619.46C73.38 619.18 72.2333 619.04 70.82 619.04C69.3933 619.04 68.24 619.18 67.36 619.46C66.48 619.74 66.04 620.18 66.04 620.78C66.04 621.367 66.48 621.8 67.36 622.08C68.24 622.36 69.3933 622.5 70.82 622.5ZM80.3979 610.32V608.9H93.0179V619.04H91.5379V610.32H80.3979ZM94.0379 622.9H79.4779V621.48H85.0579V614.44H86.5379V621.48H94.0379V622.9ZM111.371 616.72V608.32H112.831V616.72H111.371ZM99.9909 615.4V608.74H108.591V615.4H99.9909ZM101.431 610.02V614.12H107.171V610.02H101.431ZM106.451 621.18C105.784 621.887 104.904 622.44 103.811 622.84C102.718 623.24 101.564 623.44 100.351 623.44V622.14C101.204 622.14 102.031 622.02 102.831 621.78C103.644 621.527 104.338 621.173 104.911 620.72C105.484 620.267 105.858 619.747 106.031 619.16H100.451V617.88H106.011V616.28H107.491V617.88H113.071V619.16H107.551C107.511 619.52 107.404 619.84 107.231 620.12L113.391 622.4L112.951 623.66L106.451 621.18ZM132.204 616.12V623.68H130.764V608.32H132.204V614.68H134.324V616.12H132.204ZM127.844 608.92V622.72H119.804V608.92H127.844ZM126.404 621.32V610.32H121.244V621.32H126.404ZM148.862 623.68H147.482V608.32H148.862V623.68ZM145.282 608.4V623.42H143.902V616.1H141.282C141.015 618.087 140.355 619.667 139.302 620.84C138.248 622.013 136.908 622.627 135.282 622.68V621.3C136.588 621.22 137.635 620.7 138.422 619.74C139.208 618.78 139.708 617.507 139.922 615.92H135.282V614.56H140.042C140.055 614.347 140.062 614.013 140.062 613.56V610.28H135.282V608.92H141.442V613.52C141.442 613.773 141.428 614.153 141.402 614.66H143.902V608.4H145.282ZM162.84 617.48V608.32H164.3V617.48H162.84ZM161.6 616C161.12 616.227 160.446 616.407 159.58 616.54C158.713 616.66 157.733 616.72 156.64 616.72H151.46V608.74H160.52V609.96H152.9V612.14H160.22V613.3H152.9V615.48H156.76C157.813 615.48 158.766 615.42 159.62 615.3C160.473 615.18 161.133 615.007 161.6 614.78V616ZM158.24 618.02C160.146 618.02 161.666 618.247 162.8 618.7C163.946 619.14 164.52 619.853 164.52 620.84C164.52 621.827 163.946 622.54 162.8 622.98C161.666 623.42 160.146 623.64 158.24 623.64C156.333 623.64 154.813 623.42 153.68 622.98C152.546 622.54 151.98 621.827 151.98 620.84C151.98 619.853 152.546 619.14 153.68 618.7C154.813 618.247 156.333 618.02 158.24 618.02ZM158.24 622.42C159.666 622.42 160.813 622.293 161.68 622.04C162.546 621.773 162.98 621.373 162.98 620.84C162.98 620.293 162.546 619.893 161.68 619.64C160.813 619.387 159.666 619.26 158.24 619.26C156.813 619.26 155.666 619.387 154.8 619.64C153.933 619.893 153.5 620.293 153.5 620.84C153.5 621.373 153.933 621.773 154.8 622.04C155.666 622.293 156.813 622.42 158.24 622.42ZM177.613 612.5C176.799 613.7 175.793 614.653 174.593 615.36C173.393 616.067 172.153 616.42 170.873 616.42V614.98C171.913 614.993 172.926 614.7 173.913 614.1C174.899 613.487 175.739 612.66 176.433 611.62C177.126 610.58 177.579 609.447 177.793 608.22L179.273 608.48C179.099 609.387 178.779 610.333 178.313 611.32L184.653 615.16L183.973 616.4L177.613 612.5ZM178.533 619.56V624.04H177.073V619.56H170.533V618.16H185.093V619.56H178.533ZM198.47 619.74V608.32H199.93V619.74H198.47ZM191.47 613.62C190.924 614.633 190.237 615.473 189.41 616.14C188.584 616.793 187.65 617.2 186.61 617.36V615.94C187.544 615.753 188.357 615.3 189.05 614.58C189.757 613.86 190.297 612.967 190.67 611.9C191.044 610.833 191.23 609.693 191.23 608.48L192.67 608.56C192.67 609.933 192.464 611.193 192.05 612.34L196.83 616.1L195.95 617.22L191.47 613.62ZM200.35 623.44H187.67V618.66H189.13V622.06H200.35V623.44ZM216.168 623.68H214.788V608.32H216.168V623.68ZM212.648 608.4V623.42H211.268V616.28H209.168C209.128 618.533 208.828 620.207 208.268 621.3C207.708 622.38 206.888 622.92 205.808 622.92C204.702 622.92 203.862 622.347 203.288 621.2C202.728 620.04 202.448 618.247 202.448 615.82C202.448 611.087 203.568 608.72 205.808 608.72C207.902 608.72 209.015 610.753 209.148 614.82H211.268V608.4H212.648ZM205.808 621.54C206.475 621.54 206.968 621.073 207.288 620.14C207.622 619.193 207.788 617.753 207.788 615.82C207.788 613.887 207.622 612.453 207.288 611.52C206.968 610.573 206.475 610.1 205.808 610.1C205.142 610.1 204.642 610.573 204.308 611.52C203.988 612.453 203.828 613.887 203.828 615.82C203.828 617.753 203.988 619.193 204.308 620.14C204.642 621.073 205.142 621.54 205.808 621.54ZM236.561 616.74H222.001V615.5H228.561V613.74H223.101V608.54H235.481V609.78H224.541V612.5H235.641V613.74H230.001V615.5H236.561V616.74ZM229.281 618.16C231.175 618.16 232.708 618.38 233.881 618.82C235.068 619.247 235.661 619.947 235.661 620.92C235.661 621.893 235.068 622.6 233.881 623.04C232.708 623.48 231.175 623.7 229.281 623.7C227.388 623.7 225.848 623.48 224.661 623.04C223.488 622.6 222.901 621.893 222.901 620.92C222.901 619.947 223.488 619.247 224.661 618.82C225.848 618.38 227.388 618.16 229.281 618.16ZM229.281 622.48C230.655 622.48 231.808 622.36 232.741 622.12C233.675 621.867 234.141 621.467 234.141 620.92C234.141 620.387 233.675 620 232.741 619.76C231.808 619.507 230.655 619.38 229.281 619.38C227.908 619.38 226.748 619.507 225.801 619.76C224.868 620 224.401 620.387 224.401 620.92C224.401 621.467 224.868 621.867 225.801 622.12C226.735 622.36 227.895 622.48 229.281 622.48ZM249.999 623.68V608.32H251.419V623.68H249.999ZM242.859 608.68C243.713 608.68 244.479 608.887 245.159 609.3C245.839 609.7 246.366 610.267 246.739 611C247.126 611.733 247.319 612.567 247.319 613.5C247.319 614.42 247.126 615.247 246.739 615.98C246.353 616.713 245.819 617.287 245.139 617.7C244.473 618.1 243.713 618.3 242.859 618.3C241.993 618.3 241.219 618.1 240.539 617.7C239.859 617.287 239.326 616.72 238.939 616C238.553 615.267 238.359 614.433 238.359 613.5C238.359 612.567 238.553 611.733 238.939 611C239.326 610.267 239.859 609.7 240.539 609.3C241.219 608.887 241.993 608.68 242.859 608.68ZM242.859 610.06C241.939 610.06 241.193 610.387 240.619 611.04C240.059 611.68 239.779 612.5 239.779 613.5C239.779 614.487 240.059 615.307 240.619 615.96C241.193 616.6 241.939 616.92 242.859 616.92C243.766 616.92 244.499 616.6 245.059 615.96C245.633 615.307 245.919 614.487 245.919 613.5C245.919 612.513 245.633 611.693 245.059 611.04C244.499 610.387 243.766 610.06 242.859 610.06ZM248.679 621.98C248.199 622.22 247.513 622.407 246.619 622.54C245.726 622.66 244.713 622.72 243.579 622.72H237.839V621.3H243.679C244.773 621.3 245.753 621.24 246.619 621.12C247.499 620.987 248.186 620.8 248.679 620.56V621.98ZM260.732 623.96C260.092 622.92 259.599 621.727 259.252 620.38C258.906 619.02 258.732 617.56 258.732 616C258.732 614.44 258.906 612.98 259.252 611.62C259.599 610.247 260.092 609.053 260.732 608.04H261.932C261.266 609.2 260.772 610.433 260.452 611.74C260.132 613.047 259.972 614.467 259.972 616C259.972 617.533 260.132 618.953 260.452 620.26C260.772 621.567 261.266 622.8 261.932 623.96H260.732ZM271.76 612.82V611.44H275.46V608.32H276.9V619.76H275.46V612.82H271.76ZM268.04 613.82C267.506 614.847 266.84 615.687 266.04 616.34C265.24 616.98 264.326 617.38 263.3 617.54V616.12C264.206 615.933 265 615.473 265.68 614.74C266.36 614.007 266.873 613.093 267.22 612C267.58 610.907 267.766 609.733 267.78 608.48L269.22 608.56C269.22 610.013 269.013 611.32 268.6 612.48L273.24 616.38L272.3 617.48L268.04 613.82ZM277.24 623.44H264.6V618.66H266.06V622.06H277.24V623.44ZM293.038 618.16H291.657V613.48H289.018V618H287.658V608.4H289.018V612.1H291.657V608.32H293.038V618.16ZM286.498 616.8C285.618 617.187 284.198 617.38 282.238 617.38H279.577V608.74H286.017V609.98H280.938V612.42H285.817V613.64H280.938V616.14H282.358C284.184 616.14 285.564 615.947 286.498 615.56V616.8ZM293.038 619.06V623.64H291.597V620.36H280.278V619.06H293.038ZM294.955 623.96C295.622 622.8 296.109 621.567 296.415 620.26C296.735 618.953 296.895 617.533 296.895 616C296.895 614.467 296.735 613.047 296.415 611.74C296.109 610.433 295.622 609.2 294.955 608.04H296.135C296.775 609.053 297.262 610.24 297.595 611.6C297.942 612.96 298.115 614.427 298.115 616C298.115 617.56 297.942 619.02 297.595 620.38C297.262 621.727 296.775 622.92 296.135 623.96H294.955Z" fill="#191919"/>
<line x1="20" y1="314.5" x2="382" y2="314.5" stroke="#D9D9D9"/>
<path d="M367.822 467.922H356.498V466.818H361.584V463.94H357.291V456.956H358.396V459.227H365.924V456.956H367.029V463.94H362.72V466.818H367.822V467.922ZM365.924 462.882V460.284H358.396V462.882H365.924ZM378.227 468.529V456.582H379.363V468.529H378.227ZM375.629 459.849C375.629 461.436 375.375 462.825 374.867 464.018C374.359 465.2 373.633 466.118 372.689 466.771C371.756 467.424 370.652 467.751 369.376 467.751V466.631C370.424 466.631 371.331 466.356 372.098 465.807C372.866 465.257 373.452 464.479 373.856 463.473C374.271 462.457 374.478 461.264 374.478 459.896V458.122H369.376V457.049H375.629V459.849Z" fill="#A8A8A8"/>
<path d="M367.822 518.922H356.498V517.818H361.584V514.94H357.291V507.956H358.396V510.227H365.924V507.956H367.029V514.94H362.72V517.818H367.822V518.922ZM365.924 513.882V511.284H358.396V513.882H365.924ZM378.227 519.529V507.582H379.363V519.529H378.227ZM375.629 510.849C375.629 512.436 375.375 513.825 374.867 515.018C374.359 516.2 373.633 517.118 372.689 517.771C371.756 518.424 370.652 518.751 369.376 518.751V517.631C370.424 517.631 371.331 517.356 372.098 516.807C372.866 516.257 373.452 515.479 373.856 514.473C374.271 513.457 374.478 512.264 374.478 510.896V509.122H369.376V508.049H375.629V510.849Z" fill="#A8A8A8"/>
<path d="M367.822 569.922H356.498V568.818H361.584V565.94H357.291V558.956H358.396V561.227H365.924V558.956H367.029V565.94H362.72V568.818H367.822V569.922ZM365.924 564.882V562.284H358.396V564.882H365.924ZM378.227 570.529V558.582H379.363V570.529H378.227ZM375.629 561.849C375.629 563.436 375.375 564.825 374.867 566.018C374.359 567.2 373.633 568.118 372.689 568.771C371.756 569.424 370.652 569.751 369.376 569.751V568.631C370.424 568.631 371.331 568.356 372.098 567.807C372.866 567.257 373.452 566.479 373.856 565.473C374.271 564.457 374.478 563.264 374.478 561.896V560.122H369.376V559.049H375.629V561.849Z" fill="#A8A8A8"/>
<path d="M367.822 620.922H356.498V619.818H361.584V616.94H357.291V609.956H358.396V612.227H365.924V609.956H367.029V616.94H362.72V619.818H367.822V620.922ZM365.924 615.882V613.284H358.396V615.882H365.924ZM378.227 621.529V609.582H379.363V621.529H378.227ZM375.629 612.849C375.629 614.436 375.375 615.825 374.867 617.018C374.359 618.2 373.633 619.118 372.689 619.771C371.756 620.424 370.652 620.751 369.376 620.751V619.631C370.424 619.631 371.331 619.356 372.098 618.807C372.866 618.257 373.452 617.479 373.856 616.473C374.271 615.457 374.478 614.264 374.478 612.896V611.122H369.376V610.049H375.629V612.849Z" fill="#A8A8A8"/>
<path d="M20 764C20 747.431 33.4315 734 50 734H352C368.569 734 382 747.431 382 764C382 780.569 368.569 794 352 794H50C33.4315 794 20 780.569 20 764Z" fill="#A8A8A8"/>
<path d="M199.056 764.778V772.756H196.656V755.689H199.056V762.333H201.189V764.778H199.056ZM191.322 769.533C192.093 769.533 192.856 769.459 193.611 769.311C194.381 769.163 195.019 768.97 195.522 768.733V771.022C195.033 771.274 194.381 771.474 193.567 771.622C192.752 771.756 191.944 771.822 191.144 771.822H184.833V756.222H194.256V758.511H187.278V769.533H191.322ZM209.898 755.511C212.075 755.511 213.824 755.793 215.142 756.356C216.475 756.904 217.142 757.748 217.142 758.889C217.142 760.015 216.475 760.859 215.142 761.422C213.809 761.97 212.061 762.244 209.898 762.244C207.735 762.244 205.979 761.97 204.631 761.422C203.298 760.859 202.631 760.015 202.631 758.889C202.631 757.748 203.298 756.904 204.631 756.356C205.964 755.793 207.72 755.511 209.898 755.511ZM209.898 757.444C208.505 757.444 207.372 757.57 206.498 757.822C205.624 758.059 205.187 758.415 205.187 758.889C205.187 759.348 205.616 759.696 206.475 759.933C207.35 760.17 208.49 760.289 209.898 760.289C211.305 760.289 212.438 760.17 213.298 759.933C214.157 759.696 214.587 759.348 214.587 758.889C214.587 758.415 214.15 758.059 213.275 757.822C212.416 757.57 211.29 757.444 209.898 757.444ZM201.742 765.289V763.289H218.031V765.289H201.742ZM202.809 772.622V766.644H216.987V772.622H202.809ZM214.587 768.6H205.187V770.689H214.587V768.6Z" fill="white"/>
<defs>
<linearGradient id="paint0_linear_1_766" x1="36.988" y1="124" x2="46.1825" y2="153.663" gradientUnits="userSpaceOnUse">
<stop stop-color="#542BB4"/>
<stop offset="1" stop-color="#E95AA4"/>
</linearGradient>
</defs>
</svg>
