<svg width="402" height="874" viewBox="0 0 402 874" fill="none" xmlns="http://www.w3.org/2000/svg">
<rect width="402" height="874" fill="white"/>
<path d="M37.6889 178.933H35.5556V185.356H33.1556V172.689H35.5556V176.489H37.6889V178.933ZM30.8444 177.822C30.8444 178.8 30.6296 179.674 30.2 180.444C29.7852 181.2 29.1852 181.793 28.4 182.222C27.6148 182.637 26.7111 182.844 25.6889 182.844C24.6667 182.844 23.763 182.637 22.9778 182.222C22.2074 181.793 21.6074 181.2 21.1778 180.444C20.763 179.674 20.5556 178.8 20.5556 177.822C20.5556 176.844 20.763 175.978 21.1778 175.222C21.6074 174.452 22.2074 173.859 22.9778 173.444C23.763 173.015 24.6667 172.8 25.6889 172.8C26.7111 172.8 27.6148 173.015 28.4 173.444C29.1852 173.859 29.7852 174.452 30.2 175.222C30.6296 175.978 30.8444 176.844 30.8444 177.822ZM22.9556 177.822C22.9556 178.726 23.2074 179.437 23.7111 179.956C24.2148 180.474 24.8741 180.733 25.6889 180.733C26.5185 180.733 27.1852 180.474 27.6889 179.956C28.1926 179.437 28.4444 178.726 28.4444 177.822C28.4444 176.919 28.1926 176.215 27.6889 175.711C27.1852 175.193 26.5185 174.933 25.6889 174.933C24.8593 174.933 24.1926 175.193 23.6889 175.711C23.2 176.215 22.9556 176.919 22.9556 177.822ZM35.9333 187.356V189.622H21.8667V183.889H24.3111V187.356H35.9333ZM51.331 172.689H53.731V185.356H51.331V178.778H48.5532V176.578H51.331V172.689ZM43.9977 179.444C43.3902 180.481 42.6199 181.319 41.6865 181.956C40.7532 182.578 39.7162 182.933 38.5754 183.022V180.733C39.7902 180.57 40.7754 179.985 41.531 178.978C42.2865 177.97 42.7236 176.711 42.8421 175.2H38.7754V173.022H49.131V175.2H45.2643C45.2495 175.881 45.1384 176.615 44.931 177.4L49.6865 181.067L48.331 182.889L43.9977 179.444ZM54.0199 189.622H39.6421V183.978H42.0865V187.356H54.0199V189.622ZM55.7731 176.156V174.133H60.0398V172.378H62.5064V174.133H66.8175V176.156H55.7731ZM72.8842 179.533H70.7509V185.467H68.3509V172.689H70.7509V177.067H72.8842V179.533ZM61.2842 183.933C59.8768 183.933 58.7138 183.622 57.7953 183C56.8768 182.378 56.4175 181.519 56.4175 180.422C56.4175 179.326 56.8768 178.467 57.7953 177.844C58.7138 177.222 59.8768 176.911 61.2842 176.911C62.6916 176.911 63.8546 177.222 64.7731 177.844C65.7064 178.467 66.1731 179.326 66.1731 180.422C66.1731 181.519 65.7064 182.378 64.7731 183C63.8546 183.622 62.6916 183.933 61.2842 183.933ZM61.2842 178.8C60.499 178.8 59.8694 178.956 59.3953 179.267C58.9361 179.563 58.7064 179.948 58.7064 180.422C58.7064 180.896 58.9361 181.289 59.3953 181.6C59.8694 181.896 60.499 182.044 61.2842 182.044C62.0694 182.044 62.6916 181.896 63.1509 181.6C63.6249 181.289 63.862 180.896 63.862 180.422C63.862 179.948 63.6249 179.563 63.1509 179.267C62.6916 178.956 62.0694 178.8 61.2842 178.8ZM71.1286 187.4V189.622H56.8842V184.733H59.3286V187.4H71.1286ZM93.3208 189.756H90.9208V180.956H87.0319V178.6H90.9208V172.689H93.3208V189.756ZM84.8542 173.156C84.8542 175.422 84.706 177.526 84.4097 179.467L89.3431 187.467L87.2764 188.844L83.6097 182.622C83.0023 184.548 82.2171 186.044 81.2542 187.111C80.2912 188.178 79.1801 188.748 77.9208 188.822V186.222C78.8542 186.074 79.6542 185.415 80.3208 184.244C81.0023 183.074 81.5208 181.519 81.8764 179.578C82.2319 177.637 82.4097 175.467 82.4097 173.067L84.8542 173.156ZM110.807 189.756H108.407V172.689H110.807V189.756ZM105.652 173.156V188.822H96.2963V173.156H98.674V178.689H103.274V173.156H105.652ZM103.274 181H98.674V186.511H103.274V181ZM121.005 178.689C120.057 180.17 118.909 181.341 117.561 182.2C116.227 183.044 114.827 183.474 113.361 183.489V181.089C114.472 181.089 115.538 180.719 116.561 179.978C117.598 179.237 118.479 178.23 119.205 176.956C119.931 175.681 120.412 174.267 120.649 172.711L123.116 173.133C122.879 174.481 122.531 175.667 122.072 176.689L129.116 181.533L127.827 183.556L121.005 178.689ZM129.316 186.667V189.022H113.027V186.667H129.316ZM147.997 189.756V172.689H150.419V189.756H147.997ZM140.642 173C142.168 173 143.375 173.674 144.264 175.022C145.153 176.356 145.597 178.356 145.597 181.022C145.597 183.689 145.153 185.696 144.264 187.044C143.375 188.378 142.168 189.044 140.642 189.044C139.101 189.044 137.879 188.378 136.975 187.044C136.086 185.696 135.642 183.689 135.642 181.022C135.642 178.356 136.086 176.356 136.975 175.022C137.879 173.674 139.101 173 140.642 173ZM140.642 175.333C139.842 175.333 139.205 175.793 138.731 176.711C138.256 177.63 138.019 179.067 138.019 181.022C138.019 182.978 138.256 184.415 138.731 185.333C139.205 186.252 139.842 186.711 140.642 186.711C141.427 186.711 142.049 186.252 142.508 185.333C142.982 184.415 143.219 182.978 143.219 181.022C143.219 179.067 142.982 177.63 142.508 176.711C142.049 175.793 141.427 175.333 140.642 175.333ZM168.906 182.444H152.617V180.467H155.973V178.533C154.328 177.97 153.506 177.081 153.506 175.867C153.506 174.726 154.173 173.881 155.506 173.333C156.839 172.785 158.595 172.511 160.773 172.511C162.95 172.511 164.699 172.785 166.017 173.333C167.35 173.881 168.017 174.726 168.017 175.867C168.017 177.081 167.202 177.97 165.573 178.533V180.467H168.906V182.444ZM160.773 174.444C159.365 174.444 158.225 174.563 157.35 174.8C156.491 175.037 156.062 175.393 156.062 175.867C156.062 176.341 156.491 176.696 157.35 176.933C158.225 177.156 159.365 177.267 160.773 177.267C162.18 177.267 163.313 177.156 164.173 176.933C165.032 176.696 165.462 176.341 165.462 175.867C165.462 175.393 165.032 175.037 164.173 174.8C163.313 174.563 162.18 174.444 160.773 174.444ZM163.173 180.467V179.067C162.61 179.156 161.81 179.2 160.773 179.2C159.736 179.2 158.936 179.156 158.373 179.067V180.467H163.173ZM160.773 183.489C162.995 183.489 164.758 183.741 166.062 184.244C167.365 184.733 168.017 185.541 168.017 186.667C168.017 187.793 167.358 188.607 166.039 189.111C164.736 189.615 162.98 189.867 160.773 189.867C158.565 189.867 156.802 189.615 155.484 189.111C154.18 188.607 153.528 187.793 153.528 186.667C153.528 185.541 154.18 184.733 155.484 184.244C156.787 183.741 158.55 183.489 160.773 183.489ZM160.773 187.933C162.165 187.933 163.291 187.837 164.15 187.644C165.01 187.437 165.439 187.111 165.439 186.667C165.439 186.222 165.01 185.904 164.15 185.711C163.306 185.519 162.18 185.422 160.773 185.422C157.647 185.422 156.084 185.837 156.084 186.667C156.084 187.111 156.513 187.437 157.373 187.644C158.232 187.837 159.365 187.933 160.773 187.933ZM178.37 172.533C180.563 172.533 182.311 172.785 183.615 173.289C184.918 173.778 185.57 174.57 185.57 175.667C185.57 176.763 184.918 177.563 183.615 178.067C182.311 178.57 180.563 178.822 178.37 178.822C176.178 178.822 174.422 178.57 173.104 178.067C171.785 177.563 171.126 176.763 171.126 175.667C171.126 174.57 171.778 173.778 173.081 173.289C174.4 172.785 176.163 172.533 178.37 172.533ZM178.37 174.4C176.948 174.4 175.807 174.504 174.948 174.711C174.104 174.919 173.681 175.237 173.681 175.667C173.681 176.111 174.104 176.437 174.948 176.644C175.807 176.852 176.948 176.956 178.37 176.956C179.793 176.956 180.926 176.852 181.77 176.644C182.615 176.437 183.037 176.111 183.037 175.667C183.037 175.237 182.615 174.919 181.77 174.711C180.926 174.504 179.793 174.4 178.37 174.4ZM170.215 181.6V179.689H186.504V181.6H170.215ZM173.659 186.844V187.911H185.704V189.622H171.281V185.422H183.104V184.378H171.237V182.711H185.481V186.844H173.659ZM207.629 189.756H205.229V172.689H207.629V189.756ZM197.807 181.8C196.859 181.8 196.014 181.615 195.274 181.244C194.548 180.859 193.977 180.333 193.563 179.667C193.148 178.985 192.94 178.215 192.94 177.356C192.94 176.496 193.148 175.733 193.563 175.067C193.977 174.385 194.548 173.859 195.274 173.489C196.014 173.104 196.859 172.911 197.807 172.911C198.74 172.911 199.57 173.104 200.296 173.489C201.037 173.859 201.614 174.385 202.029 175.067C202.444 175.733 202.651 176.496 202.651 177.356C202.651 178.215 202.444 178.985 202.029 179.667C201.614 180.333 201.037 180.859 200.296 181.244C199.57 181.615 198.74 181.8 197.807 181.8ZM197.807 174.978C197.037 174.978 196.414 175.207 195.94 175.667C195.481 176.111 195.251 176.674 195.251 177.356C195.251 178.037 195.481 178.607 195.94 179.067C196.414 179.511 197.037 179.733 197.807 179.733C198.563 179.733 199.177 179.511 199.651 179.067C200.125 178.607 200.362 178.037 200.362 177.356C200.362 176.674 200.125 176.111 199.651 175.667C199.177 175.207 198.563 174.978 197.807 174.978ZM199.162 183.133C201.429 183.133 203.051 182.919 204.029 182.489V184.778C203.007 185.207 201.377 185.422 199.14 185.422H198.985V189.756H196.585V185.422H192.207V183.133H199.162ZM218.116 175.111V177.4H209.449V175.111H212.605V172.644H214.982V175.111H218.116ZM225.627 189.756H223.405V181.711H221.316V189.467H219.116V172.778H221.316V179.333H223.405V172.689H225.627V189.756ZM213.871 178.467C215.012 178.467 215.938 178.926 216.649 179.844C217.36 180.763 217.716 182.067 217.716 183.756C217.716 185.43 217.36 186.726 216.649 187.644C215.938 188.563 215.012 189.022 213.871 189.022C212.716 189.022 211.782 188.57 211.071 187.667C210.375 186.748 210.027 185.444 210.027 183.756C210.027 182.067 210.375 180.763 211.071 179.844C211.782 178.926 212.716 178.467 213.871 178.467ZM213.871 186.844C214.36 186.844 214.76 186.57 215.071 186.022C215.382 185.474 215.538 184.719 215.538 183.756C215.538 182.793 215.382 182.037 215.071 181.489C214.76 180.941 214.36 180.667 213.871 180.667C213.368 180.667 212.96 180.941 212.649 181.489C212.353 182.037 212.205 182.793 212.205 183.756C212.205 184.719 212.353 185.474 212.649 186.022C212.96 186.57 213.368 186.844 213.871 186.844Z" fill="#191919"/>
<rect x="20" y="124" width="360" height="5" fill="#E2E2E2"/>
<rect x="20" y="124" width="120" height="5" fill="url(#paint0_linear_405_1559)"/>
<path d="M29.9999 83L31.7749 84.775L23.5499 93L31.7749 101.225L29.9999 103L19.9999 93L29.9999 83Z" fill="#1F1F1F"/>
<path d="M36.9333 213.022H20.6444V210.911H27.5778V209.2H21.7556V201.756H24.1111V203.511H33.4889V201.756H35.8444V209.2H30V210.911H36.9333V213.022ZM33.4889 207.244V205.422H24.1111V207.244H33.4889ZM36.1333 216.533V218.622H21.7111V214.022H24.1556V216.533H36.1333ZM51.2199 214.356V201.689H53.6199V214.356H51.2199ZM43.531 201.8C44.568 201.8 45.4791 202.015 46.2643 202.444C47.0643 202.859 47.6791 203.452 48.1088 204.222C48.5384 204.978 48.7532 205.844 48.7532 206.822C48.7532 207.8 48.5384 208.674 48.1088 209.444C47.6791 210.2 47.0643 210.793 46.2643 211.222C45.4791 211.637 44.568 211.844 43.531 211.844C42.494 211.844 41.5754 211.637 40.7754 211.222C39.9902 210.793 39.3828 210.2 38.9532 209.444C38.5236 208.674 38.3088 207.8 38.3088 206.822C38.3088 205.844 38.5236 204.978 38.9532 204.222C39.3828 203.452 39.9902 202.859 40.7754 202.444C41.5754 202.015 42.494 201.8 43.531 201.8ZM43.531 203.933C42.7014 203.933 42.0273 204.193 41.5088 204.711C40.9902 205.215 40.731 205.919 40.731 206.822C40.731 207.726 40.9902 208.437 41.5088 208.956C42.0273 209.474 42.7014 209.733 43.531 209.733C44.3754 209.733 45.0569 209.474 45.5754 208.956C46.094 208.437 46.3532 207.726 46.3532 206.822C46.3532 205.919 46.094 205.215 45.5754 204.711C45.0569 204.193 44.3754 203.933 43.531 203.933ZM53.9754 216.356V218.622H39.7532V212.889H42.1977V216.356H53.9754ZM68.8175 214.356V201.689H71.2175V214.356H68.8175ZM61.1286 201.8C62.1657 201.8 63.0768 202.015 63.862 202.444C64.662 202.859 65.2768 203.452 65.7064 204.222C66.1361 204.978 66.3509 205.844 66.3509 206.822C66.3509 207.8 66.1361 208.674 65.7064 209.444C65.2768 210.2 64.662 210.793 63.862 211.222C63.0768 211.637 62.1657 211.844 61.1286 211.844C60.0916 211.844 59.1731 211.637 58.3731 211.222C57.5879 210.793 56.9805 210.2 56.5509 209.444C56.1212 208.674 55.9064 207.8 55.9064 206.822C55.9064 205.844 56.1212 204.978 56.5509 204.222C56.9805 203.452 57.5879 202.859 58.3731 202.444C59.1731 202.015 60.0916 201.8 61.1286 201.8ZM61.1286 203.933C60.299 203.933 59.6249 204.193 59.1064 204.711C58.5879 205.215 58.3286 205.919 58.3286 206.822C58.3286 207.726 58.5879 208.437 59.1064 208.956C59.6249 209.474 60.299 209.733 61.1286 209.733C61.9731 209.733 62.6546 209.474 63.1731 208.956C63.6916 208.437 63.9509 207.726 63.9509 206.822C63.9509 205.919 63.6916 205.215 63.1731 204.711C62.6546 204.193 61.9731 203.933 61.1286 203.933ZM71.5731 216.356V218.622H57.3509V212.889H59.7953V216.356H71.5731ZM81.193 206.289C80.3782 206.896 79.3559 207.37 78.1263 207.711C76.9115 208.037 75.6226 208.215 74.2596 208.244V206.244C75.6226 206.215 76.8967 205.985 78.0819 205.556C79.2819 205.111 80.0596 204.526 80.4152 203.8H74.4819V201.822H88.7041V203.8H83.0596C83.0448 204.096 82.9485 204.393 82.7707 204.689L89.1263 206.378L88.5485 208.311L81.193 206.289ZM89.7263 211.289H73.4374V209.311H89.7263V211.289ZM81.593 212.489C83.8152 212.489 85.5782 212.741 86.8819 213.244C88.1856 213.733 88.8374 214.541 88.8374 215.667C88.8374 216.793 88.1782 217.607 86.8596 218.111C85.5559 218.615 83.8004 218.867 81.593 218.867C79.3856 218.867 77.6226 218.615 76.3041 218.111C75.0004 217.607 74.3485 216.793 74.3485 215.667C74.3485 214.541 75.0004 213.733 76.3041 213.244C77.6078 212.741 79.3707 212.489 81.593 212.489ZM81.593 216.933C82.9856 216.933 84.1115 216.837 84.9707 216.644C85.83 216.437 86.2596 216.111 86.2596 215.667C86.2596 215.222 85.83 214.904 84.9707 214.711C84.1263 214.519 83.0004 214.422 81.593 214.422C78.467 214.422 76.9041 214.837 76.9041 215.667C76.9041 216.111 77.3337 216.437 78.193 216.644C79.0522 216.837 80.1856 216.933 81.593 216.933ZM99.1906 201.533C101.383 201.533 103.131 201.785 104.435 202.289C105.739 202.778 106.391 203.57 106.391 204.667C106.391 205.763 105.739 206.563 104.435 207.067C103.131 207.57 101.383 207.822 99.1906 207.822C96.998 207.822 95.2425 207.57 93.924 207.067C92.6054 206.563 91.9462 205.763 91.9462 204.667C91.9462 203.57 92.598 202.778 93.9017 202.289C95.2203 201.785 96.9832 201.533 99.1906 201.533ZM99.1906 203.4C97.7684 203.4 96.6277 203.504 95.7684 203.711C94.924 203.919 94.5017 204.237 94.5017 204.667C94.5017 205.111 94.924 205.437 95.7684 205.644C96.6277 205.852 97.7684 205.956 99.1906 205.956C100.613 205.956 101.746 205.852 102.591 205.644C103.435 205.437 103.857 205.111 103.857 204.667C103.857 204.237 103.435 203.919 102.591 203.711C101.746 203.504 100.613 203.4 99.1906 203.4ZM91.0351 210.6V208.689H107.324V210.6H91.0351ZM94.4795 215.844V216.911H106.524V218.622H92.1017V214.422H103.924V213.378H92.0573V211.711H106.302V215.844H94.4795ZM126.005 214.356V201.689H128.405V214.356H126.005ZM118.938 208.311C118.346 209.333 117.575 210.156 116.627 210.778C115.679 211.4 114.612 211.763 113.427 211.867V209.556C114.672 209.407 115.679 208.844 116.449 207.867C117.22 206.889 117.664 205.667 117.783 204.2H113.649V202.022H124.161V204.2H120.227C120.212 204.837 120.101 205.526 119.894 206.267L124.716 209.889L123.383 211.733L118.938 208.311ZM128.761 218.622H114.338V212.978H116.783V216.356H128.761V218.622ZM130.314 204.867V203H133.514V201.422H135.914V203H138.98V204.867H130.314ZM139.936 211.644V201.778H142.158V205.467H144.225V201.689H146.447V212.244H144.225V207.733H142.158V211.644H139.936ZM138.647 208.756C138.647 209.719 138.277 210.489 137.536 211.067C136.795 211.644 135.869 211.933 134.758 211.933C133.632 211.933 132.699 211.644 131.958 211.067C131.218 210.489 130.847 209.719 130.847 208.756C130.847 207.793 131.218 207.03 131.958 206.467C132.699 205.889 133.632 205.6 134.758 205.6C135.869 205.6 136.795 205.889 137.536 206.467C138.277 207.03 138.647 207.793 138.647 208.756ZM132.98 208.756C132.98 209.156 133.143 209.489 133.469 209.756C133.795 210.007 134.225 210.133 134.758 210.133C135.277 210.133 135.699 210.007 136.025 209.756C136.351 209.489 136.514 209.156 136.514 208.756C136.514 208.356 136.351 208.03 136.025 207.778C135.699 207.526 135.277 207.4 134.758 207.4C134.225 207.4 133.795 207.526 133.469 207.778C133.143 208.03 132.98 208.356 132.98 208.756ZM139.203 212.467C141.455 212.467 143.247 212.719 144.58 213.222C145.929 213.726 146.603 214.533 146.603 215.644C146.603 216.77 145.929 217.585 144.58 218.089C143.247 218.593 141.455 218.844 139.203 218.844C136.951 218.844 135.151 218.593 133.803 218.089C132.469 217.585 131.803 216.77 131.803 215.644C131.803 214.533 132.469 213.726 133.803 213.222C135.151 212.719 136.951 212.467 139.203 212.467ZM139.203 216.911C140.625 216.911 141.788 216.807 142.692 216.6C143.61 216.378 144.069 216.059 144.069 215.644C144.069 215.23 143.61 214.919 142.692 214.711C141.788 214.489 140.625 214.378 139.203 214.378C137.78 214.378 136.61 214.489 135.692 214.711C134.773 214.919 134.314 215.23 134.314 215.644C134.314 216.059 134.773 216.378 135.692 216.6C136.61 216.807 137.78 216.911 139.203 216.911ZM156.534 204.111V206.4H147.867V204.111H151.023V201.644H153.4V204.111H156.534ZM164.045 218.756H161.823V210.711H159.734V218.467H157.534V201.778H159.734V208.333H161.823V201.689H164.045V218.756ZM152.289 207.467C153.43 207.467 154.356 207.926 155.067 208.844C155.778 209.763 156.134 211.067 156.134 212.756C156.134 214.43 155.778 215.726 155.067 216.644C154.356 217.563 153.43 218.022 152.289 218.022C151.134 218.022 150.2 217.57 149.489 216.667C148.793 215.748 148.445 214.444 148.445 212.756C148.445 211.067 148.793 209.763 149.489 208.844C150.2 207.926 151.134 207.467 152.289 207.467ZM152.289 215.844C152.778 215.844 153.178 215.57 153.489 215.022C153.8 214.474 153.956 213.719 153.956 212.756C153.956 211.793 153.8 211.037 153.489 210.489C153.178 209.941 152.778 209.667 152.289 209.667C151.786 209.667 151.378 209.941 151.067 210.489C150.771 211.037 150.623 211.793 150.623 212.756C150.623 213.719 150.771 214.474 151.067 215.022C151.378 215.57 151.786 215.844 152.289 215.844ZM178.081 207.556C177.237 208.533 176.178 209.304 174.904 209.867C173.63 210.415 172.259 210.726 170.793 210.8V208.489C172.304 208.385 173.644 207.963 174.815 207.222C175.985 206.481 176.763 205.511 177.148 204.311H171.126V202.022H185.593V204.311H179.793C179.733 204.726 179.6 205.17 179.393 205.644L186.17 208.667L185.215 210.778L178.081 207.556ZM179.57 214.756V219.156H177.148V214.756H170.215V212.4H186.504V214.756H179.57ZM203.635 218.756H201.368V201.689H203.635V218.756ZM199.479 201.778V218.467H197.212V209.689H194.968V207.289H197.212V201.778H199.479ZM193.412 202.156C193.412 204.837 193.294 207.148 193.057 209.089L196.879 216.578L194.901 217.622L192.324 212.533C191.449 215.733 189.975 217.496 187.901 217.822V215.267C190.035 214.659 191.116 210.259 191.146 202.067L193.412 202.156ZM221.699 218.022H205.41V215.711H208.921V211.422C208.032 210.963 207.343 210.37 206.855 209.644C206.38 208.904 206.143 208.074 206.143 207.156C206.143 206.119 206.447 205.2 207.055 204.4C207.677 203.6 208.551 202.985 209.677 202.556C210.803 202.111 212.099 201.889 213.566 201.889C215.032 201.889 216.329 202.111 217.455 202.556C218.58 202.985 219.447 203.6 220.055 204.4C220.677 205.2 220.988 206.119 220.988 207.156C220.988 208.074 220.743 208.904 220.255 209.644C219.78 210.37 219.099 210.963 218.21 211.422V215.711H221.699V218.022ZM213.566 204.156C212.114 204.156 210.936 204.43 210.032 204.978C209.143 205.526 208.699 206.252 208.699 207.156C208.699 208.059 209.143 208.785 210.032 209.333C210.936 209.881 212.114 210.156 213.566 210.156C215.017 210.156 216.188 209.881 217.077 209.333C217.98 208.785 218.432 208.059 218.432 207.156C218.432 206.252 217.98 205.526 217.077 204.978C216.188 204.43 215.017 204.156 213.566 204.156ZM215.81 215.711V212.222C215.217 212.356 214.469 212.422 213.566 212.422C212.662 212.422 211.921 212.356 211.343 212.222V215.711H215.81ZM226.941 202.444L226.43 212.956H224.408L223.919 202.444H226.941ZM225.43 218.133C224.941 218.133 224.541 217.985 224.23 217.689C223.919 217.378 223.763 217 223.763 216.556C223.763 216.111 223.919 215.741 224.23 215.444C224.541 215.148 224.941 215 225.43 215C225.904 215 226.297 215.148 226.608 215.444C226.934 215.741 227.097 216.111 227.097 216.556C227.097 217 226.934 217.378 226.608 217.689C226.297 217.985 225.904 218.133 225.43 218.133Z" fill="#191919"/>
<path d="M20.6167 242.45V241.333H24.1667V239.617H25.4V241.333H28.9833V242.45H20.6167ZM31.85 252.567H30.65V239.767H31.85V252.567ZM25.4 250.65C27.3667 250.65 28.7556 250.456 29.5667 250.067V251.217C29.1778 251.394 28.6222 251.533 27.9 251.633C27.1778 251.722 26.35 251.767 25.4167 251.767H20.5333V250.65H24.2V248.567C23.2889 248.489 22.5722 248.217 22.05 247.75C21.5389 247.283 21.2833 246.689 21.2833 245.967C21.2833 245.156 21.5944 244.511 22.2167 244.033C22.85 243.556 23.7167 243.317 24.8167 243.317C25.8944 243.317 26.75 243.556 27.3833 244.033C28.0167 244.511 28.3333 245.156 28.3333 245.967C28.3333 246.7 28.0722 247.3 27.55 247.767C27.0389 248.222 26.3222 248.489 25.4 248.567V250.65ZM22.4333 245.967C22.4333 246.433 22.6389 246.817 23.05 247.117C23.4611 247.406 24.05 247.55 24.8167 247.55C25.5833 247.55 26.1667 247.406 26.5667 247.117C26.9778 246.817 27.1833 246.433 27.1833 245.967C27.1833 245.5 26.9778 245.117 26.5667 244.817C26.1667 244.517 25.5833 244.367 24.8167 244.367C24.05 244.367 23.4611 244.517 23.05 244.817C22.6389 245.117 22.4333 245.5 22.4333 245.967ZM43.9149 239.767H45.1149V249.8H43.9149V248.85H40.0982V247.883H43.9149V239.767ZM38.0816 244.767C37.0038 244.767 36.1371 244.55 35.4816 244.117C34.826 243.672 34.4982 243.061 34.4982 242.283C34.4982 241.517 34.826 240.917 35.4816 240.483C36.1482 240.039 37.0149 239.817 38.0816 239.817C39.1482 239.817 40.0094 240.039 40.6649 240.483C41.3205 240.917 41.6482 241.517 41.6482 242.283C41.6482 243.072 41.3205 243.683 40.6649 244.117C40.0205 244.55 39.1594 244.767 38.0816 244.767ZM38.0816 240.833C37.3594 240.833 36.776 240.961 36.3316 241.217C35.8982 241.461 35.6816 241.817 35.6816 242.283C35.6816 242.761 35.8982 243.128 36.3316 243.383C36.776 243.639 37.3594 243.767 38.0816 243.767C38.7927 243.767 39.3649 243.639 39.7982 243.383C40.2427 243.128 40.4649 242.761 40.4649 242.283C40.4649 241.817 40.2427 241.461 39.7982 241.217C39.3649 240.961 38.7927 240.833 38.0816 240.833ZM33.7482 246.817V245.767H38.6649C40.6982 245.767 42.0816 245.594 42.8149 245.25V246.3C42.0816 246.644 40.6094 246.817 38.3982 246.817V249.217H37.1982V246.817H33.7482ZM45.4649 252.367H34.8816V248.517H36.0982V251.267H45.4649V252.367ZM58.3132 252.567H57.1298V248.9H54.9298L55.0132 247.717H57.1298V244.267H55.0132L54.9298 243.067H57.1298V239.767H58.3132V252.567ZM51.0132 240.1C52.102 240.1 52.9632 240.6 53.5965 241.6C54.2409 242.589 54.5632 244.061 54.5632 246.017C54.5632 247.972 54.2409 249.45 53.5965 250.45C52.9632 251.439 52.102 251.933 51.0132 251.933C49.9132 251.933 49.0409 251.439 48.3965 250.45C47.752 249.45 47.4298 247.972 47.4298 246.017C47.4298 244.061 47.752 242.589 48.3965 241.6C49.0409 240.6 49.9132 240.1 51.0132 240.1ZM51.0132 250.783C51.7243 250.783 52.2909 250.389 52.7132 249.6C53.1465 248.811 53.3632 247.617 53.3632 246.017C53.3632 244.428 53.1465 243.239 52.7132 242.45C52.2909 241.65 51.7243 241.25 51.0132 241.25C50.2909 241.25 49.7132 241.65 49.2798 242.45C48.8465 243.239 48.6298 244.428 48.6298 246.017C48.6298 247.617 48.8409 248.811 49.2632 249.6C49.6965 250.389 50.2798 250.783 51.0132 250.783ZM61.0114 246.533V240.017H62.1947V241.95H70.1947V240.017H71.3781V246.533H61.0114ZM70.1947 243.067H62.1947V245.4H70.1947V243.067ZM66.8114 249.15V252.867H65.5781V249.15H60.1281V247.983H72.2614V249.15H66.8114ZM76.6889 241.783V240.817H80.0889V239.417H81.3055V240.817H84.8222V241.783H76.6889ZM87.6055 244.483V248.533H86.4055V239.767H87.6055V243.3H89.3389V244.483H87.6055ZM85.3055 247.717C84.9389 247.883 84.3833 248.011 83.6389 248.1C82.8944 248.178 82.0389 248.217 81.0722 248.217H76.6222V247.233H80.1222V246.217C79.2333 246.161 78.5333 245.967 78.0222 245.633C77.5111 245.289 77.2555 244.856 77.2555 244.333C77.2555 243.744 77.5666 243.278 78.1889 242.933C78.8222 242.589 79.6722 242.417 80.7389 242.417C81.7944 242.417 82.6333 242.589 83.2555 242.933C83.8889 243.278 84.2055 243.744 84.2055 244.333C84.2055 244.856 83.95 245.289 83.4389 245.633C82.9278 245.967 82.2166 246.167 81.3055 246.233V247.233C83.2611 247.211 84.5944 247.039 85.3055 246.717V247.717ZM78.3889 244.333C78.3889 244.633 78.6 244.878 79.0222 245.067C79.4555 245.244 80.0278 245.333 80.7389 245.333C81.4389 245.333 82 245.244 82.4222 245.067C82.8555 244.878 83.0722 244.633 83.0722 244.333C83.0722 244.044 82.8555 243.806 82.4222 243.617C82 243.428 81.4389 243.333 80.7389 243.333C80.0278 243.333 79.4555 243.428 79.0222 243.617C78.6 243.806 78.3889 244.044 78.3889 244.333ZM87.6055 249.283V252.533H86.3889V250.283H77.4555V249.283H87.6055ZM99.9038 249.283V239.767H101.12V249.283H99.9038ZM93.8038 239.917C94.5816 239.917 95.2593 240.078 95.8371 240.4C96.4149 240.711 96.8538 241.15 97.1538 241.717C97.4649 242.272 97.6204 242.906 97.6204 243.617C97.6204 244.328 97.4649 244.967 97.1538 245.533C96.8538 246.089 96.4149 246.528 95.8371 246.85C95.2593 247.161 94.5816 247.317 93.8038 247.317C93.026 247.317 92.3482 247.161 91.7704 246.85C91.1927 246.528 90.7482 246.089 90.4371 245.533C90.126 244.967 89.9704 244.328 89.9704 243.617C89.9704 242.906 90.126 242.272 90.4371 241.717C90.7482 241.15 91.1927 240.711 91.7704 240.4C92.3482 240.078 93.026 239.917 93.8038 239.917ZM93.8038 240.983C93.0149 240.983 92.3816 241.222 91.9038 241.7C91.426 242.178 91.1871 242.817 91.1871 243.617C91.1871 244.417 91.426 245.056 91.9038 245.533C92.3816 246 93.0149 246.233 93.8038 246.233C94.5927 246.233 95.226 246 95.7038 245.533C96.1816 245.056 96.4204 244.417 96.4204 243.617C96.4204 242.817 96.1816 242.178 95.7038 241.7C95.226 241.222 94.5927 240.983 93.8038 240.983ZM101.47 251.217V252.367H91.0371V248.233H92.2538V251.217H101.47ZM116.398 246.767V239.767H117.615V246.767H116.398ZM106.915 245.667V240.117H114.081V245.667H106.915ZM108.115 241.183V244.6H112.898V241.183H108.115ZM112.298 250.483C111.742 251.072 111.009 251.533 110.098 251.867C109.187 252.2 108.226 252.367 107.215 252.367V251.283C107.926 251.283 108.615 251.183 109.281 250.983C109.959 250.772 110.537 250.478 111.015 250.1C111.492 249.722 111.803 249.289 111.948 248.8H107.298V247.733H111.931V246.4H113.165V247.733H117.815V248.8H113.215C113.181 249.1 113.092 249.367 112.948 249.6L118.081 251.5L117.715 252.55L112.298 250.483ZM133.759 246.267V252.567H132.559V239.767H133.759V245.067H135.525V246.267H133.759ZM129.842 240.267V243.267C129.842 244.956 129.581 246.439 129.059 247.717C128.537 248.994 127.781 249.983 126.792 250.683C125.803 251.383 124.631 251.733 123.275 251.733V250.533C124.398 250.533 125.359 250.239 126.159 249.65C126.97 249.061 127.587 248.222 128.009 247.133C128.431 246.044 128.642 244.772 128.642 243.317V241.417H123.275V240.267H129.842ZM147.307 246.433H146.09V239.767H147.307V246.433ZM143.79 243.067C143.79 243.689 143.635 244.239 143.324 244.717C143.024 245.194 142.585 245.567 142.007 245.833C141.44 246.1 140.774 246.233 140.007 246.233C139.24 246.233 138.568 246.1 137.99 245.833C137.424 245.567 136.985 245.194 136.674 244.717C136.374 244.239 136.224 243.689 136.224 243.067C136.224 242.456 136.374 241.911 136.674 241.433C136.985 240.956 137.424 240.583 137.99 240.317C138.568 240.05 139.24 239.917 140.007 239.917C140.774 239.917 141.44 240.05 142.007 240.317C142.585 240.583 143.024 240.956 143.324 241.433C143.635 241.911 143.79 242.456 143.79 243.067ZM137.424 243.067C137.424 243.722 137.663 244.239 138.14 244.617C138.618 244.994 139.24 245.183 140.007 245.183C140.785 245.183 141.407 244.994 141.874 244.617C142.34 244.239 142.574 243.722 142.574 243.067C142.574 242.411 142.34 241.894 141.874 241.517C141.407 241.139 140.785 240.95 140.007 240.95C139.24 240.95 138.618 241.144 138.14 241.533C137.663 241.911 137.424 242.422 137.424 243.067ZM147.307 247.017V252.367H137.224V247.017H138.424V248.533H146.107V247.017H147.307ZM146.107 249.567H138.424V251.317H146.107V249.567ZM155.272 239.75C156.85 239.75 158.127 239.939 159.105 240.317C160.083 240.683 160.572 241.261 160.572 242.05C160.572 242.839 160.083 243.417 159.105 243.783C158.127 244.15 156.85 244.333 155.272 244.333C153.694 244.333 152.411 244.15 151.422 243.783C150.444 243.417 149.955 242.839 149.955 242.05C149.955 241.261 150.444 240.683 151.422 240.317C152.411 239.939 153.694 239.75 155.272 239.75ZM155.272 240.733C154.083 240.733 153.105 240.844 152.339 241.067C151.583 241.278 151.205 241.606 151.205 242.05C151.205 242.494 151.583 242.822 152.339 243.033C153.094 243.244 154.072 243.35 155.272 243.35C156.461 243.35 157.433 243.244 158.189 243.033C158.944 242.822 159.322 242.494 159.322 242.05C159.322 241.606 158.939 241.278 158.172 241.067C157.416 240.844 156.45 240.733 155.272 240.733ZM149.205 246.25V245.25H161.339V246.25H149.205ZM151.255 250.283V251.45H160.689V252.383H150.089V249.483H159.289V248.35H150.055V247.433H160.472V250.283H151.255ZM175.783 249.283V239.767H176.999V249.283H175.783ZM170.083 244.283C169.672 245.128 169.116 245.811 168.416 246.333C167.727 246.856 166.933 247.178 166.033 247.3V246.133C167.088 245.956 167.938 245.433 168.583 244.567C169.227 243.7 169.577 242.589 169.633 241.233H166.183V240.133H174.049V241.233H170.833C170.822 241.956 170.722 242.617 170.533 243.217L174.399 246.267L173.733 247.2L170.083 244.283ZM177.349 252.367H166.783V248.383H167.999V251.217H177.349V252.367ZM178.698 241.95V240.95H181.398V239.583H182.581V240.95H185.164V241.95H178.698ZM186.131 247.25V239.833H187.248V242.85H189.398V239.767H190.531V247.7H189.398V243.983H187.248V247.25H186.131ZM184.848 245.067C184.848 245.778 184.575 246.35 184.031 246.783C183.498 247.206 182.825 247.417 182.014 247.417C181.192 247.417 180.514 247.206 179.981 246.783C179.448 246.361 179.181 245.789 179.181 245.067C179.181 244.356 179.448 243.789 179.981 243.367C180.514 242.933 181.192 242.717 182.014 242.717C182.825 242.717 183.498 242.933 184.031 243.367C184.575 243.789 184.848 244.356 184.848 245.067ZM180.281 245.067C180.281 245.467 180.436 245.8 180.748 246.067C181.07 246.333 181.492 246.467 182.014 246.467C182.536 246.467 182.953 246.333 183.264 246.067C183.586 245.8 183.748 245.467 183.748 245.067C183.748 244.667 183.586 244.333 183.264 244.067C182.953 243.8 182.536 243.667 182.014 243.667C181.492 243.667 181.07 243.8 180.748 244.067C180.436 244.333 180.281 244.667 180.281 245.067ZM185.314 248C186.914 248 188.209 248.183 189.198 248.55C190.186 248.917 190.681 249.489 190.681 250.267C190.681 251.056 190.186 251.633 189.198 252C188.22 252.356 186.925 252.533 185.314 252.533C183.703 252.533 182.403 252.356 181.414 252C180.436 251.633 179.948 251.056 179.948 250.267C179.948 249.489 180.442 248.917 181.431 248.55C182.42 248.183 183.714 248 185.314 248ZM185.314 251.533C186.514 251.533 187.498 251.428 188.264 251.217C189.031 251.006 189.414 250.689 189.414 250.267C189.414 249.856 189.025 249.544 188.248 249.333C187.481 249.122 186.503 249.017 185.314 249.017C184.114 249.017 183.125 249.122 182.348 249.333C181.581 249.544 181.198 249.856 181.198 250.267C181.198 250.689 181.581 251.006 182.348 251.217C183.125 251.428 184.114 251.533 185.314 251.533ZM192.079 241.9V240.9H195.596V239.533H196.812V240.9H200.329V241.9H192.079ZM203.046 243.717V247.067H201.846V239.767H203.046V242.55H204.812V243.717H203.046ZM196.213 247.117C195.179 247.117 194.329 246.911 193.663 246.5C192.996 246.089 192.663 245.544 192.663 244.867C192.663 244.189 192.996 243.644 193.663 243.233C194.329 242.822 195.179 242.617 196.213 242.617C196.879 242.617 197.479 242.711 198.013 242.9C198.557 243.078 198.979 243.339 199.279 243.683C199.59 244.017 199.746 244.411 199.746 244.867C199.746 245.322 199.59 245.722 199.279 246.067C198.979 246.4 198.557 246.661 198.013 246.85C197.479 247.028 196.879 247.117 196.213 247.117ZM196.213 243.567C195.49 243.567 194.907 243.689 194.463 243.933C194.029 244.178 193.813 244.489 193.813 244.867C193.813 245.244 194.029 245.556 194.463 245.8C194.907 246.044 195.49 246.167 196.213 246.167C196.935 246.167 197.513 246.044 197.946 245.8C198.379 245.556 198.596 245.244 198.596 244.867C198.596 244.489 198.379 244.178 197.946 243.933C197.513 243.689 196.935 243.567 196.213 243.567ZM203.046 247.633V252.367H192.963V247.633H194.146V248.933H201.863V247.633H203.046ZM201.863 249.9H194.146V251.367H201.863V249.9ZM215.377 252.583V239.767H216.594V252.567L215.377 252.583ZM211.011 250.6C211.589 250.6 212.161 250.544 212.727 250.433C213.305 250.311 213.783 250.156 214.161 249.967V251.133C213.794 251.333 213.322 251.489 212.744 251.6C212.177 251.711 211.6 251.767 211.011 251.767H206.027V240.183H207.261V250.6H211.011ZM229.442 246.267V252.567H228.242V239.767H229.442V245.067H231.209V246.267H229.442ZM223.926 250.617C224.503 250.617 225.081 250.561 225.659 250.45C226.237 250.328 226.709 250.172 227.076 249.983V251.15C226.72 251.339 226.248 251.489 225.659 251.6C225.07 251.711 224.476 251.767 223.876 251.767H219.109V240.267H226.126V241.417H220.326V250.617H223.926ZM232.941 252.083C232.685 252.083 232.468 252 232.291 251.833C232.124 251.656 232.041 251.433 232.041 251.167C232.041 250.911 232.124 250.7 232.291 250.533C232.468 250.356 232.685 250.267 232.941 250.267C233.196 250.267 233.407 250.356 233.574 250.533C233.752 250.7 233.841 250.911 233.841 251.167C233.841 251.433 233.752 251.656 233.574 251.833C233.407 252 233.196 252.083 232.941 252.083Z" fill="#A8A8A8"/>
<rect x="20.5" y="300.5" width="361" height="61" rx="14.5" stroke="#A8A8A8"/>
<rect x="20.5" y="372.5" width="361" height="61" rx="14.5" stroke="#A8A8A8"/>
<line x1="193" y1="402.5" x2="209" y2="402.5" stroke="#A8A8A8"/>
<rect x="20.5" y="444.5" width="361" height="61" rx="14.5" stroke="#A8A8A8"/>
<path d="M55.4334 338.68V323.32H56.8934V338.68H55.4334ZM48.3934 323.72C49.7267 323.72 50.7867 324.32 51.5734 325.52C52.3734 326.72 52.7734 328.487 52.7734 330.82C52.7734 333.153 52.3734 334.92 51.5734 336.12C50.7867 337.32 49.7267 337.92 48.3934 337.92C47.06 337.92 45.9934 337.32 45.1934 336.12C44.4067 334.92 44.0134 333.153 44.0134 330.82C44.0134 328.487 44.4067 326.72 45.1934 325.52C45.9934 324.32 47.06 323.72 48.3934 323.72ZM48.3934 325.1C47.5 325.1 46.7867 325.58 46.2534 326.54C45.72 327.487 45.4534 328.913 45.4534 330.82C45.4534 332.74 45.72 334.173 46.2534 335.12C46.7867 336.067 47.5 336.54 48.3934 336.54C49.26 336.54 49.9667 336.067 50.5134 335.12C51.06 334.16 51.3334 332.727 51.3334 330.82C51.3334 328.927 51.06 327.5 50.5134 326.54C49.9667 325.58 49.26 325.1 48.3934 325.1ZM61.6913 327.16V328.74H72.8713V329.82H60.2913V326.18H71.2513V324.64H60.2713V323.54H72.6513V327.16H61.6913ZM59.1713 332.42V331.24H73.7313V332.42H59.1713ZM60.2313 338.46V333.86H72.6713V338.46H60.2313ZM71.2513 335.04H61.6713V337.28H71.2513V335.04ZM92.5242 331.32H91.0642V323.32H92.5242V331.32ZM88.3042 327.28C88.3042 328.027 88.1176 328.687 87.7442 329.26C87.3842 329.833 86.8576 330.28 86.1642 330.6C85.4842 330.92 84.6842 331.08 83.7642 331.08C82.8442 331.08 82.0376 330.92 81.3442 330.6C80.6642 330.28 80.1376 329.833 79.7642 329.26C79.4042 328.687 79.2242 328.027 79.2242 327.28C79.2242 326.547 79.4042 325.893 79.7642 325.32C80.1376 324.747 80.6642 324.3 81.3442 323.98C82.0376 323.66 82.8442 323.5 83.7642 323.5C84.6842 323.5 85.4842 323.66 86.1642 323.98C86.8576 324.3 87.3842 324.747 87.7442 325.32C88.1176 325.893 88.3042 326.547 88.3042 327.28ZM80.6642 327.28C80.6642 328.067 80.9509 328.687 81.5242 329.14C82.0976 329.593 82.8442 329.82 83.7642 329.82C84.6976 329.82 85.4442 329.593 86.0042 329.14C86.5642 328.687 86.8442 328.067 86.8442 327.28C86.8442 326.493 86.5642 325.873 86.0042 325.42C85.4442 324.967 84.6976 324.74 83.7642 324.74C82.8442 324.74 82.0976 324.973 81.5242 325.44C80.9509 325.893 80.6642 326.507 80.6642 327.28ZM92.5242 332.02V338.44H80.4242V332.02H81.8642V333.84H91.0842V332.02H92.5242ZM91.0842 335.08H81.8642V337.18H91.0842V335.08ZM108.462 332.94H107.042V329.7H104.202V328.4H107.042V326.54H104.202V325.22H107.042V323.32H108.462V332.94ZM101.722 324.98H95.4221V323.74H103.142V328.56H96.8821V331H100.182C101.235 331 102.195 330.947 103.062 330.84C103.929 330.733 104.582 330.587 105.022 330.4V331.6C104.595 331.787 103.935 331.94 103.042 332.06C102.162 332.167 101.169 332.22 100.062 332.22H95.4621V327.38H101.722V324.98ZM108.462 333.84V338.64H107.002V335.14H96.0221V333.84H108.462Z" fill="#A8A8A8"/>
<path d="M51.12 403.8V395.4H52.48V398.32H55.22V395.32H56.6V404.3H55.22V399.72H52.48V403.8H51.12ZM46.54 400.3C45.7667 402.22 44.4733 403.387 42.66 403.8V402.4C44.8333 401.733 45.92 399.433 45.92 395.5L47.32 395.54C47.32 396.753 47.22 397.86 47.02 398.86L50.52 402.36L49.58 403.36L46.54 400.3ZM50.36 404.66C52.2533 404.66 53.8 404.9 55 405.38C56.2133 405.86 56.82 406.62 56.82 407.66C56.82 408.7 56.22 409.46 55.02 409.94C53.82 410.407 52.2667 410.64 50.36 410.64C48.4533 410.64 46.9 410.407 45.7 409.94C44.5133 409.46 43.92 408.7 43.92 407.66C43.92 406.62 44.52 405.86 45.72 405.38C46.92 404.9 48.4667 404.66 50.36 404.66ZM50.36 409.38C51.76 409.38 52.9333 409.247 53.88 408.98C54.8267 408.7 55.3 408.26 55.3 407.66C55.3 407.06 54.8267 406.627 53.88 406.36C52.9333 406.08 51.76 405.94 50.36 405.94C48.96 405.94 47.7867 406.08 46.84 406.36C45.9067 406.627 45.44 407.06 45.44 407.66C45.44 408.26 45.9067 408.7 46.84 408.98C47.7867 409.247 48.96 409.38 50.36 409.38ZM65.2579 401.5V400.26H70.7179V398.34H65.2579V397.08H70.7179V395.32H72.1379V406.8H70.7179V401.5H65.2579ZM68.8579 404.26C67.8712 404.673 66.2112 404.88 63.8779 404.88H59.1379V395.64H60.5779V403.58H63.9979C66.2112 403.58 67.8312 403.373 68.8579 402.96V404.26ZM72.4779 410.44H59.8379V406.22H61.2979V409.08H72.4779V410.44ZM79.3558 400.7C78.0624 400.7 77.0291 400.46 76.2558 399.98C75.4958 399.5 75.1158 398.853 75.1158 398.04C75.1158 397.227 75.4958 396.58 76.2558 396.1C77.0291 395.62 78.0624 395.38 79.3558 395.38C80.6358 395.38 81.6558 395.62 82.4158 396.1C83.1891 396.58 83.5758 397.227 83.5758 398.04C83.5758 398.853 83.1891 399.5 82.4158 399.98C81.6558 400.46 80.6358 400.7 79.3558 400.7ZM84.3758 398.82V397.46H86.5358V395.32H87.9758V403.66H86.5358V398.82H84.3758ZM79.3558 396.54C78.5024 396.54 77.8158 396.68 77.2958 396.96C76.7891 397.227 76.5358 397.587 76.5358 398.04C76.5358 398.507 76.7891 398.88 77.2958 399.16C77.8158 399.427 78.5024 399.56 79.3558 399.56C80.2091 399.56 80.8891 399.427 81.3958 399.16C81.9158 398.88 82.1758 398.507 82.1758 398.04C82.1758 397.587 81.9158 397.227 81.3958 396.96C80.8758 396.68 80.1958 396.54 79.3558 396.54ZM88.3758 410.44H75.7158V407H86.5358V405.64H75.6758V404.56H78.5158V403H74.3358V401.82H80.2358C82.5958 401.82 84.2558 401.613 85.2158 401.2V402.38C84.7624 402.58 84.0958 402.733 83.2158 402.84C82.3358 402.947 81.3224 403 80.1758 403H79.9558V404.56H87.9758V407.98H77.1358V409.36H88.3758V410.44ZM102.254 402.88V395.32H103.714V402.88H102.254ZM94.9737 395.5C95.8803 395.5 96.6737 395.653 97.3537 395.96C98.0337 396.267 98.5537 396.687 98.9137 397.22C99.2737 397.753 99.4537 398.367 99.4537 399.06C99.4537 399.74 99.2737 400.353 98.9137 400.9C98.5537 401.433 98.0337 401.853 97.3537 402.16C96.6737 402.453 95.8803 402.6 94.9737 402.6C94.0537 402.6 93.2537 402.453 92.5737 402.16C91.907 401.853 91.3937 401.433 91.0337 400.9C90.6737 400.367 90.4937 399.753 90.4937 399.06C90.4937 398.367 90.6737 397.753 91.0337 397.22C91.3937 396.687 91.907 396.267 92.5737 395.96C93.2537 395.653 94.0537 395.5 94.9737 395.5ZM94.9737 396.74C94.0537 396.74 93.3137 396.947 92.7537 397.36C92.1937 397.76 91.9137 398.327 91.9137 399.06C91.9137 399.793 92.1937 400.36 92.7537 400.76C93.3137 401.16 94.0537 401.36 94.9737 401.36C95.8937 401.36 96.6337 401.16 97.1937 400.76C97.7537 400.36 98.0337 399.793 98.0337 399.06C98.0337 398.327 97.7537 397.76 97.1937 397.36C96.6337 396.947 95.8937 396.74 94.9737 396.74ZM93.0737 407.66V409.28H104.114V410.44H91.6337V406.58H102.274V404.94H91.5937V403.78H103.714V407.66H93.0737Z" fill="#A8A8A8"/>
<path d="M57.2 476.5H42.64V475.32H49.2V473.78H43.76V467.54H56.22V468.62H45.18V470.16H55.96V471.16H45.18V472.72H56.34V473.78H50.64V475.32H57.2V476.5ZM49.92 477.7C51.7867 477.7 53.3133 477.9 54.5 478.3C55.6867 478.7 56.28 479.333 56.28 480.2C56.28 481.053 55.6867 481.68 54.5 482.08C53.3133 482.493 51.7867 482.7 49.92 482.7C48.0533 482.7 46.5267 482.493 45.34 482.08C44.1533 481.68 43.56 481.053 43.56 480.2C43.56 479.333 44.1533 478.7 45.34 478.3C46.5267 477.9 48.0533 477.7 49.92 477.7ZM49.92 481.54C51.2667 481.54 52.4067 481.433 53.34 481.22C54.2867 480.993 54.76 480.653 54.76 480.2C54.76 479.747 54.2867 479.407 53.34 479.18C52.3933 478.953 51.2533 478.84 49.92 478.84C48.5733 478.84 47.4267 478.953 46.48 479.18C45.5333 479.407 45.06 479.747 45.06 480.2C45.06 480.653 45.5333 480.993 46.48 481.22C47.4267 481.433 48.5733 481.54 49.92 481.54ZM70.5779 478.74V467.32H72.0379V478.74H70.5779ZM63.5779 472.62C63.0312 473.633 62.3446 474.473 61.5179 475.14C60.6912 475.793 59.7579 476.2 58.7179 476.36V474.94C59.6512 474.753 60.4646 474.3 61.1579 473.58C61.8646 472.86 62.4046 471.967 62.7779 470.9C63.1512 469.833 63.3379 468.693 63.3379 467.48L64.7779 467.56C64.7779 468.933 64.5712 470.193 64.1579 471.34L68.9379 475.1L68.0579 476.22L63.5779 472.62ZM72.4579 482.44H59.7779V477.66H61.2379V481.06H72.4579V482.44ZM87.4558 475.12V482.68H86.0158V467.32H87.4558V473.68H89.5758V475.12H87.4558ZM80.5158 467.76C80.4891 470.267 80.2958 472.413 79.9358 474.2L84.6358 480.82L83.4558 481.68L79.4558 475.98C78.9624 477.7 78.2891 479.06 77.4358 480.06C76.5824 481.047 75.5958 481.6 74.4758 481.72V480.22C75.4491 480.047 76.2758 479.387 76.9558 478.24C77.6491 477.093 78.1691 475.607 78.5158 473.78C78.8624 471.953 79.0424 469.933 79.0558 467.72L80.5158 467.76Z" fill="#191919"/>
<path d="M237 410.14C235.92 410.14 234.953 409.853 234.1 409.28C233.247 408.693 232.58 407.86 232.1 406.78C231.633 405.7 231.4 404.44 231.4 403C231.4 401.56 231.633 400.3 232.1 399.22C232.58 398.14 233.247 397.313 234.1 396.74C234.953 396.153 235.92 395.86 237 395.86C238.093 395.86 239.06 396.153 239.9 396.74C240.753 397.313 241.413 398.14 241.88 399.22C242.36 400.287 242.6 401.547 242.6 403C242.6 404.453 242.36 405.72 241.88 406.8C241.413 407.867 240.753 408.693 239.9 409.28C239.06 409.853 238.093 410.14 237 410.14ZM237 408.8C237.813 408.8 238.527 408.573 239.14 408.12C239.753 407.667 240.227 407.007 240.56 406.14C240.907 405.273 241.08 404.227 241.08 403C241.08 401.773 240.907 400.727 240.56 399.86C240.227 398.993 239.753 398.333 239.14 397.88C238.527 397.427 237.813 397.2 237 397.2C236.2 397.2 235.493 397.427 234.88 397.88C234.267 398.333 233.787 398.993 233.44 399.86C233.107 400.727 232.94 401.773 232.94 403C232.94 404.227 233.107 405.273 233.44 406.14C233.787 407.007 234.267 407.667 234.88 408.12C235.493 408.573 236.2 408.8 237 408.8Z" fill="#A8A8A8"/>
<path d="M136.2 470.3V468.98H142.16V466.94H143.62V468.98H149.62V470.3H136.2ZM136.92 474.24C136.92 473.307 137.467 472.607 138.56 472.14C139.667 471.66 141.12 471.42 142.92 471.42C144.72 471.42 146.167 471.66 147.26 472.14C148.367 472.607 148.92 473.307 148.92 474.24C148.92 475.173 148.367 475.88 147.26 476.36C146.167 476.827 144.72 477.06 142.92 477.06C141.12 477.06 139.667 476.827 138.56 476.36C137.467 475.88 136.92 475.173 136.92 474.24ZM147.44 474.24C147.44 473.707 147.027 473.313 146.2 473.06C145.373 472.793 144.28 472.66 142.92 472.66C141.547 472.66 140.447 472.793 139.62 473.06C138.807 473.313 138.4 473.707 138.4 474.24C138.4 474.76 138.813 475.153 139.64 475.42C140.467 475.687 141.56 475.82 142.92 475.82C144.28 475.82 145.373 475.687 146.2 475.42C147.027 475.153 147.44 474.76 147.44 474.24ZM146.48 479.58V483.04H145.04V479.58H140.78V483.04H139.34V479.58H135.64V478.26H150.2V479.58H146.48ZM165.438 482.68H164.058V475.04H161.418V482.42H160.058V467.4H161.418V473.62H164.058V467.32H165.438V482.68ZM155.498 480.36C156.125 480.36 156.738 480.307 157.338 480.2C157.938 480.093 158.458 479.947 158.898 479.76V481.1C158.458 481.3 157.925 481.453 157.298 481.56C156.671 481.667 156.011 481.72 155.318 481.72H151.978V467.92H158.278V469.28H153.378V480.36H155.498ZM181.876 477.16H167.316V475.88H173.876V473.94H168.176V472.68H170.836V468.8H168.336V467.54H180.856V468.8H178.336V472.68H180.996V473.94H175.316V475.88H181.876V477.16ZM176.896 472.68V468.8H172.296V472.68H176.896ZM181.096 481.16V482.46H168.376V478.38H169.836V481.16H181.096ZM187.769 476.18V467.62H189.169V470.4H194.789V467.62H196.229V471.16H199.329V467.32H200.769V478.74H199.329V472.58H196.229V476.18H187.769ZM194.789 471.7H189.169V474.88H194.789V471.7ZM201.109 482.44H188.469V477.62H189.929V481.06H201.109V482.44ZM203.467 470.8V469.42H209.467V467.12H210.927V469.42H216.967V470.8H203.467ZM217.507 481.9H202.947V480.54H209.507V477.96C207.88 477.893 206.58 477.62 205.607 477.14C204.647 476.647 204.167 475.927 204.167 474.98C204.167 473.953 204.72 473.193 205.827 472.7C206.933 472.207 208.4 471.96 210.227 471.96C212.04 471.96 213.5 472.207 214.607 472.7C215.713 473.193 216.267 473.953 216.267 474.98C216.267 475.927 215.78 476.647 214.807 477.14C213.847 477.62 212.56 477.893 210.947 477.96V480.54H217.507V481.9ZM205.647 474.98C205.647 475.567 206.06 476 206.887 476.28C207.727 476.56 208.84 476.7 210.227 476.7C211.6 476.7 212.7 476.56 213.527 476.28C214.367 476 214.787 475.567 214.787 474.98C214.787 474.38 214.367 473.94 213.527 473.66C212.7 473.38 211.6 473.24 210.227 473.24C208.84 473.24 207.727 473.38 206.887 473.66C206.06 473.94 205.647 474.38 205.647 474.98ZM236.3 475.32H234.84V467.32H236.3V475.32ZM232.08 471.28C232.08 472.027 231.893 472.687 231.52 473.26C231.16 473.833 230.633 474.28 229.94 474.6C229.26 474.92 228.46 475.08 227.54 475.08C226.62 475.08 225.813 474.92 225.12 474.6C224.44 474.28 223.913 473.833 223.54 473.26C223.18 472.687 223 472.027 223 471.28C223 470.547 223.18 469.893 223.54 469.32C223.913 468.747 224.44 468.3 225.12 467.98C225.813 467.66 226.62 467.5 227.54 467.5C228.46 467.5 229.26 467.66 229.94 467.98C230.633 468.3 231.16 468.747 231.52 469.32C231.893 469.893 232.08 470.547 232.08 471.28ZM224.44 471.28C224.44 472.067 224.726 472.687 225.3 473.14C225.873 473.593 226.62 473.82 227.54 473.82C228.473 473.82 229.22 473.593 229.78 473.14C230.34 472.687 230.62 472.067 230.62 471.28C230.62 470.493 230.34 469.873 229.78 469.42C229.22 468.967 228.473 468.74 227.54 468.74C226.62 468.74 225.873 468.973 225.3 469.44C224.726 469.893 224.44 470.507 224.44 471.28ZM236.3 476.02V482.44H224.2V476.02H225.64V477.84H234.86V476.02H236.3ZM234.86 479.08H225.64V481.18H234.86V479.08ZM252.237 476.94H250.817V473.7H247.977V472.4H250.817V470.54H247.977V469.22H250.817V467.32H252.237V476.94ZM245.498 468.98H239.198V467.74H246.918V472.56H240.657V475H243.958C245.011 475 245.971 474.947 246.838 474.84C247.704 474.733 248.358 474.587 248.798 474.4V475.6C248.371 475.787 247.711 475.94 246.818 476.06C245.938 476.167 244.944 476.22 243.837 476.22H239.238V471.38H245.498V468.98ZM252.237 477.84V482.64H250.778V479.14H239.798V477.84H252.237Z" fill="#A8A8A8"/>
<path d="M264.38 404.16L263.86 405.08L261.38 403.62V406.44H260.38V403.64L257.9 405.08L257.4 404.16L259.86 402.78L257.4 401.4L257.9 400.5L260.38 401.94V399.14H261.38V401.94L263.86 400.5L264.38 401.4L261.92 402.78L264.38 404.16ZM279.872 404.16L279.352 405.08L276.872 403.62V406.44H275.872V403.64L273.392 405.08L272.892 404.16L275.352 402.78L272.892 401.4L273.392 400.5L275.872 401.94V399.14H276.872V401.94L279.352 400.5L279.872 401.4L277.412 402.78L279.872 404.16ZM295.364 404.16L294.844 405.08L292.364 403.62V406.44H291.364V403.64L288.884 405.08L288.384 404.16L290.844 402.78L288.384 401.4L288.884 400.5L291.364 401.94V399.14H292.364V401.94L294.844 400.5L295.364 401.4L292.904 402.78L295.364 404.16ZM310.856 404.16L310.336 405.08L307.856 403.62V406.44H306.856V403.64L304.376 405.08L303.876 404.16L306.336 402.78L303.876 401.4L304.376 400.5L306.856 401.94V399.14H307.856V401.94L310.336 400.5L310.856 401.4L308.396 402.78L310.856 404.16ZM326.348 404.16L325.828 405.08L323.348 403.62V406.44H322.348V403.64L319.868 405.08L319.368 404.16L321.828 402.78L319.368 401.4L319.868 400.5L322.348 401.94V399.14H323.348V401.94L325.828 400.5L326.348 401.4L323.888 402.78L326.348 404.16ZM341.84 404.16L341.32 405.08L338.84 403.62V406.44H337.84V403.64L335.36 405.08L334.86 404.16L337.32 402.78L334.86 401.4L335.36 400.5L337.84 401.94V399.14H338.84V401.94L341.32 400.5L341.84 401.4L339.38 402.78L341.84 404.16Z" fill="#191919"/>
<path d="M110 472L105 477L100 472" stroke="#191919" stroke-linecap="round" stroke-linejoin="round"/>
<path d="M20 764C20 747.431 33.4315 734 50 734H352C368.569 734 382 747.431 382 764C382 780.569 368.569 794 352 794H50C33.4315 794 20 780.569 20 764Z" fill="#A8A8A8"/>
<path d="M179.622 768.356V755.689H182.022V768.356H179.622ZM171.933 755.8C172.97 755.8 173.881 756.015 174.667 756.444C175.467 756.859 176.081 757.452 176.511 758.222C176.941 758.978 177.156 759.844 177.156 760.822C177.156 761.8 176.941 762.674 176.511 763.444C176.081 764.2 175.467 764.793 174.667 765.222C173.881 765.637 172.97 765.844 171.933 765.844C170.896 765.844 169.978 765.637 169.178 765.222C168.393 764.793 167.785 764.2 167.356 763.444C166.926 762.674 166.711 761.8 166.711 760.822C166.711 759.844 166.926 758.978 167.356 758.222C167.785 757.452 168.393 756.859 169.178 756.444C169.978 756.015 170.896 755.8 171.933 755.8ZM171.933 757.933C171.104 757.933 170.43 758.193 169.911 758.711C169.393 759.215 169.133 759.919 169.133 760.822C169.133 761.726 169.393 762.437 169.911 762.956C170.43 763.474 171.104 763.733 171.933 763.733C172.778 763.733 173.459 763.474 173.978 762.956C174.496 762.437 174.756 761.726 174.756 760.822C174.756 759.919 174.496 759.215 173.978 758.711C173.459 758.193 172.778 757.933 171.933 757.933ZM182.378 770.356V772.622H168.156V766.889H170.6V770.356H182.378ZM191.998 760.289C191.183 760.896 190.161 761.37 188.931 761.711C187.716 762.037 186.427 762.215 185.064 762.244V760.244C186.427 760.215 187.701 759.985 188.887 759.556C190.087 759.111 190.864 758.526 191.22 757.8H185.287V755.822H199.509V757.8H193.864C193.85 758.096 193.753 758.393 193.575 758.689L199.931 760.378L199.353 762.311L191.998 760.289ZM200.531 765.289H184.242V763.311H200.531V765.289ZM192.398 766.489C194.62 766.489 196.383 766.741 197.687 767.244C198.99 767.733 199.642 768.541 199.642 769.667C199.642 770.793 198.983 771.607 197.664 772.111C196.361 772.615 194.605 772.867 192.398 772.867C190.19 772.867 188.427 772.615 187.109 772.111C185.805 771.607 185.153 770.793 185.153 769.667C185.153 768.541 185.805 767.733 187.109 767.244C188.412 766.741 190.175 766.489 192.398 766.489ZM192.398 770.933C193.79 770.933 194.916 770.837 195.775 770.644C196.635 770.437 197.064 770.111 197.064 769.667C197.064 769.222 196.635 768.904 195.775 768.711C194.931 768.519 193.805 768.422 192.398 768.422C189.272 768.422 187.709 768.837 187.709 769.667C187.709 770.111 188.138 770.437 188.998 770.644C189.857 770.837 190.99 770.933 192.398 770.933ZM212.729 758.089V760.422H202.218V758.089H206.24V755.622H208.706V758.089H212.729ZM216.751 764.778V772.756H214.351V755.689H216.751V762.333H218.884V764.778H216.751ZM207.462 761.511C208.366 761.511 209.166 761.741 209.862 762.2C210.558 762.644 211.099 763.267 211.484 764.067C211.869 764.867 212.062 765.77 212.062 766.778C212.062 767.785 211.869 768.689 211.484 769.489C211.099 770.289 210.558 770.911 209.862 771.356C209.166 771.8 208.366 772.022 207.462 772.022C206.558 772.022 205.758 771.8 205.062 771.356C204.366 770.911 203.825 770.289 203.44 769.489C203.055 768.689 202.862 767.785 202.862 766.778C202.862 765.77 203.055 764.867 203.44 764.067C203.825 763.267 204.366 762.644 205.062 762.2C205.758 761.741 206.558 761.511 207.462 761.511ZM207.462 769.844C208.129 769.844 208.677 769.563 209.106 769C209.536 768.437 209.751 767.696 209.751 766.778C209.751 765.844 209.536 765.104 209.106 764.556C208.692 763.993 208.143 763.711 207.462 763.711C206.78 763.711 206.225 763.993 205.795 764.556C205.38 765.104 205.173 765.844 205.173 766.778C205.173 767.696 205.388 768.437 205.818 769C206.247 769.563 206.795 769.844 207.462 769.844ZM232.415 772.756V755.689H234.815V772.756H232.415ZM229.304 760.533C229.304 762.815 228.926 764.807 228.171 766.511C227.43 768.2 226.371 769.504 224.993 770.422C223.615 771.341 222.008 771.8 220.171 771.8V769.4C221.563 769.4 222.756 769.044 223.749 768.333C224.756 767.607 225.519 766.585 226.037 765.267C226.571 763.933 226.837 762.363 226.837 760.556V758.533H220.171V756.222H229.304V760.533Z" fill="white"/>
<defs>
<linearGradient id="paint0_linear_405_1559" x1="36.988" y1="124" x2="46.1825" y2="153.663" gradientUnits="userSpaceOnUse">
<stop stop-color="#542BB4"/>
<stop offset="1" stop-color="#E95AA4"/>
</linearGradient>
</defs>
</svg>
