<svg width="402" height="874" viewBox="0 0 402 874" fill="none" xmlns="http://www.w3.org/2000/svg">
<rect width="402" height="874" fill="white"/>
<path d="M34.5778 189H32.0667V182.222H24.1333V189H21.6222V173.444H24.1333V179.978H32.0667V173.444H34.5778V189ZM44.747 189.2C43.2359 189.2 41.8729 188.859 40.6581 188.178C39.4581 187.481 38.5173 186.526 37.8359 185.311C37.1544 184.096 36.8136 182.733 36.8136 181.222C36.8136 179.711 37.1544 178.348 37.8359 177.133C38.5173 175.919 39.4581 174.97 40.6581 174.289C41.8729 173.593 43.2359 173.244 44.747 173.244C46.2433 173.244 47.5914 173.593 48.7914 174.289C50.0062 174.97 50.9544 175.919 51.6359 177.133C52.3321 178.348 52.6803 179.711 52.6803 181.222C52.6803 182.733 52.3321 184.096 51.6359 185.311C50.9544 186.526 50.0062 187.481 48.7914 188.178C47.5914 188.859 46.2433 189.2 44.747 189.2ZM44.747 186.933C45.7544 186.933 46.6655 186.689 47.4803 186.2C48.3099 185.711 48.9544 185.037 49.4136 184.178C49.8877 183.304 50.1247 182.319 50.1247 181.222C50.1247 180.126 49.8877 179.148 49.4136 178.289C48.9544 177.415 48.3099 176.733 47.4803 176.244C46.6655 175.756 45.7544 175.511 44.747 175.511C43.7247 175.511 42.7988 175.756 41.9692 176.244C41.1544 176.733 40.5099 177.415 40.0359 178.289C39.5766 179.148 39.347 180.126 39.347 181.222C39.347 182.319 39.5766 183.304 40.0359 184.178C40.5099 185.037 41.1544 185.711 41.9692 186.2C42.7988 186.689 43.7247 186.933 44.747 186.933ZM57.5674 173.444V186.822H65.3674V189H55.0341V173.444H57.5674ZM73.3407 189.2C71.8296 189.2 70.4666 188.859 69.2518 188.178C68.0518 187.481 67.1111 186.526 66.4296 185.311C65.7481 184.096 65.4074 182.733 65.4074 181.222C65.4074 179.711 65.7481 178.348 66.4296 177.133C67.1111 175.919 68.0518 174.97 69.2518 174.289C70.4666 173.593 71.8296 173.244 73.3407 173.244C74.837 173.244 76.1852 173.593 77.3852 174.289C78.6 174.97 79.5481 175.919 80.2296 177.133C80.9259 178.348 81.274 179.711 81.274 181.222C81.274 182.733 80.9259 184.096 80.2296 185.311C79.5481 186.526 78.6 187.481 77.3852 188.178C76.1852 188.859 74.837 189.2 73.3407 189.2ZM73.3407 186.933C74.3481 186.933 75.2592 186.689 76.074 186.2C76.9037 185.711 77.5481 185.037 78.0074 184.178C78.4815 183.304 78.7185 182.319 78.7185 181.222C78.7185 180.126 78.4815 179.148 78.0074 178.289C77.5481 177.415 76.9037 176.733 76.074 176.244C75.2592 175.756 74.3481 175.511 73.3407 175.511C72.3185 175.511 71.3926 175.756 70.5629 176.244C69.7481 176.733 69.1037 177.415 68.6296 178.289C68.1703 179.148 67.9407 180.126 67.9407 181.222C67.9407 182.319 68.1703 183.304 68.6296 184.178C69.1037 185.037 69.7481 185.711 70.5629 186.2C71.3926 186.689 72.3185 186.933 73.3407 186.933ZM98.3612 189.756H96.0945V172.689H98.3612V189.756ZM94.3612 172.778V189.467H92.1168V181.978H90.3612C90.2871 184.422 89.9316 186.215 89.2945 187.356C88.6575 188.481 87.7316 189.044 86.5168 189.044C85.2427 189.044 84.2797 188.4 83.6279 187.111C82.9908 185.822 82.6723 183.793 82.6723 181.022C82.6723 178.252 82.9908 176.222 83.6279 174.933C84.2797 173.644 85.2427 173 86.5168 173C87.6871 173 88.5908 173.533 89.2279 174.6C89.8649 175.652 90.2427 177.304 90.3612 179.556H92.1168V172.778H94.3612ZM86.5168 186.756C87.0797 186.756 87.4871 186.296 87.739 185.378C88.0056 184.444 88.139 182.993 88.139 181.022C88.139 179.052 88.0056 177.607 87.739 176.689C87.4871 175.756 87.0797 175.289 86.5168 175.289C85.9686 175.289 85.5612 175.756 85.2945 176.689C85.0427 177.622 84.9168 179.067 84.9168 181.022C84.9168 182.978 85.0427 184.422 85.2945 185.356C85.5612 186.289 85.9686 186.756 86.5168 186.756ZM115.626 189.756H113.226V180.956H109.337V178.6H113.226V172.689H115.626V189.756ZM107.159 173.156C107.159 175.422 107.011 177.526 106.714 179.467L111.648 187.467L109.581 188.844L105.914 182.622C105.307 184.548 104.522 186.044 103.559 187.111C102.596 188.178 101.485 188.748 100.226 188.822V186.222C101.159 186.074 101.959 185.415 102.626 184.244C103.307 183.074 103.826 181.519 104.181 179.578C104.537 177.637 104.714 175.467 104.714 173.067L107.159 173.156ZM137.04 181.778V189.756H134.64V172.689H137.04V179.333H139.173V181.778H137.04ZM129.373 173.156C129.373 175.733 129.166 178.081 128.751 180.2L133.707 187.333L131.751 188.8L127.907 183.133C127.284 184.896 126.492 186.274 125.529 187.267C124.566 188.244 123.462 188.763 122.218 188.822V186.244C123.181 186.096 124.018 185.437 124.729 184.267C125.44 183.081 125.981 181.519 126.351 179.578C126.721 177.637 126.914 175.467 126.929 173.067L129.373 173.156ZM156.015 182.444H139.726V180.467H143.082V178.533C141.438 177.97 140.615 177.081 140.615 175.867C140.615 174.726 141.282 173.881 142.615 173.333C143.949 172.785 145.704 172.511 147.882 172.511C150.06 172.511 151.808 172.785 153.126 173.333C154.46 173.881 155.126 174.726 155.126 175.867C155.126 177.081 154.312 177.97 152.682 178.533V180.467H156.015V182.444ZM147.882 174.444C146.475 174.444 145.334 174.563 144.46 174.8C143.601 175.037 143.171 175.393 143.171 175.867C143.171 176.341 143.601 176.696 144.46 176.933C145.334 177.156 146.475 177.267 147.882 177.267C149.289 177.267 150.423 177.156 151.282 176.933C152.141 176.696 152.571 176.341 152.571 175.867C152.571 175.393 152.141 175.037 151.282 174.8C150.423 174.563 149.289 174.444 147.882 174.444ZM150.282 180.467V179.067C149.719 179.156 148.919 179.2 147.882 179.2C146.845 179.2 146.045 179.156 145.482 179.067V180.467H150.282ZM147.882 183.489C150.104 183.489 151.867 183.741 153.171 184.244C154.475 184.733 155.126 185.541 155.126 186.667C155.126 187.793 154.467 188.607 153.149 189.111C151.845 189.615 150.089 189.867 147.882 189.867C145.675 189.867 143.912 189.615 142.593 189.111C141.289 188.607 140.638 187.793 140.638 186.667C140.638 185.541 141.289 184.733 142.593 184.244C143.897 183.741 145.66 183.489 147.882 183.489ZM147.882 187.933C149.275 187.933 150.401 187.837 151.26 187.644C152.119 187.437 152.549 187.111 152.549 186.667C152.549 186.222 152.119 185.904 151.26 185.711C150.415 185.519 149.289 185.422 147.882 185.422C144.756 185.422 143.193 185.837 143.193 186.667C143.193 187.111 143.623 187.437 144.482 187.644C145.341 187.837 146.475 187.933 147.882 187.933ZM157.257 175.6V173.778H161.524V172.356H163.991V173.778H168.302V175.6H157.257ZM174.369 178.222H172.235V181.578H169.835V172.689H172.235V175.933H174.369V178.222ZM162.769 181.622C161.361 181.622 160.206 181.393 159.302 180.933C158.398 180.459 157.946 179.793 157.946 178.933C157.946 178.059 158.398 177.393 159.302 176.933C160.206 176.474 161.361 176.244 162.769 176.244C164.176 176.244 165.332 176.474 166.235 176.933C167.139 177.393 167.591 178.059 167.591 178.933C167.591 179.793 167.139 180.459 166.235 180.933C165.332 181.393 164.176 181.622 162.769 181.622ZM162.769 177.933C161.983 177.933 161.361 178.022 160.902 178.2C160.443 178.378 160.213 178.622 160.213 178.933C160.213 179.244 160.443 179.489 160.902 179.667C161.361 179.844 161.983 179.933 162.769 179.933C163.554 179.933 164.176 179.844 164.635 179.667C165.095 179.489 165.324 179.244 165.324 178.933C165.324 178.622 165.095 178.378 164.635 178.2C164.176 178.022 163.554 177.933 162.769 177.933ZM172.546 187.911V189.622H158.391V185.2H169.88V184.089H158.346V182.356H172.235V186.778H160.769V187.911H172.546Z" fill="#191919"/>
<path d="M37.6889 207.356H35.5556V211.111H33.1556V201.689H35.5556V204.933H37.6889V207.356ZM32.1556 209.533C31.6815 209.756 31.0222 209.933 30.1778 210.067C29.3481 210.185 28.437 210.244 27.4444 210.244H21.1333V202.022H31.0889V204.133H23.5556V208.133H27.5778C28.5407 208.133 29.4222 208.074 30.2222 207.956C31.0222 207.837 31.6667 207.674 32.1556 207.467V209.533ZM28.6667 211.533C30.8148 211.533 32.5333 211.83 33.8222 212.422C35.1111 213 35.7556 213.919 35.7556 215.178C35.7556 216.452 35.1111 217.385 33.8222 217.978C32.5333 218.556 30.8148 218.844 28.6667 218.844C26.5185 218.844 24.8 218.556 23.5111 217.978C22.2222 217.385 21.5778 216.452 21.5778 215.178C21.5778 213.919 22.2222 213 23.5111 212.422C24.8148 211.83 26.5333 211.533 28.6667 211.533ZM28.6667 216.778C30.0148 216.778 31.1037 216.644 31.9333 216.378C32.763 216.111 33.1778 215.711 33.1778 215.178C33.1778 214.644 32.763 214.252 31.9333 214C31.1037 213.733 30.0148 213.6 28.6667 213.6C27.3185 213.6 26.2296 213.733 25.4 214C24.5704 214.252 24.1556 214.644 24.1556 215.178C24.1556 215.711 24.5704 216.111 25.4 216.378C26.2296 216.644 27.3185 216.778 28.6667 216.778ZM51.2199 214.356V201.689H53.6199V214.356H51.2199ZM43.9977 208.044C43.3606 209.126 42.568 210.007 41.6199 210.689C40.6717 211.356 39.6273 211.748 38.4865 211.867V209.511C39.4347 209.348 40.2643 208.911 40.9754 208.2C41.6865 207.474 42.2421 206.556 42.6421 205.444C43.0421 204.319 43.2495 203.104 43.2643 201.8L45.6865 201.956C45.6865 203.378 45.4569 204.733 44.9977 206.022L49.9977 209.844L48.5754 211.667L43.9977 208.044ZM53.9754 218.622H39.5532V212.978H41.9977V216.356H53.9754V218.622ZM68.862 218.756V201.689H71.262V218.756H68.862ZM61.4398 201.956C62.4175 201.956 63.2916 202.185 64.062 202.644C64.8324 203.104 65.4324 203.748 65.862 204.578C66.2916 205.393 66.5064 206.326 66.5064 207.378C66.5064 208.444 66.2916 209.393 65.862 210.222C65.4324 211.037 64.8324 211.674 64.062 212.133C63.2916 212.593 62.4175 212.822 61.4398 212.822C60.462 212.822 59.5805 212.593 58.7953 212.133C58.0249 211.674 57.4249 211.037 56.9953 210.222C56.5657 209.393 56.3509 208.444 56.3509 207.378C56.3509 206.311 56.5657 205.37 56.9953 204.556C57.4249 203.741 58.0249 203.104 58.7953 202.644C59.5805 202.185 60.462 201.956 61.4398 201.956ZM61.4398 204.222C60.6101 204.222 59.9435 204.526 59.4398 205.133C58.9361 205.726 58.6842 206.474 58.6842 207.378C58.6842 208.311 58.9361 209.074 59.4398 209.667C59.9435 210.259 60.6101 210.556 61.4398 210.556C62.2694 210.556 62.9361 210.259 63.4398 209.667C63.9435 209.059 64.1953 208.296 64.1953 207.378C64.1953 206.474 63.9361 205.726 63.4175 205.133C62.9138 204.526 62.2546 204.222 61.4398 204.222ZM67.662 217.044C67.1435 217.296 66.4398 217.489 65.5509 217.622C64.662 217.756 63.699 217.822 62.662 217.822H55.8398V215.467H62.7953C63.8027 215.467 64.7361 215.407 65.5953 215.289C66.4546 215.156 67.1435 214.963 67.662 214.711V217.044ZM90.8097 218.756V201.689H93.2319V218.756H90.8097ZM83.4542 202C84.9801 202 86.1875 202.674 87.0764 204.022C87.9653 205.356 88.4097 207.356 88.4097 210.022C88.4097 212.689 87.9653 214.696 87.0764 216.044C86.1875 217.378 84.9801 218.044 83.4542 218.044C81.9134 218.044 80.6912 217.378 79.7875 216.044C78.8986 214.696 78.4542 212.689 78.4542 210.022C78.4542 207.356 78.8986 205.356 79.7875 204.022C80.6912 202.674 81.9134 202 83.4542 202ZM83.4542 204.333C82.6542 204.333 82.0171 204.793 81.5431 205.711C81.069 206.63 80.8319 208.067 80.8319 210.022C80.8319 211.978 81.069 213.415 81.5431 214.333C82.0171 215.252 82.6542 215.711 83.4542 215.711C84.2394 215.711 84.8616 215.252 85.3208 214.333C85.7949 213.415 86.0319 211.978 86.0319 210.022C86.0319 208.067 85.7949 206.63 85.3208 205.711C84.8616 204.793 84.2394 204.333 83.4542 204.333ZM98.9185 206.178V207.4H110.83V209.067H96.5629V204.689H108.296V203.467H96.5407V201.822H110.652V206.178H98.9185ZM95.4296 212.089V210.2H111.718V212.089H95.4296ZM96.4963 218.622V213.244H110.674V218.622H96.4963ZM108.296 215.067H98.874V216.8H108.296V215.067ZM121.183 201.533C123.375 201.533 125.124 201.785 126.427 202.289C127.731 202.778 128.383 203.57 128.383 204.667C128.383 205.763 127.731 206.563 126.427 207.067C125.124 207.57 123.375 207.822 121.183 207.822C118.99 207.822 117.235 207.57 115.916 207.067C114.598 206.563 113.938 205.763 113.938 204.667C113.938 203.57 114.59 202.778 115.894 202.289C117.212 201.785 118.975 201.533 121.183 201.533ZM121.183 203.4C119.761 203.4 118.62 203.504 117.761 203.711C116.916 203.919 116.494 204.237 116.494 204.667C116.494 205.111 116.916 205.437 117.761 205.644C118.62 205.852 119.761 205.956 121.183 205.956C122.605 205.956 123.738 205.852 124.583 205.644C125.427 205.437 125.849 205.111 125.849 204.667C125.849 204.237 125.427 203.919 124.583 203.711C123.738 203.504 122.605 203.4 121.183 203.4ZM113.027 210.6V208.689H129.316V210.6H113.027ZM116.472 215.844V216.911H128.516V218.622H114.094V214.422H125.916V213.378H114.049V211.711H128.294V215.844H116.472ZM148.108 201.689H150.508V211.267H148.108V206.844H145.331V204.689H148.108V201.689ZM140.775 207.711C140.168 208.6 139.397 209.326 138.464 209.889C137.531 210.437 136.494 210.763 135.353 210.867V208.622C136.538 208.489 137.508 208.015 138.264 207.2C139.019 206.385 139.471 205.37 139.619 204.156H135.553V202.022H145.908V204.156H142.042C141.997 204.689 141.894 205.23 141.731 205.778L146.464 208.822L145.286 210.711L140.775 207.711ZM143.464 211.689C145.627 211.689 147.36 211.978 148.664 212.556C149.982 213.133 150.642 214.037 150.642 215.267C150.642 216.511 149.99 217.422 148.686 218C147.382 218.563 145.642 218.844 143.464 218.844C141.301 218.844 139.568 218.563 138.264 218C136.96 217.422 136.308 216.511 136.308 215.267C136.308 214.037 136.96 213.133 138.264 212.556C139.568 211.978 141.301 211.689 143.464 211.689ZM143.464 216.822C144.827 216.822 145.931 216.689 146.775 216.422C147.634 216.156 148.064 215.77 148.064 215.267C148.064 214.763 147.634 214.378 146.775 214.111C145.931 213.844 144.827 213.711 143.464 213.711C142.116 213.711 141.012 213.844 140.153 214.111C139.308 214.378 138.886 214.763 138.886 215.267C138.886 215.77 139.308 216.156 140.153 216.422C141.012 216.689 142.116 216.822 143.464 216.822ZM160.928 204.111V206.4H152.262V204.111H155.417V201.644H157.795V204.111H160.928ZM168.439 218.756H166.217V210.711H164.128V218.467H161.928V201.778H164.128V208.333H166.217V201.689H168.439V218.756ZM156.684 207.467C157.825 207.467 158.75 207.926 159.462 208.844C160.173 209.763 160.528 211.067 160.528 212.756C160.528 214.43 160.173 215.726 159.462 216.644C158.75 217.563 157.825 218.022 156.684 218.022C155.528 218.022 154.595 217.57 153.884 216.667C153.187 215.748 152.839 214.444 152.839 212.756C152.839 211.067 153.187 209.763 153.884 208.844C154.595 207.926 155.528 207.467 156.684 207.467ZM156.684 215.844C157.173 215.844 157.573 215.57 157.884 215.022C158.195 214.474 158.35 213.719 158.35 212.756C158.35 211.793 158.195 211.037 157.884 210.489C157.573 209.941 157.173 209.667 156.684 209.667C156.18 209.667 155.773 209.941 155.462 210.489C155.165 211.037 155.017 211.793 155.017 212.756C155.017 213.719 155.165 214.474 155.462 215.022C155.773 215.57 156.18 215.844 156.684 215.844ZM178.081 207.556C177.237 208.533 176.178 209.304 174.904 209.867C173.63 210.415 172.259 210.726 170.793 210.8V208.489C172.304 208.385 173.644 207.963 174.815 207.222C175.985 206.481 176.763 205.511 177.148 204.311H171.126V202.022H185.593V204.311H179.793C179.733 204.726 179.6 205.17 179.393 205.644L186.17 208.667L185.215 210.778L178.081 207.556ZM179.57 214.756V219.156H177.148V214.756H170.215V212.4H186.504V214.756H179.57ZM203.635 218.756H201.368V201.689H203.635V218.756ZM199.479 201.778V218.467H197.212V209.689H194.968V207.289H197.212V201.778H199.479ZM193.412 202.156C193.412 204.837 193.294 207.148 193.057 209.089L196.879 216.578L194.901 217.622L192.324 212.533C191.449 215.733 189.975 217.496 187.901 217.822V215.267C190.035 214.659 191.116 210.259 191.146 202.067L193.412 202.156ZM221.699 218.022H205.41V215.711H208.921V211.422C208.032 210.963 207.343 210.37 206.855 209.644C206.38 208.904 206.143 208.074 206.143 207.156C206.143 206.119 206.447 205.2 207.055 204.4C207.677 203.6 208.551 202.985 209.677 202.556C210.803 202.111 212.099 201.889 213.566 201.889C215.032 201.889 216.329 202.111 217.455 202.556C218.58 202.985 219.447 203.6 220.055 204.4C220.677 205.2 220.988 206.119 220.988 207.156C220.988 208.074 220.743 208.904 220.255 209.644C219.78 210.37 219.099 210.963 218.21 211.422V215.711H221.699V218.022ZM213.566 204.156C212.114 204.156 210.936 204.43 210.032 204.978C209.143 205.526 208.699 206.252 208.699 207.156C208.699 208.059 209.143 208.785 210.032 209.333C210.936 209.881 212.114 210.156 213.566 210.156C215.017 210.156 216.188 209.881 217.077 209.333C217.98 208.785 218.432 208.059 218.432 207.156C218.432 206.252 217.98 205.526 217.077 204.978C216.188 204.43 215.017 204.156 213.566 204.156ZM215.81 215.711V212.222C215.217 212.356 214.469 212.422 213.566 212.422C212.662 212.422 211.921 212.356 211.343 212.222V215.711H215.81ZM226.941 202.444L226.43 212.956H224.408L223.919 202.444H226.941ZM225.43 218.133C224.941 218.133 224.541 217.985 224.23 217.689C223.919 217.378 223.763 217 223.763 216.556C223.763 216.111 223.919 215.741 224.23 215.444C224.541 215.148 224.941 215 225.43 215C225.904 215 226.297 215.148 226.608 215.444C226.934 215.741 227.097 216.111 227.097 216.556C227.097 217 226.934 217.378 226.608 217.689C226.297 217.985 225.904 218.133 225.43 218.133Z" fill="#191919"/>
<path d="M20.5167 242.1V241.05H24.0333V239.533H25.25V241.05H28.7667V242.1H20.5167ZM33.25 244.583H31.4833V249.367H30.2833V239.767H31.4833V243.383H33.25V244.583ZM24.65 248.133C23.6056 248.133 22.7444 247.9 22.0667 247.433C21.4 246.967 21.0667 246.328 21.0667 245.517C21.0667 244.706 21.4 244.067 22.0667 243.6C22.7444 243.133 23.6056 242.9 24.65 242.9C25.6944 242.9 26.55 243.133 27.2167 243.6C27.8833 244.067 28.2167 244.706 28.2167 245.517C28.2167 246.328 27.8833 246.967 27.2167 247.433C26.55 247.9 25.6944 248.133 24.65 248.133ZM24.65 243.883C23.9167 243.883 23.3278 244.039 22.8833 244.35C22.45 244.65 22.2333 245.039 22.2333 245.517C22.2333 245.994 22.45 246.389 22.8833 246.7C23.3278 247 23.9167 247.15 24.65 247.15C25.3722 247.15 25.95 247 26.3833 246.7C26.8278 246.389 27.05 245.994 27.05 245.517C27.05 245.039 26.8278 244.65 26.3833 244.35C25.95 244.039 25.3722 243.883 24.65 243.883ZM31.85 251.25V252.367H21.4V248.95H22.6167V251.25H31.85ZM43.7649 243.783V241.017H34.5649V239.95H44.9649V243.783H43.7649ZM33.7316 245.567V244.533H45.8649V245.567H33.7316ZM35.7816 250V251.417H45.2149V252.383H34.6149V249.117H43.8316V247.733H34.5816V246.767H44.9982V250H35.7816ZM54.409 245.167C54.009 245.889 53.4757 246.483 52.809 246.95C52.1424 247.417 51.3646 247.711 50.4757 247.833V246.683C51.4868 246.517 52.2868 246.056 52.8757 245.3C53.4646 244.533 53.809 243.611 53.909 242.533H50.7257V241.383H53.9257V239.6H55.1424V241.383H58.309V242.533H55.1257C55.0924 243.144 54.9979 243.678 54.8424 244.133L58.709 246.867L58.0424 247.817L54.409 245.167ZM61.5424 252.567H60.3424V239.767H61.5424V252.567ZM55.0924 250.6C57.0479 250.6 58.4368 250.417 59.259 250.05V251.217C58.4035 251.583 57.0202 251.767 55.109 251.767H50.2257V250.6H53.7924V247.683H54.9924V250.6H55.0924ZM75.0573 252.567H73.9073V246.2H71.7073V252.35H70.574V239.833H71.7073V245.017H73.9073V239.767H75.0573V252.567ZM66.774 250.633C67.2962 250.633 67.8073 250.589 68.3073 250.5C68.8073 250.411 69.2406 250.289 69.6073 250.133V251.25C69.2406 251.417 68.7962 251.544 68.274 251.633C67.7517 251.722 67.2017 251.767 66.624 251.767H63.8406V240.267H69.0906V241.4H65.0073V250.633H66.774ZM85.5181 252H84.2514V241.4H81.5181V240.333H85.5181V252ZM94.3896 252.117C93.4896 252.117 92.6841 251.878 91.973 251.4C91.2619 250.911 90.7063 250.217 90.3063 249.317C89.9174 248.417 89.723 247.367 89.723 246.167C89.723 244.967 89.9174 243.917 90.3063 243.017C90.7063 242.117 91.2619 241.428 91.973 240.95C92.6841 240.461 93.4896 240.217 94.3896 240.217C95.3008 240.217 96.1063 240.461 96.8063 240.95C97.5174 241.428 98.0674 242.117 98.4563 243.017C98.8563 243.906 99.0563 244.956 99.0563 246.167C99.0563 247.378 98.8563 248.433 98.4563 249.333C98.0674 250.222 97.5174 250.911 96.8063 251.4C96.1063 251.878 95.3008 252.117 94.3896 252.117ZM94.3896 251C95.0674 251 95.6619 250.811 96.173 250.433C96.6841 250.056 97.0785 249.506 97.3563 248.783C97.6452 248.061 97.7896 247.189 97.7896 246.167C97.7896 245.144 97.6452 244.272 97.3563 243.55C97.0785 242.828 96.6841 242.278 96.173 241.9C95.6619 241.522 95.0674 241.333 94.3896 241.333C93.723 241.333 93.1341 241.522 92.623 241.9C92.1119 242.278 91.7119 242.828 91.423 243.55C91.1452 244.272 91.0063 245.144 91.0063 246.167C91.0063 247.189 91.1452 248.061 91.423 248.783C91.7119 249.506 92.1119 250.056 92.623 250.433C93.1341 250.811 93.723 251 94.3896 251ZM110.878 246.267V252.567H109.678V239.767H110.878V245.067H112.645V246.267H110.878ZM104.828 241.433C104.806 243.044 104.683 244.467 104.461 245.7L108.445 250.917L107.495 251.65L104.078 247.133C103.678 248.5 103.139 249.583 102.461 250.383C101.783 251.172 100.995 251.633 100.095 251.767V250.517C100.817 250.361 101.439 249.878 101.961 249.067C102.483 248.244 102.883 247.178 103.161 245.867C103.45 244.556 103.606 243.078 103.628 241.433H100.361V240.267H108.011V241.433H104.828ZM121.472 239.1L116.522 253.233H115.505L120.455 239.1H121.472ZM125.605 241.033V239.95H135.988V244.3H134.788V241.033H125.605ZM136.905 246.333H124.772V245.267H129.455V242.65H130.672V245.267H136.905V246.333ZM130.838 247.633C132.383 247.633 133.649 247.839 134.638 248.25C135.638 248.65 136.138 249.261 136.138 250.083C136.138 250.917 135.638 251.539 134.638 251.95C133.649 252.35 132.383 252.55 130.838 252.55C129.294 252.55 128.022 252.35 127.022 251.95C126.022 251.539 125.522 250.917 125.522 250.083C125.522 249.228 126.016 248.606 127.005 248.217C127.994 247.828 129.272 247.633 130.838 247.633ZM130.838 251.517C131.949 251.517 132.899 251.394 133.688 251.15C134.477 250.906 134.872 250.55 134.872 250.083C134.872 249.628 134.472 249.278 133.672 249.033C132.883 248.789 131.938 248.667 130.838 248.667C129.705 248.667 128.744 248.783 127.955 249.017C127.177 249.25 126.788 249.606 126.788 250.083C126.788 250.55 127.183 250.906 127.972 251.15C128.772 251.394 129.727 251.517 130.838 251.517ZM149.603 247.817H148.453V244.017H146.253V247.683H145.12V239.833H146.253V242.833H148.453V239.767H149.603V247.817ZM138.387 247.05V240.017H139.503V242.367H142.47V240.017H143.587V247.05H138.387ZM142.47 243.4H139.503V246.017H142.47V243.4ZM149.603 248.567V252.533H148.403V249.65H138.97V248.567H149.603ZM152.418 250.267C152.685 250.267 152.901 250.356 153.068 250.533C153.235 250.7 153.318 250.911 153.318 251.167C153.318 251.3 153.301 251.433 153.268 251.567C153.246 251.7 153.19 251.889 153.101 252.133L152.385 254.417H151.551L152.135 252C151.946 251.944 151.796 251.844 151.685 251.7C151.574 251.556 151.518 251.378 151.518 251.167C151.518 250.911 151.601 250.7 151.768 250.533C151.946 250.356 152.163 250.267 152.418 250.267ZM158.957 245.567V239.95H169.34V240.883H160.14V242.333H169.124V243.183H160.14V244.633H169.44V245.567H158.957ZM170.157 247.867H158.024V246.85H170.157V247.867ZM169.274 249.167V252.55H168.074V250.2H158.79V249.167H169.274ZM177.122 243.25C176.444 244.25 175.605 245.044 174.605 245.633C173.605 246.222 172.572 246.517 171.505 246.517V245.317C172.372 245.328 173.216 245.083 174.038 244.583C174.861 244.072 175.561 243.383 176.138 242.517C176.716 241.65 177.094 240.706 177.272 239.683L178.505 239.9C178.361 240.656 178.094 241.444 177.705 242.267L182.988 245.467L182.422 246.5L177.122 243.25ZM177.888 249.133V252.867H176.672V249.133H171.222V247.967H183.355V249.133H177.888ZM185.337 245V239.95H195.653V245H185.337ZM186.537 241V243.95H194.453V241H186.537ZM196.553 247.5H191.087V249.8H189.887V247.5H184.42V246.417H196.553V247.5ZM195.92 251.283V252.383H185.32V248.667H186.537V251.283H195.92ZM208.568 246.267V252.567H207.368V239.767H208.568V245.067H210.335V246.267H208.568ZM202.518 241.433C202.496 243.044 202.374 244.467 202.152 245.7L206.135 250.917L205.185 251.65L201.768 247.133C201.368 248.5 200.829 249.583 200.152 250.383C199.474 251.172 198.685 251.633 197.785 251.767V250.517C198.507 250.361 199.129 249.878 199.652 249.067C200.174 248.244 200.574 247.178 200.852 245.867C201.141 244.556 201.296 243.078 201.318 241.433H198.052V240.267H205.702V241.433H202.518ZM215.029 244.283V239.867H216.212V241.117H224.146V239.867H225.346V244.283H215.029ZM224.146 242.05H216.212V243.333H224.146V242.05ZM220.779 247.583H225.379V250.367H216.162V251.5H225.596V252.383H214.996V249.567H224.212V248.467H214.962V247.583H219.579V246.317H214.112V245.333H226.246V246.317H220.779V247.583ZM238.261 246.267V252.567H237.061V239.767H238.261V245.067H240.027V246.267H238.261ZM234.344 240.267V243.267C234.344 244.956 234.083 246.439 233.561 247.717C233.038 248.994 232.283 249.983 231.294 250.683C230.305 251.383 229.133 251.733 227.777 251.733V250.533C228.9 250.533 229.861 250.239 230.661 249.65C231.472 249.061 232.088 248.222 232.511 247.133C232.933 246.044 233.144 244.772 233.144 243.317V241.417H227.777V240.267H234.344Z" fill="#A8A8A8"/>
<path d="M124.483 705.267V711.567H123.283V698.767H124.483V704.067H126.25V705.267H124.483ZM118.967 709.6C119.544 709.6 120.122 709.544 120.7 709.433C121.278 709.322 121.75 709.178 122.117 709V710.15C121.761 710.35 121.294 710.506 120.717 710.617C120.139 710.717 119.55 710.767 118.95 710.767H114.15V699.183H115.367V709.6H118.967ZM132.548 701.9C131.97 702.433 131.215 702.85 130.282 703.15C129.359 703.439 128.393 703.594 127.382 703.617V702.567C128.115 702.544 128.837 702.433 129.548 702.233C130.27 702.022 130.887 701.728 131.398 701.35C131.909 700.961 132.226 700.506 132.348 699.983H127.598V698.95H137.998V699.983H133.648C133.593 700.394 133.482 700.739 133.315 701.017L138.332 702.667L137.998 703.667L132.548 701.9ZM133.398 707.017C134.798 707.05 135.932 707.25 136.798 707.617C137.665 707.972 138.098 708.522 138.098 709.267C138.098 710.078 137.609 710.661 136.632 711.017C135.654 711.383 134.376 711.567 132.798 711.567C131.22 711.567 129.937 711.383 128.948 711.017C127.97 710.661 127.482 710.078 127.482 709.267C127.482 708.522 127.915 707.972 128.782 707.617C129.659 707.25 130.798 707.05 132.198 707.017V705.667H126.732V704.633H138.865V705.667H133.398V707.017ZM136.832 709.267C136.832 708.822 136.448 708.506 135.682 708.317C134.915 708.117 133.954 708.017 132.798 708.017C131.643 708.017 130.676 708.117 129.898 708.317C129.132 708.506 128.748 708.822 128.748 709.267C128.748 709.722 129.132 710.05 129.898 710.25C130.676 710.45 131.643 710.55 132.798 710.55C133.954 710.55 134.915 710.45 135.682 710.25C136.448 710.05 136.832 709.722 136.832 709.267ZM151.563 711.567H150.413V698.767H151.563V711.567ZM148.63 698.833V711.35H147.48V705.4H145.73C145.696 707.278 145.446 708.672 144.98 709.583C144.513 710.483 143.83 710.933 142.93 710.933C142.008 710.933 141.308 710.456 140.83 709.5C140.363 708.533 140.13 707.039 140.13 705.017C140.13 701.072 141.063 699.1 142.93 699.1C144.674 699.1 145.602 700.794 145.713 704.183H147.48V698.833H148.63ZM142.93 709.783C143.485 709.783 143.896 709.394 144.163 708.617C144.441 707.828 144.58 706.628 144.58 705.017C144.58 703.406 144.441 702.211 144.163 701.433C143.896 700.644 143.485 700.25 142.93 700.25C142.374 700.25 141.958 700.644 141.68 701.433C141.413 702.211 141.28 703.406 141.28 705.017C141.28 706.628 141.413 707.828 141.68 708.617C141.958 709.394 142.374 709.783 142.93 709.783ZM167.374 705.267V711.567H166.174V698.767H167.374V704.067H169.141V705.267H167.374ZM161.857 709.617C162.435 709.617 163.013 709.561 163.591 709.45C164.168 709.328 164.641 709.172 165.007 708.983V710.15C164.652 710.339 164.18 710.489 163.591 710.6C163.002 710.711 162.407 710.767 161.807 710.767H157.041V699.267H164.057V700.417H158.257V709.617H161.857ZM180.922 711.567H179.706V698.767H180.922V711.567ZM174.989 699.133C174.967 701.156 174.794 702.928 174.472 704.45L178.489 710L177.522 710.733L174.089 705.917C173.656 707.372 173.078 708.522 172.356 709.367C171.644 710.2 170.817 710.667 169.872 710.767V709.517C170.694 709.372 171.394 708.822 171.972 707.867C172.55 706.9 172.989 705.656 173.289 704.133C173.589 702.611 173.744 700.933 173.756 699.1L174.989 699.133ZM192.016 702.25C191.339 703.25 190.5 704.044 189.5 704.633C188.5 705.222 187.466 705.517 186.4 705.517V704.317C187.266 704.328 188.111 704.083 188.933 703.583C189.755 703.072 190.455 702.383 191.033 701.517C191.611 700.65 191.989 699.706 192.166 698.683L193.4 698.9C193.255 699.656 192.989 700.444 192.6 701.267L197.883 704.467L197.316 705.5L192.016 702.25ZM192.783 708.133V711.867H191.566V708.133H186.116V706.967H198.25V708.133H192.783ZM209.498 698.767H210.698V705.967H209.498V702.367H206.998V701.267H209.498V698.767ZM203.565 702.9C203.165 703.633 202.62 704.233 201.931 704.7C201.242 705.156 200.453 705.439 199.565 705.55V704.417C200.609 704.25 201.437 703.8 202.048 703.067C202.67 702.322 203.026 701.372 203.115 700.217H199.715V699.133H207.498V700.217H204.331C204.298 700.828 204.198 701.383 204.031 701.883L207.898 704.483L207.281 705.433L203.565 702.9ZM205.598 706.433C207.165 706.433 208.42 706.644 209.365 707.067C210.32 707.478 210.798 708.117 210.798 708.983C210.798 709.85 210.32 710.494 209.365 710.917C208.42 711.328 207.165 711.533 205.598 711.533C204.031 711.533 202.776 711.328 201.831 710.917C200.887 710.494 200.415 709.85 200.415 708.983C200.415 708.117 200.887 707.478 201.831 707.067C202.776 706.644 204.031 706.433 205.598 706.433ZM205.598 710.483C206.765 710.483 207.709 710.356 208.431 710.1C209.165 709.844 209.531 709.472 209.531 708.983C209.531 708.494 209.165 708.122 208.431 707.867C207.698 707.611 206.753 707.483 205.598 707.483C204.442 707.483 203.498 707.611 202.765 707.867C202.042 708.122 201.681 708.494 201.681 708.983C201.681 709.472 202.042 709.844 202.765 710.1C203.498 710.356 204.442 710.483 205.598 710.483ZM212.496 700.717V699.75H216.013V698.533H217.229V699.75H220.746V700.717H212.496ZM225.229 702.633H223.463V705.467H222.263V698.767H223.463V701.5H225.229V702.633ZM216.629 705.383C215.596 705.383 214.746 705.211 214.079 704.867C213.424 704.522 213.096 704.028 213.096 703.383C213.096 702.75 213.424 702.261 214.079 701.917C214.746 701.572 215.596 701.4 216.629 701.4C217.652 701.4 218.491 701.572 219.146 701.917C219.813 702.261 220.146 702.75 220.146 703.383C220.146 704.028 219.818 704.522 219.163 704.867C218.507 705.211 217.663 705.383 216.629 705.383ZM216.629 702.3C215.896 702.3 215.313 702.4 214.879 702.6C214.446 702.8 214.229 703.061 214.229 703.383C214.229 703.717 214.446 703.983 214.879 704.183C215.313 704.383 215.896 704.483 216.629 704.483C217.352 704.483 217.929 704.383 218.363 704.183C218.796 703.983 219.013 703.717 219.013 703.383C219.013 703.061 218.796 702.8 218.363 702.6C217.941 702.4 217.363 702.3 216.629 702.3ZM223.796 710.433V711.367H213.396V708.333H222.279V707.117H213.363V706.2H223.463V709.217H214.596V710.433H223.796ZM234.907 702.25C234.229 703.25 233.39 704.044 232.39 704.633C231.39 705.222 230.357 705.517 229.29 705.517V704.317C230.157 704.328 231.001 704.083 231.824 703.583C232.646 703.072 233.346 702.383 233.924 701.517C234.501 700.65 234.879 699.706 235.057 698.683L236.29 698.9C236.146 699.656 235.879 700.444 235.49 701.267L240.774 704.467L240.207 705.5L234.907 702.25ZM235.674 708.133V711.867H234.457V708.133H229.007V706.967H241.14V708.133H235.674ZM255.584 705.9V698.767H256.801V705.9H255.584ZM253.284 702.217C253.284 702.872 253.129 703.45 252.818 703.95C252.518 704.45 252.079 704.839 251.501 705.117C250.934 705.394 250.268 705.533 249.501 705.533C248.734 705.533 248.062 705.394 247.484 705.117C246.918 704.839 246.479 704.45 246.168 703.95C245.868 703.45 245.718 702.872 245.718 702.217C245.718 701.572 245.868 701 246.168 700.5C246.479 700 246.918 699.611 247.484 699.333C248.062 699.056 248.734 698.917 249.501 698.917C250.268 698.917 250.934 699.056 251.501 699.333C252.079 699.611 252.518 700 252.818 700.5C253.129 701 253.284 701.572 253.284 702.217ZM246.918 702.217C246.918 702.917 247.151 703.472 247.618 703.883C248.096 704.283 248.723 704.483 249.501 704.483C250.268 704.483 250.884 704.283 251.351 703.883C251.829 703.472 252.068 702.917 252.068 702.217C252.068 701.517 251.829 700.967 251.351 700.567C250.884 700.167 250.268 699.967 249.501 699.967C248.734 699.967 248.112 700.167 247.634 700.567C247.157 700.967 246.918 701.517 246.918 702.217ZM254.634 709.267C254.29 709.867 253.857 710.356 253.334 710.733C252.812 711.1 252.251 711.311 251.651 711.367L249.501 709.317C249.146 709.917 248.712 710.394 248.201 710.75C247.69 711.106 247.14 711.311 246.551 711.367V710.217C247.007 710.172 247.434 709.967 247.834 709.6C248.246 709.233 248.579 708.756 248.834 708.167C249.101 707.578 249.257 706.944 249.301 706.267L250.451 706.433C250.429 707 250.296 707.644 250.051 708.367L251.968 710.15C252.59 709.983 253.129 709.533 253.584 708.8C254.04 708.067 254.301 707.222 254.368 706.267L255.534 706.45C255.457 707.172 255.329 707.783 255.151 708.283L257.784 710.517L257.068 711.417L254.634 709.267ZM270.083 711.567H268.883V705.367H266.383C266.338 707.2 265.994 708.589 265.349 709.533C264.705 710.467 263.855 710.933 262.799 710.933C261.699 710.933 260.822 710.433 260.166 709.433C259.522 708.433 259.199 706.961 259.199 705.017C259.199 703.072 259.522 701.6 260.166 700.6C260.822 699.6 261.699 699.1 262.799 699.1C263.81 699.1 264.633 699.528 265.266 700.383C265.899 701.239 266.266 702.506 266.366 704.183H268.883V698.767H270.083V711.567ZM262.799 709.783C263.522 709.783 264.099 709.389 264.533 708.6C264.966 707.811 265.183 706.617 265.183 705.017C265.183 703.428 264.966 702.239 264.533 701.45C264.099 700.65 263.522 700.25 262.799 700.25C262.077 700.25 261.494 700.65 261.049 701.45C260.616 702.239 260.399 703.428 260.399 705.017C260.399 706.617 260.616 707.811 261.049 708.6C261.494 709.389 262.077 709.783 262.799 709.783ZM284.031 710.917H271.898V709.75H274.781V706.1C274.059 705.778 273.503 705.344 273.114 704.8C272.725 704.244 272.531 703.606 272.531 702.883C272.531 702.106 272.753 701.428 273.198 700.85C273.642 700.272 274.275 699.828 275.098 699.517C275.92 699.194 276.875 699.033 277.964 699.033C279.053 699.033 280.009 699.194 280.831 699.517C281.653 699.828 282.286 700.272 282.731 700.85C283.175 701.428 283.398 702.106 283.398 702.883C283.398 703.606 283.203 704.244 282.814 704.8C282.425 705.344 281.87 705.778 281.148 706.1V709.75H284.031V710.917ZM277.964 700.183C277.131 700.183 276.398 700.294 275.764 700.517C275.131 700.739 274.642 701.056 274.298 701.467C273.953 701.878 273.781 702.35 273.781 702.883C273.781 703.417 273.953 703.889 274.298 704.3C274.642 704.711 275.131 705.028 275.764 705.25C276.398 705.472 277.131 705.583 277.964 705.583C278.798 705.583 279.531 705.472 280.164 705.25C280.798 705.028 281.286 704.711 281.631 704.3C281.975 703.889 282.148 703.417 282.148 702.883C282.148 702.35 281.975 701.878 281.631 701.467C281.286 701.056 280.798 700.739 280.164 700.517C279.531 700.294 278.798 700.183 277.964 700.183ZM279.948 709.75V706.517C279.314 706.661 278.653 706.733 277.964 706.733C277.22 706.733 276.559 706.661 275.981 706.517V709.75H279.948ZM287.463 699.333L287.229 707.5H286.263L286.013 699.333H287.463ZM286.729 711.083C286.485 711.083 286.274 711 286.096 710.833C285.929 710.667 285.846 710.461 285.846 710.217C285.846 709.972 285.929 709.767 286.096 709.6C286.274 709.433 286.485 709.35 286.729 709.35C286.985 709.35 287.196 709.433 287.363 709.6C287.54 709.767 287.629 709.972 287.629 710.217C287.629 710.461 287.54 710.667 287.363 710.833C287.196 711 286.985 711.083 286.729 711.083Z" fill="#A8A8A8"/>
<rect x="20" y="124" width="360" height="5" fill="#E2E2E2"/>
<rect x="20" y="124" width="120" height="5" fill="url(#paint0_linear_209_1144)"/>
<path d="M29.9999 83L31.7749 84.775L23.5499 93L31.7749 101.225L29.9999 103L19.9999 93L29.9999 83Z" fill="#1F1F1F"/>
<rect x="20.5" y="300.5" width="361" height="61" rx="14.5" stroke="#A8A8A8"/>
<path d="M55.4509 332.32V323.32H56.9109V332.32H55.4509ZM49.4509 330.06C50.5176 330.06 51.4709 330 52.3109 329.88C53.1509 329.747 53.8176 329.567 54.3109 329.34V330.7C53.8443 330.927 53.1776 331.1 52.3109 331.22C51.4576 331.34 50.4776 331.4 49.3709 331.4H44.0709V323.64H45.5109V330.06H49.4509ZM55.4509 338.64V334.56H44.5109V333.22H56.9109V338.64H55.4509ZM73.1488 338.68H71.7688V323.32H73.1488V338.68ZM69.6288 323.4V338.42H68.2488V330.5H64.2288V329.08H68.2488V323.4H69.6288ZM63.3888 336.36C64.7622 336.36 65.8955 336.16 66.7888 335.76V337.1C66.3622 337.3 65.8288 337.453 65.1888 337.56C64.5622 337.667 63.9022 337.72 63.2088 337.72H59.6888V323.88H61.0888V336.36H63.3888ZM87.1267 331.68V323.32H88.5867V331.68H87.1267ZM79.8267 323.5C80.7467 323.5 81.5467 323.667 82.2267 324C82.9201 324.32 83.4467 324.773 83.8067 325.36C84.1801 325.947 84.3667 326.62 84.3667 327.38C84.3667 328.14 84.1801 328.813 83.8067 329.4C83.4467 329.987 82.9201 330.447 82.2267 330.78C81.5467 331.1 80.7467 331.26 79.8267 331.26C78.9067 331.26 78.1001 331.1 77.4067 330.78C76.7267 330.447 76.2001 329.987 75.8267 329.4C75.4667 328.813 75.2867 328.14 75.2867 327.38C75.2867 326.62 75.4667 325.947 75.8267 325.36C76.2001 324.773 76.7267 324.32 77.4067 324C78.1001 323.667 78.9067 323.5 79.8267 323.5ZM79.8267 324.76C78.8934 324.76 78.1401 324.993 77.5667 325.46C77.0067 325.927 76.7267 326.567 76.7267 327.38C76.7267 328.193 77.0067 328.833 77.5667 329.3C78.1401 329.767 78.8934 330 79.8267 330C80.7467 330 81.4867 329.767 82.0467 329.3C82.6201 328.833 82.9067 328.193 82.9067 327.38C82.9067 326.567 82.6201 325.927 82.0467 325.46C81.4867 324.993 80.7467 324.76 79.8267 324.76ZM76.4867 338.44V332.58H88.5867V338.44H76.4867ZM87.1267 333.88H77.9267V337.14H87.1267V333.88ZM98.1446 323.3C100.038 323.3 101.571 323.527 102.745 323.98C103.918 324.42 104.505 325.113 104.505 326.06C104.505 327.007 103.918 327.7 102.745 328.14C101.571 328.58 100.038 328.8 98.1446 328.8C96.2513 328.8 94.7113 328.58 93.5246 328.14C92.3513 327.7 91.7646 327.007 91.7646 326.06C91.7646 325.113 92.3513 324.42 93.5246 323.98C94.7113 323.527 96.2513 323.3 98.1446 323.3ZM98.1446 324.48C96.7179 324.48 95.5446 324.613 94.6246 324.88C93.7179 325.133 93.2646 325.527 93.2646 326.06C93.2646 326.593 93.7179 326.987 94.6246 327.24C95.5313 327.493 96.7046 327.62 98.1446 327.62C99.5713 327.62 100.738 327.493 101.645 327.24C102.551 326.987 103.005 326.593 103.005 326.06C103.005 325.527 102.545 325.133 101.625 324.88C100.718 324.613 99.5579 324.48 98.1446 324.48ZM90.8646 331.1V329.9H105.425V331.1H90.8646ZM93.3246 335.94V337.34H104.645V338.46H91.9246V334.98H102.965V333.62H91.8846V332.52H104.385V335.94H93.3246ZM124.218 331.32H122.758V323.32H124.218V331.32ZM119.998 327.28C119.998 328.027 119.811 328.687 119.438 329.26C119.078 329.833 118.551 330.28 117.858 330.6C117.178 330.92 116.378 331.08 115.458 331.08C114.538 331.08 113.731 330.92 113.038 330.6C112.358 330.28 111.831 329.833 111.458 329.26C111.098 328.687 110.918 328.027 110.918 327.28C110.918 326.547 111.098 325.893 111.458 325.32C111.831 324.747 112.358 324.3 113.038 323.98C113.731 323.66 114.538 323.5 115.458 323.5C116.378 323.5 117.178 323.66 117.858 323.98C118.551 324.3 119.078 324.747 119.438 325.32C119.811 325.893 119.998 326.547 119.998 327.28ZM112.358 327.28C112.358 328.067 112.644 328.687 113.218 329.14C113.791 329.593 114.538 329.82 115.458 329.82C116.391 329.82 117.138 329.593 117.698 329.14C118.258 328.687 118.538 328.067 118.538 327.28C118.538 326.493 118.258 325.873 117.698 325.42C117.138 324.967 116.391 324.74 115.458 324.74C114.538 324.74 113.791 324.973 113.218 325.44C112.644 325.893 112.358 326.507 112.358 327.28ZM124.218 332.02V338.44H112.118V332.02H113.558V333.84H122.778V332.02H124.218ZM122.778 335.08H113.558V337.18H122.778V335.08ZM140.155 332.94H138.735V329.7H135.895V328.4H138.735V326.54H135.895V325.22H138.735V323.32H140.155V332.94ZM133.415 324.98H127.115V323.74H134.835V328.56H128.575V331H131.875C132.929 331 133.889 330.947 134.755 330.84C135.622 330.733 136.275 330.587 136.715 330.4V331.6C136.289 331.787 135.629 331.94 134.735 332.06C133.855 332.167 132.862 332.22 131.755 332.22H127.155V327.38H133.415V324.98ZM140.155 333.84V338.64H138.695V335.14H127.715V333.84H140.155ZM149.813 325.82V327.18H142.033V325.82H145.193V323.28H146.633V325.82H149.813ZM156.293 338.68H154.933V331.04H152.353V338.42H150.993V323.4H152.353V329.62H154.933V323.32H156.293V338.68ZM145.993 328.52C146.647 328.52 147.227 328.707 147.733 329.08C148.253 329.44 148.653 329.973 148.933 330.68C149.227 331.373 149.373 332.213 149.373 333.2C149.373 334.187 149.227 335.033 148.933 335.74C148.653 336.447 148.253 336.987 147.733 337.36C147.227 337.72 146.647 337.9 145.993 337.9C144.993 337.9 144.187 337.487 143.573 336.66C142.96 335.833 142.653 334.68 142.653 333.2C142.653 331.72 142.96 330.573 143.573 329.76C144.187 328.933 144.993 328.52 145.993 328.52ZM145.993 336.56C146.593 336.56 147.08 336.26 147.453 335.66C147.827 335.06 148.013 334.24 148.013 333.2C148.013 332.16 147.827 331.34 147.453 330.74C147.08 330.14 146.593 329.84 145.993 329.84C145.393 329.84 144.907 330.14 144.533 330.74C144.173 331.327 143.993 332.147 143.993 333.2C143.993 334.253 144.173 335.08 144.533 335.68C144.907 336.267 145.393 336.56 145.993 336.56ZM169.026 328.06C168.333 329.007 167.426 329.767 166.306 330.34C165.186 330.913 163.96 331.26 162.626 331.38V329.98C164.186 329.833 165.526 329.333 166.646 328.48C167.766 327.613 168.473 326.5 168.766 325.14H162.986V323.76H175.826V325.14H170.306C170.226 325.753 170.053 326.34 169.786 326.9L176.266 330.04L175.646 331.3L169.026 328.06ZM170.106 334.56V339.04H168.646V334.56H162.126V333.16H176.686V334.56H170.106ZM191.924 338.68H190.524V323.32H191.924V338.68ZM188.264 323.4V338.42H186.884V330.12H184.424V328.7H186.884V323.4H188.264ZM182.744 323.76C182.718 326.307 182.604 328.42 182.404 330.1L185.964 336.84L184.784 337.52L182.004 332.24C181.644 333.84 181.151 335.087 180.524 335.98C179.911 336.873 179.111 337.453 178.124 337.72V336.18C179.298 335.767 180.124 334.513 180.604 332.42C181.084 330.313 181.331 327.413 181.344 323.72L182.744 323.76ZM208.362 337.9H193.802V336.5H197.262V332.12C196.395 331.733 195.729 331.213 195.262 330.56C194.795 329.893 194.562 329.127 194.562 328.26C194.562 327.327 194.829 326.513 195.362 325.82C195.895 325.127 196.655 324.593 197.642 324.22C198.629 323.833 199.775 323.64 201.082 323.64C202.389 323.64 203.535 323.833 204.522 324.22C205.509 324.593 206.269 325.127 206.802 325.82C207.335 326.513 207.602 327.327 207.602 328.26C207.602 329.127 207.369 329.893 206.902 330.56C206.435 331.213 205.769 331.733 204.902 332.12V336.5H208.362V337.9ZM201.082 325.02C200.082 325.02 199.202 325.153 198.442 325.42C197.682 325.687 197.095 326.067 196.682 326.56C196.269 327.053 196.062 327.62 196.062 328.26C196.062 328.9 196.269 329.467 196.682 329.96C197.095 330.453 197.682 330.833 198.442 331.1C199.202 331.367 200.082 331.5 201.082 331.5C202.082 331.5 202.962 331.367 203.722 331.1C204.482 330.833 205.069 330.453 205.482 329.96C205.895 329.467 206.102 328.9 206.102 328.26C206.102 327.62 205.895 327.053 205.482 326.56C205.069 326.067 204.482 325.687 203.722 325.42C202.962 325.153 202.082 325.02 201.082 325.02ZM203.462 336.5V332.62C202.702 332.793 201.909 332.88 201.082 332.88C200.189 332.88 199.395 332.793 198.702 332.62V336.5H203.462Z" fill="#A8A8A8"/>
<path d="M20 764C20 747.431 33.4315 734 50 734H352C368.569 734 382 747.431 382 764C382 780.569 368.569 794 352 794H50C33.4315 794 20 780.569 20 764Z" fill="#A8A8A8"/>
<path d="M199.056 764.778V772.756H196.656V755.689H199.056V762.333H201.189V764.778H199.056ZM191.322 769.533C192.093 769.533 192.856 769.459 193.611 769.311C194.381 769.163 195.019 768.97 195.522 768.733V771.022C195.033 771.274 194.381 771.474 193.567 771.622C192.752 771.756 191.944 771.822 191.144 771.822H184.833V756.222H194.256V758.511H187.278V769.533H191.322ZM209.898 755.511C212.075 755.511 213.824 755.793 215.142 756.356C216.475 756.904 217.142 757.748 217.142 758.889C217.142 760.015 216.475 760.859 215.142 761.422C213.809 761.97 212.061 762.244 209.898 762.244C207.735 762.244 205.979 761.97 204.631 761.422C203.298 760.859 202.631 760.015 202.631 758.889C202.631 757.748 203.298 756.904 204.631 756.356C205.964 755.793 207.72 755.511 209.898 755.511ZM209.898 757.444C208.505 757.444 207.372 757.57 206.498 757.822C205.624 758.059 205.187 758.415 205.187 758.889C205.187 759.348 205.616 759.696 206.475 759.933C207.35 760.17 208.49 760.289 209.898 760.289C211.305 760.289 212.438 760.17 213.298 759.933C214.157 759.696 214.587 759.348 214.587 758.889C214.587 758.415 214.15 758.059 213.275 757.822C212.416 757.57 211.29 757.444 209.898 757.444ZM201.742 765.289V763.289H218.031V765.289H201.742ZM202.809 772.622V766.644H216.987V772.622H202.809ZM214.587 768.6H205.187V770.689H214.587V768.6Z" fill="white"/>
<defs>
<linearGradient id="paint0_linear_209_1144" x1="36.988" y1="124" x2="46.1825" y2="153.663" gradientUnits="userSpaceOnUse">
<stop stop-color="#542BB4"/>
<stop offset="1" stop-color="#E95AA4"/>
</linearGradient>
</defs>
</svg>
