<svg width="402" height="874" viewBox="0 0 402 874" fill="none" xmlns="http://www.w3.org/2000/svg">
<rect width="402" height="874" fill="white"/>
<path d="M36.1333 189.756H33.7333V181.889H30.9778C30.8741 184.259 30.3926 186.044 29.5333 187.244C28.6741 188.444 27.5259 189.044 26.0889 189.044C24.5778 189.044 23.3778 188.378 22.4889 187.044C21.6148 185.696 21.1778 183.689 21.1778 181.022C21.1778 178.356 21.6148 176.356 22.4889 175.022C23.3778 173.674 24.5778 173 26.0889 173C27.4519 173 28.563 173.548 29.4222 174.644C30.2815 175.726 30.7926 177.348 30.9556 179.511H33.7333V172.689H36.1333V189.756ZM26.0889 186.711C26.8593 186.711 27.4741 186.252 27.9333 185.333C28.3926 184.415 28.6222 182.978 28.6222 181.022C28.6222 179.052 28.3926 177.615 27.9333 176.711C27.4741 175.793 26.8593 175.333 26.0889 175.333C25.3185 175.333 24.7037 175.793 24.2444 176.711C23.8 177.615 23.5778 179.052 23.5778 181.022C23.5778 182.993 23.8 184.437 24.2444 185.356C24.7037 186.259 25.3185 186.711 26.0889 186.711ZM51.4643 172.689H53.8199V185.4H51.4643V178.844H48.7088V176.667H51.4643V172.689ZM43.6199 182.644C42.9236 182.881 41.9977 183 40.8421 183H38.6421V173.022H43.5754V175.089H40.931V180.911H41.5088C42.3977 180.911 43.1014 180.815 43.6199 180.622V182.644ZM49.6865 182.533C48.9606 182.844 47.9606 183 46.6865 183H44.2643V173.022H49.2643V175.089H46.5532V180.911H47.1977C48.2199 180.911 49.0495 180.763 49.6865 180.467V182.533ZM54.1088 189.622H39.6421V184.267H42.0865V187.378H54.1088V189.622ZM68.101 178.556C67.2565 179.533 66.1973 180.304 64.9232 180.867C63.6491 181.415 62.2787 181.726 60.8121 181.8V179.489C62.3232 179.385 63.6639 178.963 64.8343 178.222C66.0047 177.481 66.7824 176.511 67.1676 175.311H61.1454V173.022H75.6121V175.311H69.8121C69.7528 175.726 69.6195 176.17 69.4121 176.644L76.1898 179.667L75.2343 181.778L68.101 178.556ZM69.5898 185.756V190.156H67.1676V185.756H60.2343V183.4H76.5232V185.756H69.5898ZM93.6542 189.756H91.3875V172.689H93.6542V189.756ZM89.4986 172.778V189.467H87.2319V181.4H84.8764V179.022H87.2319V172.778H89.4986ZM83.2542 175.511C83.2394 177.289 83.1505 178.889 82.9875 180.311L86.8319 187.444L84.9208 188.578L82.2986 183.644C81.4542 186.83 79.9949 188.556 77.9208 188.822V186.356C78.8838 186.119 79.6245 185.044 80.1431 183.133C80.6616 181.222 80.9356 178.681 80.9653 175.511H78.2097V173.222H85.8764V175.511H83.2542ZM111.252 189.756H108.985V172.689H111.252V189.756ZM107.252 172.778V189.467H105.007V181.978H103.252C103.178 184.422 102.822 186.215 102.185 187.356C101.548 188.481 100.622 189.044 99.4074 189.044C98.1333 189.044 97.1703 188.4 96.5185 187.111C95.8815 185.822 95.5629 183.793 95.5629 181.022C95.5629 178.252 95.8815 176.222 96.5185 174.933C97.1703 173.644 98.1333 173 99.4074 173C100.578 173 101.481 173.533 102.118 174.6C102.756 175.652 103.133 177.304 103.252 179.556H105.007V172.778H107.252ZM99.4074 186.756C99.9703 186.756 100.378 186.296 100.63 185.378C100.896 184.444 101.03 182.993 101.03 181.022C101.03 179.052 100.896 177.607 100.63 176.689C100.378 175.756 99.9703 175.289 99.4074 175.289C98.8592 175.289 98.4518 175.756 98.1852 176.689C97.9333 177.622 97.8074 179.067 97.8074 181.022C97.8074 182.978 97.9333 184.422 98.1852 185.356C98.4518 186.289 98.8592 186.756 99.4074 186.756Z" fill="#191919"/>
<path d="M37.6889 208.356H35.6V214.644H33.2V201.689H35.6V205.978H37.6889V208.356ZM21.3778 204.067V201.889H30.6667V208.489H28.2889V204.067H21.3778ZM32.0222 211.311C31.0593 211.741 29.4074 211.956 27.0667 211.956H20.6444V209.822H23.4667V206.111H25.8444V209.822H27.1556C29.437 209.822 31.0593 209.607 32.0222 209.178V211.311ZM35.9778 216.444V218.622H21.7111V213.467H24.1556V216.444H35.9778ZM53.6199 210.956H51.2199V201.689H53.6199V210.956ZM44.0865 207.244C43.4347 208.207 42.6273 208.993 41.6643 209.6C40.7014 210.193 39.6421 210.548 38.4865 210.667V208.378C39.4347 208.23 40.2643 207.852 40.9754 207.244C41.7014 206.637 42.2643 205.867 42.6643 204.933C43.0643 203.985 43.2643 202.941 43.2643 201.8L45.6865 201.956C45.6865 203.141 45.4865 204.259 45.0865 205.311L49.9532 208.6L48.731 210.444L44.0865 207.244ZM53.6199 211.756V218.622H39.5532V211.756H53.6199ZM51.2199 216.511V213.867H41.9532V216.511H51.2199ZM68.8175 218.756V201.689H71.2398V218.756H68.8175ZM61.462 202C62.9879 202 64.1953 202.674 65.0842 204.022C65.9731 205.356 66.4175 207.356 66.4175 210.022C66.4175 212.689 65.9731 214.696 65.0842 216.044C64.1953 217.378 62.9879 218.044 61.462 218.044C59.9212 218.044 58.699 217.378 57.7953 216.044C56.9064 214.696 56.462 212.689 56.462 210.022C56.462 207.356 56.9064 205.356 57.7953 204.022C58.699 202.674 59.9212 202 61.462 202ZM61.462 204.333C60.662 204.333 60.0249 204.793 59.5509 205.711C59.0768 206.63 58.8398 208.067 58.8398 210.022C58.8398 211.978 59.0768 213.415 59.5509 214.333C60.0249 215.252 60.662 215.711 61.462 215.711C62.2472 215.711 62.8694 215.252 63.3286 214.333C63.8027 213.415 64.0398 211.978 64.0398 210.022C64.0398 208.067 63.8027 206.63 63.3286 205.711C62.8694 204.793 62.2472 204.333 61.462 204.333ZM90.8097 211.156V201.689H93.2097V211.156H90.8097ZM88.2986 206.311C88.2986 207.2 88.0838 207.985 87.6542 208.667C87.2394 209.348 86.6394 209.881 85.8542 210.267C85.0838 210.637 84.1801 210.822 83.1431 210.822C82.1208 210.822 81.2171 210.637 80.4319 210.267C79.6616 209.881 79.0616 209.348 78.6319 208.667C78.2023 207.985 77.9875 207.2 77.9875 206.311C77.9875 205.422 78.2023 204.637 78.6319 203.956C79.0616 203.274 79.6616 202.748 80.4319 202.378C81.2171 201.993 82.1208 201.8 83.1431 201.8C84.1801 201.8 85.0838 201.993 85.8542 202.378C86.6394 202.748 87.2394 203.274 87.6542 203.956C88.0838 204.637 88.2986 205.422 88.2986 206.311ZM80.3875 206.311C80.3875 207.052 80.6394 207.637 81.1431 208.067C81.6616 208.496 82.3282 208.711 83.1431 208.711C83.9875 208.711 84.6616 208.496 85.1653 208.067C85.669 207.637 85.9208 207.052 85.9208 206.311C85.9208 205.556 85.669 204.963 85.1653 204.533C84.6616 204.104 83.9875 203.889 83.1431 203.889C82.3134 203.889 81.6468 204.111 81.1431 204.556C80.6394 204.985 80.3875 205.57 80.3875 206.311ZM90.0986 216.178C89.5801 216.933 88.9579 217.526 88.2319 217.956C87.506 218.37 86.7356 218.593 85.9208 218.622L83.2319 216.244C82.6986 216.97 82.0764 217.541 81.3653 217.956C80.669 218.37 79.9282 218.593 79.1431 218.622V216.333C79.6912 216.304 80.2097 216.074 80.6986 215.644C81.2023 215.215 81.6171 214.652 81.9431 213.956C82.269 213.259 82.4616 212.504 82.5208 211.689L84.8542 212.067C84.7653 212.926 84.5875 213.696 84.3208 214.378L86.4986 216.222C87.2245 216 87.8468 215.467 88.3653 214.622C88.8986 213.778 89.2097 212.8 89.2986 211.689L91.6097 212.067C91.5505 212.807 91.3875 213.563 91.1208 214.333L94.4319 216.956L93.0542 218.733L90.0986 216.178ZM103.585 201.956C105.052 201.956 106.341 202.185 107.452 202.644C108.578 203.104 109.444 203.748 110.052 204.578C110.659 205.407 110.963 206.37 110.963 207.467C110.963 208.563 110.659 209.526 110.052 210.356C109.444 211.185 108.578 211.83 107.452 212.289C106.341 212.748 105.052 212.978 103.585 212.978C102.118 212.978 100.822 212.748 99.6963 212.289C98.5852 211.83 97.7259 211.185 97.1185 210.356C96.5111 209.526 96.2074 208.563 96.2074 207.467C96.2074 206.37 96.5111 205.407 97.1185 204.578C97.7259 203.748 98.5852 203.104 99.6963 202.644C100.822 202.185 102.118 201.956 103.585 201.956ZM103.585 204.267C102.637 204.267 101.793 204.4 101.052 204.667C100.326 204.933 99.7555 205.311 99.3407 205.8C98.9407 206.274 98.7407 206.83 98.7407 207.467C98.7407 208.104 98.9407 208.667 99.3407 209.156C99.7555 209.63 100.326 210 101.052 210.267C101.793 210.533 102.637 210.667 103.585 210.667C104.533 210.667 105.37 210.533 106.096 210.267C106.837 210 107.407 209.63 107.807 209.156C108.222 208.667 108.43 208.104 108.43 207.467C108.43 206.83 108.222 206.274 107.807 205.8C107.407 205.311 106.837 204.933 106.096 204.667C105.37 204.4 104.533 204.267 103.585 204.267ZM95.4296 218.022V215.667H111.718V218.022H95.4296ZM126.005 214.356V201.689H128.405V214.356H126.005ZM118.783 208.044C118.146 209.126 117.353 210.007 116.405 210.689C115.457 211.356 114.412 211.748 113.272 211.867V209.511C114.22 209.348 115.049 208.911 115.761 208.2C116.472 207.474 117.027 206.556 117.427 205.444C117.827 204.319 118.035 203.104 118.049 201.8L120.472 201.956C120.472 203.378 120.242 204.733 119.783 206.022L124.783 209.844L123.361 211.667L118.783 208.044ZM128.761 218.622H114.338V212.978H116.783V216.356H128.761V218.622ZM145.536 210.778V218.756H143.136V201.689H145.536V208.333H147.669V210.778H145.536ZM140.136 202.222V206.533C140.136 208.815 139.773 210.807 139.047 212.511C138.336 214.2 137.306 215.504 135.958 216.422C134.61 217.341 133.018 217.8 131.18 217.8V215.4C133.255 215.385 134.855 214.6 135.98 213.044C137.121 211.474 137.692 209.311 137.692 206.556V204.533H131.18V202.222H140.136ZM164.511 218.022H148.223V215.711H151.734V211.422C150.845 210.963 150.156 210.37 149.667 209.644C149.193 208.904 148.956 208.074 148.956 207.156C148.956 206.119 149.26 205.2 149.867 204.4C150.489 203.6 151.363 202.985 152.489 202.556C153.615 202.111 154.911 201.889 156.378 201.889C157.845 201.889 159.141 202.111 160.267 202.556C161.393 202.985 162.26 203.6 162.867 204.4C163.489 205.2 163.8 206.119 163.8 207.156C163.8 208.074 163.556 208.904 163.067 209.644C162.593 210.37 161.911 210.963 161.023 211.422V215.711H164.511V218.022ZM156.378 204.156C154.926 204.156 153.748 204.43 152.845 204.978C151.956 205.526 151.511 206.252 151.511 207.156C151.511 208.059 151.956 208.785 152.845 209.333C153.748 209.881 154.926 210.156 156.378 210.156C157.83 210.156 159 209.881 159.889 209.333C160.793 208.785 161.245 208.059 161.245 207.156C161.245 206.252 160.793 205.526 159.889 204.978C159 204.43 157.83 204.156 156.378 204.156ZM158.623 215.711V212.222C158.03 212.356 157.282 212.422 156.378 212.422C155.474 212.422 154.734 212.356 154.156 212.222V215.711H158.623ZM170.22 212.956C170.22 212.393 170.317 211.896 170.509 211.467C170.702 211.022 170.939 210.644 171.22 210.333C171.502 210.022 171.865 209.667 172.309 209.267C172.872 208.748 173.287 208.311 173.554 207.956C173.82 207.585 173.954 207.148 173.954 206.644C173.954 205.978 173.687 205.437 173.154 205.022C172.62 204.607 171.894 204.4 170.976 204.4C169.391 204.4 168.154 204.97 167.265 206.111L165.287 204.911C165.909 204.067 166.717 203.415 167.709 202.956C168.702 202.481 169.872 202.244 171.22 202.244C172.85 202.244 174.154 202.6 175.131 203.311C176.124 204.022 176.62 204.993 176.62 206.222C176.62 206.83 176.517 207.37 176.309 207.844C176.117 208.304 175.872 208.696 175.576 209.022C175.294 209.333 174.917 209.704 174.442 210.133C173.85 210.667 173.413 211.133 173.131 211.533C172.85 211.919 172.709 212.393 172.709 212.956H170.22ZM171.465 218.133C170.991 218.133 170.591 217.985 170.265 217.689C169.954 217.378 169.798 217 169.798 216.556C169.798 216.111 169.954 215.741 170.265 215.444C170.591 215.148 170.991 215 171.465 215C171.939 215 172.331 215.148 172.642 215.444C172.968 215.741 173.131 216.111 173.131 216.556C173.131 217 172.968 217.378 172.642 217.689C172.331 217.985 171.939 218.133 171.465 218.133Z" fill="#191919"/>
<path d="M41 306.5H126C136.77 306.5 145.5 315.23 145.5 326V331C145.5 341.77 136.77 350.5 126 350.5H41C30.2304 350.5 21.5 341.77 21.5 331V326C21.5 315.23 30.2304 306.5 41 306.5Z" stroke="#D9D9D9"/>
<path d="M47 329.5H41V327.5H47V321.5H49V327.5H55V329.5H49V335.5H47V329.5Z" fill="#A8A8A8"/>
<path d="M63.64 322.84V321.54H76.1V326.76H74.66V322.84H63.64ZM77.2 329.2H62.64V327.92H68.26V324.78H69.72V327.92H77.2V329.2ZM69.92 330.76C71.7733 330.76 73.2933 331.007 74.48 331.5C75.68 331.98 76.28 332.713 76.28 333.7C76.28 334.7 75.68 335.447 74.48 335.94C73.2933 336.42 71.7733 336.66 69.92 336.66C68.0667 336.66 66.54 336.42 65.34 335.94C64.14 335.447 63.54 334.7 63.54 333.7C63.54 332.673 64.1333 331.927 65.32 331.46C66.5067 330.993 68.04 330.76 69.92 330.76ZM69.92 335.42C71.2533 335.42 72.3933 335.273 73.34 334.98C74.2867 334.687 74.76 334.26 74.76 333.7C74.76 333.153 74.28 332.733 73.32 332.44C72.3733 332.147 71.24 332 69.92 332C68.56 332 67.4067 332.14 66.46 332.42C65.5267 332.7 65.06 333.127 65.06 333.7C65.06 334.26 65.5333 334.687 66.48 334.98C67.44 335.273 68.5867 335.42 69.92 335.42ZM93.0379 329.74H78.4779V328.5H85.0379V326.74H79.5779V321.54H91.9579V322.78H81.0179V325.5H92.1179V326.74H86.4779V328.5H93.0379V329.74ZM85.7579 331.16C87.6512 331.16 89.1846 331.38 90.3579 331.82C91.5446 332.247 92.1379 332.947 92.1379 333.92C92.1379 334.893 91.5446 335.6 90.3579 336.04C89.1846 336.48 87.6512 336.7 85.7579 336.7C83.8646 336.7 82.3246 336.48 81.1379 336.04C79.9646 335.6 79.3779 334.893 79.3779 333.92C79.3779 332.947 79.9646 332.247 81.1379 331.82C82.3246 331.38 83.8646 331.16 85.7579 331.16ZM85.7579 335.48C87.1312 335.48 88.2846 335.36 89.2179 335.12C90.1512 334.867 90.6179 334.467 90.6179 333.92C90.6179 333.387 90.1512 333 89.2179 332.76C88.2846 332.507 87.1312 332.38 85.7579 332.38C84.3846 332.38 83.2246 332.507 82.2779 332.76C81.3446 333 80.8779 333.387 80.8779 333.92C80.8779 334.467 81.3446 334.867 82.2779 335.12C83.2112 335.36 84.3712 335.48 85.7579 335.48ZM95.3158 323.14V321.72H107.796V328.66H106.296V323.14H95.3158ZM102.236 331.5V337.04H100.776V331.5H94.3158V330.04H108.876V331.5H102.236ZM124.114 336.68H122.734V329.06H120.094V336.42H118.734V321.4H120.094V327.62H122.734V321.32H124.114V336.68ZM116.834 321.92V335.72H110.654V321.92H116.834ZM115.454 334.34V323.3H112.014V334.34H115.454Z" fill="#191919"/>
<rect x="158.5" y="306.5" width="92" height="44" rx="19.5" stroke="#D9D9D9"/>
<path d="M184 329.5H178V327.5H184V321.5H186V327.5H192V329.5H186V335.5H184V329.5Z" fill="#A8A8A8"/>
<path d="M206.72 326.18C205.88 327.567 204.86 328.667 203.66 329.48C202.46 330.293 201.213 330.7 199.92 330.7V329.26C200.973 329.26 201.987 328.913 202.96 328.22C203.933 327.513 204.767 326.56 205.46 325.36C206.167 324.16 206.653 322.84 206.92 321.4L208.4 321.7C208.187 322.833 207.84 323.92 207.36 324.96L213.8 329.56L213.02 330.74L206.72 326.18ZM214.2 334.48V335.9H199.64V334.48H206.18V329.98H207.64V334.48H214.2ZM216.578 327.92V321.44H217.998V323.42H227.518V321.44H228.958V327.92H216.578ZM227.518 324.6H217.998V326.68H227.518V324.6ZM230.038 330.86H223.478V333.38H222.038V330.86H215.478V329.56H230.038V330.86ZM229.258 335.16V336.46H216.538V332.36H217.998V335.16H229.258Z" fill="#191919"/>
<rect x="263.5" y="306.5" width="92" height="44" rx="19.5" stroke="#D9D9D9"/>
<path d="M289 329.5H283V327.5H289V321.5H291V327.5H297V329.5H291V335.5H289V329.5Z" fill="#A8A8A8"/>
<path d="M318.6 336.68H317.2V321.32H318.6V336.68ZM314.96 321.4V336.42H313.58V329.06H310.78C310.42 331.1 309.727 332.713 308.7 333.9C307.687 335.087 306.46 335.68 305.02 335.68V334.26C305.953 334.247 306.767 333.893 307.46 333.2C308.153 332.507 308.687 331.547 309.06 330.32C309.447 329.08 309.64 327.653 309.64 326.04V323.3H305.02V321.92H311.02V325.96C311.02 326.52 311 327.073 310.96 327.62H313.58V321.4H314.96ZM332.578 329.68V321.32H334.038V329.68H332.578ZM325.278 321.5C326.198 321.5 326.998 321.667 327.678 322C328.371 322.32 328.898 322.773 329.258 323.36C329.631 323.947 329.818 324.62 329.818 325.38C329.818 326.14 329.631 326.813 329.258 327.4C328.898 327.987 328.371 328.447 327.678 328.78C326.998 329.1 326.198 329.26 325.278 329.26C324.358 329.26 323.551 329.1 322.858 328.78C322.178 328.447 321.651 327.987 321.278 327.4C320.918 326.813 320.738 326.14 320.738 325.38C320.738 324.62 320.918 323.947 321.278 323.36C321.651 322.773 322.178 322.32 322.858 322C323.551 321.667 324.358 321.5 325.278 321.5ZM325.278 322.76C324.345 322.76 323.591 322.993 323.018 323.46C322.458 323.927 322.178 324.567 322.178 325.38C322.178 326.193 322.458 326.833 323.018 327.3C323.591 327.767 324.345 328 325.278 328C326.198 328 326.938 327.767 327.498 327.3C328.071 326.833 328.358 326.193 328.358 325.38C328.358 324.567 328.071 323.927 327.498 323.46C326.938 322.993 326.198 322.76 325.278 322.76ZM321.938 336.44V330.58H334.038V336.44H321.938ZM332.578 331.88H323.378V335.14H332.578V331.88Z" fill="#191919"/>
<rect x="21.5" y="365.5" width="97" height="44" rx="19.5" stroke="#D9D9D9"/>
<path d="M47 388.5H41V386.5H47V380.5H49V386.5H55V388.5H49V394.5H47V388.5Z" fill="#A8A8A8"/>
<path d="M69.66 395.14C68.34 395.14 67.1467 394.833 66.08 394.22C65.0133 393.593 64.1733 392.74 63.56 391.66C62.96 390.567 62.66 389.347 62.66 388C62.66 386.653 62.96 385.44 63.56 384.36C64.1733 383.267 65.0133 382.413 66.08 381.8C67.1467 381.173 68.34 380.86 69.66 380.86C70.98 380.86 72.1733 381.173 73.24 381.8C74.32 382.413 75.16 383.267 75.76 384.36C76.3733 385.44 76.68 386.653 76.68 388C76.68 389.347 76.3733 390.567 75.76 391.66C75.16 392.74 74.32 393.593 73.24 394.22C72.1733 394.833 70.98 395.14 69.66 395.14ZM69.66 393.8C70.7133 393.8 71.66 393.553 72.5 393.06C73.3533 392.553 74.02 391.86 74.5 390.98C74.98 390.1 75.22 389.107 75.22 388C75.22 386.893 74.98 385.9 74.5 385.02C74.02 384.14 73.3533 383.453 72.5 382.96C71.66 382.453 70.7133 382.2 69.66 382.2C68.62 382.2 67.68 382.453 66.84 382.96C66 383.453 65.34 384.14 64.86 385.02C64.38 385.9 64.14 386.893 64.14 388C64.14 389.107 64.38 390.1 64.86 390.98C65.34 391.86 66 392.553 66.84 393.06C67.68 393.553 68.62 393.8 69.66 393.8ZM76.7214 382.3V381H87.5014V382.3H82.8414V395H81.4014V382.3H76.7214ZM87.989 382.3V381H98.769V382.3H94.109V395H92.669V382.3H87.989Z" fill="#191919"/>
<rect x="131.5" y="365.5" width="92" height="44" rx="19.5" stroke="#D9D9D9"/>
<path d="M157 388.5H151V386.5H157V380.5H159V386.5H165V388.5H159V394.5H157V388.5Z" fill="#A8A8A8"/>
<path d="M179.92 386.82C178.053 386.82 176.513 386.547 175.3 386C174.087 385.44 173.48 384.62 173.48 383.54C173.48 382.473 174.087 381.66 175.3 381.1C176.527 380.527 178.067 380.24 179.92 380.24C181.76 380.24 183.287 380.527 184.5 381.1C185.727 381.66 186.34 382.473 186.34 383.54C186.34 384.62 185.733 385.44 184.52 386C183.307 386.547 181.773 386.82 179.92 386.82ZM179.92 381.5C178.533 381.5 177.367 381.68 176.42 382.04C175.473 382.4 175 382.9 175 383.54C175 384.193 175.473 384.7 176.42 385.06C177.367 385.407 178.533 385.58 179.92 385.58C181.307 385.58 182.467 385.407 183.4 385.06C184.347 384.7 184.82 384.193 184.82 383.54C184.82 382.9 184.347 382.4 183.4 382.04C182.453 381.68 181.293 381.5 179.92 381.5ZM187.2 389.6H180.64V392.36H179.2V389.6H172.64V388.3H187.2V389.6ZM186.42 394.14V395.46H173.7V391.12H175.16V394.14H186.42ZM203.038 388.74H188.478V387.5H195.038V385.74H189.578V380.54H201.958V381.78H191.018V384.5H202.118V385.74H196.478V387.5H203.038V388.74ZM195.758 390.16C197.651 390.16 199.185 390.38 200.358 390.82C201.545 391.247 202.138 391.947 202.138 392.92C202.138 393.893 201.545 394.6 200.358 395.04C199.185 395.48 197.651 395.7 195.758 395.7C193.865 395.7 192.325 395.48 191.138 395.04C189.965 394.6 189.378 393.893 189.378 392.92C189.378 391.947 189.965 391.247 191.138 390.82C192.325 390.38 193.865 390.16 195.758 390.16ZM195.758 394.48C197.131 394.48 198.285 394.36 199.218 394.12C200.151 393.867 200.618 393.467 200.618 392.92C200.618 392.387 200.151 392 199.218 391.76C198.285 391.507 197.131 391.38 195.758 391.38C194.385 391.38 193.225 391.507 192.278 391.76C191.345 392 190.878 392.387 190.878 392.92C190.878 393.467 191.345 393.867 192.278 394.12C193.211 394.36 194.371 394.48 195.758 394.48Z" fill="#191919"/>
<path d="M146 424.5H215C225.77 424.5 234.5 433.23 234.5 444V449C234.5 459.77 225.77 468.5 215 468.5H146C135.23 468.5 126.5 459.77 126.5 449V444C126.5 433.23 135.23 424.5 146 424.5Z" stroke="#D9D9D9"/>
<path d="M152 447.5H146V445.5H152V439.5H154V445.5H160V447.5H154V453.5H152V447.5Z" fill="#A8A8A8"/>
<path d="M181.3 448.5H179.86V444.28H176.64V447.58H168.32V439.74H176.64V442.86H179.86V439.32H181.3V448.5ZM169.74 441.04V446.28H175.2V441.04H169.74ZM181.3 449.4V454.64H179.84V450.74H168.86V449.4H181.3ZM197.138 454.68H195.698V447.1H191.638C191.145 449.167 190.251 450.78 188.958 451.94C187.665 453.1 186.058 453.68 184.138 453.68V452.24C185.471 452.24 186.618 451.887 187.578 451.18C188.551 450.473 189.291 449.467 189.798 448.16C190.305 446.853 190.558 445.327 190.558 443.58V441.3H184.138V439.92H192.018V443.52C192.018 444.24 191.965 444.96 191.858 445.68H195.698V439.32H197.138V454.68ZM211.416 454.68V439.32H212.876V454.68H211.416ZM201.636 447.38V452.34H206.176C206.869 452.34 207.562 452.273 208.256 452.14C208.949 452.007 209.516 451.827 209.956 451.6V452.98C209.516 453.22 208.949 453.407 208.256 453.54C207.562 453.66 206.856 453.72 206.136 453.72H200.196V446.02H206.956V441.3H200.176V439.92H208.376V447.38H201.636Z" fill="#191919"/>
<rect x="248.5" y="424.5" width="92" height="44" rx="19.5" stroke="#D9D9D9"/>
<path d="M274 447.5H268V445.5H274V439.5H276V445.5H282V447.5H276V453.5H274V447.5Z" fill="#A8A8A8"/>
<path d="M304.2 453.9H289.64V452.5H296.16V448.52H290.66V439.92H303.2V441.32H292.1V447.12H303.36V448.52H297.62V452.5H304.2V453.9ZM312.758 445.1C310.878 445.1 309.338 444.86 308.138 444.38C306.951 443.9 306.358 443.167 306.358 442.18C306.358 441.207 306.958 440.473 308.158 439.98C309.358 439.487 310.891 439.24 312.758 439.24C314.611 439.24 316.138 439.487 317.338 439.98C318.538 440.473 319.138 441.207 319.138 442.18C319.138 443.167 318.538 443.9 317.338 444.38C316.151 444.86 314.625 445.1 312.758 445.1ZM312.758 440.48C311.345 440.48 310.171 440.627 309.238 440.92C308.318 441.2 307.858 441.62 307.858 442.18C307.858 442.74 308.318 443.167 309.238 443.46C310.171 443.74 311.345 443.88 312.758 443.88C314.158 443.88 315.318 443.74 316.238 443.46C317.171 443.167 317.638 442.74 317.638 442.18C317.638 441.62 317.171 441.2 316.238 440.92C315.318 440.627 314.158 440.48 312.758 440.48ZM313.478 449.36H318.978V454.46H306.538V449.36H312.038V447.6H305.478V446.36H320.038V447.6H313.478V449.36ZM307.978 450.58V453.22H317.558V450.58H307.978Z" fill="#191919"/>
<rect x="21.5" y="483.5" width="92" height="44" rx="19.5" stroke="#D9D9D9"/>
<path d="M47 506.5H41V504.5H47V498.5H49V504.5H55V506.5H49V512.5H47V506.5Z" fill="#A8A8A8"/>
<path d="M75.78 506.12V513.68H74.34V498.32H75.78V504.68H77.9V506.12H75.78ZM69.16 511.32C69.8533 511.32 70.5467 511.253 71.24 511.12C71.9333 510.987 72.5 510.813 72.94 510.6V511.98C72.5133 512.22 71.9533 512.407 71.26 512.54C70.5667 512.66 69.86 512.72 69.14 512.72H63.38V498.82H64.84V511.32H69.16ZM79.5779 503.68V498.34H81.0179V502.44H92.1179V503.68H79.5779ZM86.4779 508.3H91.9979V513.46H79.5179V508.3H85.0379V506.5H78.4779V505.26H93.0379V506.5H86.4779V508.3ZM80.9379 509.52V512.22H90.5579V509.52H80.9379Z" fill="#191919"/>
<rect x="21.5" y="542.5" width="159" height="44" rx="19.5" stroke="#D9D9D9"/>
<path d="M47 565.5H41V563.5H47V557.5H49V563.5H55V565.5H49V571.5H47V565.5Z" fill="#A8A8A8"/>
<path d="M77.9 562.54H75.78V568.74H74.34V557.32H75.78V561.1H77.9V562.54ZM73.18 565.24C72.7133 565.467 72.0467 565.64 71.18 565.76C70.3133 565.88 69.3333 565.94 68.24 565.94H63.2V557.74H72.1V559.06H64.66V564.62H68.32C69.3867 564.62 70.34 564.56 71.18 564.44C72.0333 564.32 72.7 564.147 73.18 563.92V565.24ZM76.22 571.06V572.44H63.68V567.54H65.14V571.06H76.22ZM90.5779 572.68V557.32H92.0379V572.68H90.5779ZM87.2379 561.52C87.2379 563.56 86.9112 565.347 86.2579 566.88C85.6046 568.4 84.6712 569.58 83.4579 570.42C82.2579 571.26 80.8379 571.68 79.1979 571.68V570.24C80.5446 570.24 81.7112 569.887 82.6979 569.18C83.6846 568.473 84.4379 567.473 84.9579 566.18C85.4912 564.873 85.7579 563.34 85.7579 561.58V559.3H79.1979V557.92H87.2379V561.52ZM102.836 561.36V560H106.536V557.32H107.976V565.96H106.536V561.36H102.836ZM99.1558 562.18C98.6491 563.1 97.9891 563.86 97.1758 564.46C96.3624 565.06 95.4291 565.44 94.3758 565.6V564.22C95.2958 564.033 96.0891 563.62 96.7558 562.98C97.4358 562.327 97.9491 561.527 98.2958 560.58C98.6558 559.62 98.8424 558.587 98.8558 557.48L100.296 557.56C100.296 558.787 100.116 559.913 99.7558 560.94L104.296 564.22L103.496 565.3L99.1558 562.18ZM101.856 566.52C103.736 566.52 105.242 566.773 106.376 567.28C107.522 567.773 108.096 568.54 108.096 569.58C108.096 570.62 107.522 571.393 106.376 571.9C105.242 572.393 103.736 572.64 101.856 572.64C99.9758 572.64 98.4691 572.393 97.3358 571.9C96.2024 571.393 95.6358 570.62 95.6358 569.58C95.6358 568.54 96.2024 567.773 97.3358 567.28C98.4691 566.773 99.9758 566.52 101.856 566.52ZM101.856 571.38C103.256 571.38 104.389 571.227 105.256 570.92C106.136 570.613 106.576 570.167 106.576 569.58C106.576 568.993 106.136 568.547 105.256 568.24C104.376 567.933 103.242 567.78 101.856 567.78C100.469 567.78 99.3358 567.933 98.4558 568.24C97.5891 568.547 97.1558 568.993 97.1558 569.58C97.1558 570.167 97.5891 570.613 98.4558 570.92C99.3358 571.227 100.469 571.38 101.856 571.38ZM121.189 562.18C120.349 563.567 119.329 564.667 118.129 565.48C116.929 566.293 115.682 566.7 114.389 566.7V565.26C115.442 565.26 116.455 564.913 117.429 564.22C118.402 563.513 119.235 562.56 119.929 561.36C120.635 560.16 121.122 558.84 121.389 557.4L122.869 557.7C122.655 558.833 122.309 559.92 121.829 560.96L128.269 565.56L127.489 566.74L121.189 562.18ZM128.669 570.48V571.9H114.109V570.48H120.649V565.98H122.109V570.48H128.669ZM144.507 571.9H129.947V570.48H136.487V566.52H130.967V557.92H143.487V566.52H137.947V570.48H144.507V571.9ZM142.047 565.12V559.34H132.387V565.12H142.047ZM157.885 565.68V557.32H159.345V565.68H157.885ZM150.585 557.5C151.505 557.5 152.305 557.667 152.985 558C153.678 558.32 154.205 558.773 154.565 559.36C154.938 559.947 155.125 560.62 155.125 561.38C155.125 562.14 154.938 562.813 154.565 563.4C154.205 563.987 153.678 564.447 152.985 564.78C152.305 565.1 151.505 565.26 150.585 565.26C149.665 565.26 148.858 565.1 148.165 564.78C147.485 564.447 146.958 563.987 146.585 563.4C146.225 562.813 146.045 562.14 146.045 561.38C146.045 560.62 146.225 559.947 146.585 559.36C146.958 558.773 147.485 558.32 148.165 558C148.858 557.667 149.665 557.5 150.585 557.5ZM150.585 558.76C149.651 558.76 148.898 558.993 148.325 559.46C147.765 559.927 147.485 560.567 147.485 561.38C147.485 562.193 147.765 562.833 148.325 563.3C148.898 563.767 149.651 564 150.585 564C151.505 564 152.245 563.767 152.805 563.3C153.378 562.833 153.665 562.193 153.665 561.38C153.665 560.567 153.378 559.927 152.805 559.46C152.245 558.993 151.505 558.76 150.585 558.76ZM147.245 572.44V566.58H159.345V572.44H147.245ZM157.885 567.88H148.685V571.14H157.885V567.88Z" fill="#191919"/>
<rect x="21.5" y="601.5" width="128" height="44" rx="19.5" stroke="#D9D9D9"/>
<path d="M47 624.5H41V622.5H47V616.5H49V622.5H55V624.5H49V630.5H47V624.5Z" fill="#A8A8A8"/>
<path d="M76.2 625.5H74.74V616.32H76.2V625.5ZM67.82 621.64C67.34 622.573 66.6867 623.333 65.86 623.92C65.0333 624.507 64.0867 624.867 63.02 625V623.6C64.2867 623.4 65.3 622.813 66.06 621.84C66.8333 620.867 67.26 619.613 67.34 618.08H63.2V616.76H72.64V618.08H68.8C68.76 618.84 68.6333 619.613 68.42 620.4L73.08 623.74L72.3 624.88L67.82 621.64ZM76.2 626.4V631.64H74.74V627.74H63.8V626.4H76.2ZM92.1379 624.46H90.6979V620.54H87.6979V619.22H90.6979V616.32H92.1379V624.46ZM83.5579 621.2C83.0646 622.053 82.4112 622.747 81.5979 623.28C80.7846 623.813 79.8446 624.147 78.7779 624.28V622.92C80.0179 622.72 81.0046 622.193 81.7379 621.34C82.4846 620.487 82.9112 619.393 83.0179 618.06H78.9579V616.76H88.2979V618.06H84.4779C84.4379 618.767 84.3179 619.42 84.1179 620.02L88.7979 623L88.0779 624.14L83.5579 621.2ZM92.1379 625.16V631.44H79.8379V625.16H81.2779V626.94H90.7179V625.16H92.1379ZM90.7179 628.16H81.2779V630.2H90.7179V628.16ZM111.831 624.32H110.371V616.32H111.831V624.32ZM107.611 620.28C107.611 621.027 107.424 621.687 107.051 622.26C106.691 622.833 106.164 623.28 105.471 623.6C104.791 623.92 103.991 624.08 103.071 624.08C102.151 624.08 101.344 623.92 100.651 623.6C99.9709 623.28 99.4442 622.833 99.0709 622.26C98.7109 621.687 98.5309 621.027 98.5309 620.28C98.5309 619.547 98.7109 618.893 99.0709 618.32C99.4442 617.747 99.9709 617.3 100.651 616.98C101.344 616.66 102.151 616.5 103.071 616.5C103.991 616.5 104.791 616.66 105.471 616.98C106.164 617.3 106.691 617.747 107.051 618.32C107.424 618.893 107.611 619.547 107.611 620.28ZM99.9709 620.28C99.9709 621.067 100.258 621.687 100.831 622.14C101.404 622.593 102.151 622.82 103.071 622.82C104.004 622.82 104.751 622.593 105.311 622.14C105.871 621.687 106.151 621.067 106.151 620.28C106.151 619.493 105.871 618.873 105.311 618.42C104.751 617.967 104.004 617.74 103.071 617.74C102.151 617.74 101.404 617.973 100.831 618.44C100.258 618.893 99.9709 619.507 99.9709 620.28ZM111.831 625.02V631.44H99.7309V625.02H101.171V626.84H110.391V625.02H111.831ZM110.391 628.08H101.171V630.18H110.391V628.08ZM127.769 625.94H126.349V622.7H123.509V621.4H126.349V619.54H123.509V618.22H126.349V616.32H127.769V625.94ZM121.029 617.98H114.729V616.74H122.449V621.56H116.189V624H119.489C120.542 624 121.502 623.947 122.369 623.84C123.235 623.733 123.889 623.587 124.329 623.4V624.6C123.902 624.787 123.242 624.94 122.349 625.06C121.469 625.167 120.475 625.22 119.369 625.22H114.769V620.38H121.029V617.98ZM127.769 626.84V631.64H126.309V628.14H115.329V626.84H127.769Z" fill="#191919"/>
<rect x="193.5" y="542.5" width="159" height="44" rx="19.5" stroke="#D9D9D9"/>
<path d="M219 565.5H213V563.5H219V557.5H221V563.5H227V565.5H221V571.5H219V565.5Z" fill="#A8A8A8"/>
<path d="M249.9 561.8H247.78V565.82H246.34V557.32H247.78V560.38H249.9V561.8ZM239.7 562.14C239.22 563.047 238.56 563.793 237.72 564.38C236.893 564.953 235.94 565.313 234.86 565.46V564.08C236.1 563.893 237.093 563.353 237.84 562.46C238.587 561.553 239.007 560.42 239.1 559.06H235.04V557.76H244.36V559.06H240.56C240.52 559.767 240.413 560.4 240.24 560.96L244.82 563.98L244.1 565.12L239.7 562.14ZM241.82 566.38C243.673 566.38 245.167 566.64 246.3 567.16C247.433 567.667 248 568.453 248 569.52C248 570.587 247.433 571.373 246.3 571.88C245.167 572.387 243.673 572.64 241.82 572.64C239.967 572.64 238.473 572.387 237.34 571.88C236.207 571.373 235.64 570.587 235.64 569.52C235.64 568.453 236.207 567.667 237.34 567.16C238.473 566.64 239.967 566.38 241.82 566.38ZM241.82 571.38C243.193 571.38 244.313 571.22 245.18 570.9C246.047 570.58 246.48 570.12 246.48 569.52C246.48 568.907 246.047 568.44 245.18 568.12C244.313 567.8 243.193 567.64 241.82 567.64C240.447 567.64 239.327 567.8 238.46 568.12C237.593 568.44 237.16 568.907 237.16 569.52C237.16 570.12 237.593 570.58 238.46 570.9C239.327 571.22 240.447 571.38 241.82 571.38ZM262.578 572.68V557.32H264.038V572.68H262.578ZM259.238 561.52C259.238 563.56 258.911 565.347 258.258 566.88C257.605 568.4 256.671 569.58 255.458 570.42C254.258 571.26 252.838 571.68 251.198 571.68V570.24C252.545 570.24 253.711 569.887 254.698 569.18C255.685 568.473 256.438 567.473 256.958 566.18C257.491 564.873 257.758 563.34 257.758 561.58V559.3H251.198V557.92H259.238V561.52ZM274.836 561.36V560H278.536V557.32H279.976V565.96H278.536V561.36H274.836ZM271.156 562.18C270.649 563.1 269.989 563.86 269.176 564.46C268.362 565.06 267.429 565.44 266.376 565.6V564.22C267.296 564.033 268.089 563.62 268.756 562.98C269.436 562.327 269.949 561.527 270.296 560.58C270.656 559.62 270.842 558.587 270.856 557.48L272.296 557.56C272.296 558.787 272.116 559.913 271.756 560.94L276.296 564.22L275.496 565.3L271.156 562.18ZM273.856 566.52C275.736 566.52 277.242 566.773 278.376 567.28C279.522 567.773 280.096 568.54 280.096 569.58C280.096 570.62 279.522 571.393 278.376 571.9C277.242 572.393 275.736 572.64 273.856 572.64C271.976 572.64 270.469 572.393 269.336 571.9C268.202 571.393 267.636 570.62 267.636 569.58C267.636 568.54 268.202 567.773 269.336 567.28C270.469 566.773 271.976 566.52 273.856 566.52ZM273.856 571.38C275.256 571.38 276.389 571.227 277.256 570.92C278.136 570.613 278.576 570.167 278.576 569.58C278.576 568.993 278.136 568.547 277.256 568.24C276.376 567.933 275.242 567.78 273.856 567.78C272.469 567.78 271.336 567.933 270.456 568.24C269.589 568.547 269.156 568.993 269.156 569.58C269.156 570.167 269.589 570.613 270.456 570.92C271.336 571.227 272.469 571.38 273.856 571.38ZM293.189 562.18C292.349 563.567 291.329 564.667 290.129 565.48C288.929 566.293 287.682 566.7 286.389 566.7V565.26C287.442 565.26 288.455 564.913 289.429 564.22C290.402 563.513 291.235 562.56 291.929 561.36C292.635 560.16 293.122 558.84 293.389 557.4L294.869 557.7C294.655 558.833 294.309 559.92 293.829 560.96L300.269 565.56L299.489 566.74L293.189 562.18ZM300.669 570.48V571.9H286.109V570.48H292.649V565.98H294.109V570.48H300.669ZM316.507 571.9H301.947V570.48H308.487V566.52H302.967V557.92H315.487V566.52H309.947V570.48H316.507V571.9ZM314.047 565.12V559.34H304.387V565.12H314.047ZM329.885 565.68V557.32H331.345V565.68H329.885ZM322.585 557.5C323.505 557.5 324.305 557.667 324.985 558C325.678 558.32 326.205 558.773 326.565 559.36C326.938 559.947 327.125 560.62 327.125 561.38C327.125 562.14 326.938 562.813 326.565 563.4C326.205 563.987 325.678 564.447 324.985 564.78C324.305 565.1 323.505 565.26 322.585 565.26C321.665 565.26 320.858 565.1 320.165 564.78C319.485 564.447 318.958 563.987 318.585 563.4C318.225 562.813 318.045 562.14 318.045 561.38C318.045 560.62 318.225 559.947 318.585 559.36C318.958 558.773 319.485 558.32 320.165 558C320.858 557.667 321.665 557.5 322.585 557.5ZM322.585 558.76C321.651 558.76 320.898 558.993 320.325 559.46C319.765 559.927 319.485 560.567 319.485 561.38C319.485 562.193 319.765 562.833 320.325 563.3C320.898 563.767 321.651 564 322.585 564C323.505 564 324.245 563.767 324.805 563.3C325.378 562.833 325.665 562.193 325.665 561.38C325.665 560.567 325.378 559.927 324.805 559.46C324.245 558.993 323.505 558.76 322.585 558.76ZM319.245 572.44V566.58H331.345V572.44H319.245ZM329.885 567.88H320.685V571.14H329.885V567.88Z" fill="#191919"/>
<rect x="236.5" y="365.5" width="108" height="44" rx="19.5" stroke="#D9D9D9"/>
<path d="M262 388.5H256V386.5H262V380.5H264V386.5H270V388.5H264V394.5H262V388.5Z" fill="#A8A8A8"/>
<path d="M280.1 382.32V388.48H291.36V389.88H278.66V380.92H291.2V382.32H280.1ZM277.64 394.9V393.48H292.2V394.9H277.64ZM306.618 388.12V395.68H305.178V380.32H306.618V386.68H308.738V388.12H306.618ZM299.998 393.34C300.691 393.34 301.385 393.273 302.078 393.14C302.771 393.007 303.338 392.833 303.778 392.62V393.98C303.351 394.22 302.791 394.407 302.098 394.54C301.405 394.66 300.698 394.72 299.978 394.72H294.198V387.02H300.798V382.3H294.158V380.92H302.238V388.38H295.638V393.34H299.998ZM322.456 388.12V395.68H321.016V380.32H322.456V386.68H324.576V388.12H322.456ZM318.096 380.92V394.72H310.056V380.92H318.096ZM316.656 393.32V382.32H311.496V393.32H316.656Z" fill="#191919"/>
<rect x="21.5" y="424.5" width="92" height="44" rx="19.5" stroke="#D9D9D9"/>
<path d="M47 447.5H41V445.5H47V439.5H49V445.5H55V447.5H49V453.5H47V447.5Z" fill="#A8A8A8"/>
<path d="M74.88 442.1H72.26L72.18 440.8H74.88V439.32H76.3V447.82H74.88V445.92H72.18L72.26 444.6H74.88V442.1ZM71.74 443.38C71.74 444.14 71.56 444.813 71.2 445.4C70.84 445.987 70.32 446.447 69.64 446.78C68.9733 447.1 68.1933 447.26 67.3 447.26C66.3933 447.26 65.6 447.1 64.92 446.78C64.2533 446.447 63.7333 445.987 63.36 445.4C63 444.813 62.82 444.14 62.82 443.38C62.82 442.62 63 441.947 63.36 441.36C63.7333 440.773 64.2533 440.32 64.92 440C65.6 439.667 66.3933 439.5 67.3 439.5C68.1933 439.5 68.9733 439.667 69.64 440C70.32 440.32 70.84 440.773 71.2 441.36C71.56 441.947 71.74 442.62 71.74 443.38ZM64.28 443.38C64.28 444.193 64.5533 444.833 65.1 445.3C65.6467 445.753 66.38 445.98 67.3 445.98C68.2067 445.98 68.9333 445.753 69.48 445.3C70.04 444.833 70.32 444.193 70.32 443.38C70.32 442.567 70.04 441.933 69.48 441.48C68.9333 441.013 68.2067 440.78 67.3 440.78C66.38 440.78 65.6467 441.013 65.1 441.48C64.5533 441.933 64.28 442.567 64.28 443.38ZM70.28 448.38C72.12 448.38 73.6067 448.64 74.74 449.16C75.8733 449.667 76.44 450.453 76.44 451.52C76.44 452.573 75.8733 453.36 74.74 453.88C73.6067 454.387 72.12 454.64 70.28 454.64C68.4267 454.64 66.94 454.387 65.82 453.88C64.7 453.36 64.14 452.573 64.14 451.52C64.14 450.453 64.7 449.667 65.82 449.16C66.94 448.64 68.4267 448.38 70.28 448.38ZM70.28 453.38C71.64 453.38 72.7467 453.22 73.6 452.9C74.4667 452.58 74.9 452.12 74.9 451.52C74.9 450.907 74.4667 450.44 73.6 450.12C72.7467 449.8 71.64 449.64 70.28 449.64C68.92 449.64 67.8067 449.8 66.94 450.12C66.0867 450.44 65.66 450.907 65.66 451.52C65.66 452.12 66.0867 452.58 66.94 452.9C67.8067 453.22 68.92 453.38 70.28 453.38ZM78.4379 442.54V441.2H82.6579V439.14H84.1179V441.2H88.3579V442.54H78.4379ZM91.6579 446.98V454.68H90.2179V439.32H91.6579V445.52H93.7379V446.98H91.6579ZM84.0979 452.38C86.3779 452.353 87.9779 452.12 88.8979 451.68V453.06C88.4446 453.273 87.7846 453.44 86.9179 453.56C86.0512 453.667 85.0579 453.72 83.9379 453.72H78.4779V452.38H82.6579V449.86C81.5912 449.767 80.7512 449.447 80.1379 448.9C79.5379 448.34 79.2379 447.627 79.2379 446.76C79.2379 445.787 79.6112 445.013 80.3579 444.44C81.1046 443.867 82.1246 443.58 83.4179 443.58C84.6979 443.58 85.7112 443.867 86.4579 444.44C87.2046 445.013 87.5779 445.787 87.5779 446.76C87.5779 447.64 87.2712 448.36 86.6579 448.92C86.0446 449.467 85.1912 449.787 84.0979 449.88V452.38ZM80.6179 446.76C80.6179 447.32 80.8579 447.78 81.3379 448.14C81.8179 448.487 82.5112 448.66 83.4179 448.66C84.3246 448.66 85.0179 448.487 85.4979 448.14C85.9779 447.78 86.2179 447.32 86.2179 446.76C86.2179 446.2 85.9779 445.74 85.4979 445.38C85.0179 445.02 84.3246 444.84 83.4179 444.84C82.5112 444.84 81.8179 445.02 81.3379 445.38C80.8579 445.74 80.6179 446.2 80.6179 446.76Z" fill="#191919"/>
<rect x="126.5" y="483.5" width="92" height="44" rx="19.5" stroke="#D9D9D9"/>
<path d="M152 506.5H146V504.5H152V498.5H154V504.5H160V506.5H154V512.5H152V506.5Z" fill="#A8A8A8"/>
<path d="M182.9 503.34H180.78V508.86H179.34V498.32H180.78V501.9H182.9V503.34ZM168.2 506.58V498.74H176.66V506.58H168.2ZM169.64 500.06V505.28H175.22V500.06H169.64ZM176.04 507.76C175.88 508.413 175.68 508.98 175.44 509.46L181.42 512.32L180.84 513.64L174.64 510.58C173.907 511.46 172.987 512.153 171.88 512.66C170.787 513.167 169.66 513.427 168.5 513.44V512.02C169.42 512.007 170.307 511.82 171.16 511.46C172.027 511.087 172.767 510.56 173.38 509.88C173.993 509.187 174.393 508.387 174.58 507.48L176.04 507.76ZM197.038 506.32H195.578V498.32H197.038V506.32ZM188.658 503.1C188.165 503.927 187.505 504.6 186.678 505.12C185.851 505.64 184.911 505.967 183.858 506.1V504.74C185.098 504.54 186.098 504.033 186.858 503.22C187.618 502.393 188.045 501.34 188.138 500.06H184.038V498.76H193.478V500.06H189.618C189.578 500.7 189.465 501.313 189.278 501.9L193.978 504.82L193.278 505.96L188.658 503.1ZM197.038 507.02V513.44H184.778V507.02H186.198V508.86H195.598V507.02H197.038ZM195.598 510.1H186.198V512.18H195.598V510.1Z" fill="#191919"/>
<rect x="231.5" y="483.5" width="92" height="44" rx="19.5" stroke="#D9D9D9"/>
<path d="M257 506.5H251V504.5H257V498.5H259V504.5H265V506.5H259V512.5H257V506.5Z" fill="#A8A8A8"/>
<path d="M279.72 503.18C278.88 504.567 277.86 505.667 276.66 506.48C275.46 507.293 274.213 507.7 272.92 507.7V506.26C273.973 506.26 274.987 505.913 275.96 505.22C276.933 504.513 277.767 503.56 278.46 502.36C279.167 501.16 279.653 499.84 279.92 498.4L281.4 498.7C281.187 499.833 280.84 500.92 280.36 501.96L286.8 506.56L286.02 507.74L279.72 503.18ZM287.2 511.48V512.9H272.64V511.48H279.18V506.98H280.64V511.48H287.2ZM303.038 507.5H288.478V506.32H295.038V504.78H289.598V498.54H302.058V499.62H291.018V501.16H301.798V502.16H291.018V503.72H302.178V504.78H296.478V506.32H303.038V507.5ZM295.758 508.7C297.625 508.7 299.151 508.9 300.338 509.3C301.525 509.7 302.118 510.333 302.118 511.2C302.118 512.053 301.525 512.68 300.338 513.08C299.151 513.493 297.625 513.7 295.758 513.7C293.891 513.7 292.365 513.493 291.178 513.08C289.991 512.68 289.398 512.053 289.398 511.2C289.398 510.333 289.991 509.7 291.178 509.3C292.365 508.9 293.891 508.7 295.758 508.7ZM295.758 512.54C297.105 512.54 298.245 512.433 299.178 512.22C300.125 511.993 300.598 511.653 300.598 511.2C300.598 510.747 300.125 510.407 299.178 510.18C298.231 509.953 297.091 509.84 295.758 509.84C294.411 509.84 293.265 509.953 292.318 510.18C291.371 510.407 290.898 510.747 290.898 511.2C290.898 511.653 291.371 511.993 292.318 512.22C293.265 512.433 294.411 512.54 295.758 512.54Z" fill="#191919"/>
<path d="M22.3667 248.883L21.05 252H19.7833L24.8333 240.333H26.0333L31.1167 252H29.8167L28.5 248.883H22.3667ZM25.45 241.65L22.7667 247.883H28.1L25.45 241.65ZM33.6338 240.333V252H32.4338V240.333H33.6338ZM37.8238 242.7V243.817H47.1404V244.683H36.6571V241.9H45.8071V240.817H36.6404V239.95H46.9571V242.7H37.8238ZM35.7238 246.683V245.733H47.8571V246.683H35.7238ZM37.7571 250.433V251.517H47.2071V252.383H36.6071V249.633H45.8238V248.583H36.5738V247.733H46.9904V250.433H37.7571ZM52.2846 241.433V240.55H55.7012V239.417H56.9179V240.55H60.4179V241.433H52.2846ZM64.9346 243.7H63.2012V247.25H62.0012V239.767H63.2012V242.55H64.9346V243.7ZM60.9012 246.6C60.5346 246.767 59.979 246.894 59.2346 246.983C58.4901 247.061 57.6346 247.1 56.6679 247.1H52.2179V246.217H55.7179V245.333C54.8068 245.289 54.1012 245.122 53.6012 244.833C53.1012 244.533 52.8512 244.15 52.8512 243.683C52.8512 243.161 53.1568 242.756 53.7679 242.467C54.3901 242.167 55.2457 242.017 56.3346 242.017C57.4123 242.017 58.2568 242.167 58.8679 242.467C59.4901 242.756 59.8012 243.161 59.8012 243.683C59.8012 244.15 59.5457 244.533 59.0346 244.833C58.5346 245.122 57.8235 245.289 56.9012 245.333V246.217C58.8457 246.194 60.179 246.028 60.9012 245.717V246.6ZM53.9846 243.683C53.9846 243.928 54.1901 244.128 54.6012 244.283C55.0123 244.439 55.5901 244.517 56.3346 244.517C57.079 244.517 57.6512 244.439 58.0512 244.283C58.4623 244.128 58.6679 243.928 58.6679 243.683C58.6679 243.439 58.4623 243.239 58.0512 243.083C57.6512 242.928 57.079 242.85 56.3346 242.85C55.5901 242.85 55.0123 242.928 54.6012 243.083C54.1901 243.239 53.9846 243.439 53.9846 243.683ZM63.5512 251.55V252.367H53.1679V249.8H62.0179V248.817H53.1346V248H63.2012V250.55H54.3512V251.55H63.5512ZM77.5495 246.883H65.4161V245.85H68.1661V244.133C67.5328 243.944 67.0384 243.683 66.6828 243.35C66.3273 243.017 66.1495 242.611 66.1495 242.133C66.1495 241.322 66.6495 240.717 67.6495 240.317C68.6495 239.906 69.9273 239.7 71.4828 239.7C73.0384 239.7 74.3106 239.906 75.2995 240.317C76.2995 240.717 76.7995 241.322 76.7995 242.133C76.7995 242.611 76.6217 243.017 76.2661 243.35C75.9106 243.683 75.4161 243.944 74.7828 244.133V245.85H77.5495V246.883ZM71.4828 240.733C70.305 240.733 69.3273 240.85 68.5495 241.083C67.7828 241.317 67.3995 241.667 67.3995 242.133C67.3995 242.6 67.7828 242.95 68.5495 243.183C69.3161 243.417 70.2939 243.533 71.4828 243.533C72.6606 243.533 73.6328 243.417 74.3995 243.183C75.1661 242.95 75.5495 242.6 75.5495 242.133C75.5495 241.667 75.1606 241.317 74.3828 241.083C73.6161 240.85 72.6495 240.733 71.4828 240.733ZM73.5828 245.85V244.4C72.9828 244.511 72.2828 244.567 71.4828 244.567C70.6939 244.567 69.9884 244.511 69.3661 244.4V245.85H73.5828ZM71.4828 248C73.0606 248 74.3384 248.178 75.3161 248.533C76.2939 248.878 76.7828 249.456 76.7828 250.267C76.7828 251.078 76.2939 251.661 75.3161 252.017C74.3384 252.383 73.0606 252.567 71.4828 252.567C69.905 252.567 68.6217 252.383 67.6328 252.017C66.655 251.661 66.1661 251.078 66.1661 250.267C66.1661 249.456 66.655 248.878 67.6328 248.533C68.6217 248.178 69.905 248 71.4828 248ZM71.4828 251.55C72.6384 251.55 73.5995 251.45 74.3661 251.25C75.1328 251.05 75.5161 250.722 75.5161 250.267C75.5161 249.822 75.1328 249.506 74.3661 249.317C73.5995 249.117 72.6384 249.017 71.4828 249.017C70.3273 249.017 69.3606 249.117 68.5828 249.317C67.8161 249.506 67.4328 249.822 67.4328 250.267C67.4328 250.722 67.8161 251.05 68.5828 251.25C69.3606 251.45 70.3273 251.55 71.4828 251.55ZM84.8477 241.85V242.983H78.3644V241.85H80.9977V239.733H82.1977V241.85H84.8477ZM90.2477 252.567H89.1144V246.2H86.9644V252.35H85.8311V239.833H86.9644V245.017H89.1144V239.767H90.2477V252.567ZM81.6644 244.1C82.2088 244.1 82.6922 244.256 83.1144 244.567C83.5477 244.867 83.8811 245.311 84.1144 245.9C84.3588 246.478 84.4811 247.178 84.4811 248C84.4811 248.822 84.3588 249.528 84.1144 250.117C83.8811 250.706 83.5477 251.156 83.1144 251.467C82.6922 251.767 82.2088 251.917 81.6644 251.917C80.8311 251.917 80.1588 251.572 79.6477 250.883C79.1366 250.194 78.8811 249.233 78.8811 248C78.8811 246.767 79.1366 245.811 79.6477 245.133C80.1588 244.444 80.8311 244.1 81.6644 244.1ZM81.6644 250.8C82.1644 250.8 82.5699 250.55 82.8811 250.05C83.1922 249.55 83.3477 248.867 83.3477 248C83.3477 247.133 83.1922 246.45 82.8811 245.95C82.5699 245.45 82.1644 245.2 81.6644 245.2C81.1644 245.2 80.7588 245.45 80.4477 245.95C80.1477 246.439 79.9977 247.122 79.9977 248C79.9977 248.878 80.1477 249.567 80.4477 250.067C80.7588 250.556 81.1644 250.8 81.6644 250.8ZM106.125 243.917V247.417H104.942V239.767H106.125V242.7H107.825V243.917H106.125ZM99.1919 246.417C98.6696 246.606 97.9641 246.7 97.0752 246.7H95.4252V240.117H99.1419V241.183H96.5752V245.617H97.3585C98.0919 245.617 98.703 245.528 99.1919 245.35V246.417ZM103.842 246.317C103.286 246.572 102.531 246.7 101.575 246.7H99.7419V240.117H103.525V241.183H100.892V245.617H101.825C102.647 245.617 103.32 245.494 103.842 245.25V246.317ZM106.125 248.167V252.533H104.925V249.283H95.8585V248.167H106.125ZM124.319 243.7H122.553V246.733H121.353V239.767H122.553V242.483H124.319V243.7ZM112.069 246.05V240.117H119.119V246.05H112.069ZM113.269 241.2V244.967H117.919V241.2H113.269ZM118.436 248.55C118.358 248.906 118.214 249.25 118.003 249.583L123.036 251.45L122.669 252.533L117.303 250.467C116.736 251.067 116.003 251.533 115.103 251.867C114.203 252.2 113.269 252.367 112.303 252.367V251.267C113.025 251.267 113.719 251.156 114.386 250.933C115.053 250.711 115.625 250.394 116.103 249.983C116.592 249.561 116.93 249.083 117.119 248.55H112.469V247.483H122.736V248.55H118.436ZM136.168 243.583V244.683H125.718V239.783H126.918V243.583H136.168ZM124.801 247.35V246.267H136.934V247.35H124.801ZM136.284 251.283V252.383H125.684V248.6H126.901V251.283H136.284ZM142.178 244.1V243.05H151.328V240.983H142.178V239.9H152.528V245.75H151.328V244.1H142.178ZM153.428 247.733H141.295V246.65H146.028V244.867H147.228V246.65H153.428V247.733ZM152.778 251.3V252.383H142.178V248.883H143.395V251.3H152.778ZM164.977 249.567V239.767H166.127V249.567H164.977ZM160.427 244.25V243.1H162.043V239.833H163.193V249.333H162.043V244.25H160.427ZM160.843 247.233C160.088 247.556 158.904 247.717 157.293 247.717H154.91V240.117H160.193V241.183H156.043V243.35H159.777V244.383H156.043V246.65H157.41C158.932 246.65 160.077 246.489 160.843 246.167V247.233ZM166.46 252.367H155.593V248.767H156.827V251.217H166.46V252.367ZM173.508 245C172.953 245.878 172.203 246.578 171.258 247.1C170.314 247.622 169.242 247.939 168.042 248.05V246.883C169.397 246.75 170.53 246.294 171.442 245.517C172.364 244.728 172.93 243.711 173.142 242.467H168.358V241.3H173.108V239.6H174.325V241.3H179.158V242.467H174.425C174.347 243.033 174.214 243.55 174.025 244.017L179.425 247.067L178.875 248.1L173.508 245ZM179.825 251.917H167.692V250.75H179.825V251.917ZM182.99 242.7V243.817H192.306V244.683H181.823V241.9H190.973V240.817H181.806V239.95H192.123V242.7H182.99ZM180.89 246.683V245.733H193.023V246.683H180.89ZM182.923 250.433V251.517H192.373V252.383H181.773V249.633H190.99V248.583H181.74V247.733H192.156V250.433H182.923ZM209.517 251.917H197.384V250.733H202.834V247.65H198.234V240.167H199.417V242.6H207.484V240.167H208.667V247.65H204.051V250.733H209.517V251.917ZM207.484 246.517V243.733H199.417V246.517H207.484ZM221.965 252.567H220.782V248.9H218.582L218.665 247.717H220.782V244.267H218.665L218.582 243.067H220.782V239.767H221.965V252.567ZM214.665 240.1C215.754 240.1 216.615 240.6 217.249 241.6C217.893 242.589 218.215 244.061 218.215 246.017C218.215 247.972 217.893 249.45 217.249 250.45C216.615 251.439 215.754 251.933 214.665 251.933C213.565 251.933 212.693 251.439 212.049 250.45C211.404 249.45 211.082 247.972 211.082 246.017C211.082 244.061 211.404 242.589 212.049 241.6C212.693 240.6 213.565 240.1 214.665 240.1ZM214.665 250.783C215.377 250.783 215.943 250.389 216.365 249.6C216.799 248.811 217.015 247.617 217.015 246.017C217.015 244.428 216.799 243.239 216.365 242.45C215.943 241.65 215.377 241.25 214.665 241.25C213.943 241.25 213.365 241.65 212.932 242.45C212.499 243.239 212.282 244.428 212.282 246.017C212.282 247.617 212.493 248.811 212.915 249.6C213.349 250.389 213.932 250.783 214.665 250.783ZM225.83 241.433V246.567H235.214V247.733H224.63V240.267H235.08V241.433H225.83ZM223.78 251.917V250.733H235.914V251.917H223.78ZM248.279 246.933H247.062V239.767H248.279V246.933ZM243.529 241.117H237.545V240.117H244.729V243.85H238.779V245.6H241.995C242.884 245.6 243.679 245.55 244.379 245.45C245.09 245.339 245.64 245.189 246.029 245V246.017C245.64 246.206 245.084 246.356 244.362 246.467C243.64 246.567 242.829 246.617 241.929 246.617H237.579V242.883H243.529V241.117ZM248.279 247.5V252.367H238.062V247.5H239.245V248.867H247.079V247.5H248.279ZM247.079 249.867H239.245V251.35H247.079V249.867ZM260.26 252.583V239.767H261.477V252.567L260.26 252.583ZM255.894 250.6C256.471 250.6 257.044 250.544 257.61 250.433C258.188 250.311 258.666 250.156 259.044 249.967V251.133C258.677 251.333 258.205 251.489 257.627 251.6C257.06 251.711 256.482 251.767 255.894 251.767H250.91V240.183H252.144V250.6H255.894ZM274.325 246.267V252.567H273.125V239.767H274.325V245.067H276.092V246.267H274.325ZM268.808 250.617C269.386 250.617 269.964 250.561 270.542 250.45C271.12 250.328 271.592 250.172 271.958 249.983V251.15C271.603 251.339 271.131 251.489 270.542 251.6C269.953 251.711 269.358 251.767 268.758 251.767H263.992V240.267H271.008V241.417H265.208V250.617H268.808ZM277.823 252.083C277.568 252.083 277.351 252 277.173 251.833C277.007 251.656 276.923 251.433 276.923 251.167C276.923 250.911 277.007 250.7 277.173 250.533C277.351 250.356 277.568 250.267 277.823 250.267C278.079 250.267 278.29 250.356 278.457 250.533C278.634 250.7 278.723 250.911 278.723 251.167C278.723 251.433 278.634 251.656 278.457 251.833C278.29 252 278.079 252.083 277.823 252.083Z" fill="#A8A8A8"/>
<rect x="20" y="124" width="360" height="5" fill="#E2E2E2"/>
<rect x="20" y="124" width="240" height="5" fill="url(#paint0_linear_176_1106)"/>
<path d="M29.9999 83L31.7749 84.775L23.5499 93L31.7749 101.225L29.9999 103L19.9999 93L29.9999 83Z" fill="#1F1F1F"/>
<path d="M124.483 705.267V711.567H123.283V698.767H124.483V704.067H126.25V705.267H124.483ZM118.967 709.6C119.544 709.6 120.122 709.544 120.7 709.433C121.278 709.322 121.75 709.178 122.117 709V710.15C121.761 710.35 121.294 710.506 120.717 710.617C120.139 710.717 119.55 710.767 118.95 710.767H114.15V699.183H115.367V709.6H118.967ZM132.548 701.9C131.97 702.433 131.215 702.85 130.282 703.15C129.359 703.439 128.393 703.594 127.382 703.617V702.567C128.115 702.544 128.837 702.433 129.548 702.233C130.27 702.022 130.887 701.728 131.398 701.35C131.909 700.961 132.226 700.506 132.348 699.983H127.598V698.95H137.998V699.983H133.648C133.593 700.394 133.482 700.739 133.315 701.017L138.332 702.667L137.998 703.667L132.548 701.9ZM133.398 707.017C134.798 707.05 135.932 707.25 136.798 707.617C137.665 707.972 138.098 708.522 138.098 709.267C138.098 710.078 137.609 710.661 136.632 711.017C135.654 711.383 134.376 711.567 132.798 711.567C131.22 711.567 129.937 711.383 128.948 711.017C127.97 710.661 127.482 710.078 127.482 709.267C127.482 708.522 127.915 707.972 128.782 707.617C129.659 707.25 130.798 707.05 132.198 707.017V705.667H126.732V704.633H138.865V705.667H133.398V707.017ZM136.832 709.267C136.832 708.822 136.448 708.506 135.682 708.317C134.915 708.117 133.954 708.017 132.798 708.017C131.643 708.017 130.676 708.117 129.898 708.317C129.132 708.506 128.748 708.822 128.748 709.267C128.748 709.722 129.132 710.05 129.898 710.25C130.676 710.45 131.643 710.55 132.798 710.55C133.954 710.55 134.915 710.45 135.682 710.25C136.448 710.05 136.832 709.722 136.832 709.267ZM151.563 711.567H150.413V698.767H151.563V711.567ZM148.63 698.833V711.35H147.48V705.4H145.73C145.696 707.278 145.446 708.672 144.98 709.583C144.513 710.483 143.83 710.933 142.93 710.933C142.008 710.933 141.308 710.456 140.83 709.5C140.363 708.533 140.13 707.039 140.13 705.017C140.13 701.072 141.063 699.1 142.93 699.1C144.674 699.1 145.602 700.794 145.713 704.183H147.48V698.833H148.63ZM142.93 709.783C143.485 709.783 143.896 709.394 144.163 708.617C144.441 707.828 144.58 706.628 144.58 705.017C144.58 703.406 144.441 702.211 144.163 701.433C143.896 700.644 143.485 700.25 142.93 700.25C142.374 700.25 141.958 700.644 141.68 701.433C141.413 702.211 141.28 703.406 141.28 705.017C141.28 706.628 141.413 707.828 141.68 708.617C141.958 709.394 142.374 709.783 142.93 709.783ZM167.374 705.267V711.567H166.174V698.767H167.374V704.067H169.141V705.267H167.374ZM161.857 709.617C162.435 709.617 163.013 709.561 163.591 709.45C164.168 709.328 164.641 709.172 165.007 708.983V710.15C164.652 710.339 164.18 710.489 163.591 710.6C163.002 710.711 162.407 710.767 161.807 710.767H157.041V699.267H164.057V700.417H158.257V709.617H161.857ZM180.922 711.567H179.706V698.767H180.922V711.567ZM174.989 699.133C174.967 701.156 174.794 702.928 174.472 704.45L178.489 710L177.522 710.733L174.089 705.917C173.656 707.372 173.078 708.522 172.356 709.367C171.644 710.2 170.817 710.667 169.872 710.767V709.517C170.694 709.372 171.394 708.822 171.972 707.867C172.55 706.9 172.989 705.656 173.289 704.133C173.589 702.611 173.744 700.933 173.756 699.1L174.989 699.133ZM192.016 702.25C191.339 703.25 190.5 704.044 189.5 704.633C188.5 705.222 187.466 705.517 186.4 705.517V704.317C187.266 704.328 188.111 704.083 188.933 703.583C189.755 703.072 190.455 702.383 191.033 701.517C191.611 700.65 191.989 699.706 192.166 698.683L193.4 698.9C193.255 699.656 192.989 700.444 192.6 701.267L197.883 704.467L197.316 705.5L192.016 702.25ZM192.783 708.133V711.867H191.566V708.133H186.116V706.967H198.25V708.133H192.783ZM209.498 698.767H210.698V705.967H209.498V702.367H206.998V701.267H209.498V698.767ZM203.565 702.9C203.165 703.633 202.62 704.233 201.931 704.7C201.242 705.156 200.453 705.439 199.565 705.55V704.417C200.609 704.25 201.437 703.8 202.048 703.067C202.67 702.322 203.026 701.372 203.115 700.217H199.715V699.133H207.498V700.217H204.331C204.298 700.828 204.198 701.383 204.031 701.883L207.898 704.483L207.281 705.433L203.565 702.9ZM205.598 706.433C207.165 706.433 208.42 706.644 209.365 707.067C210.32 707.478 210.798 708.117 210.798 708.983C210.798 709.85 210.32 710.494 209.365 710.917C208.42 711.328 207.165 711.533 205.598 711.533C204.031 711.533 202.776 711.328 201.831 710.917C200.887 710.494 200.415 709.85 200.415 708.983C200.415 708.117 200.887 707.478 201.831 707.067C202.776 706.644 204.031 706.433 205.598 706.433ZM205.598 710.483C206.765 710.483 207.709 710.356 208.431 710.1C209.165 709.844 209.531 709.472 209.531 708.983C209.531 708.494 209.165 708.122 208.431 707.867C207.698 707.611 206.753 707.483 205.598 707.483C204.442 707.483 203.498 707.611 202.765 707.867C202.042 708.122 201.681 708.494 201.681 708.983C201.681 709.472 202.042 709.844 202.765 710.1C203.498 710.356 204.442 710.483 205.598 710.483ZM212.496 700.717V699.75H216.013V698.533H217.229V699.75H220.746V700.717H212.496ZM225.229 702.633H223.463V705.467H222.263V698.767H223.463V701.5H225.229V702.633ZM216.629 705.383C215.596 705.383 214.746 705.211 214.079 704.867C213.424 704.522 213.096 704.028 213.096 703.383C213.096 702.75 213.424 702.261 214.079 701.917C214.746 701.572 215.596 701.4 216.629 701.4C217.652 701.4 218.491 701.572 219.146 701.917C219.813 702.261 220.146 702.75 220.146 703.383C220.146 704.028 219.818 704.522 219.163 704.867C218.507 705.211 217.663 705.383 216.629 705.383ZM216.629 702.3C215.896 702.3 215.313 702.4 214.879 702.6C214.446 702.8 214.229 703.061 214.229 703.383C214.229 703.717 214.446 703.983 214.879 704.183C215.313 704.383 215.896 704.483 216.629 704.483C217.352 704.483 217.929 704.383 218.363 704.183C218.796 703.983 219.013 703.717 219.013 703.383C219.013 703.061 218.796 702.8 218.363 702.6C217.941 702.4 217.363 702.3 216.629 702.3ZM223.796 710.433V711.367H213.396V708.333H222.279V707.117H213.363V706.2H223.463V709.217H214.596V710.433H223.796ZM234.907 702.25C234.229 703.25 233.39 704.044 232.39 704.633C231.39 705.222 230.357 705.517 229.29 705.517V704.317C230.157 704.328 231.001 704.083 231.824 703.583C232.646 703.072 233.346 702.383 233.924 701.517C234.501 700.65 234.879 699.706 235.057 698.683L236.29 698.9C236.146 699.656 235.879 700.444 235.49 701.267L240.774 704.467L240.207 705.5L234.907 702.25ZM235.674 708.133V711.867H234.457V708.133H229.007V706.967H241.14V708.133H235.674ZM255.584 705.9V698.767H256.801V705.9H255.584ZM253.284 702.217C253.284 702.872 253.129 703.45 252.818 703.95C252.518 704.45 252.079 704.839 251.501 705.117C250.934 705.394 250.268 705.533 249.501 705.533C248.734 705.533 248.062 705.394 247.484 705.117C246.918 704.839 246.479 704.45 246.168 703.95C245.868 703.45 245.718 702.872 245.718 702.217C245.718 701.572 245.868 701 246.168 700.5C246.479 700 246.918 699.611 247.484 699.333C248.062 699.056 248.734 698.917 249.501 698.917C250.268 698.917 250.934 699.056 251.501 699.333C252.079 699.611 252.518 700 252.818 700.5C253.129 701 253.284 701.572 253.284 702.217ZM246.918 702.217C246.918 702.917 247.151 703.472 247.618 703.883C248.096 704.283 248.723 704.483 249.501 704.483C250.268 704.483 250.884 704.283 251.351 703.883C251.829 703.472 252.068 702.917 252.068 702.217C252.068 701.517 251.829 700.967 251.351 700.567C250.884 700.167 250.268 699.967 249.501 699.967C248.734 699.967 248.112 700.167 247.634 700.567C247.157 700.967 246.918 701.517 246.918 702.217ZM254.634 709.267C254.29 709.867 253.857 710.356 253.334 710.733C252.812 711.1 252.251 711.311 251.651 711.367L249.501 709.317C249.146 709.917 248.712 710.394 248.201 710.75C247.69 711.106 247.14 711.311 246.551 711.367V710.217C247.007 710.172 247.434 709.967 247.834 709.6C248.246 709.233 248.579 708.756 248.834 708.167C249.101 707.578 249.257 706.944 249.301 706.267L250.451 706.433C250.429 707 250.296 707.644 250.051 708.367L251.968 710.15C252.59 709.983 253.129 709.533 253.584 708.8C254.04 708.067 254.301 707.222 254.368 706.267L255.534 706.45C255.457 707.172 255.329 707.783 255.151 708.283L257.784 710.517L257.068 711.417L254.634 709.267ZM270.083 711.567H268.883V705.367H266.383C266.338 707.2 265.994 708.589 265.349 709.533C264.705 710.467 263.855 710.933 262.799 710.933C261.699 710.933 260.822 710.433 260.166 709.433C259.522 708.433 259.199 706.961 259.199 705.017C259.199 703.072 259.522 701.6 260.166 700.6C260.822 699.6 261.699 699.1 262.799 699.1C263.81 699.1 264.633 699.528 265.266 700.383C265.899 701.239 266.266 702.506 266.366 704.183H268.883V698.767H270.083V711.567ZM262.799 709.783C263.522 709.783 264.099 709.389 264.533 708.6C264.966 707.811 265.183 706.617 265.183 705.017C265.183 703.428 264.966 702.239 264.533 701.45C264.099 700.65 263.522 700.25 262.799 700.25C262.077 700.25 261.494 700.65 261.049 701.45C260.616 702.239 260.399 703.428 260.399 705.017C260.399 706.617 260.616 707.811 261.049 708.6C261.494 709.389 262.077 709.783 262.799 709.783ZM284.031 710.917H271.898V709.75H274.781V706.1C274.059 705.778 273.503 705.344 273.114 704.8C272.725 704.244 272.531 703.606 272.531 702.883C272.531 702.106 272.753 701.428 273.198 700.85C273.642 700.272 274.275 699.828 275.098 699.517C275.92 699.194 276.875 699.033 277.964 699.033C279.053 699.033 280.009 699.194 280.831 699.517C281.653 699.828 282.286 700.272 282.731 700.85C283.175 701.428 283.398 702.106 283.398 702.883C283.398 703.606 283.203 704.244 282.814 704.8C282.425 705.344 281.87 705.778 281.148 706.1V709.75H284.031V710.917ZM277.964 700.183C277.131 700.183 276.398 700.294 275.764 700.517C275.131 700.739 274.642 701.056 274.298 701.467C273.953 701.878 273.781 702.35 273.781 702.883C273.781 703.417 273.953 703.889 274.298 704.3C274.642 704.711 275.131 705.028 275.764 705.25C276.398 705.472 277.131 705.583 277.964 705.583C278.798 705.583 279.531 705.472 280.164 705.25C280.798 705.028 281.286 704.711 281.631 704.3C281.975 703.889 282.148 703.417 282.148 702.883C282.148 702.35 281.975 701.878 281.631 701.467C281.286 701.056 280.798 700.739 280.164 700.517C279.531 700.294 278.798 700.183 277.964 700.183ZM279.948 709.75V706.517C279.314 706.661 278.653 706.733 277.964 706.733C277.22 706.733 276.559 706.661 275.981 706.517V709.75H279.948ZM287.463 699.333L287.229 707.5H286.263L286.013 699.333H287.463ZM286.729 711.083C286.485 711.083 286.274 711 286.096 710.833C285.929 710.667 285.846 710.461 285.846 710.217C285.846 709.972 285.929 709.767 286.096 709.6C286.274 709.433 286.485 709.35 286.729 709.35C286.985 709.35 287.196 709.433 287.363 709.6C287.54 709.767 287.629 709.972 287.629 710.217C287.629 710.461 287.54 710.667 287.363 710.833C287.196 711 286.985 711.083 286.729 711.083Z" fill="#A8A8A8"/>
<path d="M18 764C18 747.431 31.4315 734 48 734H350C366.569 734 380 747.431 380 764C380 780.569 366.569 794 350 794H48C31.4315 794 18 780.569 18 764Z" fill="black"/>
<path d="M197.056 764.778V772.756H194.656V755.689H197.056V762.333H199.189V764.778H197.056ZM189.322 769.533C190.093 769.533 190.856 769.459 191.611 769.311C192.381 769.163 193.019 768.97 193.522 768.733V771.022C193.033 771.274 192.381 771.474 191.567 771.622C190.752 771.756 189.944 771.822 189.144 771.822H182.833V756.222H192.256V758.511H185.278V769.533H189.322ZM207.898 755.511C210.075 755.511 211.824 755.793 213.142 756.356C214.475 756.904 215.142 757.748 215.142 758.889C215.142 760.015 214.475 760.859 213.142 761.422C211.809 761.97 210.061 762.244 207.898 762.244C205.735 762.244 203.979 761.97 202.631 761.422C201.298 760.859 200.631 760.015 200.631 758.889C200.631 757.748 201.298 756.904 202.631 756.356C203.964 755.793 205.72 755.511 207.898 755.511ZM207.898 757.444C206.505 757.444 205.372 757.57 204.498 757.822C203.624 758.059 203.187 758.415 203.187 758.889C203.187 759.348 203.616 759.696 204.475 759.933C205.35 760.17 206.49 760.289 207.898 760.289C209.305 760.289 210.438 760.17 211.298 759.933C212.157 759.696 212.587 759.348 212.587 758.889C212.587 758.415 212.15 758.059 211.275 757.822C210.416 757.57 209.29 757.444 207.898 757.444ZM199.742 765.289V763.289H216.031V765.289H199.742ZM200.809 772.622V766.644H214.987V772.622H200.809ZM212.587 768.6H203.187V770.689H212.587V768.6Z" fill="white"/>
<defs>
<linearGradient id="paint0_linear_176_1106" x1="53.9759" y1="124" x2="58.8967" y2="155.75" gradientUnits="userSpaceOnUse">
<stop stop-color="#542BB4"/>
<stop offset="1" stop-color="#E95AA4"/>
</linearGradient>
</defs>
</svg>
